<svg width="134" height="25" fill="none" xmlns="http://www.w3.org/2000/svg"><path d="M115.497 3.143l-1.949 1.95 1.949 1.948 1.949-1.949-1.949-1.949z" fill="#000"/><path fill-rule="evenodd" clip-rule="evenodd" d="M11.598 0c4.539 0 8.23 3.667 8.23 8.206s-3.691 8.229-8.23 8.229H5.616L0 24.458V0h11.598z" fill="#FFCF5C"/><path d="M133.611 18.613h-3.048l-3.232-4.745v4.745h-2.682v-4.745l-3.232 4.745h-3.026l3.805-5.364-3.599-5.203h3.049l3.003 4.584V8.046h2.682v4.584l3.002-4.584h3.072l-3.622 5.203 3.828 5.364zm-19.483 0V8.046h2.727v10.567h-2.727zm-1.444-10.567v2.613h-3.301v7.954h-2.728v-7.954h-3.346V8.046h9.375zm-18.717 7.451c.566.548 1.296.822 2.168.822.85 0 1.58-.274 2.146-.822.589-.548.872-1.278.872-2.146 0-.867-.283-1.575-.872-2.122-.566-.571-1.297-.845-2.146-.845-.872 0-1.603.274-2.168.845-.566.547-.849 1.255-.849 2.122 0 .868.283 1.598.849 2.146zm5.186-7.395h2.805v10.522h-2.805v-1.255c-.849 1.027-2.028 1.552-3.56 1.552-1.438 0-2.687-.548-3.724-1.621-1.037-1.073-1.556-2.397-1.556-3.949s.519-2.876 1.556-3.948c1.037-1.073 2.286-1.598 3.724-1.598 1.532 0 2.711.502 3.56 1.53V8.101zm-10.492-.056v10.567h-2.727v-7.954H83v3.53c0 3.277-1.467 4.744-4.447 4.424v-2.568c.55.138.986.046 1.283-.275.298-.343.436-.917.436-1.719V8.046h8.39zm-11.575 0v10.567h-2.728V10.59h-4.194v8.023h-2.728V8.046h9.65zM61.132 18.613h-3.071l-3.232-4.745v4.745H52.17v-4.745l-3.232 4.745h-3.049l3.805-5.364-3.598-5.203h3.048l3.026 4.584V8.046h2.659v4.584l3.026-4.584h3.071l-3.622 5.203 3.828 5.364zm-19.483 0V8.046h2.728v10.567h-2.728zm-6.831-7.588c.619 0 1.146-.229 1.536-.642.413-.435.619-.962.619-1.604 0-.642-.206-1.192-.62-1.605-.389-.412-.916-.641-1.535-.641h-2.59v4.492h2.59zm0-7.22c1.421 0 2.613.481 3.599 1.444.963.963 1.444 2.132 1.444 3.53 0 1.398-.481 2.567-1.444 3.53-.986.963-2.178 1.444-3.599 1.444h-2.59v4.86h-2.934V3.804h5.524z" fill="#000"/><path fill-rule="evenodd" clip-rule="evenodd" d="M9.008 7.129h3.118l-6.51 9.306 3.392-9.306zm-.802 2.154H5.089L11.598 0 8.205 9.283z" fill="#000"/><path d="M43.006 3.143l-1.949 1.95 1.95 1.948 1.948-1.949-1.949-1.949z" fill="#000"/></svg>