<svg width="32" height="32" fill="none" xmlns="http://www.w3.org/2000/svg"><g clip-path="url(#clip0)"><path d="M16 32c8.837 0 16-7.164 16-16 0-8.837-7.163-16-16-16C7.165 0 .002 7.163.002 16c0 8.836 7.163 16 16 16z" fill="#E3B340"/><path d="M16.593 10.847V6.55h-2.774a1.492 1.492 0 00-.093.54c-.03.093-.063.16-.063.253-.285 1.594-1.112 2.705-2.514 3.313-.416.192-.798.22-1.21.192v3.464h2.038c.033 4.875.033 7.388.033 7.515v.29c.256 2.126 1.368 3.4 3.342 3.88.794.22 1.652.318 2.514.318a11.828 11.828 0 003.278-.572v-4.077c-.633.191-1.21.352-1.719.51-.986.287-1.813.097-2.485-.54-.063-.097-.157-.225-.19-.353a8.766 8.766 0 01-.154-1.557v-5.414h4.42v-3.465h-4.423z" fill="#000"/></g><defs><clipPath id="clip0"><path fill="#000" d="M0 0h32v32H0z"/></clipPath></defs></svg>