<svg width="127" height="22" viewBox="0 0 127 22" fill="none" xmlns="http://www.w3.org/2000/svg">
<g clip-path="url(#clip0)">
<path d="M14.5587 6.54883H11.4355V18.1346H19.8827V15.6266H14.5587V6.54883Z" fill="#FD0028"/>
<path d="M26.5553 18.1582H22.1074V6.54876H26.2599C28.0388 6.4422 29.7918 7.01319 31.1612 8.14528C31.7323 8.68927 32.1799 9.34792 32.4742 10.0773C32.7685 10.8066 32.9027 11.5899 32.8677 12.3748C32.9084 13.1189 32.7869 13.863 32.5117 14.5564C32.2365 15.2497 31.8139 15.8761 31.2728 16.3927C29.9854 17.558 28.2974 18.1898 26.5553 18.1582ZM25.2313 9.05739V15.6482H25.9039C26.3914 15.6946 26.8833 15.6433 27.3504 15.4974C27.8176 15.3515 28.2505 15.114 28.6234 14.7989C28.9504 14.4874 29.2059 14.1095 29.3724 13.691C29.5389 13.2725 29.6124 12.8233 29.588 12.3741C29.6116 11.9027 29.5382 11.4316 29.3722 10.9893C29.2063 10.5471 28.9512 10.1431 28.6227 9.80194C28.1966 9.43372 27.556 9.05874 26.0359 9.05874L25.2313 9.05739Z" fill="#FD0028"/>
<path d="M41.0007 18.3261C40.1202 18.327 39.2461 18.1766 38.4173 17.8815C37.6363 17.6069 36.9187 17.1796 36.307 16.6248C35.7156 16.0793 35.2446 15.418 34.9237 14.6828C34.6028 13.9475 34.4389 13.1541 34.4425 12.3528C34.4372 11.548 34.6001 10.7508 34.9208 10.0116C35.2414 9.27234 35.713 8.60709 36.3057 8.05779C37.6019 6.92912 39.2767 6.32272 41.0007 6.35789C42.7251 6.32353 44.4003 6.92979 45.6977 8.05779C46.2862 8.60803 46.7551 9.27189 47.0756 10.0086C47.3961 10.7453 47.5614 11.5392 47.5614 12.3416C47.5614 13.1441 47.3961 13.938 47.0756 14.6747C46.7551 15.4114 46.2862 16.0753 45.6977 16.6255C44.4007 17.7542 42.7253 18.3608 41.0007 18.3261ZM41.0007 9.1861C40.0923 9.1685 39.2129 9.5038 38.55 10.1205C38.2416 10.4191 37.9971 10.7766 37.8312 11.1713C37.6653 11.566 37.5815 11.99 37.5848 12.4177C37.5796 12.8268 37.663 13.2323 37.8296 13.6066C37.9961 13.9809 38.2418 14.3153 38.55 14.5871C39.2116 15.2061 40.0917 15.5424 41.0007 15.5235C41.4462 15.5363 41.8899 15.4619 42.3064 15.3044C42.7229 15.147 43.1041 14.9097 43.4282 14.606C44.0347 14.0069 44.3884 13.2009 44.4173 12.3521C44.4139 11.9331 44.3244 11.5191 44.1543 11.1355C43.9843 10.7519 43.7372 10.4068 43.4282 10.1212C42.7652 9.51944 41.8991 9.18606 41.0007 9.18677V9.1861Z" fill="#FD0028"/>
<path d="M93.9333 18.3261C92.2083 18.3621 90.5324 17.7551 89.2363 16.6249C88.6468 16.0752 88.177 15.4115 87.8559 14.6748C87.5348 13.938 87.3691 13.1438 87.3691 12.341C87.3691 11.5383 87.5348 10.744 87.8559 10.0073C88.177 9.27051 88.6468 8.60684 89.2363 8.05717C90.5331 6.92827 92.2087 6.32208 93.9333 6.35795C94.815 6.35677 95.6902 6.50718 96.5201 6.80252C97.301 7.07672 98.0186 7.50358 98.6303 8.05785C99.2266 8.60447 99.7008 9.26915 100.022 10.009C100.344 10.7488 100.505 11.5473 100.496 12.3529C100.496 13.1543 100.33 13.9471 100.009 14.6823C99.6873 15.4176 99.2175 16.0796 98.6283 16.6276C97.3322 17.7563 95.6572 18.3623 93.9333 18.3261ZM93.9333 9.18615C93.025 9.16878 92.1457 9.50404 91.4827 10.1206C91.1743 10.4193 90.9299 10.7767 90.7642 11.1714C90.5984 11.5662 90.5147 11.9901 90.5181 12.4177C90.513 12.8268 90.5965 13.2322 90.7629 13.6064C90.9293 13.9807 91.1748 14.3152 91.4827 14.5872C92.1445 15.2057 93.0244 15.542 93.9333 15.5236C94.8319 15.5487 95.7038 15.2186 96.3574 14.6061C96.6663 14.3156 96.9131 13.9663 97.0831 13.5791C97.253 13.1918 97.3426 12.7745 97.3465 12.3522C97.3427 11.9332 97.2531 11.5193 97.0831 11.1358C96.913 10.7522 96.6661 10.407 96.3574 10.1212C95.6954 9.52 94.8306 9.18663 93.9333 9.18683V9.18615Z" fill="#FD0028"/>
<path d="M79.5996 18.1579H75.1523V6.54849H79.3048C80.2473 6.53052 81.1867 6.66283 82.087 6.94035C82.8645 7.18641 83.5788 7.59748 84.1802 8.14501C84.7512 8.6891 85.1988 9.34777 85.4931 10.0771C85.7873 10.8064 85.9216 11.5896 85.8868 12.3745C85.9239 13.118 85.8011 13.8609 85.5266 14.5536C85.252 15.2464 84.8321 15.8733 84.2946 16.3925C83.0049 17.5394 81.3312 18.1687 79.5996 18.1579ZM78.2728 9.03617V15.627H78.9699C79.4571 15.6731 79.9486 15.6216 80.4154 15.4758C80.8821 15.3299 81.3147 15.0925 81.6874 14.7777C82.0061 14.461 82.2547 14.0818 82.4172 13.6642C82.5797 13.2466 82.6524 12.8 82.6309 12.3529C82.6614 11.8809 82.5914 11.4079 82.4255 10.9646C82.2595 10.5213 82.0013 10.1177 81.6676 9.78005C81.2388 9.41182 80.5962 9.03685 79.0808 9.03685L78.2728 9.03617Z" fill="#FD0028"/>
<path d="M64.1207 18.1589H60.8164L65.5135 6.54883H68.9723L73.5788 18.1569H70.2534L69.491 16.2016L69.3766 15.9246C68.6737 16.1124 67.9486 16.2056 67.2207 16.2016C66.4926 16.2066 65.7671 16.1134 65.0642 15.9246L64.9498 16.2016L64.1207 18.1582V18.1589ZM67.1989 10.0155L65.9178 13.6281C66.3439 13.7328 66.7818 13.7832 67.2207 13.7781C67.6675 13.7827 68.1132 13.7323 68.5475 13.6281L67.1989 10.0155Z" fill="#FD0028"/>
<path d="M52.4383 18.1374H49.4268V6.5293H54.26C55.0792 6.47372 55.9018 6.56667 56.6874 6.80361C57.1927 6.98156 57.6478 7.27674 58.0148 7.66456C58.3819 8.05237 58.6503 8.52161 58.7977 9.0332C58.9178 9.44837 58.9788 9.8782 58.9788 10.3102C58.9783 10.9297 58.8317 11.5406 58.5506 12.0938C58.2696 12.6632 57.8247 13.137 57.2722 13.4552C57.2388 13.4755 57.2116 13.4958 57.1851 13.5147L57.1674 13.5275C57.1476 13.5431 57.1224 13.5627 57.0911 13.5836L60.0121 18.132H56.6623L54.4376 14.4585C54.1653 14.4795 53.8767 14.5004 53.6051 14.5004C53.294 14.5004 52.4444 14.4362 52.4383 14.4362V18.1367V18.1374ZM52.4383 9.03591V11.9492C52.8172 12.0604 53.21 12.1181 53.6051 12.1209C54.1638 12.1543 54.7218 12.0435 55.2245 11.7992C55.4469 11.6702 55.6294 11.4831 55.7521 11.2583C55.8749 11.0336 55.9333 10.7797 55.9209 10.5243C55.9566 10.2433 55.8961 9.95855 55.749 9.7158C55.602 9.47305 55.377 9.28642 55.1102 9.1859C54.6773 9.07383 54.2306 9.02355 53.7834 9.03658L52.4383 9.03591Z" fill="#FD0028"/>
<path d="M0 18.1356H8.4472V15.6276H3.1232V13.5649H8.2457V11.057H3.1232V9.03681H8.44788V6.5498H0V18.1356Z" fill="#FD0028"/>
<path d="M124.7 3.04883H104.585V4.57306H124.7V3.04883Z" fill="#FD0028"/>
<path d="M123.874 20.4541H104.585V21.9783H123.874V20.4541Z" fill="#FD0028"/>
<path d="M123.897 2.76562H122.334V21.9786H123.897V2.76562Z" fill="#FD0028"/>
<path d="M106.148 3.04883H104.585V22.0004H106.148V3.04883Z" fill="#FD0028"/>
<path d="M123.897 0H122.334V5.07334H123.897V0Z" fill="#FD0028"/>
<path d="M127 3.04883H121.553V4.57306H127V3.04883Z" fill="#FD0028"/>
<path d="M120.804 16.2375H119.056L118.654 15.2004L118.607 15.0423C118.236 15.1316 117.855 15.1769 117.473 15.1774C117.091 15.1715 116.71 15.1188 116.34 15.0207L116.293 15.1781L115.868 16.2145H114.12L116.6 10.0615H118.394L120.803 16.2368L120.804 16.2375ZM117.473 11.9101L116.789 13.8255C117.014 13.8704 117.243 13.893 117.473 13.893C117.703 13.8941 117.933 13.8715 118.158 13.8255L117.473 11.9101Z" fill="#FD0028"/>
<path d="M111.853 10.0615V13.8451C111.853 14.105 111.753 14.3551 111.573 14.5437C111.393 14.7323 111.146 14.845 110.885 14.8585H110.696C110.437 14.8385 110.194 14.7238 110.015 14.5366C109.836 14.3494 109.734 14.103 109.728 13.8451L109.704 13.462V10.0615H108.051V13.5748C108.046 13.9476 108.117 14.3175 108.259 14.6627C108.401 15.0078 108.611 15.3212 108.877 15.5842C109.129 15.8187 109.427 15.9997 109.752 16.1159C110.076 16.232 110.422 16.281 110.766 16.2598C111.111 16.2778 111.455 16.2273 111.78 16.1113C112.104 15.9953 112.402 15.8161 112.655 15.5842C113.189 15.0496 113.486 14.3269 113.483 13.5748V10.0615H111.853Z" fill="#FD0028"/>
</g>
<defs>
<clipPath id="clip0">
<rect width="127" height="22" fill="white"/>
</clipPath>
</defs>
</svg>
