<svg width="137" height="22" viewBox="0 0 137 22" fill="none" xmlns="http://www.w3.org/2000/svg">
<g clip-path="url(#clip0)">
<path d="M23.1746 11.0471C23.1416 17.1197 17.9257 22.0312 11.5379 21.9998C5.13353 21.9842 -0.0328547 17.0256 0.000157327 10.9529C0.0331694 4.88025 5.24907 -0.0312337 11.6369 0.000149565C18.0412 0.0315329 23.2076 4.9744 23.1746 11.0471Z" fill="#221F1F"/>
<path d="M6.09255 8.45842C6.48865 8.5369 6.91786 8.08183 7.06639 7.43844C7.21492 6.79511 7.01684 6.1988 6.62074 6.12037C6.35661 6.05761 6.07605 6.26161 5.86147 6.59111C6.043 6.68527 6.12554 6.88927 6.043 7.07753C5.96046 7.23445 5.77893 7.32861 5.61386 7.29726C5.53133 7.86216 5.72938 8.37999 6.09255 8.45842ZM4.19434 7.10894C4.50795 5.50838 5.48181 4.34721 6.35661 4.50413C7.24797 4.66104 7.69362 6.08896 7.38 7.68952C7.08289 9.29007 6.10904 10.4513 5.23422 10.2944C4.3429 10.1375 3.88073 8.70949 4.19434 7.10894ZM19.5284 8.45842C9.6413 14.7351 2.82434 11.5497 2.82434 11.5497C2.72531 13.7308 6.65373 20.4468 11.3745 20.541C16.0622 20.6195 19.5284 8.45842 19.5284 8.45842ZM5.1682 10.5454C6.20808 10.7337 7.33046 9.47839 7.67712 7.7366C8.02373 5.99486 7.46255 4.42567 6.43916 4.23737C5.39928 4.04907 4.27687 5.3044 3.93025 7.04618C3.56711 8.80365 4.12831 10.3728 5.1682 10.5454ZM8.71701 9.65098C9.06362 9.29007 9.45978 8.92916 9.90543 8.59966C11.9522 7.10894 14.1805 6.73235 14.9067 7.768C15.1873 8.17599 15.2038 8.72517 14.9893 9.33715C15.7155 8.19167 15.9466 7.14034 15.501 6.55971C14.7417 5.58687 12.4144 6.26161 10.2685 8.05043C9.6578 8.55258 9.14616 9.11748 8.71701 9.65098ZM10.9948 4.89642C12.6289 3.84508 15.4514 3.26449 16.9535 5.46132C16.0292 0.408603 12.1172 3.31156 10.9948 4.89642ZM22.8792 11.0475C22.8461 16.9633 17.7788 21.7335 11.5395 21.7022C5.31675 21.6708 0.31543 16.8535 0.31543 10.9377C0.31543 7.10894 2.32916 4.34721 4.24386 2.87219C6.58769 1.06765 8.18882 2.44852 8.75 3.49986C8.68396 3.06049 8.48588 1.77378 7.97424 0.847968C9.12961 0.471369 10.3676 0.267378 11.655 0.283069C17.8778 0.330144 22.8957 5.13179 22.8792 11.0475ZM15.765 16.4612C14.5436 18.5482 13.025 20.2586 11.3249 20.2272C10.2685 20.2115 9.2617 19.8192 8.33735 19.2229C8.63447 18.7208 10.4831 16.163 15.765 16.4612Z" fill="#00A046"/>
<path d="M127.394 12.1771L129.143 8.1287L130.893 12.1771H127.394ZM131.685 5.64941H126.618L121.303 16.4767H125.545L126.469 14.3583H131.833L132.742 16.4767H137L131.685 5.64941Z" fill="black"/>
<path d="M92.8467 8.4268H97.5675V16.4609H101.446V8.4268H106.184V5.64941H92.8467V8.4268Z" fill="black"/>
<path d="M83.8016 12.1457H90.4701V9.98028H83.8016V8.37972H91.6089V5.64941H80.0547V16.4609H91.8898V13.7934H83.8016V12.1457Z" fill="black"/>
<path d="M78.387 7.57947V5.64941H65.8093V8.4268H72.5765L65.71 14.5465V16.4609H78.4196V13.6835H71.6027L78.387 7.57947Z" fill="black"/>
<path d="M56.9952 13.9191C54.5194 13.9191 53.0008 13.1188 53.0008 11.0632C53.0008 9.00758 54.5029 8.223 56.9952 8.223C59.4544 8.223 61.006 9.00758 61.006 11.0632C61.006 13.1188 59.471 13.9191 56.9952 13.9191ZM56.9952 5.38281C52.0269 5.38281 48.9238 7.20303 48.9238 11.0632C48.9238 14.9076 52.0269 16.7593 56.9952 16.7593C61.9798 16.7593 65.0834 14.9233 65.0834 11.0632C65.0834 7.20303 61.9798 5.38281 56.9952 5.38281Z" fill="black"/>
<path d="M38.4593 8.19151H42.2226C43.3945 8.19151 43.8402 8.78782 43.8402 9.55666C43.8402 10.0745 43.5101 11.0003 42.1566 11.0003H38.4593V8.19151ZM47.7851 9.55666C47.7851 7.26569 46.2501 5.63379 42.5693 5.63379H34.6299V16.461H38.4593V13.4012H40.9351L43.6916 16.461H48.4784L45.2762 12.9461C46.8608 12.3027 47.7851 10.8905 47.7851 9.55666Z" fill="black"/>
<path d="M116.104 5.64941L111.383 9.60369V5.64941H107.554V16.4609H111.383V13.4795L112.836 12.3184L116.12 16.4609H120.907L115.608 10.0744L121.088 5.64941H116.104Z" fill="black"/>
</g>
<defs>
<clipPath id="clip0">
<rect width="137" height="22" fill="white"/>
</clipPath>
</defs>
</svg>
