<svg width="108" height="18" viewBox="0 0 108 18" fill="none" xmlns="http://www.w3.org/2000/svg">
<path d="M12.3397 1.86586H11.7427V0.365723H8.09414V1.86586H7.43076C3.45051 1.86586 0.929688 3.82256 0.929688 7.34462V7.99685C0.929688 11.4537 3.38418 13.4104 7.4971 13.4104H8.09414V14.9105H11.7427V13.4104H12.3397C16.3863 13.4104 18.9072 11.4537 18.9072 7.93163V7.2794C18.9072 3.69211 16.3863 1.80064 12.3397 1.80064V1.86586ZM7.29809 10.8667C5.50698 10.8667 4.57825 9.75788 4.57825 7.80118V7.54029C4.57825 5.58359 5.50698 4.47479 7.29809 4.47479H8.09414V10.8015H7.29809V10.8667ZM15.2586 7.80118C15.2586 9.75788 14.2635 10.8667 12.4724 10.8667H11.7427V4.47479H12.4724C14.2635 4.47479 15.2586 5.51837 15.2586 7.54029V7.80118ZM26.337 4.54002C22.8211 4.54002 20.4329 6.69239 20.4329 9.75788C20.4329 12.8886 22.8211 14.9758 26.337 14.9758C29.8528 14.9758 32.241 12.8886 32.241 9.75788C32.241 6.69239 29.8528 4.54002 26.337 4.54002ZM26.337 12.3668C24.8112 12.3668 23.8161 11.3232 23.8161 9.75788C23.8161 8.19252 24.8112 7.14895 26.337 7.14895C27.7964 7.14895 28.8578 8.19252 28.8578 9.75788C28.8578 11.3232 27.7964 12.3668 26.337 12.3668ZM45.5748 4.73569H41.7273L37.747 9.43177V4.73569H34.4301V14.7801H37.747V10.084L41.7273 14.7801H45.8402L41.1966 9.56222L45.5748 4.73569ZM51.8769 7.14895C53.0046 7.14895 53.8007 7.80119 54.066 8.71431H57.3829C57.1175 6.23582 55.0611 4.54002 51.9432 4.54002C48.4273 4.54002 46.0392 6.69239 46.0392 9.75788C46.0392 12.8886 48.4273 14.9758 52.0096 14.9758C55.0611 14.9758 57.1175 13.2799 57.3166 10.8667H54.066C53.9325 11.3312 53.644 11.738 53.247 12.0219C52.85 12.3058 52.3675 12.4502 51.8769 12.432C50.4175 12.432 49.4224 11.3232 49.4224 9.82311C49.4224 8.19252 50.4175 7.14895 51.8769 7.14895ZM58.2453 4.73569V7.40984H61.9602V14.7801H65.2771V7.40984H68.9256V4.80091H58.3116L58.2453 4.73569ZM77.0188 4.67046C75.692 4.67046 74.498 5.19225 73.7019 6.1706V4.73569H70.5841V17.7804H73.9009V13.6061C74.697 14.3887 75.7584 14.9105 77.0188 14.9105C80.0703 14.9105 82.1268 12.7582 82.1268 9.75788C82.1268 6.75761 80.0703 4.67046 77.0188 4.67046ZM76.2228 12.432C74.7633 12.432 73.7019 11.3232 73.7019 9.82311C73.7019 8.19252 74.7633 7.14895 76.2228 7.14895C77.7485 7.14895 78.7436 8.19252 78.7436 9.75788C78.7436 11.3232 77.7485 12.3668 76.2228 12.3668V12.432ZM89.6229 4.54002C86.107 4.54002 83.7189 6.69239 83.7189 9.75788C83.7189 12.8886 86.107 14.9758 89.6229 14.9758C93.1388 14.9758 95.527 12.8886 95.527 9.75788C95.527 6.69239 93.1388 4.54002 89.5566 4.54002H89.6229ZM89.6229 12.3668C88.0972 12.3668 87.1021 11.3232 87.1021 9.75788C87.1021 8.19252 88.0972 7.14895 89.6229 7.14895C91.0824 7.14895 92.1438 8.19252 92.1438 9.75788C92.1438 11.3232 91.0824 12.3668 89.6229 12.3668ZM96.4557 4.73569V7.40984H100.104V14.7801H103.421V7.40984H107.07V4.80091H96.4557V4.73569Z" fill="black"/>
</svg>
