<svg width="105" height="27" viewBox="0 0 105 27" fill="none" xmlns="http://www.w3.org/2000/svg">
<g clip-path="url(#clip0)">
<path d="M0.669922 13.4147C0.669922 6.34518 6.97513 0.561035 14.6815 0.561035H90.1883C97.8947 0.561035 104.2 6.34518 104.2 13.4147C104.2 20.4842 97.8947 26.2684 90.1883 26.2684H0.669922V13.4147Z" fill="#FF680A"/>
<path d="M42.2373 9.84431H47.1414V19.0561H49.3988V9.84431H54.3028V8.05908H42.2373V9.84431Z" fill="white"/>
<path d="M24.5676 17.2006H23.6335V7.98877H21.2982V17.2006H14.0589V7.98877H11.7236V17.9861C11.7236 18.5573 12.2685 19.0572 12.8913 19.0572H23.5556V20.6996H25.7352V18.3431C25.7352 18.3431 25.7352 18.3431 25.7352 18.2717C25.7352 18.2717 25.7352 18.2717 25.7352 18.2003C25.6574 17.629 25.1125 17.2006 24.5676 17.2006Z" fill="white"/>
<path d="M39.124 8.0592C39.124 8.0592 38.3456 7.91638 37.7229 8.55907L30.1722 15.6286V7.98779H27.8369V18.1993C27.8369 18.7706 28.5375 19.2704 29.0045 19.2704C29.4716 19.2704 29.5494 19.199 29.783 18.9848C29.8608 18.9848 29.8608 18.9134 29.9386 18.842L38.0342 11.344V18.9848H40.3695V9.05893C40.2916 8.48766 39.7468 8.0592 39.124 8.0592Z" fill="white"/>
<path d="M90.1889 15.4858C90.0332 15.7714 89.7996 16.057 89.5661 16.2713C89.1769 16.6283 88.7877 16.9139 88.3206 17.0568C87.8536 17.271 87.3865 17.3424 86.7638 17.3424C86.2189 17.3424 85.674 17.271 85.2069 17.0568C84.7399 16.8425 84.3507 16.6283 83.9615 16.2713C83.5723 15.9142 83.2609 15.4858 83.1052 15.0573C82.8717 14.6288 82.7938 14.129 82.8717 13.4863C82.8717 12.915 82.9495 12.4152 83.1831 11.9867C83.3387 11.5582 83.6501 11.1298 84.0393 10.7727C84.4285 10.4157 84.8177 10.1301 85.2848 9.98724C85.7518 9.77302 86.2189 9.70161 86.8416 9.70161C87.3865 9.70161 87.9314 9.77302 88.3985 9.98724C88.8655 10.2015 89.2547 10.4157 89.644 10.7727L91.4343 9.48738V9.41597C90.8116 8.8447 90.1889 8.41624 89.4104 8.1306C88.632 7.84497 87.8536 7.70215 86.9195 7.70215C86.0632 7.70215 85.2069 7.84497 84.4285 8.1306C83.6501 8.41624 83.0274 8.8447 82.4046 9.41597C81.7819 9.98724 81.3927 10.5585 81.0813 11.2726C80.7699 11.9867 80.6143 12.7008 80.6143 13.5577C80.6143 14.4146 80.7699 15.1287 81.0813 15.8428C81.3927 16.5569 81.8597 17.1996 82.4046 17.7708C83.0274 18.3421 83.6501 18.7706 84.4285 19.0562C85.2069 19.3418 85.9854 19.4847 86.9195 19.4847C87.7757 19.4847 88.632 19.3418 89.4104 19.0562C90.1889 18.7706 90.8116 18.3421 91.4343 17.7708C91.7457 17.4852 91.9792 17.1996 92.2127 16.9139L90.1889 15.4858Z" fill="white"/>
<path d="M78.0449 7.98779L75.009 13.9862L71.1948 7.98779H68.626L73.8414 16.1284C73.3743 16.9139 72.5181 17.4138 71.5061 17.4138C70.8834 17.4138 70.3385 17.271 69.7936 17.1282V19.0562C70.2607 19.2704 70.9612 19.3419 71.8953 19.3419C73.6079 19.3419 75.0869 18.3421 76.0988 16.3427L80.5358 8.0592H78.0449V7.98779Z" fill="white"/>
<path d="M62.7102 7.98779H57.4948C56.872 7.98779 56.3271 8.48766 56.3271 9.05893V19.0562H58.6624V15.5572H62.6324C64.1892 15.5572 65.3568 15.2001 66.2131 14.486C67.0693 13.7719 67.5364 12.8436 67.5364 11.7011C67.5364 10.5585 67.0693 9.70161 66.2131 8.98752C65.4347 8.34484 64.1892 7.98779 62.7102 7.98779ZM62.4767 13.7005H58.6624V9.84443H62.4767C64.267 9.84443 65.279 10.5585 65.279 11.7725C65.279 12.9864 64.267 13.7005 62.4767 13.7005Z" fill="white"/>
</g>
<defs>
<clipPath id="clip0">
<rect width="103.53" height="25.7073" fill="white" transform="translate(0.669922 0.561035)"/>
</clipPath>
</defs>
</svg>
