<svg width="87" height="25" viewBox="0 0 87 25" fill="none" xmlns="http://www.w3.org/2000/svg">
<g clip-path="url(#clip0)">
<path d="M83.1762 18.9146C84.7392 18.9146 86.0057 20.1886 86.0057 21.7611C86.0057 23.3335 84.7392 24.6076 83.1762 24.6076H80.3467V21.7611C80.3467 20.1886 81.6132 18.9146 83.1762 18.9146Z" fill="#F05323"/>
<path d="M10.1033 6.2541H6.63942V0.561035H0.980469V6.2541V11.9472V15.4295C0.980469 20.499 5.06426 24.6074 10.1033 24.6074C15.1424 24.6074 19.2262 20.499 19.2262 15.4295C19.2238 10.3625 15.14 6.2541 10.1033 6.2541ZM10.1033 18.9143C8.19514 18.9143 6.64185 17.3517 6.64185 15.432V11.9496H10.1033C12.0115 11.9496 13.5648 13.5123 13.5648 15.432C13.5648 17.3517 12.0115 18.9143 10.1033 18.9143Z" fill="#451DA2"/>
<path d="M33.9369 11.947V12.8102V15.4293C33.9369 17.349 32.3836 18.9117 30.4754 18.9117C28.5672 18.9117 27.0139 17.349 27.0139 15.4293V12.8102V11.947V6.25391H21.3525V15.4318C21.3525 20.4988 25.4363 24.6097 30.4754 24.6097C35.5121 24.6097 39.5983 20.5012 39.5983 15.4318V6.25391H33.9393V11.947H33.9369Z" fill="#451DA2"/>
<path d="M74.6853 6.25391V11.947V12.8102V15.4293C74.6853 17.349 73.1323 18.9117 71.2239 18.9117C69.3159 18.9117 67.7625 17.349 67.7625 15.4293V12.8102V11.947V6.25391H62.1035V15.4318C62.1035 20.4988 66.1872 24.6097 71.2263 24.6097C76.2654 24.6097 80.3491 20.5012 80.3491 15.4318V6.25391H74.6853Z" fill="#451DA2"/>
<path d="M54.3121 6.25409H50.8508C45.814 6.25409 41.7275 10.3625 41.7275 15.4319C41.7275 20.499 45.8117 24.6098 50.8508 24.6098C55.8895 24.6098 59.9736 20.5014 59.9736 15.4319V11.9496V6.25409V0.561035H54.3121V6.25409ZM54.3121 15.4319C54.3121 17.3516 52.7587 18.9143 50.8508 18.9143C48.9424 18.9143 47.389 17.3516 47.389 15.4319C47.389 13.5122 48.9424 11.9496 50.8508 11.9496H54.3121V15.4319Z" fill="#451DA2"/>
</g>
<defs>
<clipPath id="clip0">
<rect width="85.26" height="24.0488" fill="white" transform="translate(0.980469 0.561035)"/>
</clipPath>
</defs>
</svg>
