<svg width="32" height="30" viewBox="0 0 32 30" fill="none" xmlns="http://www.w3.org/2000/svg">
<path d="M22.7853 1.54378C19.9042 1.93356 17.6737 4.49371 17.618 7.61196C21.605 8.31181 24.6162 10.8631 24.6162 15.4165C24.6162 19.8103 20.7871 23.3626 16.0008 23.3626C11.2425 23.3715 7.38549 19.3851 7.38549 14.2205C7.38549 7.09815 14.0212 1.18943 22.4135 1.37547C20.4526 0.542751 18.2871 0.0732422 16.0008 0.0732422C7.35762 0.0732422 0.34082 6.75267 0.34082 15.0001C0.34082 23.2474 7.35762 29.9269 16.0008 29.9269C24.644 29.9269 31.6608 23.2474 31.6608 15.0001C31.6608 9.0736 28.0362 3.95333 22.7853 1.54378Z" fill="#E60000"/>
</svg>
