<svg width="73" height="72" fill="none" xmlns="http://www.w3.org/2000/svg"><path d="M36.99 71.649c17.806 0 32.241-14.435 32.241-32.242 0-17.806-14.435-32.241-32.241-32.241-17.807 0-32.242 14.435-32.242 32.241 0 17.807 14.435 32.242 32.242 32.242z" fill="#FFCF5C"/><path d="M70.042 28.194L53.685 53.663l-3.22-2.068L66.246 27.02a2.23 2.23 0 013.08-.67l.351.225a1.18 1.18 0 01.364 1.62z" fill="#2F2E3B"/><path d="M44.636 67.724c6.943-10.783 8.928-13.873 8.928-13.873l-3.24-2.068-10.218 15.94h4.53z" fill="#fff"/><path d="M8.859 26.712l15.79 24.586-3.22 2.069-16.357-25.47a1.18 1.18 0 01.355-1.63l.352-.226a2.23 2.23 0 013.08.67z" fill="#2F2E3B"/><path d="M35.092 67.723L24.805 51.454l-3.22 2.068s1.935 3.254 8.983 14.201h4.524z" fill="#fff"/><path d="M21.477 52.246l-.285-.029.435-4.53-4.406-1.532.446-4.64-4.403-1.532.446-4.64-4.403-1.532.458-4.752.288.029-.438 4.527 4.403 1.53-.446 4.64 4.403 1.531-.446 4.64 4.406 1.535-.457 4.755zm29.755-1.022l-.095-.271 4.297-1.498-.444-4.642 4.404-1.53-.447-4.642 4.404-1.53-.447-4.639 4.51-1.567.093.271-4.294 1.492.446 4.64-4.404 1.532.447 4.64-4.404 1.532.444 4.642-4.51 1.57z" fill="#FFB037"/><path d="M9.1 26.623a2.556 2.556 0 00-3.54-.772l-.406.26a1.356 1.356 0 00-.406 1.874l1.702 2.652a.554.554 0 00.764.168l2.773-1.783a.55.55 0 00.164-.763L9.1 26.623zm17.967 21.93l-9.063 5.82a.61.61 0 10.658 1.025l9.063-5.82a.61.61 0 10-.658-1.025zm38.936-21.628a2.566 2.566 0 013.542-.772l.403.26a1.359 1.359 0 01.41 1.874l-1.703 2.653a.553.553 0 01-.763.164l-2.774-1.78a.553.553 0 01-.167-.763l1.052-1.636zM47.467 50.003l9.047 5.816a.61.61 0 10.658-1.023l-9.047-5.816a.609.609 0 10-.658 1.023zM39.956 15.35c2.128-1.693 2.557-10.244-3.223-13.628-5.78-3.384-14.745-.798-16.597 8.427-1.204 6.022 2.96 15.235-1.86 18.953a8.406 8.406 0 01-3.002 1.567.335.335 0 00-.037.64c1.912.642 5.406 1.25 7.675.031 8.994-4.827 3.957-14.112 6.336-18.144 1.728-2.95 5.003-1.774 5.294 1.152.184 1.895 5.414 1.002 5.414 1.002z" fill="#2F2E3B"/><path d="M26.273 16.502l2.35-1.37s.501-3.612 2.624-3.595c2.123.018 2.514 1.025 2.514 1.025l1.195-.204c-.907-3.26-2.672-4.15-4.922-4.032-2.666.112-4.654 3.338-3.76 8.176z" fill="#24242D"/><path d="M21.78 6.46a29.73 29.73 0 00-1.466 2.88C22.47.769 31.114-1.558 36.728 1.728c5.78 3.378 5.35 11.929 3.228 13.622 0 0-.236.04-.61.084l.178-3.986c.487-6.336-4.496-10.155-9.337-9.933-4.841.221-7.197 2.949-8.407 4.945z" fill="#464552"/><path d="M38.885 11.471h-.288c0-7.741-5.544-9.982-8.819-10.08v-.288c2.99.095 5.426 1.34 7.048 3.6 1.313 1.809 2.059 4.28 2.059 6.768z" fill="#464552"/><path d="M41.396 13.334a.576.576 0 01-.415-.973c.864-.902 1.152-2.915 1.023-3.667a.576.576 0 111.135-.204c.172.968-.13 3.421-1.325 4.668a.575.575 0 01-.418.176z" fill="#2F2E3B"/><path d="M32.94 13.28c.288-2.806 8.64-2.65 9.155 0 .516 2.649-9.394 2.272-9.155 0z" fill="#CECECE"/><path d="M27.028 53.3a52.775 52.775 0 00-5.792 2.512 1.327 1.327 0 00-.7 1.172v.835s.576-.976 1.19-.812c1.333.354 2.905 3.643 3.778 8.228.153.792.346 2.534.55 4.66a33.773 33.773 0 0010.936 1.817h.544V48.476c-3.465-.017-8.626 2.59-10.506 4.824z" fill="#25252D"/><path d="M53.823 55.811a52.807 52.807 0 00-5.78-2.511c-1.88-2.235-7.041-4.841-10.518-4.841v23.235c3.94-.056 7.84-.805 11.52-2.212.19-1.935.369-3.504.51-4.248.864-4.584 2.445-7.873 3.779-8.228.616-.164 1.19.72 1.19.72v-.743a1.326 1.326 0 00-.7-1.172z" fill="#25252D"/><path d="M42.375 54.276l-4.772 10.818-4.775-10.818v-9.253h9.547v9.253z" fill="#fff"/><path d="M32.831 49.734v1.76s2.497 2.405 4.92 2.336c2.421-.07 4.624-2.048 4.624-2.048v-2.048h-9.544z" fill="#CECECE"/><path d="M37.9 14.72c-2.92-1.824-8.188-1.729-12.413 3.07-2.782 3.168-4.228 7.387-3.827 10.235.4 2.848-.801 3.249-.268 5.74s3.205 3.338 3.205 3.338 25.407.089 26.076 0c.668-.09 3.628-2.131 3.824-5.65.758-13.617-7.119-16.688-10.457-17.569-3.194-.86-6.14.835-6.14.835z" fill="#2F2E3B"/><path d="M44.04 13.861c-3.194-.864-6.14.847-6.14.847.175-.043-.326.326-.15.288 4.354-.93 9.216.1 12.407 4.608 3.669 5.184 3.347 12.931 1.54 16.937a6.98 6.98 0 002.8-5.097c.758-13.62-7.12-16.693-10.457-17.583z" fill="#464552"/><path d="M50.203 35.712c1.54-1.59 2.94-2.114 4-1.49 1.06.626-.53 5.778-1.832 5.922-1.302.144-2.592-1.494-2.592-1.494l.424-2.938zm-25.721 0c-1.544-1.59-2.94-2.114-4-1.49-1.06.626.53 5.778 1.831 5.922 1.302.144 2.592-1.494 2.592-1.494l-.423-2.938z" fill="#fff"/><path d="M37.528 18.835c-2.701 0-13.51.743-13.311 12.185.158 9.164.423 10.656 1.35 12.978 1.51 3.764 8.352 7.992 12.318 7.977 3.966-.014 10.097-4.213 11.606-7.977.928-2.304 1.193-3.814 1.351-12.978.199-11.436-10.598-12.185-13.314-12.185z" fill="#fff"/><path d="M35.869 20.448c.15 2.629 1.212 7.165 5.555 8.671.386.133.778-.492.4-.757-.627-.444-2.842-1.915-2.675-4.453 0 0 2.264 3.554 5.392 4.441a.547.547 0 00.653-.288 1.86 1.86 0 00.159-.533s2.983 1.014 5.005.801c-.236-6.972-2.356-10.279-6.359-12.22-4.003-1.94-6.831-.53-6.831-.53s-1.486 1.573-1.3 4.868z" fill="#CECECE"/><path d="M37.545 38.796c-2.825 0-9.754 3.252-12.934 1.351 0 1.357.715 3.252.956 3.85 1.51 3.765 8.352 7.993 12.318 7.978h.032c3.974.015 10.097-4.213 11.606-7.977.463-1.171.766-2.4.899-3.652-5.38 1.002-10.069-1.55-12.877-1.55zm-3.557-14.964c2.745-2.563 3.54-4.997 3.54-4.997l.371-4.116s-2.551-2.335-8.124-.357c-3.012 1.072-8.21 4.91-8.352 11.938a60.053 60.053 0 01-.164 2.97s7.753-.781 12.73-5.438z" fill="#2F2E3B"/><path d="M19.77 60.96c-.127.614-.194 2.818-.23 5.677 2.104 1.27 4.354 2.532 6.724 3.324-.608-4.37-1.411-8.868-2.304-10.636a6.565 6.565 0 00-2.304-2.471c-1.624.711-1.547 2.474-1.886 4.107zm31.082-1.94c-.703 1.512-1.417 6.048-1.982 10.532 2.362-.89 4.608-2.304 6.67-3.66-.06-2.855-.15-4.992-.288-5.594-.368-1.638-.524-3.11-2.151-3.79a6.12 6.12 0 00-2.25 2.512z" fill="#fff"/><path d="M24.214 44.697a.577.577 0 01-.539-.368c-.135-.349-3.222-8.64 1.221-17.885a.577.577 0 011.04.498c-4.222 8.784-1.215 16.894-1.186 16.975a.576.576 0 01-.536.78z" fill="#2F2E3B"/><path d="M24.98 37.204a.577.577 0 01-.51-.309c-.898-1.693-1.333-8.064.974-10.944a.576.576 0 01.901.718c-1.964 2.47-1.607 8.283-.864 9.7a.577.577 0 01-.501.835zm25.142 10.978a.577.577 0 01-.556-.732c.032-.112 3.128-11.29-.504-20.128a.578.578 0 01.756-.779.576.576 0 01.307.341c3.787 9.216.686 20.408.55 20.88a.576.576 0 01-.553.418z" fill="#2F2E3B"/><path d="M39.288 71.59c-.288-.659-7.315-16.162-7.776-17.72-.44-1.466-.896-2.687.691-3.652l.288.153c-1.33.81-1.19 1.806-.705 3.418.46 1.538 7.698 17.522 7.776 17.684l-.274.118z" fill="#585860"/><path d="M37.773 67.65l-.262-.117.233-.51c.887-1.97 5.348-11.854 5.76-13.234.484-1.612.749-2.525-.576-3.335l.288-.155c1.587.962 1.014 2.105.576 3.571-.412 1.365-4.527 10.503-5.777 13.271l-.242.51zm-10.777 2.622c-.014-.098-1.313-9.856-1.987-11.255-.674-1.4-1.97-3.393-3.84-3.145l.335-.208c2.287-.288 3.35 2.368 3.767 3.232.694 1.44 1.958 10.944 2.016 11.341l-.29.035zm20.961-.332l-.288-.025c.04-.4.956-9.778 1.65-11.232.418-.864 1.82-3.456 3.816-3.234l.418.207c-1.87-.233-3.29 1.728-3.975 3.15-.685 1.423-1.612 11.04-1.621 11.135z" fill="#585860"/><path d="M36.33 19.509c0 2.632.804 7.223 5.057 8.971.378.156.804-.45.441-.734-.599-.478-2.727-2.071-2.42-4.608 0 0 2.063 3.677 5.133 4.74a.547.547 0 00.668-.253c.089-.165.153-.341.19-.524 0 0 3.234 1.304 5.265 1.206.158-6.975-2.16-10.388-5.973-12.672-2.684-1.615-6.941-.639-6.941-.639s-1.42 1.218-1.42 4.513z" fill="#2F2E3B"/><path d="M21.737 26.458c1.184-6.986 5.78-10.466 8.793-11.537 3.83-1.365 6.235-.682 7.364-.124v-.078s-2.546-2.335-8.119-.357c-3.012 1.072-8.21 4.91-8.352 11.938a60.053 60.053 0 01-.164 2.97s.348-2.034.478-2.812z" fill="#464552"/><path d="M31.944 15.062c-2.65.945-7.223 4.32-7.352 10.504 0 .037.09.092.09.08 1.039-6.146 5.275-9.15 7.925-10.08 2.272-.809 3.971-.8 5.144-.559.017-.04.132-.022.15-.066a.416.416 0 000-.196c-1.133-.42-3.091-.702-5.957.317z" fill="#464552"/><path d="M30.798 39.707a.844.844 0 100-1.688.844.844 0 000 1.688zm13.547-.067a.844.844 0 100-1.687.844.844 0 000 1.687z" fill="#CECECE"/><path d="M35.362 30.528c.162.81-.288 1.835-.288 1.835s-4.703-1.118-6.514-1.066c-.864.023-2.304.683-2.304.683s1.368-2.192 2.592-2.27c1.866-.112 6.514.818 6.514.818zm4.743.228c-.158.812.288 1.834.288 1.834s4.7-1.132 6.512-1.086c.864.02 2.304.677 2.304.677s-1.374-2.189-2.606-2.264c-1.852-.115-6.498.838-6.498.838zm-13.503 2.94c-.329.136.187.893.863.77a13.889 13.889 0 014.032-.266c1.78.127 3.966 1.541 4.182 1.68.216.137.288 0 .136-.2-.153-.198-2.126-2.14-4.35-2.459a10.147 10.147 0 00-4.863.475z" fill="#2F2E3B"/><path d="M32.796 35.04c.053-.932-.709-1.733-1.701-1.79-.993-.055-1.84.655-1.893 1.587-.053.932.709 1.733 1.702 1.79.992.056 1.84-.654 1.892-1.587zm16.036-1.344c.328.132-.179.697-.864.766-.827.083-1.895.233-3.86.45-1.773.198-4.123.829-4.337.964-.213.135-.288 0-.138-.196.15-.196 2.154-1.267 4.37-1.644 2.577-.455 4.63-.435 4.829-.34z" fill="#2F2E3B"/><path d="M39.311 44.479h-1.552l1.22-3.528-3.153 4.62 1.495.002-1.164 3.525 3.154-4.62z" fill="#464552"/><path d="M29.24 35.364a.426.426 0 100-.853.426.426 0 000 .853zm5.244-2.837l-.254-.133c.256-.763.397-1.56.418-2.364h.288c-.049.973-.288 2.16-.452 2.497z" fill="#fff"/></svg>