<svg width="60" height="60" fill="none" xmlns="http://www.w3.org/2000/svg"><g clip-path="url(#clip0)"><path d="M60 30c0 16.569-13.431 30-30 30-1.56 0-3.092-.119-4.587-.348a29.88 29.88 0 01-3.977-.891C10.462 55.497 2.119 46.125.348 34.587A30.342 30.342 0 010 30.066V30C0 13.431 13.431 0 30 0a29.881 29.881 0 0114.989 4.008 30.119 30.119 0 0112.123 13.135A29.877 29.877 0 0160 30z" fill="#FFE662"/><path d="M52.04 26.48l-.484-8.65-.517-9.217-.003-.038a4.753 4.753 0 00-4.478-4.48l-1.569-.087-1.6-.09-6.087-.343-8.65-.486a3.542 3.542 0 00-2.709 1.034L0 30.066a30.34 30.34 0 00.348 4.52c1.77 11.539 10.114 20.911 21.088 24.175l29.571-29.574a3.54 3.54 0 001.034-2.707zm-8.354-8.103a4.902 4.902 0 11-6.932-6.933 4.903 4.903 0 116.932 6.933z" fill="#ECCE33"/><path d="M57.112 17.143l-.519-9.256a4.754 4.754 0 00-4.48-4.48l-3.167-.177-6.088-.342-8.65-.487A3.548 3.548 0 0031.5 3.435L.348 34.587c1.978 12.896 12.168 23.087 25.065 25.065L56.564 28.5a3.548 3.548 0 001.034-2.708l-.486-8.65zm-7.87.546a4.902 4.902 0 11-6.931-6.933 4.903 4.903 0 116.932 6.933z" fill="#E3B340"/><path d="M7.022 43.817c-.398-.398-.174-1.02.249-1.442l4.314-4.314c.41-.41 1.02-.15 1.417.248.46.46.647 1.07.274 1.442l-3.22 3.22 2.1 2.101 1.878-1.877c.373-.373.945-.224 1.343.174.335.336.56.908.149 1.318l-1.877 1.877 3.207 3.208c.398.398.112 1.081-.372 1.566-.486.485-1.17.771-1.567.373l-7.895-7.894zm7.137-7.162a.818.818 0 01.012-1.18l2.574-2.574c1.703-1.704 3.692-2.425 5.719-.398 1.392 1.392 1.554 2.822 1.019 4.028l4.264 1.231c.125.025.224.1.286.162.485.485.36 1.653-.211 2.225-.249.249-.584.386-.982.261l-5.01-1.604-.821.82 2.996 2.997c.398.398.112 1.082-.373 1.567-.485.485-1.168.77-1.566.373l-7.907-7.908zm3.046-.832l2.312 2.312 1.23-1.23c.697-.697.834-1.406-.036-2.276-.87-.87-1.58-.733-2.275-.037l-1.231 1.23zm10.106-5.906l1.865-1.864c.373-.373.945-.224 1.343.174.335.335.559.907.149 1.317l-1.865 1.865 2.113 2.114 3.332-3.333c.373-.372.983-.186 1.443.274.398.398.659 1.007.248 1.417l-4.426 4.426c-.422.423-1.044.647-1.442.25l-7.894-7.896c-.398-.397-.175-1.019.248-1.442l4.426-4.426c.41-.41 1.02-.149 1.417.249.46.46.647 1.07.274 1.442l-3.332 3.332 2.101 2.101zm7.449-7.447l1.865-1.864c.373-.373.945-.224 1.343.174.335.335.559.907.149 1.317l-1.865 1.865 2.113 2.114 3.332-3.332c.374-.373.983-.187 1.442.273.399.398.66 1.008.25 1.418l-4.427 4.426c-.423.422-1.044.646-1.442.248l-7.894-7.894c-.398-.398-.175-1.02.248-1.442l4.426-4.426c.41-.41 1.02-.15 1.417.248.46.46.647 1.07.274 1.443l-3.332 3.331 2.101 2.101z" fill="#000"/></g><defs><clipPath id="clip0"><path fill="#fff" d="M0 0h60v60H0z"/></clipPath></defs></svg>