<svg width="60" height="60" fill="none" xmlns="http://www.w3.org/2000/svg"><path d="M26.484 60l1.758-4.095V35.81l-1.758-2.294-2.276-8.79H3.726L0 33.517C0 48.056 11.945 60 26.484 60z" fill="#FFE29D"/><path d="M26.484 33.516v6.152a7.031 7.031 0 100 14.063V60c14.54 0 26.368-11.945 26.368-26.484l-3.275-1.758h-18.43l-4.663 1.758z" fill="#E1E6F0"/><path d="M52.852 14.18V7.148H45.82C45.82 3.271 42.667 0 38.79 0c-3.879 0-7.032 3.27-7.032 7.148h-5.274l-1.757 3.017v20.094l1.757 3.257h6.153a7.031 7.031 0 1014.062 0h6.153v-5.274c3.877 0 7.148-3.153 7.148-7.031 0-3.878-3.27-7.031-7.148-7.031z" fill="#FFBE40"/><path d="M26.484 13.3V7.149C11.944 7.148 0 18.976 0 33.516h6.27a7.031 7.031 0 0114.062 0h6.152v-6.153a7.031 7.031 0 000-14.062z" fill="#758190"/></svg>