<svg width="60" height="60" fill="none" xmlns="http://www.w3.org/2000/svg"><g clip-path="url(#clip0)"><path d="M27.336 4.346a4.096 4.096 0 11-8.192 0 4.096 4.096 0 018.192 0z" fill="#FFD8C1" stroke="#fff" stroke-width=".5"/><path d="M27.103 20.514h-7.726a2.647 2.647 0 01-2.647-2.647v-4.105a4.82 4.82 0 014.82-4.82h3.38a4.82 4.82 0 014.82 4.82v4.105s0 0 0 0a2.647 2.647 0 01-2.647 2.647z" fill="#C1C1C1" stroke="#fff" stroke-width=".5"/><path d="M17.412 9.431a4.096 4.096 0 11-8.192 0 4.096 4.096 0 018.192 0z" fill="#D47F6C" stroke="#fff" stroke-width=".5"/><path d="M17.18 25.6H9.452a2.647 2.647 0 01-2.647-2.648v-4.105a4.82 4.82 0 014.82-4.82h3.38a4.82 4.82 0 014.82 4.82v4.105s0 0 0 0a2.648 2.648 0 01-2.647 2.647z" fill="#9AAEB0" stroke="#fff" stroke-width=".5"/><path d="M44.185 60C52.919 60 60 52.92 60 44.185c0-8.734-7.08-15.815-15.815-15.815-8.734 0-15.815 7.08-15.815 15.815C28.37 52.919 35.45 60 44.185 60z" fill="#FFB300"/><path d="M44.184 28.37c-.613 0-1.217.036-1.811.104 7.881.898 14.004 7.59 14.004 15.711 0 8.122-6.123 14.813-14.004 15.711a15.97 15.97 0 001.81.104C52.919 60 60 52.92 60 44.185c0-8.734-7.08-15.815-15.815-15.815z" fill="#FFA000"/><path d="M44.185 56.378c6.734 0 12.193-5.46 12.193-12.193 0-6.734-5.459-12.193-12.193-12.193S31.992 37.45 31.992 44.185s5.46 12.193 12.193 12.193z" fill="#FFD54F"/><path d="M46.898 42.573a.879.879 0 00.88-.879v-.438a2.936 2.936 0 00-2.491-2.898v-1.289a.879.879 0 10-1.758 0v1.289a2.936 2.936 0 00-2.49 2.898v.877a2.935 2.935 0 002.93 2.931h1.693c.197 0 .358.16.358.358v1.692c0 .647-.527 1.174-1.174 1.174h-.877a1.175 1.175 0 01-1.173-1.174v-.438a.879.879 0 10-1.758 0v.438a2.936 2.936 0 002.49 2.899V51.3a.879.879 0 101.759 0v-1.288a2.936 2.936 0 002.49-2.899v-1.692a2.119 2.119 0 00-2.115-2.116h-1.693a1.175 1.175 0 01-1.173-1.173v-.877c0-.647.526-1.173 1.173-1.173h.877c.647 0 1.174.526 1.174 1.173v.438c0 .486.393.88.878.88z" fill="#000"/><path d="M10.856 18.257a4.096 4.096 0 11-8.192 0 4.096 4.096 0 018.192 0z" fill="#EBAD88" stroke="#fff" stroke-width=".5"/><path d="M10.624 34.425H2.897A2.647 2.647 0 01.25 31.778v-4.104a4.82 4.82 0 014.82-4.821h3.38a4.82 4.82 0 014.821 4.82v4.105s0 0 0 0a2.647 2.647 0 01-2.647 2.647z" fill="#585860" stroke="#fff" stroke-width=".5"/><path d="M52.185 17.015a.879.879 0 00-1.226.204l-.293.408c-.962-5.545-5.808-9.775-11.624-9.775a.879.879 0 100 1.757c5.083 0 9.293 3.798 9.949 8.704l-.742-.548a.879.879 0 10-1.044 1.413l2.235 1.651a.879.879 0 001.236-.195l1.712-2.393a.879.879 0 00-.203-1.226zM18.07 48.852a.879.879 0 10-1.414 1.044l.548.742c-4.906-.656-8.703-4.866-8.703-9.949a.879.879 0 10-1.758 0c0 5.816 4.23 10.662 9.776 11.624l-.409.292a.879.879 0 101.023 1.43l2.392-1.712a.88.88 0 00.196-1.237l-1.651-2.234z" fill="#E3B340"/></g><defs><clipPath id="clip0"><path fill="#fff" d="M0 0h60v60H0z"/></clipPath></defs></svg>