<svg width="60" height="56" fill="none" xmlns="http://www.w3.org/2000/svg"><path d="M47.215 22.833V.037h-34.43v22.796H0l30 33.13 30-33.13H47.215z" fill="#FFCF5C"/><path d="M60 22.833H47.213V.037H29.999v55.926l30-33.13z" fill="#E3B340"/><path d="M30 19.519c.816 0 1.423.241 2.116 1.476l.305.543 2.644-1.713-.239-.47c-.73-1.437-1.774-2.36-3.106-2.75v-2.158H30v5.072zm5.741 9.421c-.075-1.74-.675-2.905-2.005-3.895-.834-.632-1.324-.886-2.26-1.354l-1.272-.66a4.035 4.035 0 01-.204-.12v3.556c1.854.916 2.49 1.578 2.49 2.545 0 .646-.17 1.182-.498 1.584-.43.506-1.004.74-1.803.74a3.55 3.55 0 01-.189-.005v5.102h1.72v-2.14a5.096 5.096 0 002.589-1.55c.95-1.03 1.433-2.3 1.433-3.779v-.024z" fill="#FFCB5C"/><path d="M35.741 28.94c-.074-1.74-.675-2.905-2.005-3.896-.833-.63-1.324-.886-2.26-1.354l-1.272-.66c-.222-.12-.496-.309-.842-.547l-.034-.023c-.61-.477-.73-.892-.73-1.444 0-.826.629-1.498 1.402-1.498.816 0 1.424.242 2.117 1.476l.304.543 2.644-1.713-.238-.469c-.73-1.437-1.774-2.36-3.107-2.75v-2.159h-3.06v2.141c-1.973.608-3.312 2.432-3.312 4.594 0 1.419.453 2.482 1.433 3.353.878.756 1.535 1.158 2.922 1.788 2.085.993 2.79 1.672 2.79 2.69 0 .646-.171 1.182-.5 1.584-.43.505-1.003.74-1.802.74-1.506 0-2.343-.882-2.987-3.146l-.21-.737-2.805 1.698.083.404c.496 2.408 2.156 4.19 4.388 4.756v2.122h3.061v-2.14a5.096 5.096 0 002.59-1.55c.95-1.03 1.432-2.3 1.432-3.779v-.025z" fill="#000"/></svg>