<svg width="38" height="38" fill="none" xmlns="http://www.w3.org/2000/svg"><path d="M38 19.445a2.375 2.375 0 00-2.375-2.375H20.187s2.97-5.344 2.375-10.687c-.515-4.635-3.71-3.91-4.548-3.636a.297.297 0 00-.203.278c-.163 8.263-10.092 17.608-10.092 17.608v13.656l4.612 1.537a4.74 4.74 0 001.502.244h18.23a2.375 2.375 0 000-4.75h1.187a2.375 2.375 0 000-4.75h1.188a2.375 2.375 0 000-4.75h1.187A2.375 2.375 0 0038 19.445z" fill="#FBD2A0"/><path d="M35.625 20.04h-3.563a.594.594 0 00-.593.593v.594c0 .328.266.593.593.593h3.514c1.328 0 2.445-1.086 2.424-2.414a2.365 2.365 0 00-.173-.851 2.375 2.375 0 01-2.202 1.484zm-1.187 4.75h-2.376a.594.594 0 00-.593.593v.594c0 .328.266.593.593.593h2.326c1.328 0 2.446-1.086 2.424-2.414a2.365 2.365 0 00-.173-.851 2.375 2.375 0 01-2.202 1.484zm-1.188 4.75h-1.188a.594.594 0 00-.593.593v.594c0 .328.266.593.593.593h1.139c1.328 0 2.445-1.086 2.424-2.414a2.365 2.365 0 00-.173-.851 2.375 2.375 0 01-2.202 1.484zm1.014 3.265a2.375 2.375 0 01-2.202 1.484h-19L7.72 32.508v1.781l4.612 1.538c.485.161.992.243 1.502.243h18.18c1.328 0 2.446-1.086 2.424-2.414a2.369 2.369 0 00-.173-.851zM19.594 2.82s-.031-.112-.071-.279a4.222 4.222 0 00-1.509.206.297.297 0 00-.204.278c-.163 8.263-10.09 17.607-10.09 17.607v2.033c3.22-2.66 11.875-10.662 11.875-19.845z" fill="#F9BB70"/><path d="M7.719 17.664H.594a.594.594 0 00-.594.594v19c0 .328.266.594.594.594h7.125a.594.594 0 00.593-.594v-19a.594.594 0 00-.593-.594z" fill="#00A046"/><path d="M4.156 32.508c-.982 0-1.781.799-1.781 1.781 0 .982.799 1.781 1.781 1.781.982 0 1.782-.799 1.782-1.78 0-.983-.8-1.782-1.782-1.782z" fill="#EEEBEA"/><path d="M28.5 3.117c-1.1 0-2.078-1.494-2.078-2.672a.297.297 0 00-.594 0c0 1.178-.978 2.672-2.078 2.672a.297.297 0 000 .594c1.1 0 2.078 1.494 2.078 2.672a.297.297 0 00.594 0c0-1.178.978-2.672 2.078-2.672a.297.297 0 000-.594zM10.094 9.648c-1.1 0-2.078-1.494-2.078-2.671a.297.297 0 00-.594 0c0 1.177-.979 2.671-2.078 2.671a.297.297 0 000 .594c1.1 0 2.078 1.494 2.078 2.672a.297.297 0 00.594 0c0-1.178.978-2.672 2.078-2.672a.297.297 0 000-.594zm27.312 1.782c-1.1 0-2.078-1.494-2.078-2.672a.297.297 0 00-.594 0c0 1.178-.978 2.672-2.078 2.672a.297.297 0 000 .593c1.1 0 2.078 1.495 2.078 2.672a.297.297 0 10.594 0c0-1.178.979-2.672 2.078-2.672a.297.297 0 100-.593z" fill="#FFCF5C"/></svg>