<svg width="15" height="15" fill="none" xmlns="http://www.w3.org/2000/svg"><path d="M13.595 1.804a4.8 4.8 0 00-6.78 0L1 7.616a3.429 3.429 0 000 4.844 3.413 3.413 0 002.422 1.001c.877 0 1.755-.333 2.422-1.001l5.329-5.328c.388-.388.601-.904.602-1.453a2.057 2.057 0 00-3.508-1.453L4.782 7.71a.685.685 0 00.969.969l3.484-3.485a.686.686 0 01.969.969L4.877 11.49a2.057 2.057 0 01-2.907 0 2.058 2.058 0 010-2.906l5.813-5.813a3.429 3.429 0 014.844 0 3.402 3.402 0 011.003 2.422c0 .915-.356 1.775-1.003 2.422L6.814 13.43a.685.685 0 10.969.969l5.812-5.813A4.763 4.763 0 0015 5.195a4.76 4.76 0 00-1.405-3.391z" fill="#9D9D9D"/></svg>