<svg width="29" height="35" fill="none" xmlns="http://www.w3.org/2000/svg"><path d="M28.138 4.143L14.808.04C14.705 0 14.602 0 14.5 0c-.102 0-.205 0-.308.04L.862 4.144c-.43.143-.717.533-.717.984v10.39c0 14.95 13.904 19.4 14.047 19.442.103.02.206.041.308.041.102 0 .205-.02.308-.041.143-.041 14.047-4.491 14.047-19.441V5.127c0-.451-.287-.84-.717-.984z" fill="#FFE29D"/><path d="M28.855 5.127v10.39c0 14.95-13.904 19.4-14.047 19.442-.103.02-.206.041-.308.041V0a.8.8 0 01.308.04l13.33 4.103c.43.143.717.533.717.984z" fill="#FFCF5C"/><path d="M20.23 24.326a1.027 1.027 0 01-.603-.934v-1.23c0-.855-2.756-1.517-5.127-1.517s-5.127.662-5.127 1.518v1.23a1.027 1.027 0 01-1.703.77 10.147 10.147 0 01-3.424-7.62c0-5.654 4.6-10.254 10.254-10.254s10.254 4.6 10.254 10.254c0 2.926-1.248 5.703-3.424 7.62-.3.262-.729.331-1.1.163z" fill="#fff"/><path d="M19.627 22.163v1.23a1.027 1.027 0 001.703.77 10.147 10.147 0 003.424-7.62c0-5.654-4.6-10.254-10.254-10.254v14.356c2.371 0 5.127.662 5.127 1.518z" fill="#FFFCF7"/><path d="M14.5 18.594a4.106 4.106 0 01-4.102-4.102 4.106 4.106 0 014.102-4.101 4.106 4.106 0 014.102 4.101 4.106 4.106 0 01-4.102 4.102z" fill="#757575"/><path d="M14.5 26.797c-2.555 0-4.985-.932-6.843-2.626a1.025 1.025 0 01-.335-.758v-1.25c0-3.47 6.443-3.57 7.178-3.57.735 0 7.178.1 7.178 3.57v1.25c0 .289-.121.564-.335.758-1.858 1.694-4.288 2.626-6.843 2.626zm6.152-3.384h.02-.02z" fill="#757575"/><path d="M21.343 24.171c.213-.194.335-.47.335-.758v-1.25c0-3.47-6.443-3.57-7.178-3.57v8.204c2.555 0 4.985-.932 6.843-2.626z" fill="#000"/><path d="M18.602 14.492a4.106 4.106 0 00-4.102-4.101v8.203a4.106 4.106 0 004.102-4.102z" fill="#000"/></svg>