<svg width="30" height="30" fill="none" xmlns="http://www.w3.org/2000/svg"><path d="M15 0L7.5 15 15 30c8.284 0 15-6.716 15-15 0-8.284-6.716-15-15-15z" fill="#E3B340"/><path d="M0 15c0 8.284 6.716 15 15 15V0C6.716 0 0 6.716 0 15z" fill="#FFCF5C"/><path d="M15 3.516L9.258 15 15 26.484c6.343 0 11.484-5.141 11.484-11.484S21.343 3.516 15 3.516z" fill="#DFDFDF"/><path d="M3.516 15c0 6.343 5.141 11.484 11.484 11.484V3.516C8.657 3.516 3.516 8.657 3.516 15z" fill="#fff"/><path d="M17.486 16.243L15 13.757h-1.172L15 16.243l1.243 1.243 1.243-1.243z" fill="#3A3A3A"/><path d="M10.008 8.765l-1.243 1.243L15 16.243v-2.486l-4.992-4.992z" fill="#3A3A3A"/><path d="M20.013 8.744L15 13.757l-1.172 2.486H15l6.256-6.256-1.243-1.243z" fill="#393939"/><path d="M12.514 16.243l1.243 1.243L15 16.243v-2.486l-2.486 2.486zm3.365-10.97H15l-.586.88.586.878h.879V5.273z" fill="#3A3A3A"/><path d="M14.121 5.273H15v1.758h-.879V5.273zm1.758 17.696H15l-.586.879.586.879h.879v-1.758z" fill="#3A3A3A"/><path d="M14.121 22.969H15v1.758h-.879v-1.758zm-8.848-7.09V14.12h1.758v1.758H5.273zm17.696 0V14.12h1.758v1.758h-1.758z" fill="#3A3A3A"/></svg>