<svg width="30" height="30" fill="none" xmlns="http://www.w3.org/2000/svg"><path d="M23.366 18.035l-.824-.02-.236.378a.535.535 0 01-.45.257.511.511 0 01-.374-.15l-9.899-9.9a.527.527 0 01.109-.825l.375-.235.19-.643-3.222-5.792-.722-.312-.151.077a5.218 5.218 0 00-1.172.88c-1.575 1.575-1.971 3.954-.985 5.92 1.415 2.822 4.75 6.865 7.166 9.234 2.374 2.421 6.42 5.758 9.24 7.173 1.967.986 4.346.59 5.921-.985.346-.346.642-.74.88-1.172l.077-.151-.23-.567-5.693-3.168z" fill="#6B6A73"/><path d="M12.983 6.966a2.014 2.014 0 00.706-2.678L11.91 1.09A1.974 1.974 0 009.28.303l-.967.491 3.753 6.747.917-.575zm12.813 9.428a2.014 2.014 0 00-2.679.706l-.575.916 6.747 3.755.49-.968a1.973 1.973 0 00-.786-2.63l-3.197-1.78z" fill="#202020"/><path d="M18.519 19.897l.082-.08 2.195-2.195.019-.021-2.296 2.296zm-.623.475a1.085 1.085 0 01-.06.138l.108-.09-.047-.048z" fill="#FFCBBE"/><path d="M17.58 12.611l-.118.118.118-.118zm.642 6.027l-.498-.498a1.096 1.096 0 00-.751-.321.217.217 0 01-.148-.064.222.222 0 01-.024-.283 1.101 1.101 0 00-.136-1.39l-.499-.499a1.094 1.094 0 00-.59-.306.362.362 0 01-.195-.099l-.035-.035a.355.355 0 01-.083-.37 1.1 1.1 0 00-.259-1.146l-.498-.498a1.094 1.094 0 00-.694-.319.338.338 0 01-.215-.095l-.018-.017a.325.325 0 01-.08-.32 1.1 1.1 0 00-.28-1.08l-.498-.498a1.102 1.102 0 00-1.56 0l2.576-2.575-3.74 3.738a.737.737 0 01-.567.231l-2.332 2.331a.737.737 0 01-.558.232l.106.884a2.53 2.53 0 01-.724 2.088l-4.074 4.075 6.267 6.266 4.807-4.808a2.53 2.53 0 01.79-.535l2.064-.888a10.627 10.627 0 002.617-1.82c.238-.425.187-1.023-.17-1.38z" fill="#FFDDCE"/><path d="M4.553 18.543L.205 22.891a.701.701 0 000 .991l5.83 5.83a.701.701 0 00.992 0l4.348-4.347-6.822-6.822z" fill="#FFCF5C"/><path d="M4.709 17.705l-1.192 1.192a.838.838 0 000 1.185L10 26.565a.839.839 0 001.186 0l1.192-1.192a.838.838 0 000-1.185l-6.483-6.483a.838.838 0 00-1.186 0z" fill="#E3B340"/><path d="M20.797 16.064l-.499-.499a1.102 1.102 0 00-1.559 0l.5-.5c.43-.43.43-1.128 0-1.558l-.499-.498a1.102 1.102 0 00-1.558 0l.397-.398c.43-.43.43-1.128 0-1.558l-.499-.499a1.102 1.102 0 00-1.559 0l.272-.272c.43-.43.43-1.128 0-1.558l-.498-.499a1.102 1.102 0 00-1.559 0l-2.855 2.854c.431-.43 1.13-.43 1.56 0l.498.499a1.1 1.1 0 01.28 1.08.325.325 0 00.08.32l.018.017c.057.057.134.09.215.095.253.02.5.125.694.319l.498.498c.31.31.396.759.26 1.146a.355.355 0 00.082.37l.035.035a.361.361 0 00.195.1c.216.037.423.138.59.305l.498.498a1.1 1.1 0 01.137 1.391.222.222 0 00.024.282c.04.04.092.063.148.064.272.007.543.114.75.322l.5.498c.374.375.422.954.143 1.381.177-.155.35-.315.516-.482l2.195-2.195c.43-.43.43-1.128 0-1.558zm-10.8-4.101c-.266.266-.59.286-.897.152a1.054 1.054 0 01-.416-.342l-.762-1.025-.26.261a4.08 4.08 0 00-1.168 3.368l.08.672c.2.009.396-.06.568-.232l2.856-2.854h-.001z" fill="#FFCBBE"/></svg>