<svg width="21" height="35" fill="none" xmlns="http://www.w3.org/2000/svg"><g clip-path="url(#clip0)"><path d="M19.708 35H1.292a1.59 1.59 0 01-1.59-1.59V1.59A1.589 1.589 0 011.291 0h18.416c.879 0 1.59.712 1.59 1.59v31.82a1.59 1.59 0 01-1.59 1.59z" fill="#E3B340"/><path d="M19.708 0h-1.686c.061.169.094.351.094.541V32.36a1.59 1.59 0 01-1.59 1.59H-.204C.017 34.564.603 35 1.292 35h18.416a1.59 1.59 0 001.59-1.59V1.59A1.59 1.59 0 0019.709 0z" fill="#DBA82D"/><path d="M18.516 29.476H2.484a.658.658 0 01-.658-.657V2.672c0-.363.295-.658.658-.658h16.032c.363 0 .658.295.658.658v26.147a.657.657 0 01-.658.657z" fill="#F2F2F2"/><path d="M18.516 2.014H15.3c.363 0 .657.295.657.658v26.147a.658.658 0 01-.657.657h3.216a.658.658 0 00.658-.657V2.672a.658.658 0 00-.658-.658z" fill="#E6E6E6"/><path d="M10.5 33.628a1.369 1.369 0 100-2.737 1.369 1.369 0 000 2.737z" fill="#fff"/><path d="M13.384 9.806l-2.838-3.517a.06.06 0 00-.092 0L7.616 9.806a.06.06 0 00.046.097H9.12a.06.06 0 01.06.06v6.125c0 .033.026.06.059.06h2.524a.06.06 0 00.06-.06V9.962a.06.06 0 01.059-.06h1.457a.06.06 0 00.046-.096z" fill="#000"/><path d="M18.516 2.014H2.484a.658.658 0 00-.658.658V4.36h17.348V2.672a.658.658 0 00-.658-.658zm-2.062 23.504H4.825a.513.513 0 110-1.026h11.629a.513.513 0 110 1.026zm0 2.008H4.825a.513.513 0 110-1.026h11.629a.513.513 0 110 1.026z" fill="#FFE29D"/><path d="M18.516 2.014H15.3c.363 0 .657.295.657.658V4.36h3.217V2.672a.658.658 0 00-.658-.658z" fill="#FFE29D"/><path d="M11.762 16.147a.06.06 0 00.06-.06V9.963a.06.06 0 01.06-.06h1.456a.06.06 0 00.046-.096L10.546 6.29a.06.06 0 00-.046-.022v9.88h1.262z" fill="#494949"/><path d="M10.5 22.814a5.502 5.502 0 100-11.004 5.502 5.502 0 000 11.004z" fill="#fff"/><path d="M14.39 21.203a5.503 5.503 0 000-7.782l-7.78 7.782a5.502 5.502 0 007.78 0z" fill="#E1EFFB"/><path d="M10.359 20.354c-1.06-.018-1.777-.59-1.777-1.009 0-.205.18-.487.393-.487.282 0 .512.598 1.384.667v-2.008c-.769-.274-1.623-.581-1.623-1.675 0-1.076.811-1.504 1.623-1.59v-.247c0-.102.102-.196.248-.196.128 0 .256.094.256.196v.23c.581.018 1.401.197 1.401.616 0 .162-.12.487-.376.487-.205 0-.427-.273-1.025-.316v1.734c.743.274 1.555.65 1.555 1.812 0 1.05-.632 1.632-1.555 1.76v.29c0 .103-.128.197-.256.197-.146 0-.248-.094-.248-.197v-.264zm.051-3.76V15.04c-.478.06-.82.273-.82.718 0 .487.367.666.82.837zm.402 1.11v1.804c.461-.086.752-.36.752-.846 0-.538-.334-.778-.752-.957z" fill="#000"/></g><defs><clipPath id="clip0"><path fill="#fff" d="M0 0h21v35H0z"/></clipPath></defs></svg>