<svg width="29" height="35" fill="none" xmlns="http://www.w3.org/2000/svg"><path d="M14.65 5.528S16.987-.316 22.569.365a.873.873 0 01.621.438c.614.986.929 2.197.893 3.43-.106 2.251-6.994 3.985-6.994 3.985l-1.46-.35-.979-2.34z" fill="#757575"/><path d="M20.474 6.425a10.865 10.865 0 01-4.455.977c2.032-2.216 4.619-3.55 7.35-3.789.322-.032.443.413.221.696-.499.638-1.768 1.495-3.116 2.116z" fill="#000"/><path d="M14.649 5.528S12.312-.316 6.73.365a.874.874 0 00-.62.438c-.614.986-.929 2.197-.893 3.43.106 2.251 6.994 3.985 6.994 3.985l1.46-.35.979-2.34z" fill="#757575"/><path d="M8.825 6.425c1.425.643 2.934.974 4.455.977-1.136-1.22-2.444-2.186-3.86-2.854a11.089 11.089 0 00-3.49-.935c-.322-.032-.443.413-.221.696.497.638 1.77 1.495 3.116 2.116z" fill="#000"/><path d="M14.501 9.592c.967 0 1.752-.946 1.752-2.114s-.785-2.114-1.752-2.114-1.752.946-1.752 2.114.785 2.114 1.752 2.114z" fill="#000"/><path d="M.36 7.478h28.28c.2 0 .36.194.36.433v5.638c0 .24-.16.434-.36.434H.36c-.2 0-.36-.195-.36-.434V7.91c0-.24.16-.433.36-.433z" fill="#FFCF5C"/><path d="M27.571 12.79v21.467c0 .239-.161.432-.36.433H1.79c-.198 0-.359-.194-.36-.433V12.79h26.141z" fill="#FFCF5C"/><path d="M1.43 13.982h26.141V15.5H1.431v-1.518z" fill="#E3B340"/><path d="M12.398 7.478h4.206V34.69h-4.206V7.478z" fill="#757575"/><path d="M12.397 13.982h4.208V15.5h-4.208v-1.518z" fill="#000"/></svg>