<svg width="77" height="78" fill="none" xmlns="http://www.w3.org/2000/svg"><path d="M3.23.041c14.518 1.85 28.735 6.493 40.075 15.968 8.265 6.92 14.135 16.191 17.62 26.31 2.496 7.265 3.718 14.972 3.95 22.628.05 1.788.073 3.617.001 5.43 2.565-4.283 5.13-8.58 7.936-12.707 1.015-1.492 3.424-.024 2.395 1.48-3.905 5.74-7.344 11.842-10.981 17.736-.58.947-1.868.807-2.444-.06-3.926-6.041-7.865-12.083-11.791-18.124-.995-1.527 1.484-2.874 2.465-1.36 3.18 4.871 6.347 9.756 9.528 14.628 1.02-11.05-1.089-22.977-5.336-33.02-3.71-8.77-9.535-16.551-17.093-22.398C29.118 8.482 16.121 4.477 3.161 2.83 1.373 2.635 1.43-.18 3.231.04z" fill="#3B6CE9"/></svg>