<svg width="89" height="83" fill="none" xmlns="http://www.w3.org/2000/svg"><path d="M71.972 81.66c1.87-12.786 1.052-26.07-4.998-38.217-4.423-8.858-11.64-16.321-20.24-21.994-6.177-4.068-13.083-7.176-20.186-9.431-1.66-.525-3.365-1.036-5.078-1.462 4.642-1.02 9.296-2.034 13.853-3.299 1.647-.458.871-2.892-.791-2.425-6.337 1.761-12.897 3.03-19.313 4.523-1.03.236-1.217 1.363-.549 2.085 4.677 4.948 9.351 9.908 14.028 14.856 1.183 1.253 3.057-.482 1.884-1.72-3.768-4.003-7.552-7.998-11.32-12 10.589 2.108 21.221 7.102 29.562 13.4 7.284 5.5 13.117 12.524 16.712 20.494 4.961 11.006 5.484 23.085 3.812 34.498-.263 1.566 2.384 2.276 2.624.692z" fill="#3B6CE9"/></svg>