<svg width="29" height="28" fill="none" xmlns="http://www.w3.org/2000/svg"><path fill-rule="evenodd" clip-rule="evenodd" d="M29 14c0 7.732-6.492 14-14.5 14S0 21.732 0 14 6.492 0 14.5 0 29 6.268 29 14zM18.601 7.224a5.518 5.518 0 011.54 2.646 5.416 5.416 0 01-.532 3.97 5.734 5.734 0 01-3.146 2.607c-.297.102-.507.357-.507.661v1.095c0 .372-.153.729-.426.992a1.48 1.48 0 01-1.027.41 1.48 1.48 0 01-1.027-.41 1.379 1.379 0 01-.426-.992v-2.82c.005-.368.16-.72.431-.978a1.477 1.477 0 011.019-.404h-.01c1.602 0 2.904-1.257 2.904-2.8a2.76 2.76 0 00-.874-1.942 2.961 2.961 0 00-2.032-.8 2.96 2.96 0 00-2.031.802 2.76 2.76 0 00-.873 1.943c-.003.772-.652 1.397-1.453 1.397a1.467 1.467 0 01-.965-.367 1.371 1.371 0 01-.459-.898L8.7 11.13c.025-3.506 3.365-6.21 7.153-5.379A5.823 5.823 0 0118.6 7.224zM15.95 22.4c0 .773-.65 1.4-1.45 1.4-.8 0-1.45-.627-1.45-1.4 0-.773.65-1.4 1.45-1.4.8 0 1.45.627 1.45 1.4z" fill="#000"/></svg>