<svg width="57" height="57" fill="none" xmlns="http://www.w3.org/2000/svg"><path d="M38.083 54.181c-3.843-.031-9.61-.182-15.283-.717-3.905-.37-7.94-.953-11.004-2.69-.864-.49-1.808-.61-2.645-.712-.356-.045-.69-.085-.975-.151-2.173-.513-3.692-2.392-3.7-4.57l-.032-14.583A4.03 4.03 0 017.87 26.74c.035-.005.067-.014.102-.022.245-.08 6.097-1.986 10.505-5.433 2.075-1.621 3.852-4.12 4.756-6.68.9-2.551.895-5.335.89-7.57 0-1.443-.004-3.238.388-3.5a5.591 5.591 0 013.122-.949c3.438 0 6.947 3.14 7.085 6.337.098 2.218-.646 4.836-1.363 7.365-.846 2.997-1.58 5.585-.917 7.344a.664.664 0 00.623.432l3.246-.112h.032a6.604 6.604 0 016.595 6.586l.022 18.797a4.791 4.791 0 01-1.416 3.425 4.814 4.814 0 01-3.425 1.42h-.03z" fill="url(#paint0_radial)"/><path d="M27.632 3.255c3.055 0 6.292 2.877 6.417 5.696.093 2.11-.633 4.675-1.336 7.156-.882 3.108-1.639 5.793-.9 7.757.196.521.695.864 1.252.864h.049l3.206-.111h.026a5.935 5.935 0 015.928 5.922l.022 18.797a4.15 4.15 0 01-1.22 2.953 4.146 4.146 0 01-2.953 1.224h-.035c-3.83-.031-9.579-.182-15.226-.712-3.83-.361-7.784-.931-10.736-2.605-.98-.557-2.04-.686-2.89-.793a7.768 7.768 0 01-.904-.143c-1.87-.44-3.18-2.052-3.184-3.918l-.036-14.584a3.364 3.364 0 012.86-3.354 1.01 1.01 0 00.2-.049c.249-.08 6.207-2.026 10.71-5.544 2.168-1.696 4.03-4.306 4.973-6.982.94-2.659.936-5.504.931-7.793 0-1.087-.004-2.556.183-3.002a4.885 4.885 0 012.663-.779zm0-1.336c-1.18 0-2.374.32-3.492 1.06-1.442.953.12 6.689-1.54 11.4-.998 2.828-2.9 5.099-4.538 6.377-4.364 3.411-10.296 5.326-10.296 5.326a4.723 4.723 0 00-3.99 4.68l.036 14.584c.009 2.512 1.768 4.636 4.213 5.215.988.231 2.338.169 3.442.797 2.952 1.674 6.737 2.342 11.27 2.77 5.612.53 11.312.685 15.342.721h.044a5.508 5.508 0 005.509-5.513L43.61 30.54a7.263 7.263 0 00-7.264-7.254h-.053l-3.224.112c-1.113-2.957 2.534-9.61 2.32-14.504-.156-3.478-3.865-6.974-7.757-6.974z" fill="#EDA600"/><path d="M29.444 27.832c.837 2.227.846 5.7 0 7.846-1.224 3.1-4.221 5.812-7.681 6.288-.847.116-.343.895.498.78 3.745-.517 8.813-2.035 10.131-5.398 3.616-9.24-.614-14.08-2.503-12.638-.908.704-.917 1.862-.445 3.122z" fill="#EDA600"/><path d="M38.421 31.136c-3.722 0-8.198-.69-8.39-3.99-.053-.944.232-1.736.873-2.418 1.688-1.79 5.834-2.774 11.677-2.774 2.12 0 3.664.138 3.682.138.018 0 .04.004.058.004h.04c.063-.004.12-.004.183-.004 1.893 0 3.473 1.706 3.603 3.883.133 2.253-1.35 4.177-3.305 4.288a.371.371 0 00-.098.014c-.04.004-4.163.86-8.323.86z" fill="url(#paint1_radial)"/><path d="M42.586 22.622c2.084 0 3.607.133 3.62.133.04.005.08.005.12.005.027 0 .053 0 .076-.005.049-.004.098-.004.142-.004 1.537 0 2.828 1.43 2.935 3.25.053.945-.214 1.84-.753 2.526-.503.64-1.189 1.015-1.923 1.06a1.399 1.399 0 00-.196.026c-.04.01-4.106.85-8.185.85-2.37 0-4.248-.275-5.58-.819-1.83-.748-2.102-1.808-2.142-2.538-.044-.761.178-1.371.695-1.924 1.536-1.625 5.615-2.56 11.19-2.56zm0-1.336c-5.086 0-13.52.77-13.222 5.9.218 3.705 4.69 4.618 9.058 4.618 4.28 0 8.46-.877 8.46-.877 2.325-.138 4.089-2.374 3.933-4.997-.147-2.538-2.035-4.51-4.266-4.51-.076 0-.147 0-.223.004 0 0-1.563-.138-3.74-.138z" fill="#EDA600"/><path d="M41.214 39.61c-4.858 0-10.648-.815-10.648-4.706 0-3.893 5.79-4.708 10.648-4.708 4.119 0 7.873.602 7.909.606.035.005.07.01.107.01 1.963 0 3.33 2.074 3.33 3.936 0 1.964-1.456 4.244-3.33 4.244a.855.855 0 00-.107.008c-.04.01-3.794.61-7.91.61z" fill="url(#paint2_radial)"/><path d="M41.214 30.87c4.061 0 7.766.591 7.802.596.071.013.142.018.214.018 1.522 0 2.662 1.727 2.662 3.268 0 1.608-1.229 3.576-2.663 3.576a1.16 1.16 0 00-.213.018c-.036.004-3.745.597-7.802.597-3.042 0-5.46-.321-7.192-.958-2.498-.917-2.788-2.2-2.788-3.081 0-.887.29-2.165 2.788-3.082 1.728-.632 4.15-.953 7.192-.953zm0-1.337c-5.313 0-11.316.975-11.316 5.375s5.999 5.375 11.316 5.375c4.226 0 8.016-.614 8.016-.614 2.297 0 3.998-2.632 3.998-4.912s-1.7-4.605-3.998-4.605c0-.004-3.795-.619-8.016-.619z" fill="#EDA600"/><path d="M44.914 54.413c-1.875 0-11.373-.147-14.25-3.028-.503-.503-.744-1.047-.744-1.661.01-2.338 4.013-3.679 10.982-3.679 2.485 0 4.408.178 4.43.178.018 0 .04.005.059.005a3.814 3.814 0 012.76 1.198 4.166 4.166 0 011.15 2.903c-.01 2.25-1.769 4.075-3.924 4.075-.031.009-.187.009-.463.009z" fill="url(#paint3_radial)"/><path d="M40.906 46.718c2.445 0 4.346.173 4.364.178.04.004.08.004.12.004.86.005 1.67.357 2.28.993.624.65.967 1.519.962 2.44-.004 1.88-1.465 3.412-3.268 3.412h-.031c-.01 0-.16.004-.423.004-8.083 0-12.474-1.527-13.778-2.832-.495-.494-.548-.913-.548-1.184.013-1.862 3.963-3.015 10.322-3.015zm0-1.336c-4.773 0-11.64.641-11.65 4.342-.017 5.103 13.048 5.357 15.658 5.357.29 0 .45-.005.45-.005h.013c2.53 0 4.582-2.12 4.591-4.742.01-2.628-2.04-4.765-4.573-4.774 0 .004-1.946-.178-4.489-.178z" fill="#EDA600"/><path d="M43.249 47.346c-4.004 0-13.31-.454-13.31-4.663 0-3.535 6.71-4.06 10.714-4.06 3.54 0 6.59.39 6.622.395.026.005.057.005.084.005 1.857 0 4.021.917 4.021 3.505 0 2.449-1.915 4.675-4.02 4.675h-.054c-.018.005-1.733.143-4.057.143z" fill="url(#paint4_radial)"/><path d="M40.653 37.959v1.335c3.486 0 6.506.388 6.532.392.058.01.116.01.174.01 1.621 0 3.353.743 3.353 2.836 0 2.062-1.63 4.008-3.353 4.008a.98.98 0 00-.111.004c-.018 0-1.706.138-4.004.138-2.426 0-5.895-.156-8.643-.886-2.65-.708-3.995-1.755-3.995-3.104 0-.414 0-1.674 2.824-2.56 1.759-.553 4.186-.833 7.218-.833l.005-1.34zm0 0c-5.148 0-11.383.81-11.383 4.729 0 4.618 8.64 5.33 13.979 5.33 2.387 0 4.11-.142 4.11-.142 2.512 0 4.69-2.597 4.69-5.344 0-2.748-2.178-4.173-4.69-4.173 0 0-3.086-.4-6.706-.4zM12.375 51.166l-2.133-8.416-.89 7.57 3.023.846z" fill="#EDA600"/><defs><radialGradient id="paint0_radial" cx="0" cy="0" r="1" gradientUnits="userSpaceOnUse" gradientTransform="matrix(-.08456 38.7595 -30.51543 -.06657 23.053 13.983)"><stop offset=".6" stop-color="#FFCA28"/><stop offset="1" stop-color="#FFB300"/></radialGradient><radialGradient id="paint1_radial" cx="0" cy="0" r="1" gradientUnits="userSpaceOnUse" gradientTransform="rotate(176.727 22.55 13.733) scale(12.5897 6.16035)"><stop offset=".599" stop-color="#FFCA28"/><stop offset="1" stop-color="#FFB300"/></radialGradient><radialGradient id="paint2_radial" cx="0" cy="0" r="1" gradientUnits="userSpaceOnUse" gradientTransform="matrix(-14.1691 -.01583 .00635 -5.682 47.834 34.786)"><stop offset=".599" stop-color="#FFCA28"/><stop offset="1" stop-color="#FFB300"/></radialGradient><radialGradient id="paint3_radial" cx="0" cy="0" r="1" gradientUnits="userSpaceOnUse" gradientTransform="matrix(-11.89916 -.0569 .02963 -6.195 45.071 50.14)"><stop offset=".599" stop-color="#FFCA28"/><stop offset="1" stop-color="#FFB300"/></radialGradient><radialGradient id="paint4_radial" cx="0" cy="0" r="1" gradientUnits="userSpaceOnUse" gradientTransform="rotate(-179.934 23.395 21.425) scale(13.557 5.63898)"><stop offset=".599" stop-color="#FFCA28"/><stop offset="1" stop-color="#FFB300"/></radialGradient></defs></svg>