<svg width="43" height="43" fill="none" xmlns="http://www.w3.org/2000/svg"><g filter="url(#filter0_d)"><ellipse cx="21.216" cy="17.196" rx="17.216" ry="17.196" fill="#fff"/></g><g filter="url(#filter1_d)"><ellipse cx="21.216" cy="17.196" rx="11.477" ry="11.464" fill="#1C1C1C"/></g><path d="M22.45 19.596h-2.464l-.462-9.9h3.366l-.44 9.9zm.022 4.466c-.352.352-.77.528-1.254.528s-.902-.176-1.254-.528a1.725 1.725 0 01-.506-1.232c0-.484.168-.902.506-1.254.352-.352.77-.528 1.254-.528s.902.176 1.254.528c.352.352.528.77.528 1.254 0 .469-.176.88-.528 1.232z" fill="#fff"/><defs><filter id="filter0_d" x="0" y="0" width="42.432" height="42.392" filterUnits="userSpaceOnUse" color-interpolation-filters="sRGB"><feFlood flood-opacity="0" result="BackgroundImageFix"/><feColorMatrix in="SourceAlpha" values="0 0 0 0 0 0 0 0 0 0 0 0 0 0 0 0 0 0 127 0"/><feOffset dy="4"/><feGaussianBlur stdDeviation="2"/><feColorMatrix values="0 0 0 0 0.479167 0 0 0 0 0.479167 0 0 0 0 0.479167 0 0 0 0.25 0"/><feBlend in2="BackgroundImageFix" result="effect1_dropShadow"/><feBlend in="SourceGraphic" in2="effect1_dropShadow" result="shape"/></filter><filter id="filter1_d" x="5.739" y="5.732" width="30.955" height="30.928" filterUnits="userSpaceOnUse" color-interpolation-filters="sRGB"><feFlood flood-opacity="0" result="BackgroundImageFix"/><feColorMatrix in="SourceAlpha" values="0 0 0 0 0 0 0 0 0 0 0 0 0 0 0 0 0 0 127 0"/><feOffset dy="4"/><feGaussianBlur stdDeviation="2"/><feColorMatrix values="0 0 0 0 0.479167 0 0 0 0 0.479167 0 0 0 0 0.479167 0 0 0 0.25 0"/><feBlend in2="BackgroundImageFix" result="effect1_dropShadow"/><feBlend in="SourceGraphic" in2="effect1_dropShadow" result="shape"/></filter></defs></svg>