<svg width="20" height="20" viewBox="0 0 20 20" xmlns="http://www.w3.org/2000/svg">
<path fill-rule="evenodd" clip-rule="evenodd" d="M20 10C20 15.5228 15.5228 20 10 20C4.47715 20 0 15.5228 0 10C0 4.47715 4.47715 0 10 0C15.5228 0 20 4.47715 20 10ZM13 7C13 8.65685 11.6569 10 10 10C8.34315 10 7 8.65685 7 7C7 5.34315 8.34315 4 10 4C11.6569 4 13 5.34315 13 7ZM10 18C8.18189 18.0027 6.41756 17.3834 5 16.245V13C5 11.895 5.887 11 7 11H13C14.105 11 15 11.885 15 13V16.245C13.63 17.343 11.892 18 10 18Z" fill="#F7F7F7"/>
</svg>
