<svg width="30" height="30" viewBox="0 0 30 30" fill="none" xmlns="http://www.w3.org/2000/svg">
<g clip-path="url(#clip0)">
<rect width="21" height="21" transform="translate(0 14.8491) rotate(-45)" fill="white" fill-opacity="0.01"/>
<path fill-rule="evenodd" clip-rule="evenodd" d="M14.8493 13.6117L10.514 9.27632C10.3498 9.11348 10.1277 9.02247 9.89653 9.02328C9.66531 9.0241 9.44388 9.11667 9.28087 9.28065C8.93687 9.62466 8.93749 10.1747 9.27654 10.5138L13.6119 14.8491L9.27654 19.1845C9.1137 19.3486 9.02269 19.5707 9.0235 19.8019C9.02431 20.0331 9.11689 20.2546 9.28087 20.4176C9.6255 20.7622 10.1749 20.761 10.514 20.4219L14.8493 16.0866L19.1847 20.4219C19.5238 20.761 20.0763 20.7591 20.4178 20.4176C20.7618 20.0736 20.7612 19.5235 20.4221 19.1845L16.0868 14.8491L20.4221 10.5138C20.585 10.3496 20.676 10.1275 20.6752 9.89631C20.6744 9.66509 20.5818 9.44366 20.4178 9.28065C20.0738 8.93665 19.5238 8.93727 19.1847 9.27632L14.8493 13.6117Z" fill="#535151"/>
</g>
<defs>
<clipPath id="clip0">
<rect width="21" height="21" fill="white" transform="translate(0 14.8491) rotate(-45)"/>
</clipPath>
</defs>
</svg>
