<svg width="12" height="12" viewBox="0 0 12 12" fill="none" xmlns="http://www.w3.org/2000/svg">
<path fill-rule="evenodd" clip-rule="evenodd" d="M12 6C12 9.31371 9.31371 12 6 12C2.68629 12 0 9.31371 0 6C0 2.68629 2.68629 0 6 0C9.31371 0 12 2.68629 12 6ZM7.69704 3.09598C8.01032 3.40767 8.23084 3.80028 8.334 4.23C8.47339 4.80481 8.39506 5.41089 8.1141 5.93137C7.83314 6.45186 7.36944 6.84992 6.8124 7.0488C6.6894 7.0926 6.6024 7.2018 6.6024 7.332V7.8012C6.6024 7.96064 6.53906 8.11356 6.42631 8.22631C6.31357 8.33906 6.16065 8.4024 6.0012 8.4024C5.84175 8.4024 5.68883 8.33906 5.57609 8.22631C5.46334 8.11356 5.4 7.96064 5.4 7.8012V6.5928C5.40205 6.43502 5.46617 6.28441 5.57847 6.17357C5.69075 6.06275 5.84215 6.00061 5.9999 6.0006H5.9958C6.6588 6.0006 7.1976 5.4618 7.1976 4.8006C7.19043 4.48643 7.06055 4.18756 6.83576 3.96796C6.61098 3.74836 6.30916 3.62549 5.99491 3.62565C5.68067 3.6258 5.37897 3.74898 5.15441 3.9688C4.92984 4.18862 4.80026 4.48763 4.7934 4.8018C4.7922 5.1324 4.5234 5.4006 4.1922 5.4006C4.04412 5.39969 3.90169 5.34361 3.79274 5.24331C3.68378 5.14301 3.61613 5.0057 3.603 4.8582L3.6 4.77C3.6102 3.2676 4.9926 2.1084 6.5598 2.4648C6.99004 2.56577 7.38376 2.78429 7.69704 3.09598ZM6.6 9.6C6.6 9.93137 6.33137 10.2 6 10.2C5.66863 10.2 5.4 9.93137 5.4 9.6C5.4 9.26863 5.66863 9 6 9C6.33137 9 6.6 9.26863 6.6 9.6Z" fill="black"/>
</svg>
