<svg width="80" height="80" fill="none" xmlns="http://www.w3.org/2000/svg"><path d="M69.064 44.64a25.288 25.288 0 11-50.512-2.512c.52-10.456 5.92-19.576 15.304-21.216 3.2-.56 6.16 1.72 10.888 1.984 3.872.216 7.544-2.88 11.008-1.8C67.08 24.632 69.6 34.56 69.064 44.64z" fill="#FFCF5C"/><path d="M55.752 21.096c-2.56-.8-5.232.68-8 1.424 14.048-.336 18.256 13.504 15.552 24-2.864 11.12-16.512 19.2-31.08 12.496-3.296-1.52-.52 4.856-4.056 4.168A25.264 25.264 0 0069.064 44.64c.536-10.08-1.984-20.008-13.312-23.544z" fill="#B88816" fill-opacity=".4"/><path d="M54.303 17.352c-3.816 7.256-11.551 9.744-11.551 9.744a19.6 19.6 0 011.303-14.4c3.816-7.28 12.368-8.968 12.368-8.968a20.27 20.27 0 01-2.12 13.624z" fill="#000"/><path d="M22.672 73.896c7.586 0 13.735-6.15 13.735-13.736s-6.15-13.736-13.735-13.736c-7.587 0-13.736 6.15-13.736 13.736s6.15 13.736 13.736 13.736z" fill="#fff"/><path d="M22.672 75.096a14.945 14.945 0 01-8.352-27.328 1.201 1.201 0 011.344 1.992 12.544 12.544 0 108.736-2.024 1.21 1.21 0 11.336-2.4 14.936 14.936 0 01-2.064 29.736v.024z" fill="#1D1D1B"/><path d="M21.44 61.208l-.232 1.36H20l-.4 2.272H18l.392-2.272h-4.32l.144-1.104 5.392-6.8h1.728L20.2 61.208h1.24zm-2.872 0l.8-4.328-.264.384L16 61.208h2.568zm6.6-6.544h5.328l-.264 1.48h-3.936l-.752 2.448c.233-.144.487-.252.752-.32.26-.07.53-.103.8-.096.427-.003.847.099 1.224.296.322.181.596.436.8.744.207.33.348.697.416 1.08.17.89.059 1.81-.32 2.632a3.513 3.513 0 01-1.896 1.816 3.562 3.562 0 01-1.416.232 3.201 3.201 0 01-1.168-.224 2.674 2.674 0 01-.896-.6 2.593 2.593 0 01-.6-.912 3.362 3.362 0 01-.216-1.16h1.6c.01.206.045.41.104.608.064.177.155.341.272.488.116.14.26.251.424.328.191.086.399.13.608.128.278.02.555-.038.8-.168.23-.117.429-.284.584-.488a2.4 2.4 0 00.376-.696c.086-.26.145-.528.176-.8a2.704 2.704 0 000-.72 1.6 1.6 0 00-.216-.616 1.288 1.288 0 00-.44-.44 1.447 1.447 0 00-.696-.176c-.273-.01-.546.04-.8.144a2.98 2.98 0 00-.704.432l-1.328-.344 1.384-5.096z" fill="#000"/><path d="M14.104 49.464L12.72 46.92a.983.983 0 01.88-1.456l2.888.072 2.888.08a.983.983 0 01.8 1.504l-1.48 2.48-1.504 2.464A.984.984 0 0115.48 52l-1.376-2.536z" fill="#1D1D1B"/></svg>