<svg width="80" height="75" fill="none" xmlns="http://www.w3.org/2000/svg"><path d="M68.172 27.435c-1.544-4.912-4.952-9-11.456-11.197-3.424-1.148-7.2 1.62-11.08 1.267-4.712-.427-7.544-2.677-10.8-2.25-9.136 1.132-14.808 9-16 18.345l49.336-6.165z" fill="#FFCF5C"/><path d="M55.629 16.005a6.895 6.895 0 00-.8-.045h-.072c-.292.008-.583.03-.872.067l-.256.038c-.24 0-.48.075-.72.127h-.184c-.28.06-.56.136-.84.203l-.504.135-.16.045c-.856.233-1.712.48-2.584.66 4.536.578 13.352 1.582 14.76 10.762l4.8-.592a17.863 17.863 0 00-1.008-2.527c-.064-.136-.136-.27-.2-.398-.192-.36-.392-.705-.6-1.05l-.36-.555a23.895 23.895 0 00-.392-.563c-.232-.307-.48-.607-.736-.9-.12-.142-.256-.284-.384-.427-.296-.308-.6-.615-.928-.915l-.304-.255a14.26 14.26 0 00-.992-.788l-.296-.187c-.424-.293-.872-.57-1.336-.84a4.742 4.742 0 00-.328-.188c-.488-.27-.992-.524-1.52-.75l-.296-.12a22.508 22.508 0 00-1.8-.697 5.231 5.231 0 00-.856-.203l-.232-.037z" fill="#B88816" fill-opacity=".3"/><path d="M60.172 29.91l-49.32 6.105c-.048.36-.104.75-.136 1.072a22.105 22.105 0 00.736 8.078l48.912-.075c.328-.75 1.104-11.415-.192-15.18z" fill="#FFCF5C"/><path d="M55.532 30.488c1.296 3.75 2.096 9.794.296 14.595h4.536a21.72 21.72 0 00.688-3.743c.176-1.745.23-3.499.16-5.25 0-.578-.072-1.148-.128-1.718a23.018 23.018 0 00-.24-1.68 21.464 21.464 0 00-.696-2.797l-4.616.593z" fill="#B88816" fill-opacity=".3"/><path d="M69.38 46.46l-48.85.105c1.381 5.02 4.363 9.525 8.548 12.916.483.395.983.807 1.5 1.13a29.32 29.32 0 01-1.43-1.066c14.391 8.818 35.276 4.836 40.232-13.085z" fill="#FFCF5C"/><path d="M65.237 46.493c-5.504 12.532-24.136 15.18-38.72 10.252.637.663 1.327 1.28 2.064 1.845a49.334 49.334 0 001.664 1.222c.432.293.872.578 1.32.848l.416.233a27.95 27.95 0 002.4 1.215l.704.307c.32.128.664.24.992.36.328.12.8.278 1.184.398l.92.255c.48.127.96.232 1.448.33.256.052.512.112.8.157.8.135 1.528.24 2.312.308a27.2 27.2 0 005.128-.046h.192c4.455-.505 8.687-2.112 12.262-4.655 3.575-2.544 6.364-5.932 8.082-9.82a22.85 22.85 0 001.096-3.21h-4.264z" fill="#B88816" fill-opacity=".3"/><path d="M55.453 12.675c-4.145 6.652-12 8.685-12 8.685-1.23-4.549-.555-9.366 1.887-13.462C49.453 1.252 58.06 0 58.06 0c.733 4.38-.19 8.864-2.608 12.675z" fill="#000"/></svg>