<svg width="145" height="145" fill="none" xmlns="http://www.w3.org/2000/svg"><path d="M73.486 144.292c35.86 0 64.931-29.07 64.931-64.93 0-35.861-29.071-64.932-64.931-64.932S8.555 43.501 8.555 79.361c0 35.861 29.07 64.931 64.931 64.931z" fill="#FFCF5C"/><path d="M140.049 56.78l-32.941 51.291-6.486-4.166 31.784-49.49a4.492 4.492 0 016.204-1.351l.707.454a2.377 2.377 0 01.732 3.262z" fill="#2F2E3B"/><path d="M88.885 136.387c13.984-21.715 17.98-27.939 17.98-27.939l-6.525-4.164-20.578 32.103h9.123z" fill="#fff"/><path d="M16.834 53.794l31.8 49.515-6.486 4.165-32.94-51.29a2.378 2.378 0 01.715-3.286l.708-.455a4.489 4.489 0 016.203 1.351z" fill="#2F2E3B"/><path d="M69.664 136.387l-20.718-32.764-6.484 4.164s3.897 6.554 18.09 28.6h9.112z" fill="#fff"/><path d="M42.247 105.218l-.574-.058.876-9.124-8.874-3.085.899-9.344-8.868-3.086.899-9.343-8.869-3.086.923-9.57.58.058-.882 9.118 8.868 3.08-.899 9.343 8.868 3.086-.899 9.344 8.874 3.091-.922 9.576zm59.92-2.059l-.192-.545 8.654-3.016-.893-9.35 8.868-3.08-.899-9.35 8.868-3.08-.899-9.343 9.083-3.155.186.545-8.648 3.004.899 9.344-8.868 3.086.899 9.344-8.869 3.085.894 9.35-9.083 3.161z" fill="#FFB037"/><path d="M17.319 53.615a5.15 5.15 0 00-7.128-1.554l-.818.522a2.732 2.732 0 00-.818 3.776l3.428 5.341a1.113 1.113 0 001.537.337l5.585-3.59a1.107 1.107 0 00.33-1.537l-2.116-3.295zM53.503 97.78L35.251 109.5a1.229 1.229 0 00-.371 1.697c.366.57 1.126.735 1.697.368l18.252-11.722a1.228 1.228 0 00.372-1.697 1.228 1.228 0 00-1.698-.368zm78.412-43.556a5.154 5.154 0 013.245-2.255 5.16 5.16 0 013.889.7l.812.523a2.736 2.736 0 011.214 2.783 2.75 2.75 0 01-.39.993l-3.428 5.341a1.113 1.113 0 01-1.537.331l-5.586-3.584a1.114 1.114 0 01-.336-1.537l2.117-3.295zM94.585 100.7l18.222 11.713a1.226 1.226 0 101.325-2.061L95.91 98.639a1.226 1.226 0 10-1.325 2.061zM79.46 30.914c4.286-3.41 5.15-20.63-6.49-27.446C61.33-3.347 43.274 1.862 39.545 20.44c-2.425 12.128 5.962 30.682-3.747 38.17a16.93 16.93 0 01-6.044 3.155.673.673 0 00-.075 1.288c3.85 1.293 10.886 2.517 15.457.064 18.113-9.721 7.969-28.42 12.76-36.54 3.48-5.94 10.074-3.573 10.66 2.32.371 3.816 10.904 2.018 10.904 2.018z" fill="#2F2E3B"/><path d="M51.904 33.234l4.733-2.76s1.01-7.274 5.284-7.24c4.274.036 5.063 2.066 5.063 2.066l2.407-.412c-1.827-6.566-5.382-8.358-9.912-8.12-5.37.226-9.373 6.722-7.575 16.466z" fill="#24242D"/><path d="M42.856 13.01a59.744 59.744 0 00-2.952 5.8C44.242 1.548 61.654-3.139 72.958 3.48c11.64 6.803 10.777 24.024 6.502 27.434 0 0-.475.081-1.23.168l.36-8.027c.98-12.76-9.054-20.45-18.804-20.004-9.75.446-14.494 5.939-16.93 9.958z" fill="#464552"/><path d="M77.303 23.101h-.58c0-15.59-11.165-20.102-17.76-20.3v-.58c6.02.192 10.927 2.697 14.193 7.25 2.644 3.643 4.147 8.62 4.147 13.63z" fill="#464552"/><path d="M82.36 26.854a1.159 1.159 0 01-.835-1.96c1.74-1.816 2.32-5.87 2.059-7.384a1.16 1.16 0 012.285-.412c.348 1.95-.26 6.89-2.668 9.402a1.16 1.16 0 01-.84.354z" fill="#2F2E3B"/><path d="M65.331 26.744c.58-5.65 17.4-5.336 18.438 0 1.039 5.336-18.92 4.576-18.438 0z" fill="#CECECE"/><path d="M53.424 107.341a106.173 106.173 0 00-11.664 5.057 2.678 2.678 0 00-1.41 2.361v1.682s1.16-1.966 2.396-1.636c2.685.714 5.852 7.337 7.61 16.571.307 1.595.696 5.104 1.108 9.384a68.013 68.013 0 0022.022 3.66h1.096V97.626c-6.977-.035-17.37 5.214-21.158 9.715z" fill="#25252D"/><path d="M107.387 112.398a106.24 106.24 0 00-11.64-5.057c-3.788-4.501-14.181-9.75-21.182-9.75v46.794a67.685 67.685 0 0023.2-4.454c.383-3.898.742-7.059 1.027-8.555 1.74-9.234 4.924-15.857 7.609-16.571 1.241-.33 2.396 1.45 2.396 1.45v-1.496c0-.484-.13-.96-.378-1.376a2.683 2.683 0 00-1.032-.985z" fill="#25252D"/><path d="M84.332 109.307l-9.61 21.785-9.617-21.785V90.671h19.227v18.636z" fill="#fff"/><path d="M65.11 100.16v3.544s5.03 4.843 9.907 4.704c4.878-.139 9.315-4.124 9.315-4.124v-4.124H65.111z" fill="#CECECE"/><path d="M75.319 29.644c-5.881-3.672-16.49-3.48-24.998 6.183-5.603 6.38-8.514 14.877-7.708 20.613.806 5.736-1.613 6.542-.54 11.56 1.073 5.016 6.456 6.721 6.456 6.721s51.167.18 52.513 0c1.346-.18 7.308-4.292 7.702-11.38 1.526-27.422-14.337-33.604-21.06-35.38-6.432-1.733-12.365 1.683-12.365 1.683z" fill="#2F2E3B"/><path d="M87.684 27.915c-6.432-1.74-12.365 1.706-12.365 1.706.354-.087-.656.655-.302.58 8.77-1.874 18.56.203 24.987 9.28 7.389 10.44 6.739 26.042 3.103 34.11a14.052 14.052 0 005.637-10.267c1.526-27.428-14.337-33.616-21.06-35.409z" fill="#464552"/><path d="M100.096 71.92c3.103-3.202 5.922-4.257 8.057-2.999 2.134 1.259-1.068 11.635-3.689 11.925-2.622.29-5.22-3.01-5.22-3.01l.852-5.916zm-51.799 0c-3.109-3.202-5.922-4.257-8.056-2.999-2.135 1.259 1.067 11.635 3.688 11.925 2.622.29 5.22-3.01 5.22-3.01l-.852-5.916z" fill="#fff"/><path d="M74.57 37.932c-5.44 0-27.207 1.496-26.807 24.54.32 18.455.853 21.46 2.72 26.135 3.04 7.58 16.82 16.095 24.807 16.066 7.986-.029 20.335-8.486 23.374-16.066 1.868-4.64 2.401-7.68 2.72-26.135.4-23.032-21.344-24.54-26.813-24.54z" fill="#fff"/><path d="M71.23 41.18c.302 5.295 2.442 14.43 11.188 17.464.777.267 1.566-.992.806-1.526-1.264-.893-5.724-3.857-5.388-8.966 0 0 4.559 7.157 10.858 8.943a1.102 1.102 0 001.316-.58c.16-.34.267-.701.32-1.073 0 0 6.008 2.042 10.08 1.613-.476-14.042-4.745-20.7-12.807-24.61-8.062-3.909-13.757-1.067-13.757-1.067s-2.993 3.167-2.616 9.802z" fill="#CECECE"/><path d="M74.606 78.132c-5.69 0-19.645 6.548-26.048 2.72 0 2.732 1.438 6.548 1.925 7.755 3.04 7.58 16.82 16.095 24.807 16.066h.064c8.004.029 20.335-8.486 23.374-16.066a28.062 28.062 0 001.809-7.355c-10.834 2.019-20.277-3.12-25.931-3.12zm-7.163-30.137c5.527-5.162 7.128-10.063 7.128-10.063l.748-8.288s-5.139-4.704-16.362-.72c-6.067 2.158-16.536 9.89-16.82 24.042-.058 2.644-.33 5.98-.33 5.98s15.613-1.572 25.636-10.951z" fill="#2F2E3B"/><path d="M38.808 122.769c-.255 1.235-.389 5.672-.464 11.431 4.24 2.558 8.77 5.099 13.543 6.694-1.224-8.799-2.842-17.859-4.64-21.42a13.215 13.215 0 00-4.64-4.976c-3.271 1.432-3.115 4.982-3.8 8.271zm62.594-3.91c-1.416 3.045-2.854 12.18-3.99 21.211 4.755-1.792 9.279-4.64 13.432-7.372-.122-5.748-.302-10.051-.58-11.263-.742-3.301-1.056-6.264-4.333-7.633a12.29 12.29 0 00-4.529 5.057z" fill="#fff"/><path d="M47.757 90.016a1.16 1.16 0 01-1.084-.742c-.273-.702-6.49-17.4 2.459-36.018a1.16 1.16 0 112.094 1.003c-8.503 17.69-2.448 34.023-2.39 34.185a1.16 1.16 0 01-1.079 1.572z" fill="#2F2E3B"/><path d="M49.3 74.924a1.16 1.16 0 01-1.026-.62c-1.81-3.41-2.686-16.24 1.96-22.04a1.16 1.16 0 011.815 1.444c-3.955 4.976-3.236 16.68-1.74 19.534a1.16 1.16 0 01-1.009 1.682zm50.634 22.11a1.24 1.24 0 01-.319-.04 1.162 1.162 0 01-.8-1.433c.064-.226 6.299-22.736-1.015-40.536a1.16 1.16 0 112.14-.882c7.627 18.56 1.38 41.099 1.108 42.05a1.161 1.161 0 01-1.114.841z" fill="#2F2E3B"/><path d="M78.115 144.176c-.58-1.328-14.732-32.549-15.66-35.687-.888-2.952-1.804-5.411 1.392-7.354l.58.307c-2.68 1.63-2.396 3.637-1.421 6.885.928 3.097 15.503 35.287 15.66 35.612l-.551.237z" fill="#585860"/><path d="M75.064 136.242l-.528-.238.47-1.026c1.786-3.968 10.77-23.873 11.6-26.651.974-3.248 1.508-5.087-1.16-6.717l.58-.313c3.196 1.937 2.041 4.24 1.16 7.192-.83 2.749-9.118 21.153-11.635 26.726l-.487 1.027zM53.36 141.52c-.029-.197-2.645-19.848-4.002-22.666-1.357-2.819-3.967-6.833-7.731-6.334l.672-.418c4.606-.58 6.746 4.768 7.587 6.508 1.398 2.9 3.944 22.04 4.06 22.84l-.586.07zm42.213-.667l-.58-.052c.08-.806 1.925-19.691 3.323-22.62.84-1.74 3.665-6.96 7.685-6.514l.841.418c-3.764-.47-6.624 3.48-8.004 6.345-1.38 2.865-3.248 22.232-3.265 22.423z" fill="#585860"/><path d="M72.158 39.29c0 5.3 1.618 14.546 10.185 18.066.76.313 1.618-.905.887-1.479-1.206-.963-5.493-4.17-4.872-9.28 0 0 4.153 7.407 10.336 9.547a1.102 1.102 0 001.345-.51c.18-.331.308-.687.383-1.056 0 0 6.514 2.627 10.603 2.43.319-14.047-4.35-20.92-12.03-25.52-5.405-3.254-13.978-1.287-13.978-1.287s-2.86 2.453-2.86 9.088z" fill="#2F2E3B"/><path d="M42.77 53.285c2.383-14.071 11.64-21.078 17.707-23.235 7.714-2.75 12.557-1.375 14.83-.25v-.156s-5.127-4.704-16.35-.72c-6.067 2.158-16.536 9.89-16.82 24.042-.058 2.644-.33 5.98-.33 5.98s.701-4.095.962-5.661z" fill="#464552"/><path d="M63.324 30.334c-5.336 1.902-14.546 8.7-14.807 21.153 0 .075.18.185.18.162 2.094-12.377 10.625-18.427 15.961-20.3 4.577-1.63 7.999-1.612 10.36-1.125.034-.081.266-.047.3-.134a.835.835 0 000-.394c-2.279-.847-6.223-1.415-11.994.638z" fill="#464552"/><path d="M61.016 79.965a1.7 1.7 0 100-3.4 1.7 1.7 0 000 3.4zm27.284-.134a1.7 1.7 0 100-3.399 1.7 1.7 0 000 3.4z" fill="#CECECE"/><path d="M70.209 61.48c.325 1.63-.58 3.695-.58 3.695s-9.472-2.25-13.12-2.146c-1.74.046-4.64 1.374-4.64 1.374s2.755-4.414 5.22-4.57c3.759-.226 13.12 1.647 13.12 1.647zm9.552.458c-.319 1.636.58 3.695.58 3.695s9.466-2.28 13.114-2.187c1.74.04 4.64 1.363 4.64 1.363s-2.766-4.408-5.249-4.559c-3.73-.232-13.085 1.688-13.085 1.688zM52.565 67.86c-.661.273.377 1.798 1.74 1.549a27.97 27.97 0 018.12-.534c3.585.255 7.987 3.103 8.422 3.381.435.279.58 0 .272-.4-.307-.4-4.28-4.31-8.758-4.953a20.434 20.434 0 00-9.796.957z" fill="#2F2E3B"/><path d="M65.042 70.568c.106-1.877-1.428-3.491-3.427-3.604-1.999-.113-3.706 1.317-3.812 3.194-.106 1.877 1.428 3.491 3.427 3.604 1.999.113 3.705-1.317 3.812-3.194zm32.293-2.708c.662.267-.36 1.404-1.74 1.543-1.664.168-3.816.47-7.772.905-3.572.4-8.305 1.67-8.734 1.943-.43.272-.58 0-.279-.395.302-.394 4.339-2.552 8.799-3.312 5.19-.916 9.326-.875 9.727-.684z" fill="#2F2E3B"/><path d="M78.16 89.575h-3.126l2.46-7.105-6.351 9.303 3.01.006-2.343 7.1 6.35-9.304z" fill="#464552"/><path d="M57.878 71.218a.858.858 0 100-1.717.858.858 0 000 1.717zm10.562-5.713l-.51-.267a16.34 16.34 0 00.84-4.761h.58c-.098 1.96-.58 4.35-.91 5.028z" fill="#fff"/></svg>