<svg width="80" height="80" fill="none" xmlns="http://www.w3.org/2000/svg"><g clip-path="url(#clip0)"><path d="M39.75 79.822c19.696 0 35.662-15.966 35.662-35.662 0-19.695-15.967-35.66-35.662-35.66S4.09 24.464 4.09 44.16c0 19.696 15.965 35.662 35.66 35.662z" fill="#FFCF5C"/><path d="M79.358 33.747L59.542 64.594l-3.91-2.508 19.114-29.789c.808-1.26 2.472-1.605 3.732-.808l.416.273c.666.416.88 1.32.464 1.985zm-74.14-1.818l19.115 29.789-3.911 2.508L.606 33.403a1.45 1.45 0 01.416-1.985l.452-.274a2.702 2.702 0 013.744.785z" fill="#2F2E3B"/><path d="M20.529 62.847l-.345-.036.523-5.48-5.337-1.854.523-5.61-5.337-1.855.558-5.647-5.337-1.854.559-5.753.345.035-.524 5.48 5.338 1.879-.559 5.622 5.337 1.843-.523 5.622 5.302 1.843-.523 5.765zm36.041-1.225l-.142-.344 5.242-1.819-.559-5.61 5.338-1.855-.523-5.623 5.301-1.842-.523-5.623 5.48-1.914.095.345-5.194 1.819.523 5.61-5.338 1.855.559 5.622-5.337 1.843.523 5.623-5.444 1.913z" fill="#FFCF5C"/><path d="M5.527 31.834c-.903-1.427-2.829-1.855-4.29-.94l-.488.31c-.773.487-.975 1.497-.488 2.27l2.057 3.21c.214.309.63.38.903.214l3.352-2.164c.31-.214.417-.63.214-.903l-1.26-1.997zm10.782 33.593l10.995-7.05c.345-.214.809-.107 1.01.214.215.345.108.809-.213 1.01l-10.996 7.05c-.344.214-.808.107-1.01-.214-.238-.31-.13-.773.214-1.01zm58.163-33.249c.94-1.426 2.865-1.854 4.292-.939l.487.31c.773.487.975 1.497.487 2.27l-2.056 3.21c-.214.308-.63.415-.903.213l-3.353-2.163c-.309-.214-.416-.63-.214-.904l1.26-1.997zM62.883 67.067l-10.996-7.05a.708.708 0 01-.214-1.01.708.708 0 011.01-.213l10.996 7.049a.708.708 0 01.214 1.01c-.202.357-.654.452-1.01.214zM35.637 15.465a.678.678 0 01-.487-.214c-1.426-1.498-1.819-4.47-1.605-5.646a.685.685 0 01.808-.559c.38.071.63.416.56.808-.18.904.213 3.353 1.26 4.434a.672.672 0 01-.036.975.743.743 0 01-.5.202z" fill="#2F2E3B"/><path d="M37.42 17.902c-2.58-2.057-3.102-12.422 3.911-16.5 7.014-4.077 17.165 1.19 18.211 9.915.702 5.931-1.854 7.916 1.57 11.233a7.555 7.555 0 003.625 1.878c.214.036.345.273.309.487-.036.143-.143.25-.25.274-2.306.772-6.8 1.913-9.284.035-4.22-3.174-2.092-8.44-4.148-10.639-2.235-2.377-7.05-1.462-7.394 2.057-.238 2.342-6.55 1.26-6.55 1.26z" fill="#2F2E3B"/><path d="M34.413 15.643c.345-3.387 10.473-3.21 11.09 0 .619 3.21-11.399 2.782-11.09 0z" fill="#FFCF5C"/><path d="M34.282 59.804v2.128s3.031 2.936 5.968 2.829c2.936-.107 5.622-2.473 5.622-2.473v-2.472h-11.59v-.012z" fill="#D1D1D1"/><path d="M40.416 17.379c-3.519-2.2-9.914-2.092-15.037 3.732-3.388 3.84-5.123 8.928-4.636 12.387.487 3.459-.975 3.946-.31 6.942.666 2.995 3.876 4.041 3.876 4.041s30.776.107 31.572 0c.808-.107 4.398-2.58 4.636-6.835.903-16.499-8.618-20.196-12.66-21.278-3.875-1.01-7.441 1.01-7.441 1.01z" fill="#2F2E3B"/><path d="M55.322 42.817c1.878-1.914 3.555-2.544 4.85-1.819 1.296.737-.63 7.014-2.234 7.192-1.605.178-3.139-1.819-3.139-1.819l.523-3.554zm-31.156 0c-1.878-1.914-3.554-2.544-4.85-1.819-1.295.737.63 7.014 2.235 7.192 1.605.178 3.138-1.819 3.138-1.819l-.523-3.554z" fill="#fff"/><path d="M39.964 22.372c-3.28 0-16.368.903-16.119 14.763.214 11.091.524 12.91 1.64 15.739 1.82 4.564 10.117 9.664 14.931 9.664 4.814 0 12.244-5.1 14.062-9.664 1.118-2.794 1.427-4.6 1.64-15.739.215-13.86-12.873-14.763-16.154-14.763z" fill="#fff"/><path d="M35.673 28.446c3.317-3.103 4.291-6.075 4.291-6.075l.452-4.992s-3.102-2.83-9.842-.416c-3.662 1.296-9.938 5.931-10.116 14.478a63.923 63.923 0 01-.214 3.59s9.39-.939 15.43-6.585z" fill="#2F2E3B"/><path d="M38.502 23.215c0 3.174.975 8.761 6.146 10.889.451.178.975-.559.523-.903-.737-.595-3.317-2.509-2.936-5.587 0 0 2.508 4.47 6.205 5.753a.68.68 0 00.808-.31c.107-.213.178-.415.25-.63 0 0 3.91 1.57 6.383 1.463.178-8.44-2.508-12.731-7.227-15.346-4.72-2.615-8.238-1.13-8.238-1.13s-1.914 1.784-1.914 5.801zM24.69 56.737a.735.735 0 01-.666-.452c-.214-.558-4.743-13.468.63-24.665a.696.696 0 01.939-.31.696.696 0 01.309.94c-5.123 10.674-.63 23.477-.595 23.584.143.344-.07.772-.416.903h-.202z" fill="#2F2E3B"/><path d="M24.749 44.636a.745.745 0 01-.63-.38c-1.082-2.057-1.64-9.772 1.189-13.255a.686.686 0 01.974-.106c.31.25.345.665.107.974-2.377 2.996-1.95 10.01-1.046 11.757.178.344.036.772-.273.939-.107.035-.214.071-.321.071zm30.466 13.29c-.07 0-.142 0-.178-.036a.696.696 0 01-.487-.868c.035-.142 3.768-13.682-.63-24.392-.143-.345.035-.773.38-.903.345-.143.773.035.904.38 4.564 11.162.832 24.737.665 25.296-.06.344-.344.523-.654.523zM31.94 16.511c3.495-1.747 12.28-1.117 14.515-.452 2.234.666-1.498 4.292-1.498 4.292h-7.881l-5.135-3.84zm4.541 24.773h-.07l-8.797-1.118a.542.542 0 01-.452-.594.542.542 0 01.594-.452l8.797 1.118a.543.543 0 01.452.594c-.072.238-.286.452-.524.452z" fill="#2F2E3B"/><path d="M32.083 44.493a2.163 2.163 0 100-4.326 2.163 2.163 0 000 4.326zm11.899-3.494a.558.558 0 01-.523-.452.55.55 0 01.452-.594l8.796-1.118a.55.55 0 01.595.452.55.55 0 01-.452.594L44.053 41h-.07z" fill="#2F2E3B"/><path d="M48.368 44.208a2.163 2.163 0 100-4.327 2.163 2.163 0 000 4.327z" fill="#2F2E3B"/><path d="M31.798 47.667a1.01 1.01 0 100-2.02 1.01 1.01 0 000 2.02zm16.44-.107a1.01 1.01 0 100-2.02 1.01 1.01 0 000 2.02z" fill="#D1D1D1"/><path d="M43.067 35.91c-.143.904.452 2.022.452 2.022s6.169-1.462 7.12-1.605c.95-.143 2.58.594 2.58.594s-2.021-1.985-2.58-2.306c-.559-.309-7.572 1.296-7.572 1.296zm-6.027 0c.143.904-.452 2.022-.452 2.022s-6.169-1.462-7.12-1.605c-.95-.143-2.58.594-2.58.594s2.021-1.985 2.58-2.306c.559-.309 7.572 1.296 7.572 1.296z" fill="#2F2E3B"/><path d="M59.364 64.796l-3.91-2.508-1.51 2.342a63.299 63.299 0 014.326 1.866c.702-1.093 1.094-1.7 1.094-1.7zm-34.817-2.888l-3.911 2.508 1.272 1.973a69.602 69.602 0 014.327-1.854l-1.688-2.627z" fill="#fff"/><path d="M20.327 67.34l-.024-.202c-.012.012-.036.012-.047.024-.523.273-.832.832-.832 1.426v.904s.356-.547.82-.785c.154-.107.309-.214.499-.297.214.143.428.31.63.476.047.035.107.07.154.118.048.036.096.084.131.12l.143.142a8.429 8.429 0 011.724 2.151c.546 1.07 1.058 2.96 1.533 5.23.345.155.677.31 1.022.453-.44-2.723-.939-5.326-1.295-6.063-.833-1.7-2.188-3.97-4.458-3.697z" fill="#25252D"/><path d="M34.282 65.32v-5.73c-2.9 1.165-5.658 2.924-7.013 4.553-.345.13-.678.273-1.022.404A55.678 55.678 0 0021.92 66.4a53.7 53.7 0 00-1.248.583c2.52-.024 3.97 2.924 4.433 3.922.38.785.892 3.53 1.344 6.348a35.624 35.624 0 0012.719 2.556c-2.675-5.968-6.146-13.813-6.49-14.978-.524-1.783-1.01-3.316.939-4.47l.178.31c-1.605.974-1.331 2.163-.773 4.077.345 1.141 3.875 9.082 6.55 15.06h.404V78.3l-5.694-12.98zm24.559 2.686c.737.32 1.224.773 1.581 1.32.083.106.13.178.13.178V68.6c0-.594-.308-1.153-.831-1.426-.214-.107-.428-.19-.642-.297l-.024.261c-2.27-.273-3.626 1.985-4.47 3.697-.356.713-.784 3.412-1.153 6.277.452-.19.904-.393 1.355-.607.428-2.484.892-4.493 1.332-5.468a7.206 7.206 0 012.722-3.031z" fill="#25252D"/><path d="M54.264 70.657c.512-1.023 1.986-4.042 4.6-3.887-.201-.096-.403-.19-.594-.286a60.803 60.803 0 00-4.327-1.866c-.415-.166-.832-.345-1.248-.5-1.331-1.592-4.017-3.328-6.87-4.492v5.682l-5.79 13.123-.059-.119v1.51c.226 0 .452-.012.678-.012 1.652-3.685 6.086-13.587 6.561-15.073.56-1.878.832-3.103-.772-4.077l.178-.31c1.914 1.154 1.462 2.687.94 4.47-.476 1.522-4.684 10.96-6.503 15.002a35.254 35.254 0 0011.982-2.544c.392-2.984.844-5.837 1.224-6.621z" fill="#25252D"/><path d="M39.976 78.312l.06.13 5.789-13.122V54.122H34.282V65.32l5.694 12.992zm-18.163-9.034l-.143-.143c-.048-.036-.083-.083-.13-.119-.048-.047-.108-.083-.155-.119a8.709 8.709 0 00-.63-.475c-.19.083-.345.19-.5.297-1.271.892-1.39 2.496-1.664 4.137a35.713 35.713 0 006.49 3.804c-.475-2.283-.986-4.16-1.533-5.23a8.473 8.473 0 00-1.735-2.152zm37.028-1.272a7.206 7.206 0 00-2.722 3.031c-.452.975-.904 2.984-1.331 5.468a36.266 36.266 0 006.644-4.03c-.261-1.176-.463-2.282-1.01-3.15-.357-.547-.844-.998-1.581-1.32z" fill="#fff"/><path d="M33.795 60.684l-.178-.31c-1.95 1.154-1.462 2.687-.94 4.47.345 1.177 3.828 9.022 6.49 14.978.132 0 .274.012.405.012-2.675-5.98-6.205-13.92-6.55-15.061-.558-1.926-.832-3.115.773-4.09zm12.838-.357l-.178.309c1.604.975 1.331 2.2.772 4.077-.475 1.498-4.909 11.388-6.561 15.073.13 0 .273 0 .404-.012 1.83-4.041 6.038-13.48 6.502-15.001.523-1.76.975-3.293-.939-4.446zM25.105 70.906c-.463-.998-1.913-3.958-4.433-3.922-.12 0-.25 0-.38.023l.011.155.024.202c2.27-.273 3.625 1.985 4.47 3.697.356.737.855 3.34 1.295 6.062l.357.143c-.452-2.83-.963-5.575-1.344-6.36zm29.48-.071c.832-1.712 2.2-3.982 4.47-3.697l.024-.261.012-.084c-.072-.012-.143-.012-.214-.012-2.616-.166-4.09 2.865-4.6 3.888-.393.772-.845 3.625-1.225 6.597.13-.048.25-.095.38-.155.369-2.864.797-5.563 1.153-6.276z" fill="#585860"/><path d="M40 46.55c-3.424 0-10.746 3.423-15.251 4.148.178.737.416 1.462.737 2.164 1.819 4.564 10.116 9.664 14.93 9.664h.036c4.814 0 12.243-5.1 14.062-9.664a25.96 25.96 0 00.737-2.164C49.355 49.378 43.388 46.55 40 46.55z" fill="#2F2E3B"/></g><defs><clipPath id="clip0"><path fill="#fff" d="M0 0h80v79.822H0z"/></clipPath></defs></svg>