<svg width="431" height="579" fill="none" xmlns="http://www.w3.org/2000/svg"><g clip-path="url(#clip0)"><path d="M215.5 517.541c119.017 0 215.5-96.616 215.5-215.799s-96.483-215.8-215.5-215.8S0 182.56 0 301.743s96.483 215.799 215.5 215.799z" fill="#FFCF5C"/><path d="M330.328 96.054l-56.226 87.628-11.087-7.137 54.246-84.654c2.277-3.57 7.028-4.56 10.592-2.28l1.188.793c1.881 1.19 2.475 3.766 1.287 5.65z" fill="#2F2E3B"/><path d="M273.607 184.277l-11.087-7.137L91.466 443.791c-.297.496-.198 1.09.297 1.388a.9.9 0 00.99 0l9.8-5.254c4.851-2.577 9.305-6.146 12.968-10.309 1.781-1.983 158.086-245.339 158.086-245.339z" fill="#fff"/><path d="M120.173 90.602l54.246 84.456-11.086 7.137-56.226-87.529a4.142 4.142 0 011.187-5.65l1.287-.793c3.564-2.18 8.315-1.19 10.592 2.379z" fill="#2F2E3B"/><path d="M163.729 183.186l11.086-7.137 171.054 266.652c.297.495.198 1.09-.297 1.387a.895.895 0 01-.99 0l-9.8-5.253a43.55 43.55 0 01-12.967-10.31c-1.683-1.982-158.086-245.339-158.086-245.339z" fill="#fff"/><path d="M176.894 477.692l-31.182-6.344-10.096 74.94c-7.326 8.723-16.037 16.158-25.738 22.105v9.616s41.18.991 42.764 0c1.584-.992.396-6.146.198-10.012-.198-3.866-2.277-17.645-2.277-17.645.198-.694 11.483-32.612 14.947-42.723 2.079-6.047 11.384-29.937 11.384-29.937z" fill="#25252D"/><path d="M96.91 578.405c0-3.866 1.386-11.102 9.405-13.085 11.086-2.676 41.179 13.085 41.179 13.085H96.911z" fill="#2F2E3B"/><path d="M261.53 478.089l31.182-6.344 9.998 75.039c7.325 8.723 16.036 16.157 25.737 22.105v9.615s-41.18.992-42.763 0c-1.584-.991-.396-6.146-.198-10.011.198-3.866 2.276-17.645 2.276-17.645-.198-.694-11.482-32.613-14.947-42.724-2.079-6.146-11.285-30.035-11.285-30.035z" fill="#25252D"/><path d="M341.514 578.802c0-3.866-1.386-11.103-9.404-13.085-11.087-2.677-41.18 13.085-41.18 13.085h50.584z" fill="#2F2E3B"/><path d="M163.432 178.726l-.99-.1 1.484-15.562-15.145-5.254 1.485-15.96-15.145-5.253 1.583-16.059-15.145-5.254 1.584-16.356.99.1-1.485 15.563 15.145 5.352-1.584 15.96 15.146 5.254-1.485 15.959 15.046 5.254-1.484 16.356zm102.256-3.47l-.396-.991 14.848-5.155-1.584-15.959 15.146-5.254-1.485-15.959 15.046-5.254-1.485-15.959 15.542-5.452.297.991-14.75 5.155 1.485 15.959-15.145 5.254 1.584 15.959-15.146 5.254 1.485 15.959-15.442 5.452z" fill="#FFCF5C"/><path d="M120.866 90.602c-2.574-4.064-8.018-5.254-12.176-2.677l-1.385.892c-2.178 1.388-2.772 4.263-1.386 6.444l5.84 9.119c.594.893 1.782 1.091 2.574.595l9.503-6.146c.891-.594 1.188-1.784.594-2.577l-3.564-5.65zm30.588 95.459l31.181-20.024c.99-.594 2.277-.297 2.871.595.594.991.297 2.28-.594 2.875l-31.181 20.024c-.99.594-2.277.297-2.871-.595-.693-.892-.396-2.181.594-2.875zm165.015-94.468c2.673-4.064 8.117-5.254 12.176-2.676l1.386.892c2.178 1.388 2.771 4.262 1.386 6.443l-5.841 9.12c-.594.892-1.782 1.189-2.574.595l-9.502-6.146c-.891-.595-1.188-1.784-.594-2.578l3.563-5.65zm-32.864 99.127l-31.182-20.024c-.99-.595-1.287-1.883-.594-2.874.594-.992 1.881-1.289 2.871-.595l31.181 20.023c.99.595 1.287 1.884.594 2.875-.594.991-1.88 1.289-2.87.595zM226.884 51.744c7.325-5.848 8.81-35.289-11.087-46.887C195.9-6.74 165.114 2.082 158.779 33.901c-4.158 20.718 10.196 52.438-6.434 65.226-3.069 2.478-6.534 4.361-10.295 5.353-.594.099-.99.694-.891 1.387.099.397.396.694.693.794 6.533 2.18 18.61 4.361 26.331.099 30.885-16.654 13.562-48.573 21.778-62.55 5.939-10.11 17.224-6.145 18.214 3.966.792 6.641 18.709 3.568 18.709 3.568z" fill="#2F2E3B"/><path d="M179.864 55.71l8.117-4.759s1.683-12.39 9.008-12.39c7.325 0 8.612 3.568 8.612 3.568l4.059-.694c-3.069-11.201-9.206-14.274-16.928-13.878-9.107.496-15.937 11.598-12.868 28.152z" fill="#24242D"/><path d="M164.421 21.213c-1.88 3.172-3.563 6.543-5.048 9.913 7.424-29.54 37.121-37.57 56.424-26.269 19.897 11.598 18.412 41.039 11.087 46.887 0 0-.792.1-2.079.298l.594-13.68c1.683-21.808-15.442-34.992-32.073-34.199-16.63.793-24.747 10.111-28.905 17.05z" fill="#464552"/><path d="M223.221 38.461h-.99c0-26.665-19.006-34.397-30.291-34.694v-.991c10.295.297 18.611 4.56 24.253 12.39 4.454 6.146 7.028 14.671 7.028 23.295z" fill="#464552"/><path d="M231.833 44.805c-.495 0-.99-.198-1.386-.594a2.013 2.013 0 01-.099-2.776c2.97-3.073 3.96-10.012 3.465-12.59-.198-1.09.495-2.08 1.584-2.279 1.089-.198 2.079.496 2.277 1.586.594 3.37-.396 11.796-4.554 16.059-.198.396-.693.594-1.287.594z" fill="#2F2E3B"/><path d="M202.829 44.607c.99-9.615 29.697-9.12 31.479 0s-32.37 7.93-31.479 0z" fill="#FFB037"/><path d="M218.668 165.74c-11.978 0-29.697 8.922-36.131 16.654a177.011 177.011 0 00-19.897 8.624c-1.485.793-2.376 2.379-2.376 4.064v2.577s1.98-3.073 4.058-2.478c4.554 1.189 9.998 12.49 12.968 28.35 1.98 10.309 5.939 66.316 5.939 66.316l35.34-.892.099-123.215z" fill="#25252D"/><path d="M218.569 165.74c11.977 0 29.696 8.922 36.131 16.654a177.17 177.17 0 0119.897 8.624c1.484.793 2.375 2.379 2.375 4.064v2.577s-1.979-3.073-4.058-2.478c-4.554 1.189-9.998 12.49-12.968 28.35-1.98 10.309-5.939 66.316-5.939 66.316l-35.339-.892-.099-123.215z" fill="#25252D"/><path d="M235.199 185.764l-16.432 37.272-16.334-37.272v-31.82h32.766v31.82z" fill="#fff"/><path d="M202.433 170.102v6.047s8.612 8.326 16.928 8.029c8.315-.298 15.937-7.038 15.937-7.038v-7.038h-32.865z" fill="#CECECE"/><path d="M219.856 49.563c-9.998-6.245-28.113-5.947-42.665 10.607-9.602 10.904-14.551 25.376-13.165 35.19 1.385 9.814-2.772 11.201-.891 19.726 1.88 8.525 10.987 11.499 10.987 11.499s87.309.297 89.586 0c2.277-.297 12.473-7.335 13.165-19.429 2.574-46.887-24.45-57.394-35.933-60.467-10.988-2.875-21.084 2.874-21.084 2.874z" fill="#2F2E3B"/><path d="M240.94 46.689c-10.988-2.974-21.084 2.874-21.084 2.874.593-.198-1.089 1.09-.495.992 14.947-3.172 31.676.297 42.664 15.86 12.572 17.843 11.483 44.508 5.345 58.287 5.643-4.164 9.107-10.607 9.602-17.546 2.475-46.887-24.549-57.394-36.032-60.467z" fill="#464552"/><path d="M262.124 121.827c5.345-5.452 10.097-7.236 13.76-5.155 3.662 2.082-1.782 19.925-6.336 20.42-4.553.496-8.909-5.154-8.909-5.154l1.485-10.111zm-88.398 0c-5.345-5.452-10.096-7.236-13.759-5.155-3.663 2.082 1.782 19.925 6.335 20.42 4.554.496 8.909-5.154 8.909-5.154l-1.485-10.111z" fill="#fff"/><path d="M218.569 63.739c-9.305 0-46.426 2.577-45.733 41.93.593 31.523 1.484 36.677 4.652 44.706 5.148 12.986 28.707 27.459 42.368 27.459 13.66 0 34.745-14.473 39.892-27.459 3.168-7.93 4.059-13.084 4.653-44.706.594-39.353-36.527-41.93-45.832-41.93z" fill="#fff"/><path d="M212.827 69.29c.495 9.02 4.158 24.682 19.105 29.837 1.287.495 2.673-1.685 1.386-2.578-2.178-1.486-9.8-6.542-9.206-15.265 0 0 7.82 12.193 18.511 15.265.891.298 1.881-.198 2.277-.99.297-.596.495-1.19.495-1.884 0 0 10.295 3.47 17.224 2.775-.792-23.988-8.117-35.388-21.877-42.03-13.759-6.64-23.46-1.784-23.46-1.784s-5.049 5.353-4.455 16.654z" fill="#CECECE"/><path d="M218.668 132.434c-9.701 0-33.558 11.201-44.447 4.659 0 4.659 2.475 11.201 3.267 13.283 5.148 12.985 28.707 27.458 42.368 27.458h.099c13.66 0 34.745-14.473 39.892-27.458 1.584-4.065 2.673-8.228 3.069-12.59-18.511 3.47-34.646-5.352-44.248-5.352zm-12.275-51.447c9.404-8.823 12.176-17.248 12.176-17.248l1.287-14.175s-8.811-8.03-27.915-1.19c-10.394 3.668-28.212 16.851-28.707 41.138-.099 4.56-.594 10.21-.594 10.21s26.628-2.677 43.753-18.735z" fill="#2F2E3B"/><path d="M164.025 194.586c-5.543 2.478-5.246 8.426-6.434 14.175-1.188 5.749-.99 56.106-.594 60.666.396 4.56.891 11.994 12.671 9.615 5.444-1.09 14.254-4.064 14.254-4.064s-5.147-58.485-11.977-71.867c-1.881-3.47-4.653-6.344-7.92-8.525z" fill="#fff"/><path d="M177.389 251.584c-13.561 9.417-5.444 25.277 1.485 27.359 15.145-5.154 56.424-22.601 56.424-22.601l-4.653-11.102-53.256 6.344z" fill="#464552"/><path d="M272.122 193.396c5.543 2.38 6.137 7.435 7.424 13.085 1.287 5.65 1.485 56.998.99 61.558-.693 6.741-5.444 11.102-12.473 9.814-5.444-.992-14.353-3.767-14.353-3.767s5.444-60.765 10.691-72.065a20.311 20.311 0 017.721-8.625z" fill="#fff"/><path d="M172.836 152.754c-.792 0-1.584-.495-1.881-1.288-.495-1.19-11.087-29.738 4.157-61.558a1.983 1.983 0 012.673-.892 1.988 1.988 0 01.891 2.676c-14.551 30.234-4.158 58.188-4.059 58.386.396.991-.099 2.181-1.187 2.577-.198.099-.396.099-.594.099z" fill="#2F2E3B"/><path d="M175.409 126.982c-.693 0-1.386-.397-1.782-1.091-3.068-5.848-4.652-27.755 3.366-37.668.693-.892 1.881-.991 2.772-.297.891.694.99 1.883.297 2.775-6.732 8.525-5.544 28.45-2.97 33.406.495.991.099 2.181-.792 2.676-.297.099-.594.199-.891.199zm86.418 37.767c-.198 0-.396 0-.495-.099-1.089-.298-1.683-1.388-1.386-2.478.099-.397 10.691-38.858-1.782-69.29-.395-.991.099-2.18 1.089-2.577.99-.397 2.178.099 2.574 1.09 12.968 31.721 2.376 70.281 1.881 71.867-.198.991-.99 1.487-1.881 1.487z" fill="#2F2E3B"/><path d="M230.546 245.835l23.164-3.866 4.454 12.787-25.143-2.875-2.475-6.046zm-48.009-5.651c-.792 2.379-7.128 11.896-7.128 11.896l33.459-3.966-26.331-7.93z" fill="#fff"/><path d="M277.737 275.685c1.894-1.897 2.458-4.407 1.26-5.608-1.199-1.2-3.706-.635-5.6 1.262-1.894 1.897-2.458 4.408-1.26 5.608 1.198 1.2 3.705.635 5.6-1.262zm-112.732 3.018c1.198-1.2.634-3.71-1.26-5.607-1.894-1.897-4.401-2.462-5.6-1.262-1.198 1.2-.634 3.711 1.26 5.608 1.895 1.896 4.402 2.461 5.6 1.261zm17.532 1.231l73.351-6.443-1.386 17.05-71.767.099-.198-10.706z" fill="#CECECE"/><path d="M258.857 250.692c9.602 6.641 8.414 24.484.396 28.35-15.64-3.073-55.038-20.222-55.038-20.222l4.95-11.003 49.692 2.875z" fill="#464552"/><path d="M182.833 290.937l-.098-.495 68.599-8.823h-68.797v-.495h72.658v.495l-72.362 9.318z" fill="#2F2E3B"/><path d="M225.102 246.429c-1.089-2.28-25.638-56.7-27.222-62.053-1.485-5.055-3.069-9.318 2.376-12.589l.891.495c-4.554 2.776-4.059 6.444-2.376 11.797 1.584 5.253 26.925 61.359 27.222 61.954l-.891.396z" fill="#585860"/><path d="M219.46 231.759l-.891-.397 1.583-3.568c4.356-9.715 17.621-39.354 19.006-43.715 1.584-5.353 2.574-8.724-1.979-11.499l.99-.595c5.444 3.271 3.464 7.236 1.979 12.292-1.386 4.461-14.155 33.108-19.006 43.814l-1.682 3.668zm-37.22 8.525c0-.298-4.356-33.406-6.732-38.263-2.375-4.858-6.434-11.499-13.462-10.706l.99-.595c7.82-.991 11.878 7.831 13.264 10.805 2.376 4.956 6.633 37.172 6.83 38.56l-.89.199zm71.965 1.784l-.99-.099c.099-1.487 3.465-36.083 5.939-41.039 1.485-2.974 5.346-12.093 13.166-11.102l1.584.793c-6.336-.793-11.483 5.848-13.859 10.805-2.375 4.758-5.84 40.344-5.84 40.642z" fill="#585860"/><path d="M100.375 435.068l-.396-.297 69.788-108.842.495.198-69.887 108.941zM265.839 322.13l-.416.268 72.217 112.597.416-.268-72.217-112.597z" fill="#2F2E3B"/><path d="M182.735 290.64c-26.134 57.989-25.837 124.305-33.855 149.582-8.018 25.278-23.46 66.613-32.666 86.637 17.026 14.473 38.902 14.473 56.424 14.473 6.038-34.001 13.165-86.043 15.937-96.451 2.772-10.408 26.034-86.934 29.994-86.934v-67.406l-35.834.099z" fill="#2F2E3B"/><path d="M176.566 423.66c1.05-6.706-.944-12.589-4.455-13.141-3.511-.551-7.208 4.439-8.258 11.145-1.05 6.707.945 12.59 4.455 13.141 3.511.552 7.208-4.438 8.258-11.145z" fill="#464552"/><path d="M254.502 290.541c18.412 30.233 25.737 124.404 33.755 149.582 8.018 25.278 23.461 66.613 32.667 86.637-17.026 14.572-38.903 14.473-56.424 14.473-6.039-34.001-13.166-86.043-15.938-96.451-2.771-10.408-26.034-86.934-29.993-86.934v-67.307h35.933z" fill="#2F2E3B"/><path d="M269.951 435.305c3.51-.551 5.505-6.434 4.455-13.141-1.05-6.706-4.747-11.696-8.258-11.145-3.511.551-5.505 6.435-4.455 13.141 1.05 6.707 4.747 11.697 8.258 11.145z" fill="#464552"/><path d="M214.411 66.118c0 9.02 2.772 24.88 17.422 30.927 1.287.496 2.772-1.586 1.485-2.577-2.079-1.685-9.404-7.137-8.315-15.86 0 0 7.127 12.688 17.62 16.356.891.297 1.881-.1 2.277-.892.297-.595.495-1.19.693-1.785 0 0 11.087 4.46 18.115 4.163.495-23.988-7.424-35.784-20.491-43.615-9.206-5.551-23.856-2.181-23.856-2.181s-4.95 4.064-4.95 15.464z" fill="#2F2E3B"/><path d="M164.322 90.007c4.059-24.088 19.897-35.983 30.192-39.75 13.166-4.659 21.382-2.379 25.342-.396v-.297s-8.811-8.03-27.915-1.19c-10.394 3.668-28.212 16.851-28.707 41.138-.099 4.56-.594 10.21-.594 10.21s1.188-7.038 1.682-9.715z" fill="#464552"/><path d="M199.365 50.753c-9.107 3.271-24.847 14.869-25.243 36.181 0 .1.297.298.297.298 3.564-21.114 18.115-31.523 27.223-34.695 7.82-2.775 13.66-2.775 17.719-1.883.099-.1.495-.1.495-.198a.848.848 0 000-.694c-3.96-1.487-10.592-2.479-20.491.99z" fill="#464552"/><path d="M195.405 135.606a2.873 2.873 0 002.871-2.875 2.873 2.873 0 00-2.871-2.875 2.873 2.873 0 00-2.871 2.875 2.873 2.873 0 002.871 2.875zm46.624-.298a2.872 2.872 0 002.871-2.874 2.873 2.873 0 00-2.871-2.875 2.873 2.873 0 00-2.871 2.875 2.873 2.873 0 002.871 2.874z" fill="#CECECE"/><path d="M211.738 102.2c.891 2.676-.198 6.344-.198 6.344s-16.531-1.883-22.668-.991c-2.97.396-7.622 3.271-7.622 3.271s3.761-8.029 7.919-8.822c6.335-1.091 22.569.198 22.569.198zm15.047 0c-.891 2.676.198 6.344.198 6.344s16.531-1.883 22.668-.991c2.97.396 7.623 3.271 7.623 3.271s-3.762-8.029-7.92-8.822c-6.335-1.091-22.569.198-22.569.198zm-45.733 12.787c-1.089.496.594 3.073 2.969 2.676a46.495 46.495 0 0113.859-.892c6.137.397 13.66 5.353 14.353 5.75.693.396.99 0 .495-.694s-7.325-7.336-14.947-8.426c-5.642-.892-11.384-.396-16.729 1.586z" fill="#2F2E3B"/><path d="M202.269 119.591c.183-3.224-2.413-5.994-5.797-6.186-3.384-.192-6.275 2.267-6.458 5.492-.182 3.225 2.414 5.994 5.798 6.186 3.384.192 6.275-2.267 6.457-5.492zm55.104-4.703c1.088.496-.594 3.073-2.97 2.676a46.495 46.495 0 00-13.859-.892c-6.137.397-13.66 5.353-14.353 5.75-.693.396-.99 0-.495-.694s7.325-7.336 14.947-8.426c5.643-.892 11.384-.297 16.73 1.586z" fill="#2F2E3B"/><path d="M242.653 124.89c3.385-.192 5.98-2.961 5.798-6.186-.182-3.225-3.074-5.684-6.458-5.492-3.384.192-5.98 2.962-5.797 6.186.182 3.225 3.073 5.684 6.457 5.492z" fill="#2F2E3B"/><path d="M224.706 152.061h-5.345l4.157-12.193-10.79 15.959h5.148l-4.059 12.094 10.889-15.86z" fill="#464552"/><path d="M190.06 120.637a1.486 1.486 0 10-.001-2.971 1.486 1.486 0 00.001 2.971zm46.723.298a1.486 1.486 0 000-2.974 1.486 1.486 0 000 2.974z" fill="#fff"/></g><defs><clipPath id="clip0"><path fill="#fff" d="M0 0h431v579H0z"/></clipPath></defs></svg>