<svg width="444" height="530" fill="none" xmlns="http://www.w3.org/2000/svg"><path d="M227.721 418.839c89.329 0 161.745-72.279 161.745-161.44S317.05 95.959 227.721 95.959c-89.329 0-161.745 72.279-161.745 161.44s72.416 161.44 161.745 161.44z" fill="#FFAE37"/><path d="M145.994 425.142l-18.574-14.98s-22.958 35.596-31.502 47.09c-3.79 5.117-12.556 11.124-24.964 16.463l4.31 7.119s30.981.742 32.095 0c1.115-.742 1.561-3.782 1.412-6.674-.074-2.151-.148-8.009-.594-11.05 5.423-5.116 15.454-17.649 19.911-21.95 3.492-3.337 17.906-16.018 17.906-16.018z" fill="#25252D"/><path d="M61.518 481.131c0-2.893 1.486-8.973 7.653-8.973 10.773 0 30.313 8.973 30.313 8.973H61.518z" fill="#2F2E3B"/><path d="M270.664 461.627l22.735-49.982-18.351-8.602s-5.052 18.539-6.612 23.063c-5.201 15.128-9.882 29.737-13.671 39.6-3.269 8.602-6.315 13.422-3.715 15.128 1.114.741 37.892-.297 37.892-.297v-7.119c-8.396-5.042-15.454-8.676-18.278-11.791z" fill="#25252D"/><path d="M298.749 481.131c0-2.893 3.418-6.971-2.6-8.38-8.322-1.928-35.44 8.38-35.44 8.38h38.04zM117.315 187.395l62.41 42.195-5.498 8.157-64.639-43.678c-1.411-.964-1.783-2.818-.817-4.227l.594-.89c1.784-2.595 5.35-3.337 7.95-1.557z" fill="#2F2E3B"/><path d="M174.747 237.97l5.498-8.158 196.739 132.89c.371.222.446.667.223 1.038-.149.223-.446.371-.669.297l-8.321-.742c-4.161-.371-8.173-1.483-11.962-3.263-1.783-.89-181.508-122.062-181.508-122.062z" fill="#fff"/><path d="M172.518 235.3l-3.566-11.198-12.036.816-3.641-11.42-11.962.89-3.715-11.494-11.962.889-3.714-11.716.668-.223 3.567 11.124 11.961-.816 3.715 11.42 11.962-.816 3.641 11.421 12.036-.816 3.715 11.717-.669.222z" fill="#FFAE37"/><path d="M117.835 186.95c-3.046-2.077-7.132-1.261-9.213 1.78l-.668 1.038c-1.115 1.631-.669 3.782.891 4.82l6.761 4.524c.669.444 1.561.296 2.006-.371l4.755-7.045c.446-.668.298-1.557-.371-2.002l-4.161-2.744zm49.334 56.656l15.602-22.989c.52-.742 1.486-.89 2.155-.445.743.519.891 1.483.446 2.151l-15.603 22.988c-.52.742-1.486.89-2.155.445a1.483 1.483 0 01-.445-2.15z" fill="#2F2E3B"/><path d="M264.869 203.858s-2.897-3.56-9.51-3.634c-7.875-.148-12.927 4.449-20.357 4.449-8.544-4.153-17.98.149-23.775 3.856-7.727 3.634-15.231 11.346-18.946 20.319-4.086 3.56-8.024 7.268-11.665 11.272a3.49 3.49 0 00-.594 3.486l.669 1.779s.594-2.669 2.229-2.818c3.566-.37 10.327 6.156 16.568 16.389 4.086 6.674 18.426 42.566 18.426 42.566l27.861-7.638-.297-.667.297.667 18.054-2.002s4.904-18.02 4.904-53.541c.074-10.976-3.864-34.483-3.864-34.483z" fill="#25252D"/><path d="M256.103 309.754l-33.286-11.791c-35.514 25.361-59.214 63.701-74.222 80.238a77.473 77.473 0 00-7.43 9.64c-9.733 14.831-26.524 40.416-36.332 52.652 8.322 14.534 17.535 19.429 29.868 23.878 11.739-20.467 36.628-66.815 36.554-66.89 9.585-9.047 37.297-33.963 51.042-42.566 34.549-21.357 33.806-45.161 33.806-45.161z" fill="#2F2E3B"/><path d="M222.743 297.963s10.327 24.175 17.089 35.892c11.59 18.687 24.889 24.397 40.417 44.049-4.383 11.272-24.146 44.494-35.96 66.519 11.071 7.119 34.623 3.337 45.322-1.409 1.783-12.458 15.602-40.935 23.403-57.249 2.824-6.081 2.303-13.2-1.337-18.762-11.59-17.575-26.524-52.503-49.705-76.678l-39.229 7.638z" fill="#2F2E3B"/><path d="M214.719 293.439l52.974-12.532-1.486 14.089-49.482 7.49-2.006-9.047z" fill="#CCC"/><path d="M152.662 391.628c2.95-4.137 3.581-8.743 1.408-10.286-2.173-1.544-6.327.558-9.277 4.696-2.951 4.137-3.581 8.743-1.408 10.287 2.173 1.543 6.326-.559 9.277-4.697zm160.613-12.234c.89-5.001-.517-9.432-3.143-9.897-2.626-.466-5.477 3.21-6.367 8.211-.89 5 .518 9.431 3.144 9.897 2.626.465 5.476-3.211 6.366-8.211z" fill="#464552"/><path d="M234.185 216.983l-3.269 30.256-20.209-22.84-7.281-22.692 23.478-7.416 7.281 22.692z" fill="#fff"/><path d="M207.141 213.275l3.566 11.124 9.584 10.827 10.625 12.013 1.56-8.454-10.476-7.86 5.721-10.827 4.458-9.27-2.081-6.674-22.957 9.121z" fill="#CCC"/><path d="M242.952 268.003c-1.486-1.557-35.886-39.006-38.263-42.417-2.229-3.263-4.161-6.081-1.04-9.641l.594.519c-2.6 3.041-1.412 5.191 1.04 8.751 2.303 3.411 37.818 41.973 38.189 42.343l-.52.445z" fill="#585860"/><path d="M235.076 257.399l-.743-.074c.743-6.526 2.304-38.636 2.229-42.492-.074-3.486-1.709-7.638-6.018-8.677l.149-.741c4.012.964 6.538 4.598 6.612 9.418.075 3.856-1.486 36.04-2.229 42.566zm-23.998 9.418l-.743-.074c.892-8.306-13.447-21.506-17.237-24.101-5.2-3.634-9.212-4.376-12.11-2.225l-.446-.593c4.83-3.56 10.996.815 13.002 2.224 4.012 2.744 18.5 16.018 17.534 24.769zm48.739-13.793c-.074-.297-8.692-30.331-9.733-34.261-2.377-9.492-.668-15.647 5.053-18.836l.371.668c-5.498 3.04-6.984 8.75-4.755 18.02.966 3.93 9.584 33.964 9.659 34.26l-.595.149z" fill="#585860"/><path d="M212.564 127.402c-6.612-2.373-14.71-22.915-3.343-35.892 11.367-12.978 35.365-14.09 47.55 6.896 7.95 13.719 5.35 39.6 20.209 44.717a21.444 21.444 0 008.618 1.335c.446-.074.892.296.966.741 0 .297-.074.594-.297.816-4.16 3.115-12.185 7.49-18.723 6.378-26.004-4.376-21.323-31.146-30.462-39.081-6.686-5.784-13.819.296-13.299 7.49.297 4.968-11.219 6.6-11.219 6.6z" fill="#2F2E3B"/><path d="M250.233 142.307c-6.018-9.64-7.058-17.575-9.658-23.73-1.115-2.67-4.755-8.38-9.882-7.638-6.464.89-7.207 7.86-7.207 7.86l-3.269-1.557c-.371-10.011 4.384-14.905 10.105-15.869 7.875-1.335 12.184 5.265 14.265 15.573 1.411 7.193.966 13.496 5.646 25.361z" fill="#24242D"/><path d="M249.639 90.694c2.08 1.854 4.086 3.782 5.943 5.858-12.333-19.132-35.365-17.723-46.435-5.042-11.368 12.977-3.195 33.519 3.343 35.892 0 0 .594-.074 1.56-.297l-3.715-9.566c-6.389-15.054 2.601-28.477 14.637-31.962 12.036-3.485 20.06 1.26 24.667 5.117z" fill="#464552"/><path d="M211.97 117.02c-2.08-6.081-2.303-12.681-.594-18.243 2.08-6.822 7.058-11.865 14.265-14.609l.223.668c-7.95 2.966-19.615 12.977-13.225 31.887l-.669.297z" fill="#464552"/><path d="M204.615 117.984c-.372 0-.743-.149-.966-.371-3.269-2.966-4.532-9.27-4.235-11.791.074-.816.817-1.409 1.634-1.335.818.074 1.412.816 1.338 1.632-.223 1.928.891 7.119 3.269 9.269.594.519.669 1.483.074 2.077-.297.37-.669.519-1.114.519z" fill="#2F2E3B"/><path d="M225.789 120.283c-.743-7.194-22.289-6.823-23.626 0-1.338 6.822 24.221 5.858 23.626 0z" fill="#FFAE37"/><path d="M183.44 145.57c8.841-9.714 19.614-7.86 19.614-7.86l-2.006-9.789s-10.401-4.153-21.917 4.301c-6.241 4.598-12.779 17.575-8.247 33.964.817 3.04 2.08 7.638 2.08 7.638.594-2.373-.074-16.76 10.476-28.254z" fill="#2F2E3B"/><path d="M175.862 199.037a1.43 1.43 0 01-1.412-1.112c-.297-1.038-6.91-24.991 5.721-49.685a1.49 1.49 0 012.006-.668 1.485 1.485 0 01.668 2.003c-12.036 23.656-5.572 47.312-5.498 47.534.223.816-.222 1.632-1.04 1.854-.148.074-.297.074-.445.074z" fill="#2F2E3B"/><path d="M179.056 177.754c-.52 0-1.04-.296-1.337-.815-2.303-4.598-3.12-21.803 3.343-29.589.52-.593 1.486-.742 2.081-.223.594.52.743 1.484.223 2.077-5.498 6.6-4.904 22.395-2.972 26.326a1.485 1.485 0 01-.669 2.002 1.203 1.203 0 01-.669.222z" fill="#2F2E3B"/><path d="M176.01 148.833c-5.869-10.827 9.807-33.445 33.508-27.586 40.418-4.302 50.522 36.411 43.018 51.094-8.172 16.092-17.162 21.654-17.162 21.654l-59.364-45.162z" fill="#2F2E3B"/><path d="M194.659 135.337c-11.888 1.408-20.135 10.975-20.432 30.181 0 1.187 2.08 2.448 2.006 4.672-.074 2.967-1.04 3.041-1.189 5.859-.148 2.15.075 4.301.595 6.377 3.343 16.463 15.825 31.443 29.421 32.481 15.306 1.186 31.502-13.348 35.292-23.953 3.789-10.604 8.692-61.921-45.693-55.617z" fill="#fff"/><path d="M199.117 131.925c-.149 6.748 1.634 18.614 12.482 23.434.965.445 2.08-1.113 1.188-1.854-1.486-1.261-6.909-5.488-5.943-11.939 0 0 5.126 9.566 12.927 12.532.669.223 1.412 0 1.709-.593.223-.445.446-.89.52-1.335 0 0 9.362 3.189 14.562 3.041.818-17.946-5.943-25.288-15.676-31.443-6.836-4.301-18.203-1.112-18.203-1.112s-3.418.815-3.566 9.269z" fill="#2F2E3B"/><path d="M225.418 118.577c-8.767-1.928-16.568 3.115-16.568 3.115.445-.149-.818.889-.372.815 11.665-3.114 25.038-.89 34.251 10.827 10.625 13.571 10.773 34.557 6.39 45.681 4.235-3.485 6.835-8.676 6.909-14.164.372-37.004-21.397-44.272-30.61-46.274z" fill="#464552"/><path d="M241.912 172.489c4.012-3.93 7.504-5.117 10.179-3.485 2.674 1.631-1.635 14.46-4.978 14.757-3.344.297-6.464-3.93-6.464-3.93l1.263-7.342z" fill="#fff"/><path d="M237.825 180.201c-.148 0-.222 0-.371-.074-.817-.222-1.263-1.038-1.04-1.78.074-.148 4.235-16.24-2.675-32.406-.297-.742 0-1.632.817-1.928.743-.297 1.635 0 1.932.816 7.356 17.13 3.046 33.667 2.823 34.334a1.615 1.615 0 01-1.486 1.038zm-43.538 1.335c-6.612.445-10.104 6.229-18.648.89 3.12 21.209 20.431 31.665 25.632 32.481 15.083 2.225 29.05-7.119 37.149-18.836 1.932-2.818 3.269-6.822 3.938-13.941-19.243 6.896-40.27-1.187-48.071-.594zm-19.094-32.777c5.572-.445 18.946-4.375 22.735-16.834-21.101-3.337-22.735 16.834-22.735 16.834z" fill="#2F2E3B"/><path d="M194.51 121.988c-6.909 2.299-18.871 10.679-19.614 26.623 0 .074.223.222.223.222 3.046-15.721 14.19-23.211 21.026-25.51 5.944-1.928 9.361-1.483 12.333-.816.074-.074 1.337-.37 1.337-.445.075-.296-.148-.445.223-.815-2.897-1.187-8.098-1.706-15.528.741zm7.504 71.858l-3.937.742 1.411-9.492-5.795 13.2 3.789-.742-1.263 9.492 5.795-13.2z" fill="#464552"/><path d="M203.203 157.584c-.446 2.076.669 4.746.669 4.746s12.184-2.596 16.865-2.373c2.229.074 5.944 1.853 5.944 1.853s-3.418-5.71-6.613-6.006c-4.829-.445-16.865 1.78-16.865 1.78zm24.221 8.824c.817.297-.52 1.854-2.229 1.483a40.603 40.603 0 00-10.327-.89c-4.607.075-10.253 2.818-10.773 3.115-.521.297-.743 0-.372-.445.372-.445 5.498-4.227 11.219-4.746 4.161-.371 8.47.148 12.482 1.483z" fill="#2F2E3B"/><path d="M216.937 174.185c2.542-.085 4.538-2.111 4.457-4.526-.081-2.415-2.207-4.304-4.75-4.22-2.542.085-4.538 2.111-4.457 4.526.081 2.415 2.207 4.304 4.75 4.22z" fill="#2F2E3B"/><path d="M212.639 171.006a1.113 1.113 0 100-2.225 1.114 1.114 0 100 2.225z" fill="#fff"/><path d="M183.143 182.797c1.19 0 2.154-.963 2.154-2.151 0-1.187-.964-2.15-2.154-2.15s-2.155.963-2.155 2.15c0 1.188.965 2.151 2.155 2.151zm33.805.741c1.19 0 2.155-.962 2.155-2.15a2.153 2.153 0 00-2.155-2.151c-1.19 0-2.155.963-2.155 2.151 0 1.188.965 2.15 2.155 2.15z" fill="#CCC"/><path d="M189.978 157.435c.149 1.632-.074 3.189-.52 4.746 0 0-9.213-2.15-12.705-1.779-1.709.222-4.458 2.076-4.458 2.076s2.601-5.858 4.978-6.229c3.641-.519 12.705 1.186 12.705 1.186zm-21.769 8.158c-.891.296.446 2.002 2.229 1.779a40.704 40.704 0 0110.402-.445c4.606.371 10.104 3.634 10.698 3.931.595.296.743 0 .372-.445-.372-.445-5.35-4.895-11.07-5.71a30.329 30.329 0 00-12.631.89z" fill="#2F2E3B"/><path d="M188.524 170.871c.193-2.409-1.707-4.525-4.243-4.727-2.536-.202-4.748 1.587-4.94 3.996-.193 2.408 1.707 4.525 4.243 4.726 2.536.202 4.748-1.587 4.94-3.995z" fill="#2F2E3B"/><path d="M179.948 170.783a1.113 1.113 0 100-2.224c-.616 0-1.115.498-1.115 1.112 0 .614.499 1.112 1.115 1.112zm8.47-8.157l-.743-.148c.52-2.002.743-4.153.743-6.229h.743c.074 2.15-.223 4.301-.743 6.377z" fill="#fff"/><path d="M252.759 211.051c1.04 10.827 5.647 22.766 9.585 24.027 3.937 1.26 4.755-14.238 4.012-18.391-.743-4.153-13.597-5.636-13.597-5.636z" fill="#CCC"/><path d="M252.833 208.455c.521-3.633 3.79-6.229 7.43-6.006 2.378 0 4.755.519 6.836 1.631 4.383 2.076 38.634 19.652 41.903 21.802 4.755 3.115 6.464 8.083 3.046 12.236-2.6 3.189-8.247 4.82-8.247 4.82s-38.114-17.575-46.658-23.656c-3.567-2.595-4.681-7.638-4.31-10.827z" fill="#fff"/><path d="M296.371 224.696c8.767.37 15.157 12.087 11.665 17.723-11.144 4.301-43.018 9.27-43.018 9.27l-.892-7.193 32.245-19.8z" fill="#464552"/><path d="M216.131 299.965l-.075-.297 46.733-14.386-42.572 9.492-.074-.371 47.178-10.53.075.371-48.962 15.054 47.922-6.675.074.371-50.299 6.971z" fill="#2F2E3B"/><path d="M185.223 242.493c-2.006-.519-4.086.668-4.606 2.67-.075.371-.149.742-.149 1.187.149 2.447 1.337 4.894 2.378 7.712 1.783 4.449 25.038 40.415 27.415 43.382 3.492 4.375 7.43 5.042 12.408 1.854 3.492-2.225 7.355-8.38 7.355-8.38s-29.124-39.6-37.594-45.384c-1.783-1.335-5.647-2.596-7.207-3.041z" fill="#fff"/><path d="M219.4 277.347c-7.356 7.49-1.932 21.209 4.829 22.47 10.402-5.859 34.177-24.843 34.177-24.843l-5.573-8.676-33.433 11.049z" fill="#464552"/><path d="M300.012 297.444l-59.66-50.279 6.389-7.564 57.58 48.499c2.452 2.076 2.749 5.636.669 8.083l-.669.816c-1.114 1.409-3.046 1.557-4.309.445z" fill="#2F2E3B"/><path d="M239.98 246.794l6.39-7.564L64.862 86.319c-.298-.297-.818-.223-1.04.074-.15.222-.224.519-.15.741l2.973 7.787c1.486 3.856 3.64 7.49 6.39 10.604 1.337 1.484 166.945 141.269 166.945 141.269z" fill="#fff"/><path d="M293.474 290.473l-2.378-11.494-12.036-.371-2.452-11.791-11.962-.371-2.451-11.791-12.037-.371-2.526-12.087.743-.149 2.378 11.495 12.036.445 2.452 11.716 12.036.445 2.452 11.717 11.962.445 2.526 12.014-.743.148z" fill="#FFAE37"/><path d="M304.618 287.581a6.579 6.579 0 01.818 9.269l-.818.964c-1.263 1.484-3.417 1.632-4.903.445l-6.241-5.265a1.413 1.413 0 01-.149-2.002l5.498-6.452a1.42 1.42 0 012.006-.148l3.789 3.189zm-70.359-34.038l17.906-21.209a1.63 1.63 0 012.229-.223c.668.594.743 1.558.148 2.225l-17.905 21.209a1.63 1.63 0 01-2.229.222c-.669-.519-.743-1.557-.149-2.224z" fill="#2F2E3B"/><path d="M262.195 261.255a43.04 43.04 0 018.024-5.562l8.173 7.416-9.659 5.933-10.327 5.784-5.573-8.677 9.362-4.894zm-3.566-14.98c-4.755.668-13.968 6.823-13.968 6.823l10.104 8.083 8.098-7.564 3.047-1.928-1.783-7.193-5.498 1.779z" fill="#fff"/><path d="M250.53 242.864l5.127 4.375 2.971-.964-6.538-3.856-1.56.445zm11.665 18.391l3.566-5.562-1.56-1.335-6.464 8.158-.817 1.557 5.275-2.818z" fill="#fff"/></svg>