<svg width="444" height="532" fill="none" xmlns="http://www.w3.org/2000/svg"><g clip-path="url(#clip0)"><path d="M219.697 427.193c89.329 0 161.745-72.552 161.745-162.049s-72.416-162.049-161.745-162.049c-89.329 0-161.745 72.552-161.745 162.049s72.416 162.049 161.745 162.049z" fill="#FFAE37"/><path d="M321.187 426.523l18.574-15.036s22.958 35.729 31.502 47.267c3.789 5.136 12.556 11.166 24.964 16.525l-4.309 7.146s-30.908.744-32.097 0c-1.188-.744-1.56-3.796-1.411-6.699.074-2.159.148-8.039.594-11.091-5.424-5.136-15.454-17.716-19.912-22.034-3.492-3.349-17.905-16.078-17.905-16.078z" fill="#25252D"/><path d="M405.737 482.723c0-2.903-1.486-9.007-7.653-9.007-10.773 0-30.387 9.007-30.387 9.007h38.04z" fill="#2F2E3B"/><path d="M196.59 463.146l-22.735-50.171 18.352-8.634s5.052 18.609 6.612 23.15c5.201 15.185 9.882 29.849 13.671 39.749 3.269 8.635 6.315 13.473 3.715 15.185-1.115.744-37.892-.298-37.892-.298v-7.146c8.322-5.061 15.38-8.709 18.277-11.835z" fill="#25252D"/><path d="M168.432 482.723c0-2.903-3.418-6.997 2.6-8.412 8.322-2.009 35.44 8.412 35.44 8.412h-38.04zm162.859-338.092l-53.865 56.646-7.133-6.848 52.008-54.711c2.155-2.308 5.795-2.382 8.099-.223l.743.744c1.263 1.265 1.337 3.201.148 4.392z" fill="#2F2E3B"/><path d="M276.98 201.575l-7.132-6.848-163.826 172.395c-.297.298-.223.745.074 1.043.223.148.446.223.669.148l8.024-2.53a35.256 35.256 0 0010.996-5.732c1.486-1.191 151.195-158.476 151.195-158.476z" fill="#fff"/><path d="M272.894 193.685l-.075-.745 11.591-1.712 1.188-11.984 11.888-1.712 1.114-11.985 11.888-1.786 1.114-11.984 12.185-1.787.149.745-11.591 1.712-1.188 11.984-11.888 1.712-1.114 12.059-11.888 1.712-1.114 11.984-12.259 1.787z" fill="#FFAE37"/><path d="M321.707 139.42c2.526-2.68 6.687-2.754 9.361-.223l.892.819c1.412 1.34 1.486 3.573.149 4.912l-5.573 5.881c-.52.596-1.411.595-2.006.074l-6.167-5.88c-.594-.521-.594-1.414-.074-2.01l3.418-3.573zm-38.189 68.408l-20.134-19.205a1.62 1.62 0 01-.075-2.233 1.614 1.614 0 012.229-.075l20.135 19.205c.594.596.668 1.563.074 2.233-.669.596-1.634.67-2.229.075z" fill="#2F2E3B"/><path d="M209.444 208.349c5.275 6.55 2.229 11.537-3.269 16.748-3.418 3.275-37.149 27.467-40.195 29.7-4.532 3.201-9.659 2.978-12.333-1.712-.372-.67-.818-1.414-1.189-2.233-2.303-4.466-1.04-9.974 2.972-13.026 10.327-7.965 30.016-22.927 36.182-26.946 3.79-2.457 12.928-8.561 17.832-2.531z" fill="#fff"/><path d="M220.068 188.251c-8.841 1.563-20.803 10.421-24.592 16.971a133.725 133.725 0 00-13.597 8.933 3.412 3.412 0 00-1.263 3.275l.298 1.861s1.04-2.531 2.674-2.382c3.567.298 8.99 7.965 13.225 19.279 2.749 7.369 12.928 48.31 12.928 48.31l26.004-5.137-15.677-91.11z" fill="#25252D"/><path d="M219.994 188.251c8.842-1.489 23.107 2.828 28.902 7.667 7.281 1.414 13.225 2.382 15.825 3.87 4.978 2.755 8.619 5.881 5.498 20.322l-11.739 60.517-24.889-1.414-13.597-90.962z" fill="#25252D"/><path d="M245.181 273.481c-1.412-2.605-34.994-63.867-36.703-67.738-1.634-3.647-2.452-7.443 2.229-10.421l.371.596c-4.012 2.531-3.714 5.508-1.931 9.453 1.709 3.796 36.331 67.068 36.703 67.663l-.669.447z" fill="#585860"/><path d="M236.414 202.17l-9.139 29.18-15.379-26.425-2.601-23.82 24.444-2.68 2.675 23.745z" fill="#fff"/><path d="M219.102 103.244c-6.241-3.275-11.516-24.713 1.486-36.176 13.002-11.464 36.926-9.23 46.139 13.25 6.018 14.663 10.476 31.412 21.472 35.506 5.052 1.861 17.311-.819 19.689-2.308 2.08-1.265 2.674.149 2.228.893-5.349 9.305-17.757 13.995-24.443 14.218-32.32.967-32.542-27.021-40.567-36.177-5.795-6.624-13.522-2.084-12.853 5.509.52 4.987-13.151 5.285-13.151 5.285z" fill="#2F2E3B"/><path d="M255.359 107.338l-5.943-5.583s-3.418-12.58-9.956-12.133c-5.424.372-6.315 4.392-6.315 4.392l-2.824-.82c.743-8.708 4.755-11.835 10.476-12.653 6.836-.968 13.448 6.178 13.522 18.907l1.04 7.89z" fill="#24242D"/><path d="M260.783 71.757a63.018 63.018 0 015.127 6.625c-9.659-20.694-32.691-22.406-45.322-11.314-13.002 11.388-7.727 32.9-1.486 36.176 0 0 .595 0 1.561-.075l-2.378-10.048c-4.309-15.856 6.39-27.989 18.797-29.775 12.408-1.787 19.689 3.945 23.701 8.411z" fill="#464552"/><path d="M219.92 92.823c-1.189-6.327-.521-12.952 1.857-18.163 2.972-6.55 8.544-10.868 16.048-12.58l.149.745c-8.247 1.86-21.175 10.272-17.386 29.923l-.668.075z" fill="#464552"/><path d="M214.793 97.736a1.43 1.43 0 01-.892-.298c-3.64-2.531-5.572-8.635-5.646-11.166 0-.819.669-1.489 1.486-1.489s1.486.67 1.486 1.49c0 2.01 1.783 6.922 4.383 8.783.669.447.818 1.414.372 2.084a1.55 1.55 0 01-1.189.596z" fill="#2F2E3B"/><path d="M212.193 97.587c.594-7.295 22.14-7.295 23.626-.447 1.486 6.848-24.146 6.402-23.626.447z" fill="#FFAE37"/><path d="M225.046 101.085c-7.653-4.54-21.175-4.094-31.873 8.56-6.984 8.337-10.551 19.28-9.362 26.649s-1.932 8.411-.371 14.813c1.56 6.401 8.395 8.486 8.395 8.486s65.53-1.043 67.239-1.34c1.709-.298 9.287-5.658 9.585-14.813 1.263-35.209-19.243-42.727-27.862-44.886-8.247-2.01-15.751 2.531-15.751 2.531z" fill="#2F2E3B"/><path d="M240.872 98.554c-8.247-2.01-15.826 2.531-15.826 2.531.446-.149-.817.819-.371.745 11.144-2.606 23.775-.224 32.245 11.24 9.733 13.175 9.287 33.273 4.829 43.694 4.161-3.201 6.687-8.039 6.984-13.324 1.263-35.209-19.243-42.801-27.861-44.886z" fill="#464552"/><path d="M257.811 154.68c3.864-4.169 7.504-5.583 10.253-4.02 2.749 1.563-1.114 14.962-4.458 15.409-3.343.446-6.761-3.722-6.761-3.722l.966-7.667zm-66.273 1.265c-4.086-4.019-7.727-5.285-10.401-3.647-2.675 1.637 1.634 14.887 5.052 15.185 3.418.298 6.612-4.02 6.612-4.02l-1.263-7.518z" fill="#fff"/><path d="M224.303 111.73c-6.984.149-34.845 2.605-33.731 32.156.892 23.671 1.635 27.542 4.161 33.497 4.086 9.677 21.918 20.247 32.171 20.023 10.253-.223 25.855-11.388 29.57-21.214 2.303-6.029 2.898-9.9 2.823-33.571-.074-29.7-28.01-31.04-34.994-30.891z" fill="#fff"/><path d="M220.068 115.973c.52 6.773 3.492 18.46 14.785 22.107 1.041.298 2.006-1.34.966-2.009-1.634-1.117-7.429-4.764-7.132-11.389 0 0 6.018 9.081 14.116 11.24.669.149 1.412-.149 1.635-.819.223-.447.297-.893.371-1.414 0 0 7.727 2.456 12.928 1.786-.966-18.014-6.613-26.425-17.014-31.263-10.402-4.839-17.683-1.043-17.683-1.043s-3.566 4.318-2.972 12.804z" fill="#CCC"/><path d="M225.343 163.314c-7.281.149-24.964 8.858-33.285 4.169.074 3.498 2.006 8.337 2.675 9.9 4.086 9.677 21.917 20.247 32.17 20.023h.075c10.253-.148 25.855-11.388 29.57-21.214a37.755 37.755 0 002.155-9.528c-13.894 2.829-26.079-3.498-33.36-3.35zm-9.881-38.483c6.984-6.774 8.841-13.101 8.841-13.101l.743-10.645s-6.686-5.955-20.952-.521c-7.726 2.903-20.951 13.101-20.951 31.264 0 3.424-.298 7.667-.298 7.667s19.986-2.382 32.617-14.664z" fill="#2F2E3B"/><path d="M191.241 179.244c-.595 0-1.115-.372-1.412-.893-.371-.894-8.767-22.183 2.229-46.3.372-.744 1.189-1.042 1.932-.744.743.372 1.04 1.191.743 1.935-10.476 22.926-2.303 43.694-2.229 43.918.297.744-.074 1.637-.817 1.935-.075.074-.298.149-.446.149zm67.016 7.667c-.148 0-.223 0-.371-.075-.818-.223-1.263-1.042-1.04-1.786.074-.298 7.504-29.328-2.304-51.957-.297-.744 0-1.638.743-1.935.743-.298 1.635 0 1.932.744 10.253 23.597 2.823 52.701 2.452 53.892a1.433 1.433 0 01-1.412 1.117z" fill="#2F2E3B"/><path d="M221.257 113.516c.149 6.774 2.452 18.609 13.522 22.927.966.372 2.08-1.191 1.115-1.936-1.561-1.191-7.133-5.21-6.464-11.761 0 0 5.498 9.379 13.447 11.985.669.223 1.412-.075 1.709-.67.223-.447.372-.894.446-1.34 0 0 8.396 3.201 13.671 2.828.074-18.013-6.093-26.722-16.048-32.454-6.984-4.02-17.906-1.265-17.906-1.265s-3.715 3.2-3.492 11.686z" fill="#2F2E3B"/><path d="M183.96 132.2c2.675-18.088 14.414-27.319 22.066-30.296 9.807-3.722 16.048-2.084 19.02-.67v-.223s-6.686-5.955-20.952-.521c-7.726 2.903-20.951 13.101-20.951 31.263 0 3.424-.298 7.667-.298 7.667s.818-5.21 1.115-7.22z" fill="#464552"/><path d="M209.666 102.276c-6.761 2.605-18.425 11.538-18.425 27.542 0 .074.223.223.223.223 2.377-15.929 13.15-23.894 19.911-26.499 5.795-2.233 10.179-2.233 13.225-1.712.074-.075.372-.075.372-.149v-.521c-2.824-1.042-7.95-1.712-15.306 1.116z" fill="#464552"/><path d="M220.663 294.1l33.359-8.858c32.022 35.209 46.807 70.715 60.849 88.133 2.527 3.201 4.83 6.551 6.836 10.049 8.915 15.483 27.936 38.931 37 51.808-9.139 14.069-18.575 18.535-31.205 22.257-10.55-21.215-36.48-65.951-36.406-65.951-12.036-18.386-21.472-28.286-40.417-46.895-29.051-28.361-30.016-50.543-30.016-50.543z" fill="#2F2E3B"/><path d="M249.564 287.922s-7.355 19.279-14.116 30.965c-11.591 18.758-25.559 28.063-41.087 47.789 4.384 11.314 16.791 57.018 28.605 79.126-11.071 7.146-34.623 3.35-45.322-1.414-1.783-12.506-8.247-53.446-15.973-69.822-2.824-6.104-2.378-13.175 1.337-18.832 11.59-17.642 23.255-45.258 45.544-70.641l41.012 2.829z" fill="#2F2E3B"/><path d="M319.158 394.166c2.263-1.414 1.915-6.067-.777-10.393-2.692-4.326-6.709-6.686-8.972-5.272-2.264 1.413-1.916 6.066.776 10.392s6.709 6.687 8.973 5.273zm-151.403-17.669c2.627-.467 4.034-4.915 3.144-9.934-.89-5.019-3.74-8.709-6.366-8.242-2.626.468-4.034 4.915-3.144 9.935.89 5.019 3.74 8.709 6.366 8.241z" fill="#464552"/><path d="M207.735 276.831l52.603-4.913-2.007 17.716-50.299-4.392-.297-8.411z" fill="#CCC"/><path d="M208.032 285.391v-.372l48.813-1.415-49.184-5.434v-.372l51.859 5.732-.074.372-51.414 1.489z" fill="#2F2E3B"/><path d="M228.687 242.143l-.743-.223c2.006-6.327 10.55-36.698 11.144-40.271.149-.744.298-1.414.372-2.009.594-2.606.743-3.425-2.08-4.616l.297-.669c3.343 1.488 3.046 2.754 2.526 5.433a13.956 13.956 0 00-.372 2.01c-.594 3.573-9.138 34.018-11.144 40.345zm-25.336 6.774c-.074-.224-8.098-23.15-10.327-26.574-.148-.298-.371-.596-.594-.893-2.155-3.425-5.201-8.188-9.436-7.072l-.149-.744c4.755-1.191 8.099 3.945 10.253 7.443.223.298.372.596.521.894 2.228 3.424 10.03 25.755 10.401 26.722l-.669.224zm46.956-8.635c0-1.116-.817-27.169.52-31.115 2.526-7.443 6.613-10.942 12.111-10.495l-.075.744c-5.126-.446-8.915 2.903-11.367 9.975-1.338 3.796-.52 30.593-.52 30.891h-.669z" fill="#585860"/><path d="M262.195 202.319c7.801 3.127 6.909 9.528 4.309 17.493-1.412 4.392-17.757 41.163-19.317 44.513-2.229 4.913-6.761 7.146-11.442 4.466-3.641-2.084-9.213-6.327-9.213-6.327s15.751-38.93 20.283-47.714c2.006-3.87 7.133-15.706 15.38-12.431z" fill="#fff"/><path d="M234.928 249.587c7.875 3.945 8.767 17.343 3.269 21.065-11.962-.67-40.567-9.453-40.567-9.453l2.601-8.263 34.697-3.349z" fill="#464552"/><path d="M207.958 165.994c1.19 0 2.154-.966 2.154-2.159a2.156 2.156 0 10-4.309 0c0 1.193.965 2.159 2.155 2.159zm34.92-.893a2.157 2.157 0 002.154-2.159 2.156 2.156 0 00-2.154-2.158c-1.19 0-2.155.966-2.155 2.158s.965 2.159 2.155 2.159z" fill="#CCC"/><path d="M219.326 142.323c.371 2.084-.743 4.764-.743 4.764s-12.111-2.903-16.792-2.828c-2.228.074-5.943 1.712-5.943 1.712s3.566-5.658 6.686-5.881c4.83-.223 16.792 2.233 16.792 2.233zm12.184-.446c-.371 2.084.892 4.689.892 4.689s12.036-3.126 16.717-3.126c2.229 0 6.018 1.637 6.018 1.637s-3.641-5.582-6.836-5.731c-4.829-.149-16.791 2.531-16.791 2.531zm-34.622 8.783c-.817.372.52 2.308 2.303 1.935a34.517 34.517 0 0110.327-.893c4.607.224 10.328 3.797 10.848 4.094.52.298.743 0 .371-.521-.371-.521-5.572-5.434-11.367-6.104-4.235-.521-8.47 0-12.482 1.489z" fill="#2F2E3B"/><path d="M212.848 153.82c.089-2.424-1.899-4.465-4.442-4.559-2.542-.093-4.675 1.795-4.764 4.219-.089 2.424 1.899 4.465 4.442 4.559 2.542.094 4.675-1.795 4.764-4.219zm41.323-4.276c.817.297-.446 2.307-2.229 2.009a34.8 34.8 0 00-10.402-.446c-4.606.446-10.179 4.168-10.699 4.54-.52.373-.743 0-.371-.521.371-.521 5.349-5.657 11.07-6.55 4.309-.744 8.619-.447 12.631.968z" fill="#2F2E3B"/><path d="M243.282 157.27c2.536-.194 4.443-2.312 4.259-4.73-.184-2.419-2.389-4.222-4.926-4.028-2.537.193-4.444 2.311-4.26 4.73.184 2.418 2.39 4.222 4.927 4.028z" fill="#2F2E3B"/><path d="M230.173 177.904l-4.012.074 2.972-9.155-7.876 12.058 3.864-.074-2.824 9.156 7.876-12.059z" fill="#464552"/><path d="M203.723 154.829c.615 0 1.114-.5 1.114-1.117a1.116 1.116 0 10-2.229 0c0 .617.499 1.117 1.115 1.117zm35.068-.447a1.116 1.116 0 000-2.233 1.116 1.116 0 000 2.233zm-21.769-6.923l-.668-.223a22.09 22.09 0 001.114-6.178h.743c-.074 2.158-.446 4.317-1.189 6.401z" fill="#fff"/><path d="M186.635 269.61l-24.593-74.288 9.362-3.126 23.7 71.683a5.84 5.84 0 01-3.64 7.294l-1.04.373c-1.486.521-3.269-.373-3.789-1.936z" fill="#2F2E3B"/><path d="M162.042 194.801l9.362-3.126L96.661-34.241c-.149-.372-.52-.595-.966-.447a.85.85 0 00-.52.596l-1.56 8.188c-.818 4.094-.818 8.337-.075 12.43.372 1.936 68.502 208.275 68.502 208.275z" fill="#fff"/><path d="M185.446 260.454l-.669-.223 3.938-11.091-10.03-6.625 4.086-11.389-10.03-6.625 4.012-11.314-10.03-6.625 4.161-11.686.743.297-4.013 11.017 10.105 6.699-4.086 11.315 10.03 6.625-4.087 11.388 10.03 6.625-4.16 11.612z" fill="#FFAE37"/><path d="M195.773 263.581c1.114 3.498-.743 7.22-4.161 8.337l-1.188.372c-1.858.595-3.79-.372-4.384-2.233l-2.526-7.742c-.223-.744.149-1.563.892-1.786l8.098-2.68c.743-.223 1.56.149 1.783.893l1.486 4.839zm-42.275-65.951l26.375-8.784c.818-.298 1.709.149 2.006.968.298.819-.148 1.712-.965 2.01l-26.376 8.783c-.817.298-1.709-.149-2.006-.967-.297-.894.149-1.787.966-2.01z" fill="#2F2E3B"/><path d="M176.159 200.235l4.16 9.528-1.114 3.796-6.687 3.797-1.04 1.488-8.322-4.466c.892-1.786 2.081-3.424 3.492-4.764l9.511-9.379zm18.574 50.766c-4.829-2.68-17.683-3.35-17.683-3.35l3.715 14.59 12.779-1.414 4.161.372 2.6-8.263-5.572-1.935z" fill="#fff"/><path d="M165.534 253.085c-5.795 6.625-15.379 2.754-17.534-3.498 3.715-11.389 15.082-35.209 15.082-35.209l8.247 4.466-5.795 34.241z" fill="#464552"/></g><defs><clipPath id="clip0"><path fill="#fff" d="M0 0h444v532H0z"/></clipPath></defs></svg>