<svg width="60" height="60" fill="none" xmlns="http://www.w3.org/2000/svg"><g clip-path="url(#clip0)"><path d="M33.65 1.95h-8.425a8.494 8.494 0 00-8.494 8.494v6.004h3.053v-6.004c0-3 2.441-5.441 5.441-5.441h8.424c3 0 5.442 2.44 5.442 5.44v6.005h3.053v-6.004a8.494 8.494 0 00-8.495-8.494z" fill="#927266"/><path d="M53.911 58.05H6.088c-3.922 0-6.82-3.656-5.925-7.475L5.74 26.792a13.404 13.404 0 0113.05-10.344h22.422a13.405 13.405 0 0113.05 10.345l5.575 23.782c.896 3.82-2.002 7.475-5.925 7.475z" fill="#FFCF5C"/><path d="M58.338 56.138l.075-.08c.05-.055.098-.111.146-.168.022-.026.045-.052.066-.079.049-.06.095-.12.142-.18l.057-.077c.046-.064.091-.128.136-.194l.048-.072.13-.208.04-.069a5.87 5.87 0 00.122-.22l.033-.064a6.008 6.008 0 00.358-.853l.015-.048a6.125 6.125 0 00.22-.927l.005-.031c.016-.1.028-.202.038-.304l.002-.026a5.42 5.42 0 00.022-.313v-.021c.005-.107.006-.214.004-.322v-.015a5.996 5.996 0 00-.015-.33l-.001-.01a5.986 5.986 0 00-.035-.338v-.006a6.12 6.12 0 00-.055-.343c-.017-.089-.033-.176-.054-.265L54.26 26.792a13.404 13.404 0 00-13.05-10.344h-5.676c6.224 0 11.63 4.285 13.05 10.345l5.576 23.782.014.058c.593 2.642-1.444 5.147-4.152 5.147H6.088c-3.032 0-5.45-2.185-5.979-4.94-.705 3.721 2.148 7.21 5.98 7.21H53.91c.121 0 .242-.003.361-.01.04-.002.078-.007.117-.01.08-.006.159-.012.237-.02.048-.006.094-.015.142-.021.068-.01.137-.018.205-.03l.151-.03c.063-.013.127-.025.189-.04.052-.012.103-.027.154-.04.06-.016.12-.03.178-.048.052-.015.104-.033.156-.05l.167-.055.157-.06c.053-.021.105-.041.157-.063.053-.022.105-.047.158-.071.049-.023.098-.044.147-.068.053-.026.105-.054.158-.082.045-.024.092-.048.136-.073.054-.03.106-.062.158-.093.043-.026.085-.05.127-.077.053-.034.105-.07.157-.105l.116-.079a6.44 6.44 0 00.157-.117l.105-.08.154-.13c.032-.027.065-.054.096-.082.052-.046.102-.094.152-.141l.086-.082c.05-.05.1-.103.149-.155z" fill="#E3B340"/><path d="M5.742 29.27a2.477 2.477 0 01-2.414-3.043 15.945 15.945 0 015.596-8.82 15.945 15.945 0 019.865-3.436h22.422c3.566 0 7.07 1.22 9.865 3.436a15.945 15.945 0 015.596 8.82 2.477 2.477 0 11-4.823 1.13 10.883 10.883 0 00-10.638-8.431H18.789c-5.1 0-9.474 3.467-10.638 8.432a2.479 2.479 0 01-2.41 1.912z" fill="#FFB125"/><path d="M53.335 26.364a12.405 12.405 0 00-12.124-9.61H18.789c-5.812 0-11.001 3.948-12.313 9.61l-.818 2.904.084.002c1.124 0 2.142-.77 2.41-1.912a10.883 10.883 0 0110.637-8.432h22.422c5.1 0 9.474 3.467 10.638 8.432a2.477 2.477 0 002.535 1.908s-.963-2.534-1.05-2.902z" fill="#FF901D"/><path d="M30 49.846c6.18 0 11.19-5.01 11.19-11.19S36.18 27.465 30 27.465s-11.19 5.01-11.19 11.19 5.01 11.19 11.19 11.19z" fill="#fff"/><path d="M37.912 30.742L22.088 46.567c4.37 4.37 11.454 4.37 15.824 0 4.37-4.37 4.37-11.455 0-15.825z" fill="#E1EFFB"/><path d="M29.64 45.731c-2.354-.038-3.95-1.31-3.95-2.241 0-.456.399-1.083.874-1.083.627 0 1.14 1.33 3.077 1.482v-4.464c-1.71-.608-3.61-1.292-3.61-3.723 0-2.394 1.805-3.343 3.61-3.533v-.551c0-.228.228-.437.55-.437.286 0 .57.209.57.437v.513c1.292.038 3.116.437 3.116 1.367 0 .361-.266 1.083-.836 1.083-.456 0-.95-.608-2.28-.703v3.856c1.653.608 3.458 1.444 3.458 4.027 0 2.336-1.406 3.628-3.457 3.913v.646c0 .228-.285.437-.57.437-.323 0-.551-.21-.551-.437v-.589zm.115-8.358v-3.457c-1.064.133-1.824.608-1.824 1.596 0 1.082.817 1.481 1.824 1.861zm.893 2.47v4.007c1.025-.19 1.671-.797 1.671-1.88 0-1.197-.74-1.728-1.671-2.127z" fill="#000"/></g><defs><clipPath id="clip0"><path fill="#fff" d="M0 0h60v60H0z"/></clipPath></defs></svg>