<svg width="60" height="60" fill="none" xmlns="http://www.w3.org/2000/svg"><g clip-path="url(#clip0)"><path d="M10.053 1.35a5 5 0 00-3.035 6.44l16.786 45.677c1.483 4.04 5.96 6.203 9.997 4.71a7.742 7.742 0 004.5-10.14c-1.503-3.758-5.733-5.736-9.58-4.483a7.73 7.73 0 00-2.457 1.33L10.053 1.349zm19.832 46.218a3.568 3.568 0 112.46 6.698 3.568 3.568 0 01-2.46-6.698z" fill="#656565"/><path d="M26.264 44.884L10.052 1.348a5.041 5.041 0 00-.846.39l-.051.03a4.922 4.922 0 00-.26.164l-.004.003c-.079.054-.156.11-.23.168l-.045.035c-.066.052-.13.106-.193.16l-.036.032a4.994 4.994 0 00-.426.428l16.949 45.65c.087-.07.176-.139.266-.206a6.778 6.778 0 119.46 9.608 7.695 7.695 0 002.251-1.734l.02-.022a7.48 7.48 0 00.201-.237l.034-.042a7.704 7.704 0 00.576-.818l.044-.074c.046-.077.091-.155.135-.234l.042-.079c.042-.078.084-.158.123-.238l.038-.08a6.86 6.86 0 00.113-.246l.03-.074c.037-.086.073-.172.106-.259l.018-.048c.113-.302.208-.612.282-.928l.01-.038c.018-.074.032-.15.047-.225.01-.045.02-.09.028-.135.012-.067.022-.135.032-.203.009-.054.018-.107.025-.161l.022-.193c.006-.058.013-.116.018-.175a8.567 8.567 0 00.026-.554 7.076 7.076 0 00-.046-.943l-.021-.173a7.647 7.647 0 00-.03-.205l-.03-.168c-.012-.071-.027-.142-.042-.213l-.035-.161c-.018-.074-.038-.148-.058-.223-.013-.05-.025-.1-.04-.15a5.844 5.844 0 00-.077-.247c-.013-.041-.025-.083-.04-.124a7.623 7.623 0 00-1.707-2.809l-.02-.022a7.666 7.666 0 00-1.087-.938 7.86 7.86 0 00-3.59-1.399l-.076-.009a7.684 7.684 0 00-1.782.004 7.61 7.61 0 00-2.128.576 7.626 7.626 0 00-.29.133l-.085.042c-.07.035-.14.07-.209.107l-.082.044c-.34.188-.661.4-.964.63-.051.04-.103.078-.154.119z" fill="#535151"/><path d="M58.59 37.844H4.102a1.41 1.41 0 01-1.41-1.41V9.199c0-.779.632-1.41 1.41-1.41H58.59c.779 0 1.41.631 1.41 1.41v27.235a1.41 1.41 0 01-1.41 1.41z" fill="#FFCF5C"/><path d="M58.59 7.79h-4.007v26.249a1.41 1.41 0 01-1.41 1.41H2.693v.985c0 .779.63 1.41 1.41 1.41H58.59a1.41 1.41 0 001.41-1.41V9.2a1.41 1.41 0 00-1.41-1.41z" fill="#E3B340"/><path d="M11.2 29.727c-2.383-.038-3.998-1.326-3.998-2.268 0-.462.403-1.096.884-1.096.635 0 1.154 1.346 3.115 1.5v-4.519c-1.73-.615-3.653-1.307-3.653-3.768 0-2.423 1.826-3.384 3.653-3.576v-.558c0-.23.23-.442.557-.442.289 0 .577.211.577.442v.52c1.308.038 3.153.441 3.153 1.384 0 .365-.269 1.095-.846 1.095-.46 0-.96-.615-2.307-.71v3.902c1.673.615 3.5 1.461 3.5 4.076 0 2.365-1.423 3.672-3.5 3.96v.654c0 .231-.288.443-.577.443-.326 0-.557-.212-.557-.442v-.597zm.116-8.46V17.77c-1.076.134-1.845.615-1.845 1.615 0 1.096.826 1.5 1.845 1.884zm.904 2.5v4.057c1.038-.192 1.692-.808 1.692-1.904 0-1.21-.75-1.749-1.692-2.153z" fill="#000"/><path d="M20.33 7.79h-1.743v30.054h1.743V7.79z" fill="#FFE29D"/><path d="M28.806 1.35L12.595 44.883a7.73 7.73 0 00-2.457-1.33c-3.847-1.253-8.077.725-9.58 4.482a7.742 7.742 0 004.5 10.142c4.036 1.492 8.513-.67 9.997-4.71L31.84 7.788a5 5 0 00-3.034-6.44zM11.093 52.145a3.568 3.568 0 11-6.698-2.46 3.568 3.568 0 016.698 2.46z" fill="#656565"/><path d="M29.249 1.53a4.99 4.99 0 01.443 4.355L12.907 51.563c-1.484 4.04-5.961 6.203-9.997 4.71a7.774 7.774 0 01-1.29-.62 7.704 7.704 0 003.438 2.524c4.036 1.493 8.513-.67 9.996-4.71L31.84 7.789a5 5 0 00-2.591-6.26z" fill="#535151"/><path d="M34.865 19.036h-4.351c-.318 0-.484.312-.484.62 0 .366.203.631.484.631h1.508v6.164c0 .285.277.484.673.484.334 0 .673-.166.673-.484v-6.164h1.497c.286 0 .485-.264.485-.641 0-.294-.152-.61-.485-.61zm6.853.394c-.093-.277-.416-.457-.824-.457-.402 0-.721.18-.815.46l-2.085 6.792c-.017.05-.017.095-.017.132 0 .34.427.578.81.578.332 0 .455-.17.5-.315l.405-1.404h2.414l.406 1.407c.063.201.237.313.49.313.386 0 .82-.248.82-.58a.4.4 0 00-.027-.128l-2.077-6.798zm-1.716 4.66l.892-3.06.892 3.06h-1.784zm12.442 1.935l-1.78-3.045 1.73-3.025a.69.69 0 00.098-.33c0-.366-.426-.62-.81-.62-.222 0-.409.135-.522.375l-1.364 2.495-1.344-2.494c-.165-.311-.376-.377-.523-.377-.388 0-.82.255-.82.62 0 .102.033.213.1.332l1.727 3.024-1.783 3.052a.615.615 0 00-.075.272c0 .367.454.663.83.663.176 0 .343-.113.46-.313l1.428-2.603 1.446 2.6c.077.152.236.316.451.316.389 0 .84-.29.84-.663a.642.642 0 00-.089-.28z" fill="#fff"/></g><defs><clipPath id="clip0"><path fill="#fff" d="M0 0h60v60H0z"/></clipPath></defs></svg>