<svg width="60" height="60" fill="none" xmlns="http://www.w3.org/2000/svg"><path d="M45.785 60h-31.57a2.727 2.727 0 01-2.727-2.727V2.727A2.727 2.727 0 0114.214 0h31.571a2.727 2.727 0 012.727 2.727v54.546A2.727 2.727 0 0145.785 60z" fill="#E3B340"/><path d="M45.785 0h-2.89c.105.29.162.602.162.928v54.546a2.727 2.727 0 01-2.727 2.727H11.65A2.728 2.728 0 0014.214 60h31.572a2.727 2.727 0 002.726-2.727V2.727A2.727 2.727 0 0045.785 0z" fill="#DBA82D"/><path d="M43.742 50.53H16.258a1.127 1.127 0 01-1.127-1.126V4.58c0-.622.504-1.127 1.127-1.127h27.484c.623 0 1.127.505 1.127 1.127v44.824c0 .622-.504 1.127-1.127 1.127z" fill="#F2F2F2"/><path d="M43.742 3.453h-5.514c.623 0 1.127.505 1.127 1.127v44.824c0 .622-.504 1.127-1.127 1.127h5.514c.623 0 1.128-.505 1.128-1.127V4.58c0-.622-.505-1.127-1.128-1.127z" fill="#E6E6E6"/><path d="M30 57.648a2.346 2.346 0 100-4.692 2.346 2.346 0 000 4.692z" fill="#fff"/><path d="M34.944 16.81l-4.865-6.03a.102.102 0 00-.158 0l-4.865 6.03a.102.102 0 00.08.166h2.496c.057 0 .102.046.102.102v10.501c0 .056.046.102.102.102h4.328a.102.102 0 00.102-.102V17.078c0-.056.045-.102.102-.102h2.496c.086 0 .133-.1.08-.166z" fill="#000"/><path d="M43.742 3.453H16.258c-.623 0-1.127.505-1.127 1.127v2.895H44.87V4.58c0-.622-.505-1.127-1.128-1.127zm-3.535 40.293H20.272a.88.88 0 110-1.76h19.935a.88.88 0 110 1.76zm0 3.441H20.272a.88.88 0 110-1.76h19.935a.88.88 0 110 1.76z" fill="#FFE29D"/><path d="M43.742 3.453h-5.514c.623 0 1.127.505 1.127 1.127v2.895h5.515V4.58c0-.622-.505-1.127-1.128-1.127z" fill="#FFE29D"/><path d="M32.164 27.68a.102.102 0 00.102-.101V17.078c0-.057.045-.102.102-.102h2.496c.086 0 .134-.1.08-.166l-4.865-6.03a.101.101 0 00-.079-.037V27.68h2.164z" fill="#494949"/><path d="M30 39.11a9.432 9.432 0 100-18.865 9.432 9.432 0 000 18.865z" fill="#fff"/><path d="M36.67 36.347a9.433 9.433 0 000-13.34l-13.34 13.34a9.433 9.433 0 0013.34 0z" fill="#E1EFFB"/><path d="M29.758 34.892c-1.816-.03-3.046-1.011-3.046-1.729 0-.351.307-.835.674-.835.483 0 .878 1.026 2.372 1.143v-3.442c-1.318-.469-2.783-.996-2.783-2.871 0-1.846 1.392-2.578 2.783-2.724v-.425c0-.176.176-.337.425-.337.22 0 .44.161.44.337v.395c.996.03 2.402.337 2.402 1.055 0 .278-.205.835-.645.835-.351 0-.732-.469-1.758-.542v2.973c1.275.469 2.666 1.113 2.666 3.105 0 1.802-1.084 2.798-2.665 3.018v.498c0 .176-.22.337-.44.337-.249 0-.425-.161-.425-.337v-.454zm.088-6.445v-2.666c-.82.103-1.406.469-1.406 1.23 0 .835.63 1.143 1.406 1.436zm.689 1.904v3.09c.79-.146 1.289-.615 1.289-1.45 0-.922-.572-1.332-1.29-1.64z" fill="#000"/></svg>