<svg width="170" height="45" fill="none" xmlns="http://www.w3.org/2000/svg"><rect width="170" height="45" rx="4" fill="#FFCF5C"/><path d="M57.956 27.25h2.272v-3.824h2.72c2.304 0 3.584-1.552 3.584-3.408 0-1.872-1.264-3.44-3.584-3.44h-4.992V27.25zm6.256-7.248c0 .896-.672 1.472-1.568 1.472h-2.416V18.53h2.416c.896 0 1.568.592 1.568 1.472zm4.688-1.616a1.215 1.215 0 100-2.432c-.656 0-1.216.544-1.216 1.216 0 .672.56 1.216 1.216 1.216zm-1.008 8.864h2.032v-7.728h-2.032v7.728zm12.575 0H82.9l-2.752-4 2.656-3.728H80.42l-2.032 3.136h-.464v-3.136h-2.032v3.136h-.464l-2.032-3.136h-2.384l2.656 3.728-2.752 4h2.448l2.064-3.216h.464v3.216h2.032v-3.216h.48l2.064 3.216zm12.751 0h2.032v-7.728h-7.264v7.728h2.032v-5.952h3.2v5.952zm3.33-1.776v1.968c1.967 0 3.12-1.248 3.423-5.6l.048-.544h2.48v5.952h2.032v-7.728h-6.24l-.128 1.824c-.272 3.424-.88 4.128-1.616 4.128zm14.641 1.776h2.032v-4.992c0-2.224-1.616-2.928-3.376-2.928-1.216 0-2.432.384-3.376 1.216l.768 1.36c.656-.608 1.424-.912 2.256-.912 1.024 0 1.696.512 1.696 1.296v1.072c-.512-.624-1.424-.944-2.448-.944-1.232 0-2.688.656-2.688 2.464 0 1.728 1.456 2.56 2.688 2.56 1.008 0 1.92-.368 2.448-.992v.8zm0-1.856c-.336.448-.976.672-1.632.672-.8 0-1.456-.416-1.456-1.136 0-.736.656-1.168 1.456-1.168.656 0 1.296.224 1.632.672v.96zm5.424 1.856h2.048v-5.952h2.16v-1.776h-6.368v1.776h2.16v5.952zm6.49-8.864a1.215 1.215 0 100-2.432c-.656 0-1.216.544-1.216 1.216 0 .672.56 1.216 1.216 1.216zm-1.008 8.864h2.032v-7.728h-2.032v7.728zm12.575 0h2.432l-2.752-4 2.656-3.728h-2.384l-2.032 3.136h-.464v-3.136h-2.032v3.136h-.464l-2.032-3.136h-2.384l2.656 3.728-2.752 4h2.448l2.064-3.216h.464v3.216h2.032v-3.216h.48l2.064 3.216z" fill="#000"/><path fill-rule="evenodd" clip-rule="evenodd" d="M40.458 12.25c3.966 0 7.185 3.551 7.185 7.934 0 4.382-3.219 7.94-7.185 7.94h-5.223l-4.917 7.751V12.25h10.14z" fill="#000"/><path fill-rule="evenodd" clip-rule="evenodd" d="M38.26 19.086h2.886L35.142 28l3.118-8.914zm-.73 2.078h-2.88l6.004-8.914-3.124 8.914z" fill="#FFCF5C"/></svg>