<svg width="21" height="21" viewBox="0 0 21 21" fill="none" xmlns="http://www.w3.org/2000/svg">
<path d="M19.5 10.5C19.5 15.4706 15.4706 19.5 10.5 19.5C5.52944 19.5 1.5 15.4706 1.5 10.5C1.5 5.52944 5.52944 1.5 10.5 1.5C15.4706 1.5 19.5 5.52944 19.5 10.5Z" fill="#FFCF5C" stroke="#FFCF5C" stroke-width="3"/>
<path d="M13.3918 8.15296C13.6414 7.90344 14.0459 7.90344 14.2954 8.15296C14.545 8.40249 14.545 8.80704 14.2954 9.05657L10.4618 12.8902C10.2123 13.1398 9.80769 13.1398 9.55817 12.8902L7.42835 10.7604C7.17883 10.5109 7.17883 10.1063 7.42835 9.85682C7.67788 9.60729 8.08244 9.60729 8.33196 9.85682L10.01 11.5348L13.3918 8.15296Z" fill="white"/>
</svg>
