<svg width="73" height="72" viewBox="0 0 73 72" fill="none" xmlns="http://www.w3.org/2000/svg">
<path d="M36.9896 71.6487C54.7962 71.6487 69.2312 57.2137 69.2312 39.4071C69.2312 21.6006 54.7962 7.16553 36.9896 7.16553C19.1831 7.16553 4.74805 21.6006 4.74805 39.4071C4.74805 57.2137 19.1831 71.6487 36.9896 71.6487Z" fill="#FFCF5C"/>
<path d="M70.0416 28.1943L53.6847 53.663L50.4641 51.5946L66.2467 27.0202C66.5662 26.5227 67.0702 26.1726 67.6479 26.0467C68.2255 25.9209 68.8295 26.0297 69.327 26.3491L69.6783 26.5748C69.9398 26.7427 70.1245 27.0068 70.1925 27.31C70.2605 27.6131 70.2063 27.9309 70.0416 28.1943Z" fill="#2F2E3B"/>
<path d="M44.6357 67.7235C51.5794 56.9408 53.5637 53.8506 53.5637 53.8506L50.3237 51.7827L40.1055 67.7235H44.6357Z" fill="white"/>
<path d="M8.85889 26.7116L24.6493 51.2982L21.4287 53.3665L5.07185 27.8978C4.90262 27.6343 4.84499 27.3144 4.91166 27.0084C4.97832 26.7024 5.1638 26.4354 5.4273 26.2662L5.77868 26.0405C6.27613 25.721 6.88011 25.6123 7.45776 25.7381C8.03541 25.864 8.53941 26.2141 8.85889 26.7116Z" fill="#2F2E3B"/>
<path d="M35.0922 67.7232L24.8048 51.4541L21.585 53.5219C21.585 53.5219 23.5203 56.7763 30.5677 67.7232H35.0922Z" fill="white"/>
<path d="M21.4775 52.246L21.1924 52.2172L21.6273 47.6869L17.2209 46.1548L17.6673 41.5151L13.2638 39.9829L13.7102 35.3432L9.30664 33.8111L9.76456 29.0591L10.0526 29.0879L9.6148 33.6152L14.0183 35.1445L13.5719 39.7842L17.9754 41.3164L17.529 45.956L21.9354 47.4911L21.4775 52.246Z" fill="#FFB037"/>
<path d="M51.2318 51.2237L51.1367 50.953L55.4337 49.4554L54.9902 44.8128L59.3937 43.2835L58.9473 38.641L63.3508 37.1117L62.9044 32.472L67.4145 30.9053L67.5066 31.176L63.2126 32.6678L63.659 37.3075L59.2554 38.8397L59.7018 43.4794L55.2983 45.0115L55.7418 49.6541L51.2318 51.2237Z" fill="#FFB037"/>
<path d="M9.09991 26.6228C8.91857 26.3392 8.68304 26.0943 8.40684 25.902C8.13064 25.7097 7.8192 25.5738 7.49038 25.5021C7.16155 25.4304 6.8218 25.4243 6.49062 25.4841C6.15943 25.544 5.84331 25.6686 5.56039 25.8509L5.15431 26.1101C4.85184 26.3049 4.63913 26.6118 4.56297 26.9635C4.48682 27.3151 4.55346 27.6825 4.74823 27.985L6.45031 30.6375C6.52946 30.7607 6.65428 30.8475 6.79736 30.8789C6.94045 30.9102 7.09012 30.8834 7.21351 30.8045L9.98695 29.0218C10.048 28.9826 10.1008 28.9318 10.1421 28.8722C10.1835 28.8125 10.2126 28.7453 10.2279 28.6744C10.2431 28.6034 10.2442 28.5302 10.231 28.4588C10.2179 28.3875 10.1907 28.3194 10.1511 28.2586L9.09991 26.6228Z" fill="#2F2E3B"/>
<path d="M27.067 48.5526L18.004 54.3732C17.7202 54.5554 17.6376 54.9326 17.8194 55.2156C18.0012 55.4987 18.3786 55.5805 18.6623 55.3982L27.7254 49.5776C28.0091 49.3954 28.0917 49.0182 27.9099 48.7352C27.7281 48.4521 27.3508 48.3704 27.067 48.5526Z" fill="#2F2E3B"/>
<path d="M66.0026 26.9251C66.1845 26.6418 66.4204 26.3971 66.6968 26.2049C66.9733 26.0128 67.2849 25.877 67.6139 25.8053C67.9428 25.7337 68.2827 25.7275 68.614 25.7872C68.9454 25.8469 69.2617 25.9713 69.545 26.1532L69.9482 26.4124C70.0982 26.5087 70.2277 26.6335 70.3295 26.7798C70.4312 26.9261 70.5031 27.091 70.5411 27.2652C70.5791 27.4393 70.5824 27.6192 70.5508 27.7945C70.5193 27.9699 70.4534 28.1374 70.3571 28.2873L68.655 30.9398C68.5754 31.0626 68.4504 31.1488 68.3074 31.1796C68.1643 31.2103 68.0149 31.1832 67.8919 31.104L65.1184 29.3241C64.9952 29.245 64.9084 29.1202 64.877 28.9771C64.8457 28.834 64.8725 28.6843 64.9514 28.5609L66.0026 26.9251Z" fill="#2F2E3B"/>
<path d="M47.4667 50.0028L56.5145 55.8192C56.7977 56.0013 57.1746 55.9198 57.3563 55.6373C57.5379 55.3547 57.4556 54.978 57.1723 54.7959L48.1245 48.9795C47.8413 48.7974 47.4644 48.8788 47.2827 49.1614C47.1011 49.444 47.1834 49.8207 47.4667 50.0028Z" fill="#2F2E3B"/>
<path d="M39.956 15.3502C42.0843 13.6568 42.5134 5.10605 36.7332 1.72205C30.9531 -1.66195 21.9876 0.924289 20.1358 10.1489C18.932 16.171 23.0964 25.3841 18.2753 29.1022C17.3916 29.8225 16.3706 30.3556 15.2744 30.6689C15.2043 30.6854 15.1414 30.724 15.095 30.7791C15.0487 30.8342 15.0214 30.9028 15.0172 30.9746C15.013 31.0465 15.0321 31.1178 15.0717 31.1779C15.1113 31.2381 15.1692 31.2838 15.2369 31.3083C17.1492 31.9505 20.6427 32.5582 22.9121 31.34C31.9064 26.5131 26.8692 17.228 29.2481 13.196C30.9761 10.2469 34.2507 11.4219 34.5416 14.348C34.7259 16.243 39.956 15.3502 39.956 15.3502Z" fill="#2F2E3B"/>
<path d="M26.2732 16.5024L28.6233 15.1315C28.6233 15.1315 29.1244 11.52 31.247 11.5372C33.3696 11.5545 33.7612 12.5625 33.7612 12.5625L34.9564 12.358C34.0492 9.09787 32.2838 8.20795 30.0345 8.32603C27.3676 8.43835 25.3804 11.664 26.2732 16.5024Z" fill="#24242D"/>
<path d="M21.7804 6.45952C21.2398 7.39217 20.7504 8.35359 20.3145 9.33952C22.4687 0.768636 31.1145 -1.5584 36.7276 1.72768C42.5077 5.10592 42.0786 13.6566 39.9561 15.3501C39.9561 15.3501 39.7199 15.3904 39.3455 15.4336L39.5241 11.4477C40.0108 5.11168 35.0284 1.2928 30.1871 1.51456C25.3458 1.73632 22.99 4.46368 21.7804 6.45952Z" fill="#464552"/>
<path d="M38.8849 11.471H38.5969C38.5969 3.72959 33.0529 1.48895 29.7783 1.39103V1.10303C32.7678 1.19807 35.2042 2.44223 36.8257 4.70303C38.139 6.51167 38.8849 8.98271 38.8849 11.471Z" fill="#464552"/>
<path d="M41.3961 13.334C41.2835 13.3336 41.1735 13.3002 41.0798 13.238C40.986 13.1757 40.9125 13.0874 40.8684 12.9838C40.8242 12.8803 40.8114 12.766 40.8315 12.6553C40.8516 12.5445 40.9037 12.4421 40.9814 12.3606C41.8454 11.4592 42.1334 9.44605 42.0038 8.69437C41.9766 8.54389 42.0104 8.38881 42.0976 8.26324C42.1849 8.13766 42.3184 8.05188 42.4689 8.02477C42.6194 7.99765 42.7744 8.03142 42.9 8.11865C43.0256 8.20587 43.1114 8.33941 43.1385 8.48989C43.3113 9.45757 43.0089 11.9113 41.8137 13.1584C41.7596 13.2144 41.6947 13.2588 41.6229 13.289C41.5511 13.3192 41.4739 13.3345 41.3961 13.334Z" fill="#2F2E3B"/>
<path d="M32.9398 13.2793C33.2278 10.4742 41.5798 10.6297 42.0953 13.2793C42.6108 15.9289 32.7008 15.5517 32.9398 13.2793Z" fill="#CECECE"/>
<path d="M27.0277 53.3002C25.0487 54.021 23.1147 54.8596 21.236 55.8115C21.0241 55.9252 20.8471 56.0943 20.7239 56.3008C20.6006 56.5072 20.5357 56.7432 20.5361 56.9837V57.8189C20.5361 57.8189 21.1121 56.8426 21.7256 57.0067C23.059 57.361 24.6315 60.6499 25.5041 65.2349C25.6568 66.0269 25.8497 67.7693 26.0542 69.8947C29.5744 71.0986 33.2692 71.7127 36.9896 71.712H37.5339V48.4762C34.0693 48.4589 28.9083 51.0653 27.0277 53.3002Z" fill="#25252D"/>
<path d="M53.8233 55.8111C51.9483 54.8597 50.0182 54.0211 48.0431 53.2998C46.1625 51.0649 41.0015 48.4585 37.5254 48.4585V71.6943C41.4653 71.6379 45.3647 70.8893 49.0454 69.4825C49.2355 67.5471 49.414 65.9775 49.5552 65.2345C50.4192 60.6495 52.0003 57.3606 53.3337 57.0063C53.95 56.8422 54.5231 57.7263 54.5231 57.7263V56.9833C54.5236 56.7429 54.4587 56.5068 54.3354 56.3004C54.2122 56.0939 54.0352 55.9248 53.8233 55.8111Z" fill="#25252D"/>
<path d="M42.3753 54.2764L37.6032 65.0937L32.8281 54.2764V45.0229H42.3753V54.2764Z" fill="white"/>
<path d="M32.8311 49.7344V51.4941C32.8311 51.4941 35.328 53.8989 37.7501 53.8297C40.1722 53.7606 42.3754 51.7821 42.3754 51.7821V49.7344H32.8311Z" fill="#CECECE"/>
<path d="M37.8999 14.7194C34.9796 12.8964 29.7121 12.9914 25.4871 17.7895C22.705 20.9575 21.2593 25.1767 21.6596 28.025C22.0599 30.8733 20.859 31.2736 21.3918 33.7648C21.9246 36.256 24.5972 37.1028 24.5972 37.1028C24.5972 37.1028 50.0045 37.192 50.6727 37.1028C51.3409 37.0135 54.3015 34.9716 54.4973 31.4522C55.2548 17.8356 47.378 14.7655 44.0401 13.8842C40.8461 13.0231 37.8999 14.7194 37.8999 14.7194Z" fill="#2F2E3B"/>
<path d="M44.0398 13.8614C40.8459 12.9974 37.8996 14.7081 37.8996 14.7081C38.0753 14.6649 37.5742 15.0336 37.7499 14.9961C42.1044 14.0659 46.9659 15.0969 50.1569 19.6041C53.826 24.7881 53.5035 32.5353 51.6977 36.5414C52.5033 35.9429 53.1704 35.1777 53.6535 34.298C54.1366 33.4183 54.4243 32.4448 54.4971 31.4438C55.2545 17.8243 47.3777 14.7513 44.0398 13.8614Z" fill="#464552"/>
<path d="M50.2027 35.7119C51.7435 34.1221 53.1431 33.598 54.203 34.2229C55.2628 34.8479 53.6731 40.0002 52.3713 40.1442C51.0695 40.2882 49.7793 38.6495 49.7793 38.6495L50.2027 35.7119Z" fill="white"/>
<path d="M24.4816 35.7119C22.9379 34.1221 21.5411 33.598 20.4813 34.2229C19.4215 34.8479 21.0112 40.0002 22.313 40.1442C23.6147 40.2882 24.905 38.6495 24.905 38.6495L24.4816 35.7119Z" fill="white"/>
<path d="M37.5279 18.835C34.8265 18.835 24.0179 19.578 24.2166 31.0202C24.375 40.1844 24.6399 41.6762 25.5673 43.9975C27.0764 47.7617 33.9193 51.9895 37.885 51.9751C41.8508 51.9607 47.9823 47.7617 49.4914 43.9975C50.4188 41.6935 50.6838 40.1844 50.8422 31.0202C51.0409 19.5838 40.2438 18.835 37.5279 18.835Z" fill="white"/>
<path d="M35.8688 20.4476C36.0186 23.077 37.0813 27.613 41.4244 29.1193C41.8103 29.2517 42.202 28.6268 41.8247 28.3618C41.1969 27.9183 38.9821 26.4466 39.1492 23.9093C39.1492 23.9093 41.4129 27.4633 44.5405 28.3503C44.6659 28.3886 44.8009 28.3806 44.9209 28.3277C45.0409 28.2748 45.1379 28.1807 45.1943 28.0623C45.2735 27.8936 45.3269 27.714 45.3527 27.5295C45.3527 27.5295 48.3364 28.5433 50.3581 28.3301C50.122 21.3577 48.0023 18.0514 43.9991 16.1103C39.9959 14.1692 37.1677 15.5804 37.1677 15.5804C37.1677 15.5804 35.6816 17.1529 35.8688 20.4476Z" fill="#CECECE"/>
<path d="M37.5454 38.7964C34.7201 38.7964 27.7908 42.0479 24.6113 40.1471C24.6113 41.5036 25.3256 43.3986 25.5675 43.9977C27.0766 47.7618 33.9195 51.9897 37.8852 51.9753H37.9169C41.8913 51.9897 48.0142 47.7618 49.5233 43.9977C49.9864 42.8266 50.2887 41.5981 50.4219 40.3458C45.042 41.3481 40.3534 38.7964 37.5454 38.7964Z" fill="#2F2E3B"/>
<path d="M33.9884 23.8318C36.733 21.2686 37.5279 18.835 37.5279 18.835L37.8994 14.7195C37.8994 14.7195 35.3477 12.3838 29.7749 14.3623C26.7625 15.4337 21.5641 19.2727 21.4229 26.2999C21.3941 27.6132 21.2588 29.2692 21.2588 29.2692C21.2588 29.2692 29.0117 28.4887 33.9884 23.8318Z" fill="#2F2E3B"/>
<path d="M19.7695 60.9609C19.6427 61.5743 19.5765 63.7775 19.5391 66.6374C21.6443 67.9074 23.8936 69.1689 26.2639 69.9609C25.6562 65.5919 24.8527 61.0934 23.9599 59.325C23.4206 58.3144 22.6263 57.4625 21.6559 56.854C20.0315 57.5654 20.1093 59.3279 19.7695 60.9609Z" fill="white"/>
<path d="M50.8516 59.0197C50.1488 60.5317 49.4346 65.0676 48.8701 69.5518C51.2317 68.6619 53.4781 67.2478 55.5402 65.8913C55.4797 63.0372 55.3904 60.9003 55.2522 60.2984C54.8836 58.6597 54.728 57.188 53.1008 56.5083C52.1301 57.1176 51.3506 57.9879 50.8516 59.0197Z" fill="white"/>
<path d="M24.214 44.6975C24.0974 44.6977 23.9836 44.6626 23.8874 44.5968C23.7913 44.531 23.7174 44.4375 23.6754 44.3288C23.54 43.9803 20.4527 35.6888 24.8965 26.444C24.9626 26.3062 25.0807 26.2002 25.2249 26.1494C25.3691 26.0986 25.5276 26.1072 25.6655 26.1733C25.8034 26.2394 25.9093 26.3575 25.9601 26.5017C26.0109 26.6459 26.0023 26.8044 25.9362 26.9423C21.7141 35.7263 24.7208 43.8363 24.7496 43.917C24.804 44.0595 24.7997 44.2177 24.7376 44.357C24.6756 44.4963 24.5608 44.6052 24.4184 44.66C24.3531 44.6848 24.2838 44.6975 24.214 44.6975Z" fill="#2F2E3B"/>
<path d="M24.9798 37.2037C24.8748 37.2036 24.7719 37.1749 24.682 37.1206C24.5922 37.0663 24.5189 36.9884 24.4701 36.8955C23.5715 35.2021 23.1366 28.8315 25.4435 25.9515C25.5394 25.8343 25.6775 25.7596 25.8281 25.7435C25.9786 25.7274 26.1294 25.7712 26.2479 25.8655C26.3664 25.9597 26.443 26.0968 26.4612 26.2471C26.4793 26.3975 26.4376 26.5489 26.345 26.6686C24.3808 29.1397 24.7379 34.9515 25.481 36.3685C25.5247 36.4553 25.5458 36.5518 25.5423 36.6489C25.5387 36.7461 25.5106 36.8408 25.4606 36.9242C25.4105 37.0075 25.3402 37.0769 25.2562 37.1258C25.1721 37.1746 25.077 37.2014 24.9798 37.2037Z" fill="#2F2E3B"/>
<path d="M50.1223 48.182C50.0688 48.1822 50.0156 48.1755 49.9639 48.1619C49.8911 48.1413 49.823 48.1065 49.7636 48.0596C49.7042 48.0127 49.6547 47.9546 49.6178 47.8885C49.5809 47.8225 49.5573 47.7498 49.5485 47.6746C49.5397 47.5995 49.5458 47.5233 49.5664 47.4505C49.5981 47.3382 52.6941 36.1609 49.0624 27.3222C49.0275 27.2514 49.0075 27.1742 49.0036 27.0954C48.9998 27.0165 49.0121 26.9378 49.04 26.8639C49.0679 26.7901 49.1106 26.7227 49.1656 26.6661C49.2205 26.6094 49.2866 26.5647 49.3595 26.5346C49.4325 26.5046 49.5109 26.4898 49.5898 26.4913C49.6687 26.4928 49.7465 26.5105 49.8183 26.5433C49.8901 26.5761 49.9544 26.6233 50.0072 26.682C50.0599 26.7407 50.1001 26.8096 50.1252 26.8844C53.9124 36.1004 50.8106 47.2921 50.6752 47.7644C50.6409 47.8846 50.5683 47.9903 50.4686 48.0657C50.3688 48.141 50.2473 48.1818 50.1223 48.182Z" fill="#2F2E3B"/>
<path d="M39.2881 71.5907C39.0001 70.9312 31.9729 55.4282 31.5121 53.8701C31.0714 52.4042 30.6164 51.1831 32.2033 50.2183L32.4913 50.3709C31.1607 51.1802 31.3018 52.1767 31.7857 53.7895C32.2465 55.3274 39.4839 71.3114 39.5617 71.4727L39.2881 71.5907Z" fill="#585860"/>
<path d="M37.7728 67.6508L37.5107 67.5327L37.744 67.023C38.6311 65.0531 43.0922 55.1689 43.504 53.7894C43.9879 52.1766 44.2528 51.2636 42.928 50.4544L43.216 50.2988C44.8029 51.2607 44.2298 52.4041 43.792 53.87C43.3802 55.2351 39.2647 64.3734 38.0147 67.1411L37.7728 67.6508Z" fill="#585860"/>
<path d="M26.9962 70.2717C26.9818 70.1737 25.6829 60.4163 25.009 59.0166C24.335 57.6169 23.039 55.624 21.1699 55.8717L21.504 55.6643C23.7907 55.3763 24.8534 58.0317 25.271 58.8957C25.9651 60.3357 27.2294 69.8397 27.287 70.2371L26.9962 70.2717Z" fill="#585860"/>
<path d="M47.9569 69.9406L47.6689 69.9147C47.7093 69.5144 48.6251 60.1371 49.3192 58.6827C49.7368 57.8187 51.1393 55.2267 53.1352 55.4485L53.5528 55.6558C51.6837 55.4225 50.2638 57.3838 49.5784 58.8065C48.8929 60.2293 47.9656 69.8456 47.9569 69.9406Z" fill="#585860"/>
<path d="M36.3301 19.5089C36.3301 22.1412 37.1336 26.732 41.3874 28.4801C41.7646 28.6356 42.1909 28.0308 41.828 27.7457C41.229 27.2676 39.1006 25.675 39.4088 23.1377C39.4088 23.1377 41.4709 26.8155 44.541 27.8782C44.6642 27.9231 44.7995 27.9221 44.9221 27.8756C45.0448 27.8291 45.1466 27.7401 45.2091 27.6248C45.2979 27.4603 45.3619 27.2837 45.3992 27.1006C45.3992 27.1006 48.6334 28.4052 50.6638 28.3073C50.8222 21.332 48.5038 17.9192 44.6907 15.6353C42.0066 14.0196 37.7499 14.996 37.7499 14.996C37.7499 14.996 36.3301 16.2142 36.3301 19.5089Z" fill="#2F2E3B"/>
<path d="M21.7369 26.4583C22.9205 19.4715 27.517 15.9924 30.5295 14.9211C34.3599 13.5559 36.7647 14.2385 37.8937 14.7972V14.7195C37.8937 14.7195 35.3478 12.3838 29.775 14.3623C26.7625 15.4337 21.5641 19.2727 21.4229 26.2999C21.3941 27.6132 21.2588 29.2692 21.2588 29.2692C21.2588 29.2692 21.6073 27.2359 21.7369 26.4583Z" fill="#464552"/>
<path d="M31.9444 15.0622C29.2948 16.0069 24.7214 19.3822 24.5918 25.5656C24.5918 25.603 24.6811 25.6578 24.6811 25.6462C25.7208 19.5003 29.9572 16.4965 32.6068 15.5662C34.8792 14.757 36.5784 14.7656 37.7505 15.0075C37.7678 14.9672 37.883 14.9845 37.9003 14.9413C37.9159 14.8769 37.9159 14.8098 37.9003 14.7454C36.7684 14.325 34.81 14.0427 31.9444 15.0622Z" fill="#464552"/>
<path d="M30.7979 39.7067C31.264 39.7067 31.6418 39.3289 31.6418 38.8629C31.6418 38.3968 31.264 38.019 30.7979 38.019C30.3319 38.019 29.9541 38.3968 29.9541 38.8629C29.9541 39.3289 30.3319 39.7067 30.7979 39.7067Z" fill="#CECECE"/>
<path d="M44.3448 39.6403C44.8109 39.6403 45.1887 39.2625 45.1887 38.7965C45.1887 38.3304 44.8109 37.9526 44.3448 37.9526C43.8788 37.9526 43.501 38.3304 43.501 38.7965C43.501 39.2625 43.8788 39.6403 44.3448 39.6403Z" fill="#CECECE"/>
<path d="M35.3624 30.528C35.5237 31.3373 35.0744 32.3626 35.0744 32.3626C35.0744 32.3626 30.3714 31.2451 28.5599 31.297C27.6959 31.32 26.2559 31.9795 26.2559 31.9795C26.2559 31.9795 27.6239 29.7879 28.8479 29.7101C30.7141 29.5978 35.3624 30.528 35.3624 30.528Z" fill="#2F2E3B"/>
<path d="M40.1053 30.7555C39.9469 31.5676 40.3933 32.59 40.3933 32.59C40.3933 32.59 45.0935 31.4582 46.905 31.5043C47.769 31.5244 49.209 32.1811 49.209 32.1811C49.209 32.1811 47.8352 29.9923 46.6026 29.9174C44.7507 29.8022 40.1053 30.7555 40.1053 30.7555Z" fill="#2F2E3B"/>
<path d="M26.6015 33.6962C26.2732 33.8316 26.7887 34.589 27.4655 34.4652C28.7894 34.1808 30.1478 34.0915 31.4975 34.2002C33.2774 34.3269 35.4633 35.741 35.6793 35.8793C35.8953 36.0175 35.9673 35.8793 35.8147 35.6805C35.662 35.4818 33.6892 33.5407 31.4659 33.221C29.8299 32.9807 28.16 33.1438 26.6015 33.6962Z" fill="#2F2E3B"/>
<path d="M32.7962 35.0405C32.849 34.1083 32.0872 33.3071 31.0947 33.2509C30.1021 33.1947 29.2548 33.9049 29.202 34.837C29.1492 35.7692 29.911 36.5704 30.9036 36.6266C31.8961 36.6828 32.7435 35.9727 32.7962 35.0405Z" fill="#2F2E3B"/>
<path d="M48.8318 33.6959C49.1602 33.8284 48.6533 34.3928 47.9678 34.462C47.1413 34.5455 46.0728 34.6952 44.1086 34.9112C42.3346 35.11 39.9845 35.7407 39.7714 35.876C39.5582 36.0114 39.4834 35.876 39.6331 35.6802C39.7829 35.4844 41.7874 34.413 44.0021 34.0357C46.5797 33.5807 48.6331 33.6008 48.8318 33.6959Z" fill="#2F2E3B"/>
<path d="M39.311 44.4787H37.7586L38.9798 40.9507L35.8262 45.5702L37.3209 45.5731L36.1574 49.0982L39.311 44.4787Z" fill="#464552"/>
<path d="M29.2397 35.3637C29.4751 35.3637 29.666 35.1729 29.666 34.9375C29.666 34.7021 29.4751 34.5112 29.2397 34.5112C29.0043 34.5112 28.8135 34.7021 28.8135 34.9375C28.8135 35.1729 29.0043 35.3637 29.2397 35.3637Z" fill="white"/>
<path d="M34.4839 32.5267L34.2305 32.3943C34.4861 31.6312 34.6269 30.8343 34.6481 30.0298H34.9361C34.8871 31.0032 34.6481 32.1898 34.4839 32.5267Z" fill="white"/>
</svg>
