<svg width="60" height="60" viewBox="0 0 60 60" fill="none" xmlns="http://www.w3.org/2000/svg">
<path d="M26.4844 60L28.2422 55.9046V35.81L26.4844 33.5156L24.2085 24.7266H3.72539L0 33.5156C0 48.0553 11.9447 60 26.4844 60Z" fill="#FFE29D"/>
<path d="M26.4844 33.5156V39.668C22.6011 39.668 19.4531 42.816 19.4531 46.6992C19.4531 50.5825 22.6011 53.7305 26.4844 53.7305V60C41.0241 60 52.8516 48.0553 52.8516 33.5156L49.5765 31.7578H31.1473L26.4844 33.5156Z" fill="#E1E6F0"/>
<path d="M52.8516 14.1797V7.14844H45.8203C45.8203 3.27059 42.6669 0 38.7891 0C34.9112 0 31.7578 3.27059 31.7578 7.14844H26.4844L24.7266 10.1645V30.259L26.4844 33.5156H32.6367C32.6367 37.3989 35.7847 40.5469 39.668 40.5469C43.5512 40.5469 46.6992 37.3989 46.6992 33.5156H52.8516V28.2422C56.7294 28.2422 60 25.0888 60 21.2109C60 17.3331 56.7294 14.1797 52.8516 14.1797Z" fill="#FFBE40"/>
<path d="M26.4844 13.3008V7.14844C11.9447 7.14844 0 18.9759 0 33.5156H6.26953C6.26953 29.6324 9.41754 26.4844 13.3008 26.4844C17.184 26.4844 20.332 29.6324 20.332 33.5156H26.4844V27.3633C30.3676 27.3633 33.5156 24.2153 33.5156 20.332C33.5156 16.4488 30.3676 13.3008 26.4844 13.3008Z" fill="#758190"/>
</svg>
