<svg width="60" height="60" viewBox="0 0 60 60" fill="none" xmlns="http://www.w3.org/2000/svg">
<g clip-path="url(#clip0)">
<path d="M27.3358 4.34613C27.3358 6.60837 25.5019 8.44227 23.2397 8.44227C20.9775 8.44227 19.1436 6.60837 19.1436 4.34613C19.1436 2.0839 20.9775 0.25 23.2397 0.25C25.5019 0.25 27.3358 2.0839 27.3358 4.34613Z" fill="#FFD8C1" stroke="white" stroke-width="0.5"/>
<path d="M27.1032 20.5143H19.3768C17.9147 20.5143 16.7295 19.3291 16.7295 17.867V13.7624C16.7295 11.1001 18.8877 8.94189 21.55 8.94189H24.9302C27.5925 8.94189 29.7507 11.1001 29.7507 13.7624V17.8669C29.7507 17.867 29.7507 17.867 29.7507 17.867C29.7506 19.3291 28.5654 20.5143 27.1032 20.5143Z" fill="#C1C1C1" stroke="white" stroke-width="0.5"/>
<path d="M17.412 9.43109C17.412 11.6933 15.5781 13.5272 13.3159 13.5272C11.0536 13.5272 9.21973 11.6933 9.21973 9.43109C9.21973 7.16886 11.0536 5.33496 13.3159 5.33496C15.5781 5.33496 17.412 7.16886 17.412 9.43109Z" fill="#D47F6C" stroke="white" stroke-width="0.5"/>
<path d="M17.1794 25.5993H9.45301C7.99088 25.5993 6.80566 24.4141 6.80566 22.9519V18.8473C6.80566 16.1851 8.96389 14.0269 11.6261 14.0269H15.0064C17.6686 14.0269 19.8269 16.1851 19.8269 18.8473V22.9519C19.8269 22.9519 19.8269 22.9519 19.8269 22.9519C19.8268 24.4141 18.6415 25.5993 17.1794 25.5993Z" fill="#9AAEB0" stroke="white" stroke-width="0.5"/>
<path d="M44.185 60C52.9194 60 60 52.9194 60 44.185C60 35.4507 52.9194 28.3701 44.185 28.3701C35.4507 28.3701 28.3701 35.4507 28.3701 44.185C28.3701 52.9194 35.4507 60 44.185 60Z" fill="#FFB300"/>
<path d="M44.1839 28.3701C43.5714 28.3701 42.9674 28.4062 42.373 28.4739C50.2544 29.3725 56.3771 36.0632 56.3771 44.185C56.3771 52.3068 50.2544 58.9975 42.373 59.8961C42.9674 59.9639 43.5714 60 44.1839 60C52.9183 59.9998 59.9989 52.9193 59.9989 44.1849C59.9989 35.4507 52.9183 28.3701 44.1839 28.3701Z" fill="#FFA000"/>
<path d="M44.1853 56.3779C50.9194 56.3779 56.3784 50.9189 56.3784 44.1848C56.3784 37.4507 50.9194 31.9917 44.1853 31.9917C37.4512 31.9917 31.9922 37.4507 31.9922 44.1848C31.9922 50.9189 37.4512 56.3779 44.1853 56.3779Z" fill="#FFD54F"/>
<path d="M46.8984 42.5734C47.3838 42.5734 47.7773 42.18 47.7773 41.6945V41.2561C47.7773 39.7894 46.6946 38.5711 45.2866 38.3579V37.0693C45.2866 36.5838 44.8931 36.1904 44.4077 36.1904C43.9223 36.1904 43.5288 36.5838 43.5288 37.0693V38.3579C42.1207 38.5711 41.0381 39.7894 41.0381 41.2561V42.1329C41.0381 43.7491 42.353 45.0641 43.9693 45.0641H45.6616C45.8591 45.0641 46.0196 45.2247 46.0196 45.4221V47.1144C46.0196 47.7614 45.4932 48.2878 44.8462 48.2878H43.9694C43.3223 48.2878 42.796 47.7615 42.796 47.1144V46.676C42.796 46.1905 42.4025 45.7971 41.9171 45.7971C41.4317 45.7971 41.0382 46.1905 41.0382 46.676V47.1144C41.0382 48.581 42.1209 49.7993 43.5289 50.0125V51.3012C43.5289 51.7867 43.9224 52.1801 44.4078 52.1801C44.8932 52.1801 45.2867 51.7867 45.2867 51.3012V50.0125C46.6948 49.7993 47.7774 48.581 47.7774 47.1144V45.4221C47.7774 44.2555 46.8283 43.3063 45.6616 43.3063H43.9693C43.3222 43.3063 42.7959 42.78 42.7959 42.1329V41.2561C42.7959 40.6091 43.3223 40.0826 43.9693 40.0826H44.8461C45.4931 40.0826 46.0195 40.609 46.0195 41.2561V41.6945C46.0195 42.18 46.4129 42.5734 46.8984 42.5734Z" fill="black"/>
<path d="M10.8563 18.2568C10.8563 20.519 9.02243 22.3529 6.7602 22.3529C4.49796 22.3529 2.66406 20.519 2.66406 18.2568C2.66406 15.9945 4.49796 14.1606 6.7602 14.1606C9.02243 14.1606 10.8563 15.9945 10.8563 18.2568Z" fill="#EBAD88" stroke="white" stroke-width="0.5"/>
<path d="M10.6237 34.4254H2.89734C1.43522 34.4254 0.25 33.2402 0.25 31.7781V27.6735C0.25 25.0113 2.40823 22.853 5.07047 22.853H8.45074C11.113 22.853 13.2712 25.0113 13.2712 27.6735V31.7781C13.2712 31.7781 13.2712 31.7781 13.2712 31.7781C13.2711 33.2402 12.0859 34.4254 10.6237 34.4254Z" fill="#585860" stroke="white" stroke-width="0.5"/>
<path d="M52.1849 17.0155C51.7901 16.7331 51.2412 16.824 50.9587 17.2188L50.6664 17.6272C49.7043 12.0819 44.8581 7.85156 39.042 7.85156C38.5566 7.85156 38.1631 8.24496 38.1631 8.73047C38.1631 9.21598 38.5566 9.60937 39.042 9.60937C44.1248 9.60937 48.3346 13.4066 48.991 18.3125L48.2491 17.7645C47.8588 17.4758 47.3083 17.5587 47.0199 17.9491C46.7315 18.3396 46.8142 18.8898 47.2047 19.1782L49.4395 20.829C49.834 21.1207 50.3911 21.0322 50.6764 20.6336L52.3881 18.2415C52.6707 17.8471 52.5796 17.298 52.1849 17.0155Z" fill="#E3B340"/>
<path d="M18.07 48.8517C17.7815 48.4611 17.2312 48.3785 16.8409 48.667C16.4504 48.9554 16.3677 49.5056 16.656 49.896L17.2041 50.638C12.2981 49.9816 8.50098 45.7717 8.50098 40.689C8.50098 40.2035 8.10746 39.8101 7.62207 39.8101C7.13668 39.8101 6.74316 40.2035 6.74316 40.689C6.74316 46.5051 10.9735 51.3512 16.5187 52.3133L16.1104 52.6054C15.7156 52.888 15.6246 53.437 15.9071 53.8317C16.1895 54.2265 16.7386 54.3175 17.1334 54.035L19.5254 52.3233C19.9244 52.0379 20.0122 51.4805 19.7209 51.0863L18.07 48.8517Z" fill="#E3B340"/>
</g>
<defs>
<clipPath id="clip0">
<rect width="60" height="60" fill="white"/>
</clipPath>
</defs>
</svg>
