<svg width="60" height="60" viewBox="0 0 60 60" fill="none" xmlns="http://www.w3.org/2000/svg">
<g clip-path="url(#clip0)">
<path d="M38.7614 18.2258C38.503 18.2258 38.2466 18.116 38.0676 17.9026C37.746 17.5197 37.7957 16.9486 38.1786 16.6271L52.9091 4.28433C53.2921 3.96272 53.8631 4.01258 54.1846 4.3954C54.5062 4.77834 54.4565 5.34948 54.0736 5.67097L39.3433 18.0137C39.1735 18.1563 38.9669 18.2258 38.7614 18.2258Z" fill="#E6E6E6"/>
<path d="M37.2677 18.2255C37.1448 18.2255 37.02 18.2004 36.9005 18.1473L24.1014 12.5846C23.6445 12.3815 23.4387 11.8465 23.6417 11.3895C23.8449 10.9325 24.3797 10.7269 24.8368 10.9297L37.6358 16.4924C38.0928 16.6955 38.2986 17.2305 38.0955 17.6875C37.9456 18.025 37.6146 18.2255 37.2677 18.2255Z" fill="#E6E6E6"/>
<path d="M6.57869 25.1581C6.33 25.1581 6.08263 25.0563 5.90372 24.8567C5.57016 24.4841 5.60179 23.9116 5.97434 23.5782L19.2655 11.5239C19.6382 11.1902 20.2105 11.222 20.5441 11.5944C20.8776 11.9669 20.846 12.5394 20.4735 12.8728L7.18231 24.9272C7.00956 25.0819 6.79382 25.1581 6.57869 25.1581Z" fill="#E8E8E8"/>
<path d="M10.9521 38.8075V56.6204C10.9521 57.5186 10.2229 58.2478 9.32475 58.2478H1.62736C0.727968 58.2478 0 57.5186 0 56.6204V38.8075C0 37.7766 0.835412 36.9399 1.86761 36.9399H9.08451C10.1155 36.9399 10.9521 37.7766 10.9521 38.8075Z" fill="#FFCF5C"/>
<path d="M9.08538 36.9404H6.02441C7.05564 36.9404 7.89154 37.7763 7.89154 38.8076V56.4655C7.89154 57.2424 7.42711 57.9441 6.71194 58.2474H9.3255C10.2241 58.2474 10.9524 57.519 10.9524 56.6206V38.8076C10.9525 37.7763 10.1165 36.9404 9.08538 36.9404Z" fill="#E3B340"/>
<path d="M27.3017 26.7114V56.6208C27.3017 57.519 26.5725 58.2482 25.6744 58.2482H17.9758C17.0776 58.2482 16.3496 57.519 16.3496 56.6208V26.7114C16.3496 25.6804 17.185 24.8438 18.216 24.8438H25.4341C26.4651 24.8438 27.3017 25.6804 27.3017 26.7114Z" fill="#FFCF5C"/>
<path d="M25.433 24.8438H22.3721C23.4033 24.8438 24.2392 25.6796 24.2392 26.7109V56.4109C24.2392 57.238 23.7162 57.9745 22.9354 58.2472H25.6732C26.5717 58.2472 27.3 57.5188 27.3 56.6203V26.7109C27.3002 25.6798 26.4643 24.8438 25.433 24.8438Z" fill="#FF901D"/>
<path d="M43.6494 34.1381V56.6206C43.6494 57.5188 42.9214 58.248 42.0232 58.248H34.3246C33.4264 58.248 32.6973 57.5188 32.6973 56.6206V34.1381C32.6973 33.1059 33.5339 32.2705 34.5649 32.2705H41.783C42.814 32.2705 43.6494 33.1059 43.6494 34.1381Z" fill="#FFCF5C"/>
<path d="M41.7826 32.2705H38.7217C39.7529 32.2705 40.5888 33.1064 40.5888 34.1376V56.5678C40.5888 57.3271 40.1058 58.0022 39.3872 58.2474H42.0228C42.9213 58.2474 43.6496 57.5189 43.6496 56.6205V34.1376C43.6498 33.1065 42.8137 32.2705 41.7826 32.2705Z" fill="#E3B340"/>
<path d="M60.001 18.1952V56.6206C60.001 57.5188 59.273 58.248 58.3736 58.248H50.6762C49.778 58.248 49.0488 57.5188 49.0488 56.6206V18.1952C49.0488 17.163 49.8854 16.3276 50.9164 16.3276H58.1333C59.1655 16.3276 60.001 17.163 60.001 18.1952Z" fill="#FFCF5C"/>
<path d="M58.1323 16.3276H55.0713C56.1025 16.3276 56.9384 17.1635 56.9384 18.1948V56.4092C56.9384 57.2568 56.3822 58.0041 55.5702 58.2474H58.3724C59.2709 58.2474 59.9993 57.5189 59.9993 56.6205V18.1948C59.9994 17.1635 59.1635 16.3276 58.1323 16.3276Z" fill="#FF901D"/>
<path d="M21.826 14.2946C23.9019 14.2946 25.5847 12.6118 25.5847 10.536C25.5847 8.46014 23.9019 6.77734 21.826 6.77734C19.7502 6.77734 18.0674 8.46014 18.0674 10.536C18.0674 12.6118 19.7502 14.2946 21.826 14.2946Z" fill="#FF901D"/>
<path d="M21.8244 6.77734C21.2792 6.77734 20.7615 6.89433 20.2939 7.10318C21.6067 7.68942 22.522 9.00531 22.522 10.536C22.522 12.0666 21.6066 13.3825 20.2939 13.9687C20.7616 14.1775 21.2792 14.2945 21.8244 14.2945C23.9002 14.2945 25.583 12.6117 25.583 10.5359C25.583 8.46 23.9002 6.77734 21.8244 6.77734Z" fill="#EB7700"/>
<path d="M38.1755 20.1201C39.4569 20.1201 40.4956 19.0814 40.4956 17.8001C40.4956 16.5187 39.4569 15.48 38.1755 15.48C36.8942 15.48 35.8555 16.5187 35.8555 17.8001C35.8555 19.0814 36.8942 20.1201 38.1755 20.1201Z" fill="#0C0C0C"/>
<path d="M54.5232 6.39211C55.8046 6.39211 56.8433 5.35338 56.8433 4.07203C56.8433 2.79069 55.8046 1.75195 54.5232 1.75195C53.2419 1.75195 52.2031 2.79069 52.2031 4.07203C52.2031 5.35338 53.2419 6.39211 54.5232 6.39211Z" fill="#FF901D"/>
<path d="M5.47633 27.4942C6.75768 27.4942 7.79641 26.4554 7.79641 25.1741C7.79641 23.8927 6.75768 22.854 5.47633 22.854C4.19499 22.854 3.15625 23.8927 3.15625 25.1741C3.15625 26.4554 4.19499 27.4942 5.47633 27.4942Z" fill="#0C0C0C"/>
<path d="M21.4515 52.0006V58.2481H19.6406V52.0006C19.6406 51.5008 20.0463 51.0952 20.5461 51.0952C21.0459 51.0952 21.4515 51.5008 21.4515 52.0006Z" fill="#FF901D"/>
<path d="M5.09114 52.0006V58.2481H3.28027V52.0006C3.28027 51.5008 3.68591 51.0952 4.18571 51.0952C4.68551 51.0952 5.09114 51.5008 5.09114 52.0006Z" fill="#E3B340"/>
<path d="M54.1429 52.0006V58.2481H52.332V52.0006C52.332 51.5008 52.7377 51.0952 53.2375 51.0952C53.7373 51.0952 54.1429 51.5008 54.1429 52.0006Z" fill="#FF901D"/>
<path d="M37.7796 52.0006V58.2481H35.9688V52.0006C35.9688 51.5008 36.3744 51.0952 36.8742 51.0952C37.374 51.0952 37.7796 51.5008 37.7796 52.0006Z" fill="#E3B340"/>
</g>
<defs>
<clipPath id="clip0">
<rect width="60" height="60" fill="white"/>
</clipPath>
</defs>
</svg>
