<svg width="60" height="60" viewBox="0 0 60 60" fill="none" xmlns="http://www.w3.org/2000/svg">
<g clip-path="url(#clip0)">
<path d="M60 30C60 46.5688 46.5688 60 30 60C28.4399 60 26.9083 59.8814 25.4132 59.6521C24.055 59.4443 22.728 59.144 21.4357 58.7608C10.4622 55.4974 2.11853 46.1252 0.3479 34.5868C0.122223 33.1128 0.00366211 31.6026 0 30.0659V30C0 13.4312 13.4312 0 30 0C34.6014 0 38.9621 1.03592 42.8586 2.88757C43.5846 3.23273 44.296 3.60626 44.989 4.00772C47.1991 5.28488 49.232 6.83533 51.0393 8.61328C53.5309 11.0655 55.5954 13.9481 57.1124 17.1428C58.9641 21.0393 60 25.3995 60 30Z" fill="#FFE662"/>
<path d="M52.0409 26.4796L51.5561 17.8306L51.0393 8.61311L51.0365 8.57512C50.901 6.15904 48.9725 4.23186 46.5578 4.0959L44.989 4.00755L43.3896 3.91829L37.3018 3.57542L28.6519 3.08928C27.643 3.0316 26.6583 3.40743 25.9433 4.12291L0 30.0658C0.00366211 31.6025 0.122223 33.1126 0.3479 34.5866C2.11853 46.125 10.4622 55.4973 21.4357 58.7607L51.0072 29.1868C51.7223 28.4727 52.0985 27.4885 52.0409 26.4796ZM43.6862 18.3768C41.7723 20.2907 38.6682 20.292 36.7543 18.3781C34.839 16.4619 34.8404 13.3578 36.7543 11.4439C38.6682 9.53001 41.7723 9.52864 43.6885 11.4439C45.6024 13.3578 45.601 16.4619 43.6862 18.3768Z" fill="#ECCE33"/>
<path d="M57.1122 17.1429L56.5931 7.88696C56.4571 5.47134 54.5286 3.5437 52.1139 3.40774L48.9461 3.23013L42.8583 2.88772L34.208 2.40112C33.1991 2.34436 32.2144 2.72018 31.4998 3.43475L0.347656 34.5869C2.32611 47.4835 12.5164 57.6738 25.413 59.6522L56.5642 28.4996C57.2784 27.7855 57.6542 26.8008 57.5979 25.7924L57.1122 17.1429ZM49.2428 17.6891C47.3289 19.603 44.2248 19.6043 42.3109 17.6904C40.3956 15.7742 40.3969 12.6701 42.3109 10.7562C44.2248 8.84231 47.3289 8.84094 49.2451 10.7562C51.159 12.6701 51.1576 15.7742 49.2428 17.6891Z" fill="#E3B340"/>
<path d="M7.02215 43.8166C6.62436 43.4188 6.8482 42.7972 7.27072 42.3747L11.5847 38.0607C11.9953 37.6501 12.6041 37.9115 13.0019 38.3093C13.462 38.7693 13.6487 39.3782 13.2757 39.7512L10.0558 42.9711L12.1569 45.0723L14.0342 43.195C14.4073 42.8224 14.979 42.9711 15.3768 43.3694C15.7123 43.7045 15.9362 44.2767 15.526 44.6868L13.6487 46.5641L16.8563 49.7717C17.2541 50.1695 16.9684 50.8534 16.4837 51.3382C15.9984 51.8229 15.3145 52.109 14.9172 51.7112L7.02215 43.8166Z" fill="black"/>
<path d="M14.1588 36.6554C13.848 36.3446 13.8105 35.8351 14.1712 35.4744L16.7447 32.9008C18.4481 31.1975 20.4371 30.4765 22.4636 32.503C23.8561 33.8955 24.0177 35.3251 23.483 36.5313L27.7475 37.7623C27.8716 37.787 27.9709 37.8616 28.0332 37.9238C28.5184 38.4086 28.3939 39.5768 27.8217 40.149C27.5731 40.3976 27.2376 40.5345 26.8398 40.41L21.8296 38.8064L21.0088 39.6267L24.0053 42.6232C24.4031 43.021 24.117 43.7049 23.6322 44.1897C23.1475 44.6745 22.4636 44.9601 22.0658 44.5628L14.1588 36.6554ZM17.2048 35.8227L19.5169 38.1349L20.7479 36.9044C21.4441 36.2081 21.581 35.4995 20.7108 34.6293C19.8401 33.7591 19.1315 33.8955 18.4357 34.5918L17.2048 35.8227Z" fill="black"/>
<path d="M27.311 29.9171L29.176 28.0527C29.5491 27.6796 30.1208 27.8288 30.5186 28.2266C30.8541 28.5622 31.078 29.1339 30.6678 29.5441L28.8029 31.409L30.9164 33.5225L34.2485 30.1904C34.6215 29.8178 35.2308 30.0041 35.6909 30.4642C36.0887 30.862 36.3496 31.4713 35.9394 31.8814L31.5133 36.3075C31.0908 36.73 30.4692 36.9539 30.0714 36.5561L22.1768 28.6615C21.7785 28.2637 22.0024 27.6421 22.4253 27.2191L26.851 22.7934C27.2616 22.3833 27.8704 22.6442 28.2682 23.042C28.7283 23.502 28.9151 24.1113 28.542 24.4844L25.2099 27.816L27.311 29.9171Z" fill="black"/>
<path d="M34.7601 22.4704L36.625 20.6059C36.9981 20.2328 37.5698 20.382 37.9676 20.7798C38.3032 21.1154 38.527 21.6871 38.1169 22.0973L36.2519 23.9622L38.3654 26.0757L41.6975 22.7441C42.0706 22.371 42.6799 22.5573 43.1395 23.0174C43.5377 23.4152 43.7986 24.0245 43.3885 24.4346L38.9624 28.8608C38.5394 29.2833 37.9182 29.5071 37.5204 29.1093L29.6258 21.2147C29.228 20.8169 29.4514 20.1953 29.8739 19.7728L34.3 15.3466C34.7106 14.9365 35.3195 15.1974 35.7173 15.5952C36.1773 16.0553 36.3641 16.6645 35.991 17.0376L32.659 20.3692L34.7601 22.4704Z" fill="black"/>
</g>
<defs>
<clipPath id="clip0">
<rect width="60" height="60" fill="white"/>
</clipPath>
</defs>
</svg>
