<svg width="38" height="38" viewBox="0 0 38 38" fill="none" xmlns="http://www.w3.org/2000/svg">
<path d="M38 19.4452C38 18.1335 36.9367 17.0702 35.625 17.0702H30.2812H28.5H20.1875C20.1875 17.0702 23.1562 11.7264 22.5625 6.38266C22.0475 1.74777 18.8525 2.47296 18.0139 2.7469C17.8933 2.78631 17.813 2.89809 17.8105 3.02508C17.6475 11.2879 7.71875 20.6327 7.71875 20.6327V34.2889L12.3312 35.8264C12.8156 35.9878 13.3228 36.0702 13.8333 36.0702H28.5H30.2812H32.0625C33.3742 36.0702 34.4375 35.0068 34.4375 33.6952C34.4375 32.3835 33.3742 31.3202 32.0625 31.3202H33.25C34.5617 31.3202 35.625 30.2568 35.625 28.9452C35.625 27.6335 34.5617 26.5702 33.25 26.5702H34.4375C35.7492 26.5702 36.8125 25.5068 36.8125 24.1952C36.8125 22.8835 35.7492 21.8202 34.4375 21.8202H35.625C36.9367 21.8202 38 20.7568 38 19.4452Z" fill="#FBD2A0"/>
<path d="M35.625 20.0391H32.0625C31.7346 20.0391 31.4688 20.3049 31.4688 20.6328V21.2266C31.4688 21.5545 31.7346 21.8203 32.0625 21.8203H35.5756C36.9036 21.8203 38.0214 20.7337 37.9996 19.4059C37.9947 19.1052 37.9334 18.8183 37.8266 18.5547C37.4743 19.4249 36.6216 20.0391 35.625 20.0391Z" fill="#F9BB70"/>
<path d="M34.4375 24.7891H32.0625C31.7346 24.7891 31.4688 25.0549 31.4688 25.3828V25.9766C31.4688 26.3045 31.7346 26.5703 32.0625 26.5703H34.3881C35.7161 26.5703 36.8339 25.4837 36.8121 24.1559C36.8072 23.8552 36.7459 23.5683 36.6391 23.3047C36.2868 24.1749 35.4341 24.7891 34.4375 24.7891Z" fill="#F9BB70"/>
<path d="M33.25 29.5391H32.0625C31.7346 29.5391 31.4688 29.8049 31.4688 30.1328V30.7266C31.4688 31.0545 31.7346 31.3203 32.0625 31.3203H33.2006C34.5286 31.3203 35.6464 30.2337 35.6246 28.9059C35.6197 28.6052 35.5584 28.3183 35.4516 28.0547C35.0993 28.9249 34.2466 29.5391 33.25 29.5391Z" fill="#F9BB70"/>
<path d="M34.2642 32.8047C33.9118 33.6749 33.0591 34.2891 32.0625 34.2891H13.0625L7.71875 32.5078V34.2891L12.3312 35.8266C12.8156 35.988 13.3228 36.0703 13.8333 36.0703H32.0132C33.3411 36.0703 34.459 34.9837 34.4372 33.6559C34.4322 33.3552 34.3709 33.0683 34.2642 32.8047Z" fill="#F9BB70"/>
<path d="M19.5938 2.81986C19.5938 2.81986 19.5628 2.70824 19.5226 2.54124C18.8769 2.50324 18.3046 2.65183 18.0142 2.74661C17.8933 2.78609 17.8129 2.89824 17.8104 3.02545C17.647 11.2881 7.71875 20.6324 7.71875 20.6324V22.6648C10.9382 20.0059 19.5938 12.0032 19.5938 2.81986Z" fill="#F9BB70"/>
<path d="M7.71875 17.6641H0.59375C0.265852 17.6641 0 17.9299 0 18.2578V37.2578C0 37.5857 0.265852 37.8516 0.59375 37.8516H7.71875C8.04665 37.8516 8.3125 37.5857 8.3125 37.2578V18.2578C8.3125 17.9299 8.04665 17.6641 7.71875 17.6641Z" fill="#00A046"/>
<path d="M4.15625 32.5078C3.17404 32.5078 2.375 33.3069 2.375 34.2891C2.375 35.2713 3.17404 36.0703 4.15625 36.0703C5.13846 36.0703 5.9375 35.2713 5.9375 34.2891C5.9375 33.3069 5.13846 32.5078 4.15625 32.5078Z" fill="#EEEBEA"/>
<path d="M28.5 3.11719C27.4003 3.11719 26.4219 1.62309 26.4219 0.445312C26.4219 0.281363 26.2889 0.148438 26.125 0.148438C25.9611 0.148438 25.8281 0.281363 25.8281 0.445312C25.8281 1.62309 24.8497 3.11719 23.75 3.11719C23.5861 3.11719 23.4531 3.25011 23.4531 3.41406C23.4531 3.57801 23.5861 3.71094 23.75 3.71094C24.8497 3.71094 25.8281 5.20504 25.8281 6.38281C25.8281 6.54676 25.9611 6.67969 26.125 6.67969C26.2889 6.67969 26.4219 6.54676 26.4219 6.38281C26.4219 5.20504 27.4003 3.71094 28.5 3.71094C28.6639 3.71094 28.7969 3.57801 28.7969 3.41406C28.7969 3.25011 28.6639 3.11719 28.5 3.11719Z" fill="#FFCF5C"/>
<path d="M10.0938 9.64844C8.99405 9.64844 8.01562 8.15434 8.01562 6.97656C8.01562 6.81261 7.8827 6.67969 7.71875 6.67969C7.5548 6.67969 7.42188 6.81261 7.42188 6.97656C7.42188 8.15434 6.44345 9.64844 5.34375 9.64844C5.1798 9.64844 5.04688 9.78136 5.04688 9.94531C5.04688 10.1093 5.1798 10.2422 5.34375 10.2422C6.44345 10.2422 7.42188 11.7363 7.42188 12.9141C7.42188 13.078 7.5548 13.2109 7.71875 13.2109C7.8827 13.2109 8.01562 13.078 8.01562 12.9141C8.01562 11.7363 8.99405 10.2422 10.0938 10.2422C10.2577 10.2422 10.3906 10.1093 10.3906 9.94531C10.3906 9.78136 10.2577 9.64844 10.0938 9.64844Z" fill="#FFCF5C"/>
<path d="M37.4062 11.4297C36.3066 11.4297 35.3281 9.93559 35.3281 8.75781C35.3281 8.59386 35.1952 8.46094 35.0312 8.46094C34.8673 8.46094 34.7344 8.59386 34.7344 8.75781C34.7344 9.93559 33.7559 11.4297 32.6562 11.4297C32.4923 11.4297 32.3594 11.5626 32.3594 11.7266C32.3594 11.8905 32.4923 12.0234 32.6562 12.0234C33.7559 12.0234 34.7344 13.5175 34.7344 14.6953C34.7344 14.8593 34.8673 14.9922 35.0312 14.9922C35.1952 14.9922 35.3281 14.8593 35.3281 14.6953C35.3281 13.5175 36.3066 12.0234 37.4062 12.0234C37.5702 12.0234 37.7031 11.8905 37.7031 11.7266C37.7031 11.5626 37.5702 11.4297 37.4062 11.4297Z" fill="#FFCF5C"/>
</svg>
