<svg width="105" height="27" fill="none" xmlns="http://www.w3.org/2000/svg"><g clip-path="url(#clip0)"><path d="M.67 13.415C.67 6.345 6.975.56 14.68.56h75.507c7.707 0 14.012 5.784 14.012 12.854 0 7.07-6.305 12.853-14.012 12.853H.67V13.415z" fill="#FF680A"/><path d="M42.237 9.844h4.904v9.212H49.4V9.844h4.904V8.06H42.237v1.785zM24.568 17.2h-.934V7.99h-2.336v9.21h-7.24V7.989h-2.334v9.997c0 .571.544 1.071 1.167 1.071h10.665V20.7h2.18v-2.5c-.079-.571-.623-1-1.168-1zm14.556-9.14s-.778-.144-1.401.5l-7.55 7.069V7.988h-2.336v10.211c0 .572.7 1.071 1.168 1.071.467 0 .544-.071.778-.285.078 0 .078-.072.156-.143l8.095-7.498v7.64h2.336V9.06c-.078-.571-.623-1-1.246-1zm51.065 7.426c-.156.285-.39.571-.623.785-.39.357-.778.643-1.245.786-.467.214-.934.285-1.557.285-.545 0-1.09-.071-1.557-.285-.467-.214-.856-.429-1.245-.786-.39-.357-.701-.785-.857-1.214-.233-.428-.311-.928-.233-1.57 0-.572.078-1.072.311-1.5.156-.429.467-.857.856-1.214.39-.357.779-.643 1.246-.786.467-.214.934-.285 1.557-.285.544 0 1.09.071 1.556.285.468.214.857.429 1.246.786l1.79-1.286v-.071c-.622-.571-1.245-1-2.024-1.285a6.967 6.967 0 00-2.49-.429 7.28 7.28 0 00-2.492.429c-.778.285-1.4.714-2.023 1.285a5.212 5.212 0 00-1.324 1.857 5.493 5.493 0 00-.467 2.285c0 .857.156 1.57.467 2.285.312.714.779 1.357 1.324 1.928.622.571 1.245 1 2.023 1.285a6.968 6.968 0 002.492.429c.856 0 1.712-.143 2.49-.429.779-.285 1.402-.714 2.024-1.285a7.74 7.74 0 00.779-.857l-2.024-1.428zM78.045 7.988l-3.036 5.998-3.814-5.998h-2.569l5.215 8.14c-.467.786-1.323 1.286-2.335 1.286-.623 0-1.168-.143-1.712-.286v1.928c.467.214 1.167.286 2.101.286 1.713 0 3.192-1 4.204-3l4.437-8.283h-2.491v-.071zm-15.335 0h-5.215c-.623 0-1.168.5-1.168 1.07v9.998h2.335v-3.499h3.97c1.557 0 2.725-.357 3.581-1.071.856-.714 1.323-1.642 1.323-2.785 0-1.143-.467-2-1.323-2.713-.778-.643-2.024-1-3.503-1zm-.233 5.712h-3.815V9.845h3.815c1.79 0 2.802.715 2.802 1.929 0 1.213-1.012 1.928-2.802 1.928z" fill="#fff"/></g><defs><clipPath id="clip0"><path fill="#fff" transform="translate(.67 .561)" d="M0 0h103.53v25.707H0z"/></clipPath></defs></svg>