<svg width="127" height="22" fill="none" xmlns="http://www.w3.org/2000/svg"><g clip-path="url(#clip0)" fill="#FD0028"><path d="M14.559 6.549h-3.123v11.586h8.447v-2.508h-5.324V6.549zm11.996 11.609h-4.448V6.548h4.153a7.034 7.034 0 014.901 1.597 5.522 5.522 0 011.313 1.932c.295.73.429 1.513.394 2.298a5.15 5.15 0 01-.356 2.181 5.183 5.183 0 01-1.24 1.837 6.846 6.846 0 01-4.717 1.765zm-1.324-9.1v6.59h.673a3.682 3.682 0 002.72-.85 3.127 3.127 0 00.964-2.424 3.45 3.45 0 00-.965-2.572c-.426-.368-1.067-.743-2.587-.743l-.805-.002zM41 18.326a7.68 7.68 0 01-2.583-.445 6.204 6.204 0 01-2.11-1.256 5.798 5.798 0 01-1.383-1.942 5.76 5.76 0 01-.481-2.33 5.786 5.786 0 01.478-2.341c.32-.74.792-1.405 1.385-1.954A6.935 6.935 0 0141 6.358a6.949 6.949 0 014.697 1.7 5.885 5.885 0 011.378 1.95 5.847 5.847 0 01-1.378 6.617A6.943 6.943 0 0141 18.326zm0-9.14a3.499 3.499 0 00-2.45.934 3.176 3.176 0 00-.965 2.298 2.835 2.835 0 00.965 2.17 3.482 3.482 0 002.45.936 3.415 3.415 0 002.428-.918c.607-.6.96-1.405.99-2.254a3.062 3.062 0 00-.99-2.23 3.608 3.608 0 00-2.427-.935zm52.933 9.14a6.928 6.928 0 01-4.697-1.701 5.878 5.878 0 01-1.38-1.95 5.84 5.84 0 011.38-6.618 6.935 6.935 0 014.697-1.7 7.685 7.685 0 012.587.446c.781.274 1.499.7 2.11 1.255a5.758 5.758 0 011.392 1.951c.322.74.483 1.538.474 2.344a5.821 5.821 0 01-1.868 4.275 6.929 6.929 0 01-4.695 1.698zm0-9.14a3.5 3.5 0 00-2.45.935 3.173 3.173 0 00-.965 2.297 2.838 2.838 0 00.965 2.17 3.486 3.486 0 002.45.936 3.407 3.407 0 002.424-.918 3.146 3.146 0 00.99-2.254 3.07 3.07 0 00-.99-2.23 3.605 3.605 0 00-2.424-.935zM79.6 18.158h-4.448V6.548h4.153a8.872 8.872 0 012.782.392 5.634 5.634 0 012.093 1.205 5.525 5.525 0 011.313 1.932 5.49 5.49 0 01.394 2.297 5.21 5.21 0 01-.36 2.18 5.243 5.243 0 01-1.232 1.838 7 7 0 01-4.695 1.766zm-1.327-9.122v6.591h.697a3.685 3.685 0 002.717-.85 3.212 3.212 0 00.944-2.424 3.345 3.345 0 00-.963-2.573c-.43-.368-1.072-.743-2.587-.743h-.808zM64.12 18.159h-3.304l4.697-11.61h3.46l4.606 11.608h-3.326l-.762-1.955-.114-.277a8.178 8.178 0 01-2.156.277 8.1 8.1 0 01-2.157-.277l-.114.277-.83 1.956zm3.079-8.143l-1.281 3.612c.426.105.864.155 1.303.15.447.005.892-.046 1.326-.15L67.2 10.015zm-14.761 8.121h-3.011V6.53h4.833a6.81 6.81 0 012.427.275 3.345 3.345 0 012.111 2.23c.12.414.18.844.18 1.276 0 .62-.146 1.23-.427 1.784a3.213 3.213 0 01-1.279 1.361c-.033.02-.06.04-.087.06l-.018.012c-.02.016-.045.036-.076.057l2.921 4.548h-3.35l-2.224-3.674c-.273.021-.561.042-.833.042-.311 0-1.16-.064-1.167-.064v3.701zm0-9.101v2.913a4.25 4.25 0 001.167.172 3.26 3.26 0 001.62-.322 1.402 1.402 0 00.696-1.275 1.254 1.254 0 00-.172-.808 1.27 1.27 0 00-.639-.53 4.743 4.743 0 00-1.327-.15h-1.345zM0 18.136h8.447v-2.508H3.123v-2.063h5.123v-2.508H3.123v-2.02h5.325V6.55H0v11.586zM124.7 3.049h-20.115v1.524H124.7V3.05zm-.826 17.405h-19.289v1.524h19.289v-1.524z"/><path d="M123.897 2.766h-1.563v19.213h1.563V2.766zm-17.749.283h-1.563V22h1.563V3.05z"/><path d="M123.897 0h-1.563v5.073h1.563V0z"/><path d="M127 3.049h-5.447v1.524H127V3.05zm-6.196 13.189h-1.748l-.402-1.038-.047-.158c-.371.09-.752.135-1.134.135a4.708 4.708 0 01-1.133-.156l-.047.157-.425 1.037h-1.748l2.48-6.153h1.794l2.409 6.175h.001zm-3.331-4.328l-.684 1.915a3.494 3.494 0 001.369 0l-.685-1.915zm-5.62-1.848v3.783a1.013 1.013 0 01-.968 1.013h-.189a1.055 1.055 0 01-.681-.321 1.035 1.035 0 01-.287-.692l-.024-.383v-3.4h-1.653v3.513a2.762 2.762 0 00.826 2.01 2.54 2.54 0 001.889.675 2.61 2.61 0 001.889-.676 2.826 2.826 0 00.828-2.01v-3.512h-1.63z"/></g><defs><clipPath id="clip0"><path fill="#fff" d="M0 0h127v22H0z"/></clipPath></defs></svg>