<svg width="137" height="22" fill="none" xmlns="http://www.w3.org/2000/svg"><g clip-path="url(#clip0)"><path d="M23.175 11.047C23.142 17.12 17.925 22.031 11.538 22 5.134 21.984-.032 17.026 0 10.953.033 4.88 5.25-.031 11.637 0c6.404.032 11.57 4.974 11.538 11.047z" fill="#221F1F"/><path d="M6.093 8.458c.396.079.825-.376.973-1.02.149-.643-.05-1.24-.445-1.318-.264-.062-.545.142-.76.471.182.094.265.298.182.487a.416.416 0 01-.43.22c-.082.564.116 1.082.48 1.16zm-1.899-1.35c.314-1.6 1.288-2.76 2.163-2.604.891.157 1.337 1.585 1.023 3.186-.297 1.6-1.271 2.761-2.146 2.604-.891-.157-1.353-1.585-1.04-3.185zm15.334 1.35C9.641 14.735 2.824 11.55 2.824 11.55c-.099 2.18 3.83 8.897 8.55 8.991 4.688.078 8.154-12.083 8.154-12.083zm-14.36 2.087c1.04.189 2.162-1.067 2.51-2.808.346-1.742-.215-3.311-1.239-3.5C5.4 4.05 4.277 5.304 3.93 7.047c-.363 1.757.198 3.326 1.238 3.498zm3.549-.894c.347-.36.743-.722 1.188-1.051 2.047-1.491 4.276-1.868 5.002-.832.28.408.297.957.082 1.57.726-1.146.958-2.198.512-2.778-.76-.973-3.087-.298-5.232 1.49a10.9 10.9 0 00-1.552 1.601zm2.278-4.755c1.634-1.05 4.456-1.632 5.958.565-.924-5.052-4.836-2.15-5.958-.565zm11.884 6.151c-.033 5.916-5.1 10.686-11.34 10.655C5.317 21.671.316 16.853.316 10.938c0-3.83 2.014-6.59 3.929-8.066C6.588 1.068 8.189 2.45 8.75 3.5c-.066-.44-.264-1.726-.776-2.652a11.41 11.41 0 013.681-.565c6.223.047 11.24 4.849 11.224 10.764zm-7.114 5.414c-1.221 2.087-2.74 3.798-4.44 3.766-1.056-.015-2.063-.408-2.988-1.004.297-.502 2.146-3.06 7.428-2.762z" fill="#00A046"/><path d="M127.394 12.177l1.749-4.048 1.75 4.048h-3.499zm4.291-6.528h-5.067l-5.315 10.828h4.242l.924-2.119h5.364l.909 2.119H137l-5.315-10.828zM92.847 8.427h4.72v8.034h3.879V8.427h4.738V5.649H92.847v2.778zm-9.045 3.719h6.668V9.98h-6.668v-1.6h7.807V5.65H80.055v10.81H91.89v-2.667h-8.088v-1.647zM78.387 7.58V5.65H65.809v2.777h6.767l-6.866 6.12v1.914h12.71v-2.777h-6.817l6.784-6.105zm-21.392 6.34c-2.476 0-3.994-.801-3.994-2.857 0-2.055 1.502-2.84 3.994-2.84 2.46 0 4.011.785 4.011 2.84 0 2.056-1.535 2.856-4.01 2.856zm0-8.537c-4.968 0-8.071 1.82-8.071 5.68 0 3.845 3.103 5.696 8.071 5.696 4.985 0 8.088-1.836 8.088-5.696 0-3.86-3.103-5.68-8.088-5.68zM38.46 8.192h3.763c1.172 0 1.617.596 1.617 1.365 0 .518-.33 1.443-1.683 1.443h-3.698V8.192zm9.325 1.365c0-2.291-1.535-3.923-5.216-3.923h-7.94V16.46h3.83V13.4h2.476l2.757 3.06h4.786l-3.202-3.515c1.585-.643 2.51-2.056 2.51-3.39zm68.319-3.907l-4.721 3.954V5.649h-3.829v10.812h3.829V13.48l1.453-1.162 3.284 4.143h4.787l-5.299-6.387 5.48-4.425h-4.984z" fill="#000"/></g><defs><clipPath id="clip0"><path fill="#fff" d="M0 0h137v22H0z"/></clipPath></defs></svg>