<svg width="87" height="25" fill="none" xmlns="http://www.w3.org/2000/svg"><g clip-path="url(#clip0)"><path d="M83.176 18.915a2.838 2.838 0 012.83 2.846 2.838 2.838 0 01-2.83 2.847h-2.83V21.76a2.838 2.838 0 012.83-2.846z" fill="#F05323"/><path d="M10.103 6.254H6.64V.561H.98V15.43c0 5.069 4.084 9.177 9.123 9.177 5.04 0 9.123-4.108 9.123-9.177-.002-5.067-4.086-9.176-9.123-9.176zm0 12.66c-1.908 0-3.461-1.562-3.461-3.482V11.95h3.461c1.909 0 3.462 1.562 3.462 3.482 0 1.92-1.553 3.482-3.462 3.482zm23.834-6.967v3.483c0 1.919-1.553 3.482-3.462 3.482-1.908 0-3.461-1.563-3.461-3.483V6.254h-5.662v9.178c0 5.067 4.084 9.178 9.123 9.178 5.037 0 9.123-4.109 9.123-9.178V6.254H33.94v5.693h-.002zm40.748-5.693v9.176c0 1.919-1.553 3.482-3.461 3.482s-3.462-1.563-3.462-3.483V6.254h-5.659v9.178c0 5.067 4.084 9.178 9.123 9.178 5.04 0 9.123-4.109 9.123-9.178V6.254h-5.664zm-20.373 0h-3.461c-5.037 0-9.123 4.109-9.123 9.178 0 5.067 4.084 9.178 9.123 9.178 5.038 0 9.123-4.109 9.123-9.178V.56h-5.662v5.693zm0 9.178c0 1.92-1.553 3.482-3.461 3.482-1.909 0-3.462-1.562-3.462-3.482 0-1.92 1.553-3.482 3.462-3.482h3.461v3.482z" fill="#451DA2"/></g><defs><clipPath id="clip0"><path fill="#fff" transform="translate(.98 .561)" d="M0 0h85.26v24.049H0z"/></clipPath></defs></svg>