<svg width="108" height="18" fill="none" xmlns="http://www.w3.org/2000/svg"><path d="M12.34 1.866h-.597v-1.5H8.094v1.5h-.663C3.45 1.866.93 3.823.93 7.345v.652c0 3.457 2.454 5.413 6.567 5.413h.597v1.5h3.649v-1.5h.597c4.046 0 6.567-1.956 6.567-5.478v-.653c0-3.587-2.52-5.478-6.567-5.478v.065zm-5.042 9c-1.791 0-2.72-1.108-2.72-3.065v-.26c0-1.957.929-3.066 2.72-3.066h.796v6.327h-.796v.065zm7.96-3.065c0 1.957-.994 3.066-2.786 3.066h-.73V4.475h.73c1.792 0 2.787 1.043 2.787 3.065v.261zm11.08-3.261c-3.516 0-5.904 2.152-5.904 5.218 0 3.13 2.388 5.218 5.904 5.218s5.904-2.087 5.904-5.218c0-3.066-2.388-5.218-5.904-5.218zm0 7.827c-1.526 0-2.52-1.044-2.52-2.61 0-1.564.994-2.608 2.52-2.608 1.46 0 2.52 1.044 2.52 2.609s-1.06 2.609-2.52 2.609zm19.238-7.631h-3.848l-3.98 4.696V4.736H34.43V14.78h3.317v-4.696l3.98 4.696h4.113l-4.643-5.218 4.378-4.826zm6.302 2.413c1.128 0 1.924.652 2.189 1.565h3.317c-.266-2.478-2.322-4.174-5.44-4.174-3.516 0-5.904 2.152-5.904 5.218 0 3.13 2.388 5.218 5.97 5.218 3.052 0 5.108-1.696 5.308-4.11h-3.251a2.153 2.153 0 01-.819 1.156c-.397.284-.88.428-1.37.41-1.46 0-2.455-1.109-2.455-2.609 0-1.63.995-2.674 2.455-2.674zm6.368-2.413V7.41h3.715v7.37h3.317V7.41h3.649V4.8H58.312l-.067-.064zM77.02 4.67c-1.327 0-2.521.522-3.317 1.5V4.737h-3.118V17.78h3.317v-4.174c.796.783 1.857 1.305 3.118 1.305 3.051 0 5.108-2.153 5.108-5.153 0-3-2.057-5.088-5.108-5.088zm-.796 7.762c-1.46 0-2.521-1.109-2.521-2.609 0-1.63 1.061-2.674 2.52-2.674 1.527 0 2.522 1.044 2.522 2.609s-.995 2.609-2.521 2.609v.065zm13.4-7.892c-3.516 0-5.904 2.152-5.904 5.218 0 3.13 2.388 5.218 5.904 5.218s5.904-2.087 5.904-5.218c0-3.066-2.388-5.218-5.97-5.218h.066zm0 7.827c-1.526 0-2.52-1.044-2.52-2.61 0-1.564.994-2.608 2.52-2.608 1.46 0 2.52 1.044 2.52 2.609s-1.06 2.609-2.52 2.609zm6.833-7.631V7.41h3.648v7.37h3.317V7.41h3.649V4.8H96.456v-.064z" fill="#000"/></svg>