<?xml version="1.0" encoding="utf-8"?><svg viewBox="0 0 20 20" xmlns="http://www.w3.org/2000/svg" xmlns:xlink="http://www.w3.org/1999/xlink"><style>:root>svg{display:none}:root>svg:target{display:block}</style><svg fill="none" viewBox="0 0 10 5" id="arrow-down" xmlns="http://www.w3.org/2000/svg"><path d="M5.817 4.326l-.001-.001L10 .662 9.213 0 5.031 3.662.773.066 0 .74 5.045 5l.772-.674z" fill="#D49C15"/></svg><svg fill="none" viewBox="0 0 19 8" id="arrow-link" xmlns="http://www.w3.org/2000/svg"><path d="M.646 3.646a.5.5 0 000 .708l3.182 3.182a.5.5 0 10.708-.708L1.707 4l2.829-2.828a.5.5 0 10-.708-.708L.646 3.646zM19 3.5H1v1h18v-1z" fill="#9D9D9D"/></svg><svg viewBox="0 0 20 20" id="cabinet" xmlns="http://www.w3.org/2000/svg"><path fill-rule="evenodd" clip-rule="evenodd" d="M20 10c0 5.523-4.477 10-10 10S0 15.523 0 10 4.477 0 10 0s10 4.477 10 10zm-7-3a3 3 0 11-6 0 3 3 0 016 0zm-3 11a7.966 7.966 0 01-5-1.755V13c0-1.105.887-2 2-2h6c1.105 0 2 .885 2 2v3.245A7.967 7.967 0 0110 18z" fill="#F7F7F7"/></svg><svg fill="none" viewBox="0 0 20 20" id="cabinet-black" xmlns="http://www.w3.org/2000/svg"><path fill-rule="evenodd" clip-rule="evenodd" d="M20 10c0 5.523-4.477 10-10 10S0 15.523 0 10 4.477 0 10 0s10 4.477 10 10zm-7-3a3 3 0 11-6 0 3 3 0 016 0zm-3 11a7.966 7.966 0 01-5-1.755V13c0-1.105.887-2 2-2h6c1.105 0 2 .885 2 2v3.245A7.967 7.967 0 0110 18z" fill="#000"/></svg><svg fill="none" viewBox="0 0 12 12" id="support" xmlns="http://www.w3.org/2000/svg"><path fill-rule="evenodd" clip-rule="evenodd" d="M12 6A6 6 0 110 6a6 6 0 0112 0zM7.697 3.096a2.394 2.394 0 01-.885 3.953.304.304 0 00-.21.283v.47a.601.601 0 01-1.202 0v-1.21a.6.6 0 01.6-.591h-.004c.663 0 1.202-.54 1.202-1.2a1.202 1.202 0 00-2.405 0 .595.595 0 01-1.19.056L3.6 4.771c.01-1.502 1.393-2.662 2.96-2.305.43.1.824.32 1.137.631zM6.6 9.6a.6.6 0 11-1.2 0 .6.6 0 011.2 0z" fill="#000"/></svg></svg>