<svg width="9" height="7" viewBox="0 0 9 7" fill="none" xmlns="http://www.w3.org/2000/svg">
<path fill-rule="evenodd" clip-rule="evenodd" d="M1.92827 2.6841C1.82482 2.5729 1.70106 2.4842 1.56422 2.42317C1.42739 2.36215 1.28022 2.33003 1.1313 2.32869C0.98238 2.32735 0.834695 2.35681 0.69686 2.41535C0.559025 2.47389 0.433802 2.56035 0.328496 2.66967C0.22319 2.77899 0.139911 2.90899 0.0835186 3.05208C0.0271258 3.19517 -0.00125172 3.34849 4.23458e-05 3.50309C0.00133641 3.65769 0.0322754 3.81047 0.0910549 3.95252C0.149834 4.09457 0.235278 4.22305 0.342398 4.33045L2.58551 6.6591C2.79583 6.87738 3.08105 7 3.37844 7C3.67584 7 3.96106 6.87738 4.17138 6.6591L8.6576 2.00181C8.76472 1.8944 8.85016 1.76593 8.90894 1.62387C8.96772 1.48182 8.99866 1.32904 8.99996 1.17444C9.00125 1.01984 8.97287 0.866526 8.91648 0.723434C8.86009 0.580343 8.77681 0.450345 8.6715 0.341023C8.5662 0.231702 8.44097 0.145247 8.30314 0.086704C8.1653 0.0281608 8.01762 -0.00129946 7.8687 4.39599e-05C7.71978 0.00138738 7.57261 0.0335067 7.43578 0.0945278C7.29894 0.155549 7.17518 0.24425 7.07172 0.355455L3.37844 4.18957L1.92827 2.6841Z" fill="#FAFBFC"/>
</svg>
