<svg width="21" height="21" viewBox="0 0 21 21" fill="none" xmlns="http://www.w3.org/2000/svg">
<path d="M19.5 10.5C19.5 15.4706 15.4706 19.5 10.5 19.5C5.52944 19.5 1.5 15.4706 1.5 10.5C1.5 5.52944 5.52944 1.5 10.5 1.5C15.4706 1.5 19.5 5.52944 19.5 10.5Z" fill="#FFCF5C" stroke="#FFCF5C" stroke-width="3"/>
<path d="M13.392 8.15266C13.6415 7.90313 14.046 7.90313 14.2956 8.15266C14.5451 8.40218 14.5451 8.80674 14.2956 9.05626L10.4619 12.8899C10.2124 13.1395 9.80782 13.1395 9.55829 12.8899L7.42848 10.7601C7.17895 10.5106 7.17895 10.106 7.42848 9.85651C7.678 9.60699 8.08256 9.60699 8.33208 9.85651L10.0101 11.5345L13.392 8.15266Z" fill="white"/>
</svg>
