<svg width="15" height="15" viewBox="0 0 15 15" fill="none" xmlns="http://www.w3.org/2000/svg">
<path d="M13.5955 1.80353C11.726 -0.0660205 8.68396 -0.0660205 6.81417 1.80353L1.00144 7.61624C-0.333886 8.9517 -0.333798 11.1246 1.00161 12.46C1.66938 13.1278 2.54623 13.4616 3.42344 13.4615C4.30041 13.4615 5.17774 13.1277 5.84538 12.46L11.1735 7.13169C11.5617 6.74357 11.7755 6.22751 11.7756 5.6786C11.7756 5.12966 11.5619 4.61363 11.1736 4.22539C10.3723 3.42415 9.06848 3.42418 8.26733 4.22553L4.7829 7.70987C4.51539 7.97735 4.51539 8.41109 4.78284 8.67863C5.05032 8.9462 5.48406 8.94611 5.7516 8.67863L9.23606 5.19426C9.50316 4.92716 9.93769 4.9271 10.2048 5.1942C10.3342 5.32358 10.4055 5.49561 10.4055 5.67857C10.4055 5.86153 10.3342 6.0335 10.2048 6.16293L4.87662 11.4912C4.07532 12.2924 2.77161 12.2925 1.97037 11.4913C1.16913 10.69 1.16907 9.38621 1.97023 8.58491L7.78293 2.77229C9.11846 1.43682 11.2914 1.43682 12.6267 2.77229C13.2737 3.41917 13.63 4.27929 13.63 5.19415C13.63 6.109 13.2736 6.96913 12.6267 7.61606L6.81408 13.4289C6.5466 13.6964 6.5466 14.1301 6.81414 14.3976C6.94791 14.5314 7.12322 14.5982 7.29851 14.5982C7.47382 14.5982 7.64913 14.5313 7.7829 14.3976L13.5954 8.58485C14.5012 7.67919 15 6.47503 15 5.19418C15 3.91334 14.5012 2.70918 13.5955 1.80353Z" fill="#9D9D9D"/>
</svg>
