<svg width="18" height="22" viewBox="0 0 18 22" fill="none" xmlns="http://www.w3.org/2000/svg">
<path d="M9 22C11.3861 21.9974 13.6738 21.0483 15.361 19.361C17.0483 17.6738 17.9974 15.3861 18 13V9C18 6.61305 17.0518 4.32387 15.364 2.63604C13.6761 0.948211 11.3869 0 9 0C6.61305 0 4.32387 0.948211 2.63604 2.63604C0.948211 4.32387 3.55683e-08 6.61305 0 9V13C0.00264685 15.3861 0.951708 17.6738 2.63896 19.361C4.32622 21.0483 6.61386 21.9974 9 22ZM2 9C2 7.14348 2.7375 5.36301 4.05025 4.05025C5.36301 2.7375 7.14348 2 9 2C10.8565 2 12.637 2.7375 13.9497 4.05025C15.2625 5.36301 16 7.14348 16 9V13C16 14.8565 15.2625 16.637 13.9497 17.9497C12.637 19.2625 10.8565 20 9 20C7.14348 20 5.36301 19.2625 4.05025 17.9497C2.7375 16.637 2 14.8565 2 13V9ZM8 11V7C8 6.73478 8.10536 6.48043 8.29289 6.29289C8.48043 6.10536 8.73478 6 9 6C9.26522 6 9.51957 6.10536 9.70711 6.29289C9.89464 6.48043 10 6.73478 10 7V11C10 11.2652 9.89464 11.5196 9.70711 11.7071C9.51957 11.8946 9.26522 12 9 12C8.73478 12 8.48043 11.8946 8.29289 11.7071C8.10536 11.5196 8 11.2652 8 11Z" fill="black"/>
</svg>
