<svg width="30" height="30" viewBox="0 0 30 30" fill="none" xmlns="http://www.w3.org/2000/svg">
<path d="M15 0L7.5 15L15 30C23.2843 30 30 23.2843 30 15C30 6.71572 23.2843 0 15 0Z" fill="#E3B340"/>
<path d="M0 15C0 23.2843 6.71572 30 15 30V0C6.71572 0 0 6.71572 0 15Z" fill="#FFCF5C"/>
<path d="M15 3.51562L9.25781 15L15 26.4844C21.3427 26.4844 26.4844 21.3427 26.4844 15C26.4844 8.65734 21.3427 3.51562 15 3.51562Z" fill="#DFDFDF"/>
<path d="M3.51562 15C3.51562 21.3427 8.65734 26.4844 15 26.4844V3.51562C8.65734 3.51562 3.51562 8.65734 3.51562 15Z" fill="white"/>
<path d="M17.4859 16.2427L15 13.7568H13.8281L15 16.2427L16.243 17.4857L17.4859 16.2427Z" fill="#3A3A3A"/>
<path d="M10.0076 8.76465L8.76465 10.0076L15.0001 16.2431V13.7572L10.0076 8.76465Z" fill="#3A3A3A"/>
<path d="M20.0133 8.74414L15 13.7574L13.8281 16.2433H15L21.2562 9.98703L20.0133 8.74414Z" fill="#393939"/>
<path d="M12.5137 16.2427L13.7566 17.4857L14.9996 16.2427V13.7568L12.5137 16.2427Z" fill="#3A3A3A"/>
<path d="M15.8789 5.27344H15L14.4141 6.15234L15 7.03125H15.8789V5.27344Z" fill="#3A3A3A"/>
<path d="M14.1211 5.27344H15V7.03125H14.1211V5.27344Z" fill="#3A3A3A"/>
<path d="M15.8789 22.9688H15L14.4141 23.8477L15 24.7266H15.8789V22.9688Z" fill="#3A3A3A"/>
<path d="M14.1211 22.9688H15V24.7266H14.1211V22.9688Z" fill="#3A3A3A"/>
<path d="M5.27344 15.8789V14.1211H7.03125V15.8789H5.27344Z" fill="#3A3A3A"/>
<path d="M22.9688 15.8789V14.1211H24.7266V15.8789H22.9688Z" fill="#3A3A3A"/>
</svg>
