<svg width="29" height="35" viewBox="0 0 29 35" fill="none" xmlns="http://www.w3.org/2000/svg">
<path d="M28.1378 4.14251L14.8077 0.0409473C14.705 0 14.6025 0 14.5 0C14.3975 0 14.295 0 14.1923 0.0409473L0.862236 4.14251C0.431641 4.28606 0.144531 4.67571 0.144531 5.12695V15.5176C0.144531 30.4677 14.0489 34.9179 14.1923 34.9589C14.295 34.9795 14.3975 35 14.5 35C14.6025 35 14.705 34.9795 14.8077 34.9589C14.9511 34.9179 28.8555 30.4677 28.8555 15.5176V5.12695C28.8555 4.67571 28.5684 4.28606 28.1378 4.14251Z" fill="#FFE29D"/>
<path d="M28.8555 5.12695V15.5176C28.8555 30.4677 14.9511 34.9179 14.8077 34.9589C14.705 34.9795 14.6025 35 14.5 35V0C14.6025 0 14.705 0 14.8077 0.0409473L28.1378 4.14251C28.5684 4.28606 28.8555 4.67571 28.8555 5.12695Z" fill="#FFCF5C"/>
<path d="M20.2297 24.3265C19.8633 24.1603 19.627 23.7948 19.627 23.3922V22.1626C19.627 21.3074 16.8712 20.6445 14.5 20.6445C12.1288 20.6445 9.37305 21.3074 9.37305 22.1626V23.3922C9.37305 23.7948 9.13673 24.1603 8.77025 24.3265C8.40378 24.4928 7.97318 24.4276 7.66974 24.1623C5.49379 22.2457 4.24609 19.469 4.24609 16.543C4.24609 10.8893 8.84634 6.28906 14.5 6.28906C20.1537 6.28906 24.7539 10.8893 24.7539 16.543C24.7539 19.469 23.5062 22.2457 21.3303 24.1623C21.0296 24.4252 20.601 24.4943 20.2297 24.3265Z" fill="white"/>
<path d="M19.627 22.1626V23.3922C19.627 23.7948 19.8633 24.1603 20.2297 24.3265C20.601 24.4943 21.0296 24.4251 21.3303 24.1623C23.5062 22.2457 24.7539 19.469 24.7539 16.543C24.7539 10.8893 20.1537 6.28906 14.5 6.28906V20.6445C16.8712 20.6445 19.627 21.3074 19.627 22.1626Z" fill="#FFFCF7"/>
<path d="M14.5 18.5938C12.2379 18.5938 10.3984 16.7543 10.3984 14.4922C10.3984 12.2301 12.2379 10.3906 14.5 10.3906C16.7621 10.3906 18.6016 12.2301 18.6016 14.4922C18.6016 16.7543 16.7621 18.5938 14.5 18.5938Z" fill="#757575"/>
<path d="M14.5 26.7969C11.9455 26.7969 9.51523 25.8646 7.65675 24.1713C7.44347 23.9771 7.32227 23.7017 7.32227 23.4133V22.1626C7.32227 18.6939 13.765 18.5938 14.5 18.5938C15.235 18.5938 21.6777 18.6939 21.6777 22.1626V23.4133C21.6777 23.7017 21.5566 23.9771 21.3433 24.1713C19.4848 25.8646 17.0545 26.7969 14.5 26.7969ZM20.6523 23.4133H20.6724H20.6523Z" fill="#757575"/>
<path d="M21.3433 24.1713C21.5565 23.9771 21.6777 23.7017 21.6777 23.4133V22.1626C21.6777 18.6939 15.235 18.5938 14.5 18.5938V26.7969C17.0545 26.7969 19.4848 25.8646 21.3433 24.1713Z" fill="black"/>
<path d="M18.6016 14.4922C18.6016 12.2301 16.7621 10.3906 14.5 10.3906V18.5938C16.7621 18.5938 18.6016 16.7543 18.6016 14.4922Z" fill="black"/>
</svg>
