<svg width="29" height="35" viewBox="0 0 29 35" fill="none" xmlns="http://www.w3.org/2000/svg">
<path d="M14.65 5.52777C14.65 5.52777 16.9871 -0.315912 22.5689 0.365304C22.8178 0.398727 23.0435 0.557622 23.1902 0.802775C23.8038 1.78942 24.1187 2.99992 24.0827 4.23281C23.9772 6.48419 17.0893 8.21843 17.0893 8.21843L15.6295 7.86846L14.65 5.52777Z" fill="#757575"/>
<path d="M20.4736 6.42517C19.0487 7.06796 17.5403 7.39874 16.0192 7.40211C18.0509 5.18563 20.638 3.85201 23.3695 3.61296C23.6914 3.58102 23.8118 4.02554 23.5903 4.30944C23.0912 4.94729 21.8224 5.80392 20.4736 6.42517Z" fill="black"/>
<path d="M14.649 5.52777C14.649 5.52777 12.312 -0.315912 6.7302 0.365304C6.48122 0.398727 6.25552 0.557622 6.10888 0.802775C5.49529 1.78942 5.18035 2.99992 5.21641 4.23281C5.32193 6.48419 12.2098 8.21843 12.2098 8.21843L13.6695 7.86846L14.649 5.52777Z" fill="#757575"/>
<path d="M8.8254 6.42517C10.2503 7.06796 11.7587 7.39874 13.2798 7.40211C12.1435 6.18213 10.8365 5.21569 9.41993 4.54786C8.29786 4.04276 7.12314 3.72818 5.92941 3.61296C5.60754 3.58102 5.48716 4.02554 5.70865 4.30944C6.20602 4.94729 7.47835 5.80392 8.8254 6.42517Z" fill="black"/>
<path d="M14.501 9.59204C15.4684 9.59204 16.2526 8.64557 16.2526 7.47803C16.2526 6.31049 15.4684 5.36401 14.501 5.36401C13.5336 5.36401 12.7494 6.31049 12.7494 7.47803C12.7494 8.64557 13.5336 9.59204 14.501 9.59204Z" fill="black"/>
<path d="M0.359234 7.47778H28.6407C28.8391 7.47778 28.9999 7.6719 28.9999 7.91134V13.5489C28.9999 13.7884 28.8391 13.9825 28.6407 13.9825H0.359234C0.160841 13.9825 0 13.7884 0 13.5489V7.91134C0 7.6719 0.160841 7.47778 0.359234 7.47778Z" fill="#FFCF5C"/>
<path d="M27.571 12.7898V34.2566C27.5704 34.4957 27.4099 34.6894 27.2118 34.6901H1.79002C1.59189 34.6894 1.43137 34.4957 1.43079 34.2566V12.7898H27.571Z" fill="#FFCF5C"/>
<path d="M1.43079 13.9824H27.5714V15.5001H1.43079V13.9824Z" fill="#E3B340"/>
<path d="M12.3982 7.47778H16.6036V34.6898H12.3982V7.47778Z" fill="#757575"/>
<path d="M12.3971 13.9824H16.6046V15.5001H12.3971V13.9824Z" fill="black"/>
</svg>
