<svg width="30" height="30" viewBox="0 0 30 30" fill="none" xmlns="http://www.w3.org/2000/svg">
<path d="M23.366 18.0354L22.5422 18.0159L22.3056 18.393C22.2828 18.4297 22.2562 18.4632 22.2264 18.4931C22.1277 18.5918 21.9957 18.6475 21.8548 18.6499C21.7136 18.6522 21.5811 18.5988 21.4818 18.4995L11.5834 8.60104C11.3799 8.39748 11.3827 8.06344 11.5899 7.85637C11.6196 7.82666 11.6537 7.79977 11.6919 7.77609L12.0671 7.54072L12.2578 6.8976L9.03507 1.10566L8.31302 0.793945L8.16155 0.87082C7.73001 1.10865 7.33585 1.40461 6.98997 1.75043C5.41479 3.32561 5.01899 5.70492 6.00513 7.67121C7.42022 10.4927 10.7547 14.5358 13.1712 16.905C15.5448 19.3261 19.5901 22.6627 22.4116 24.0778C24.3778 25.0638 26.7572 24.6681 28.3324 23.0929C28.6783 22.747 28.9742 22.3529 29.2121 21.9214L29.2889 21.7699L29.0589 21.203L23.366 18.0354Z" fill="#6B6A73"/>
<path d="M12.9834 6.9656C13.1136 6.88397 13.2346 6.78759 13.343 6.67919C13.9775 6.04474 14.1199 5.06112 13.6894 4.28727L11.9103 1.08987C11.3943 0.162275 10.239 -0.183428 9.28012 0.3029L8.3125 0.794033L12.0665 7.54087L12.9834 6.9656Z" fill="#202020"/>
<path d="M25.7955 16.3936C25.0217 15.9631 24.0381 16.1054 23.4036 16.74C23.2953 16.8482 23.1989 16.9693 23.1173 17.0996L22.542 18.0164L29.2888 21.7705L29.7799 20.8028C30.2662 19.844 29.9205 18.6886 28.9929 18.1727L25.7955 16.3936Z" fill="#202020"/>
<path d="M18.5186 19.897C18.546 19.8702 18.5739 19.8437 18.6011 19.8165L20.7959 17.6217C20.8027 17.6149 20.8084 17.6075 20.815 17.6006L18.5186 19.897Z" fill="#FFCBBE"/>
<path d="M17.8965 20.3721C17.8797 20.419 17.8603 20.4652 17.8369 20.5099C17.873 20.4803 17.9084 20.4498 17.9441 20.4196L17.8965 20.3721Z" fill="#FFCBBE"/>
<path d="M17.5798 12.6113L17.4619 12.7292H17.462L17.5798 12.6113Z" fill="#FFDDCE"/>
<path d="M18.2222 18.6382L17.7238 18.1398C17.5157 17.9318 17.2453 17.8253 16.9726 17.8186C16.9171 17.8172 16.8645 17.7939 16.8252 17.7546C16.7495 17.6789 16.7415 17.5612 16.8011 17.4722C17.0878 17.044 17.0428 16.4597 16.6645 16.0815L16.1661 15.5831C15.9993 15.4163 15.7923 15.3148 15.5762 15.2775C15.5026 15.2648 15.4342 15.2312 15.3813 15.1784L15.3461 15.1432C15.2493 15.0464 15.2176 14.9026 15.2632 14.7735C15.4002 14.3859 15.3143 13.9374 15.0042 13.6274L14.5058 13.129C14.3123 12.9354 14.0647 12.8297 13.8117 12.8105C13.7309 12.8044 13.6543 12.7724 13.597 12.7152L13.5795 12.6977C13.4957 12.6139 13.4669 12.4916 13.4991 12.3777C13.6043 12.0062 13.5114 11.5906 13.2189 11.2983L12.7205 10.7999C12.2901 10.3694 11.5922 10.3694 11.1618 10.7999L13.737 8.22461L9.9974 11.9626C9.82555 12.1344 9.62961 12.2032 9.42963 12.1944L7.09771 14.5253C6.92885 14.6941 6.73672 14.763 6.54043 14.757L6.64555 15.6414C6.73707 16.4113 6.47053 17.1806 5.92232 17.7288L1.84766 21.8035L8.11455 28.0704L12.9225 23.2625C13.1492 23.0358 13.4169 22.8542 13.7115 22.7274L15.776 21.8392C16.7356 21.3675 17.6177 20.7536 18.3934 20.0193C18.6307 19.594 18.5797 18.9957 18.2222 18.6382Z" fill="#FFDDCE"/>
<path d="M4.55326 18.543L0.205312 22.8909C-0.0684375 23.1647 -0.0684375 23.6086 0.205312 23.8823L6.0358 29.7128C6.30955 29.9866 6.75346 29.9866 7.02721 29.7128L11.3752 25.3649L4.55326 18.543Z" fill="#FFCF5C"/>
<path d="M4.70898 17.7046L3.51701 18.8965C3.18964 19.2239 3.18964 19.7547 3.51701 20.0821L10.0002 26.5653C10.3276 26.8926 10.8584 26.8926 11.1858 26.5653L12.3777 25.3733C12.7051 25.0459 12.7051 24.5151 12.3777 24.1878L5.89457 17.7046C5.5672 17.3771 5.0364 17.3771 4.70898 17.7046Z" fill="#E3B340"/>
<path d="M20.7965 16.0635L20.2981 15.5652C19.8677 15.1348 19.1698 15.1348 18.7393 15.5652L19.2388 15.0657C19.6693 14.6353 19.6693 13.9374 19.2388 13.5069L18.7404 13.0085C18.31 12.578 17.6121 12.578 17.1816 13.0085L17.5786 12.6115C18.009 12.1811 18.009 11.4832 17.5786 11.0527L17.0802 10.5543C16.6498 10.1239 15.9519 10.1239 15.5214 10.5543L15.7933 10.2824C16.2237 9.85196 16.2237 9.15405 15.7933 8.72356L15.2949 8.22517C14.8645 7.79474 14.1666 7.79474 13.7361 8.22517L10.8809 11.0792L10.8817 11.0796C11.3122 10.6492 12.0101 10.6492 12.4405 11.0796L12.9389 11.578C13.2313 11.8705 13.3242 12.2859 13.2191 12.6574C13.1869 12.7713 13.2157 12.8937 13.2994 12.9774L13.317 12.9949C13.3743 13.0522 13.4508 13.0841 13.5316 13.0903C13.7847 13.1095 14.0323 13.2152 14.2258 13.4087L14.7242 13.9071C15.0343 14.2172 15.1201 14.6657 14.9832 15.0532C14.9375 15.1824 14.9692 15.3261 15.0661 15.423L15.1012 15.4582C15.1541 15.511 15.2225 15.5445 15.2962 15.5572C15.5122 15.5946 15.7192 15.696 15.8861 15.8629L16.3845 16.3613C16.7627 16.7395 16.8077 17.3238 16.5211 17.752C16.4615 17.841 16.4694 17.9587 16.5452 18.0344C16.5844 18.0737 16.637 18.0969 16.6926 18.0983C16.9652 18.1051 17.2357 18.2115 17.4438 18.4196L17.9422 18.918C18.3174 19.2932 18.3653 19.8716 18.0863 20.299C18.2631 20.1442 18.4352 19.9838 18.6018 19.8172L20.7966 17.6224C21.2269 17.1919 21.2269 16.494 20.7965 16.0635Z" fill="#FFCBBE"/>
<path d="M9.99671 11.9629C9.73081 12.2287 9.40738 12.2492 9.1004 12.1146C8.93329 12.0413 8.79232 11.919 8.68351 11.7726L7.92238 10.748L7.66105 11.0094C6.77675 11.8937 6.34673 13.1347 6.49439 14.3766L6.57437 15.0491C6.77435 15.058 6.97035 14.9891 7.14226 14.8173L9.99788 11.963L9.99671 11.9629Z" fill="#FFCBBE"/>
</svg>
