<svg width="21" height="35" viewBox="0 0 21 35" fill="none" xmlns="http://www.w3.org/2000/svg">
<g clip-path="url(#clip0)">
<path d="M19.7082 35H1.29183C0.41334 35 -0.298828 34.2878 -0.298828 33.4093V1.59065C-0.298828 0.712168 0.41334 0 1.29183 0H19.7082C20.5867 0 21.2989 0.712168 21.2989 1.59065V33.4093C21.2989 34.2878 20.5867 35 19.7082 35Z" fill="#E3B340"/>
<path d="M19.7081 0H18.0218C18.083 0.168984 18.1164 0.35123 18.1164 0.541338V32.36C18.1164 33.2384 17.4043 33.9506 16.5258 33.9506H-0.204346C0.0171387 34.5626 0.603252 35 1.2917 35H19.7081C20.5866 35 21.2988 34.2878 21.2988 33.4093V1.59065C21.2988 0.712168 20.5866 0 19.7081 0Z" fill="#DBA82D"/>
<path d="M18.5163 29.4764H2.48372C2.12053 29.4764 1.82617 29.182 1.82617 28.8189V2.67195C1.82617 2.30876 2.1206 2.0144 2.48372 2.0144H18.5162C18.8794 2.0144 19.1738 2.30883 19.1738 2.67195V28.8189C19.1739 29.182 18.8794 29.4764 18.5163 29.4764Z" fill="#F2F2F2"/>
<path d="M18.5163 2.0144H15.2998C15.663 2.0144 15.9574 2.30883 15.9574 2.67195V28.8189C15.9574 29.1821 15.6629 29.4764 15.2998 29.4764H18.5163C18.8795 29.4764 19.1739 29.182 19.1739 28.8189V2.67195C19.1739 2.30876 18.8794 2.0144 18.5163 2.0144Z" fill="#E6E6E6"/>
<path d="M10.4999 33.628C11.2557 33.628 11.8685 33.0153 11.8685 32.2594C11.8685 31.5036 11.2557 30.8909 10.4999 30.8909C9.74407 30.8909 9.13135 31.5036 9.13135 32.2594C9.13135 33.0153 9.74407 33.628 10.4999 33.628Z" fill="white"/>
<path d="M13.3837 9.80596L10.5462 6.28894C10.5224 6.25948 10.4775 6.25948 10.4536 6.28894L7.61608 9.80596C7.5847 9.84486 7.61239 9.90276 7.66236 9.90276H9.11882C9.15164 9.90276 9.1783 9.92935 9.1783 9.96223V16.0879C9.1783 16.1207 9.20489 16.1474 9.23777 16.1474H11.7621C11.7949 16.1474 11.8216 16.1208 11.8216 16.0879V9.96223C11.8216 9.92942 11.8481 9.90276 11.881 9.90276H13.3375C13.3874 9.90269 13.4151 9.84486 13.3837 9.80596Z" fill="black"/>
<path d="M18.5163 2.0144H2.48372C2.12053 2.0144 1.82617 2.30883 1.82617 2.67195V4.36029H19.1739V2.67195C19.1739 2.30876 18.8794 2.0144 18.5163 2.0144Z" fill="#FFE29D"/>
<path d="M16.4539 25.5184H4.82525C4.54177 25.5184 4.31201 25.2887 4.31201 25.0052C4.31201 24.7217 4.54184 24.4919 4.82525 24.4919H16.4539C16.7374 24.4919 16.9672 24.7217 16.9672 25.0052C16.9672 25.2887 16.7374 25.5184 16.4539 25.5184Z" fill="#FFE29D"/>
<path d="M16.4539 27.526H4.82525C4.54177 27.526 4.31201 27.2962 4.31201 27.0128C4.31201 26.7293 4.54184 26.4995 4.82525 26.4995H16.4539C16.7374 26.4995 16.9672 26.7293 16.9672 27.0128C16.9672 27.2962 16.7374 27.526 16.4539 27.526Z" fill="#FFE29D"/>
<path d="M18.5163 2.0144H15.2998C15.663 2.0144 15.9574 2.30883 15.9574 2.67195V4.36029H19.1739V2.67195C19.1739 2.30876 18.8794 2.0144 18.5163 2.0144Z" fill="#FFE29D"/>
<path d="M11.7621 16.1472C11.7949 16.1472 11.8216 16.1206 11.8216 16.0877V9.96197C11.8216 9.92916 11.8482 9.90257 11.8811 9.90257H13.3375C13.3875 9.90257 13.4152 9.84467 13.3838 9.80577L10.5463 6.28875C10.5344 6.27398 10.5172 6.2666 10.5 6.2666V16.1471H11.7621V16.1472Z" fill="#494949"/>
<path d="M10.5 22.8143C13.5389 22.8143 16.0023 20.3509 16.0023 17.3121C16.0023 14.2733 13.5389 11.8098 10.5 11.8098C7.46124 11.8098 4.9978 14.2733 4.9978 17.3121C4.9978 20.3509 7.46124 22.8143 10.5 22.8143Z" fill="white"/>
<path d="M14.3908 21.2026C16.5396 19.0537 16.5396 15.5698 14.3908 13.4209L6.60913 21.2026C8.75794 23.3515 12.2419 23.3515 14.3908 21.2026Z" fill="#E1EFFB"/>
<path d="M10.359 20.3535C9.29949 20.3364 8.58179 19.7639 8.58179 19.3453C8.58179 19.1402 8.76123 18.8582 8.97485 18.8582C9.25684 18.8582 9.48748 19.4564 10.359 19.5247V17.5168C9.59002 17.2434 8.7356 16.9358 8.7356 15.8421C8.7356 14.7656 9.54729 14.3384 10.359 14.2529V14.0051C10.359 13.9026 10.4615 13.8086 10.6068 13.8086C10.735 13.8086 10.8631 13.9026 10.8631 14.0051V14.2358C11.4441 14.2529 12.2644 14.4324 12.2644 14.851C12.2644 15.0134 12.1447 15.338 11.8884 15.338C11.6833 15.338 11.4612 15.0646 10.8631 15.0218V16.7563C11.6064 17.0298 12.4181 17.4057 12.4181 18.5677C12.4181 19.6187 11.7859 20.1997 10.8631 20.3278V20.6184C10.8631 20.7209 10.7349 20.8149 10.6067 20.8149C10.4615 20.8149 10.3589 20.7209 10.3589 20.6184V20.3535H10.359ZM10.4103 16.5941V15.0391C9.93175 15.0989 9.59002 15.3124 9.59002 15.7568C9.59002 16.2438 9.95738 16.4232 10.4103 16.5941ZM10.8118 17.7048V19.5077C11.2732 19.4222 11.5637 19.1488 11.5637 18.6618C11.5637 18.1235 11.2305 17.8843 10.8118 17.7048Z" fill="black"/>
</g>
<defs>
<clipPath id="clip0">
<rect width="21" height="35" fill="white"/>
</clipPath>
</defs>
</svg>
