<svg width="89" height="83" viewBox="0 0 89 83" fill="none" xmlns="http://www.w3.org/2000/svg">
<path d="M71.9722 81.6596C73.8426 68.874 73.0241 55.5904 66.9742 43.4428C62.5506 34.585 55.3344 27.1219 46.7336 21.4492C40.5573 17.3815 33.6513 14.2735 26.548 12.0177C24.8877 11.4935 23.1831 10.9824 21.4698 10.5557C26.1117 9.53693 30.7663 8.5215 35.323 7.25727C36.9696 6.79933 36.194 4.36536 34.5317 4.83153C28.1954 6.59298 21.6348 7.86177 15.2194 9.35465C14.1898 9.59118 14.0017 10.7183 14.6701 11.4395C19.3472 16.3879 24.0212 21.348 28.6984 26.2964C29.8805 27.5493 31.7548 25.8136 30.5823 24.5757C26.8141 20.5727 23.0301 16.5781 19.2619 12.5751C29.8509 14.6842 40.4834 19.6783 48.8241 25.9762C56.1082 31.4753 61.9414 38.4997 65.5361 46.4702C70.4971 57.4762 71.0201 69.5547 69.3478 80.9681C69.0851 82.5339 71.7319 83.2437 71.9722 81.6596Z" fill="#3B6CE9"/>
</svg>
