<svg width="77" height="78" viewBox="0 0 77 78" fill="none" xmlns="http://www.w3.org/2000/svg">
<path d="M3.23039 0.0412184C17.7478 1.89014 31.965 6.53433 43.3048 16.0086C51.5697 22.929 57.4397 32.2 60.925 42.3192C63.4213 49.5841 64.6432 57.2914 64.8748 64.947C64.9256 66.7355 64.9482 68.5639 64.8761 70.3764C67.4411 66.0937 70.0064 61.7975 72.8121 57.6697C73.8271 56.1784 76.2361 57.6462 75.2071 59.1507C71.3019 64.8895 67.8632 70.992 64.2258 76.8864C63.6454 77.8333 62.3583 77.6931 61.782 76.8259C57.8561 70.7847 53.9167 64.7433 49.9908 58.7021C48.9961 57.1746 51.4748 55.8279 52.4562 57.3415C55.6367 62.2133 58.8033 67.0983 61.9838 71.9701C63.0047 60.92 60.8955 48.9935 56.6476 38.9502C52.9388 30.1795 47.1133 22.3989 39.5554 16.5521C29.1182 8.48123 16.1214 4.47655 3.16135 2.82867C1.37291 2.63543 1.42905 -0.179413 3.23039 0.0412184Z" fill="#3B6CE9"/>
</svg>
