<svg width="29" height="28" viewBox="0 0 29 28" fill="none" xmlns="http://www.w3.org/2000/svg">
<path fill-rule="evenodd" clip-rule="evenodd" d="M29 14C29 21.732 22.5081 28 14.5 28C6.49187 28 0 21.732 0 14C0 6.26801 6.49187 0 14.5 0C22.5081 0 29 6.26801 29 14ZM18.6012 7.22395C19.3583 7.95124 19.8912 8.86732 20.1405 9.86999C20.4774 11.2112 20.2881 12.6254 19.6091 13.8399C18.9301 15.0543 17.8095 15.9831 16.4633 16.4472C16.1661 16.5494 15.9558 16.8042 15.9558 17.108V18.2028C15.9558 18.5748 15.8027 18.9316 15.5303 19.1947C15.2578 19.4578 14.8882 19.6056 14.5029 19.6056C14.1176 19.6056 13.748 19.4578 13.4755 19.1947C13.2031 18.9316 13.05 18.5748 13.05 18.2028V15.3832C13.055 15.015 13.2099 14.6636 13.4813 14.405C13.7526 14.1464 14.1185 14.0014 14.4998 14.0014H14.4899C16.0921 14.0014 17.3942 12.7442 17.3942 11.2014C17.3769 10.4683 17.063 9.77097 16.5198 9.25858C15.9765 8.74618 15.2471 8.45948 14.4877 8.45984C13.7283 8.46021 12.9992 8.74761 12.4565 9.26054C11.9138 9.77345 11.6006 10.4711 11.5841 11.2042C11.5812 11.9756 10.9316 12.6014 10.1312 12.6014C9.77328 12.5993 9.42908 12.4684 9.16578 12.2344C8.90248 12.0004 8.73899 11.68 8.70725 11.3358L8.7 11.13C8.72465 7.62439 12.0654 4.91959 15.8529 5.75119C16.8926 5.98679 17.8441 6.49667 18.6012 7.22395ZM15.95 22.4C15.95 23.1732 15.3008 23.8 14.5 23.8C13.6992 23.8 13.05 23.1732 13.05 22.4C13.05 21.6268 13.6992 21 14.5 21C15.3008 21 15.95 21.6268 15.95 22.4Z" fill="black"/>
</svg>
