<svg width="57" height="57" viewBox="0 0 57 57" fill="none" xmlns="http://www.w3.org/2000/svg">
<path d="M38.0833 54.1811C34.2402 54.1499 28.4734 53.9985 22.8001 53.4641C18.8947 53.0945 14.8602 52.5111 11.7965 50.7744C10.9325 50.2846 9.98849 50.1643 9.1513 50.0619C8.79505 50.0174 8.46107 49.9773 8.17607 49.9105C6.00294 49.3984 4.48442 47.5192 4.47552 45.3416L4.44435 30.7576C4.43989 28.7404 5.87825 27.0526 7.8688 26.7409C7.90442 26.7365 7.9356 26.7275 7.97122 26.7186C8.21614 26.6385 14.0675 24.7325 18.4761 21.2858C20.5513 19.6649 22.3281 17.1667 23.2321 14.6061C24.1316 12.0545 24.1272 9.2713 24.1227 7.03583C24.1227 5.59302 24.1183 3.79841 24.5101 3.53567C25.4631 2.90778 26.514 2.58716 27.6318 2.58716C31.0696 2.58716 34.5786 5.72661 34.7167 8.92396C34.8147 11.1416 34.071 13.76 33.354 16.2894C32.5079 19.2864 31.7732 21.8736 32.4367 23.6326C32.5347 23.8954 32.784 24.0646 33.0601 24.0646C33.069 24.0646 36.3065 23.9533 36.3065 23.9533H36.3376C39.9714 23.9533 42.9283 26.9101 42.9327 30.5394L42.955 49.3361C42.955 50.6319 42.4562 51.8476 41.5389 52.7605C40.626 53.6734 39.4103 54.1811 38.1144 54.1811H38.0833Z" fill="url(#paint0_radial)"/>
<path d="M27.6318 3.25513C30.6866 3.25513 33.924 6.13185 34.0487 8.95067C34.1422 11.0615 33.4164 13.6265 32.7128 16.1068C31.8311 19.2151 31.074 21.9004 31.8132 23.8642C32.0092 24.3852 32.5079 24.7281 33.0646 24.7281H33.1136L36.3198 24.6168H36.3465C39.6107 24.6168 42.2692 27.2708 42.2736 30.5394L42.2959 49.3361C42.2959 50.4493 41.8639 51.5003 41.0757 52.2885C40.2875 53.0767 39.2411 53.5131 38.1233 53.5131H38.0877C34.258 53.4819 28.509 53.3305 22.8625 52.8006C19.0328 52.4399 15.0784 51.8699 12.126 50.1955C11.1463 49.6389 10.0865 49.5097 9.23591 49.4029C8.89747 49.3628 8.5813 49.3227 8.33192 49.2604C6.46161 48.8195 5.15239 47.2075 5.14794 45.3416L5.11231 30.7576C5.10786 29.0743 6.3102 27.6627 7.97122 27.4044C8.03802 27.3955 8.10927 27.3777 8.17161 27.3554C8.42099 27.2753 14.3793 25.3293 18.8814 21.8113C21.05 20.1147 22.9115 17.5051 23.8555 14.8288C24.7951 12.1703 24.7907 9.32474 24.7862 7.03583C24.7862 5.94927 24.7818 4.47974 24.9688 4.03442C25.7882 3.51341 26.6832 3.25513 27.6318 3.25513ZM27.6318 1.91919C26.4517 1.91919 25.2582 2.23981 24.1405 2.97903C22.6977 3.932 24.2607 9.66763 22.5997 14.379C21.6022 17.2068 19.7008 19.4779 18.062 20.7559C13.6979 24.167 7.76638 26.0818 7.76638 26.0818C5.46411 26.4425 3.77192 28.4286 3.77638 30.7621L3.812 45.3461C3.82091 47.8576 5.57989 49.9818 8.02466 50.5607C9.01325 50.7922 10.3625 50.7299 11.4669 51.3578C14.4193 53.0322 18.2045 53.7001 22.7378 54.1276C28.3487 54.6576 34.0487 54.8134 38.0788 54.849H38.1233C41.1648 54.849 43.6363 52.382 43.6318 49.3361L43.6096 30.5394C43.6051 26.5272 40.3499 23.2853 36.3465 23.2853H36.2931L33.069 23.3966C31.9557 20.4397 35.6029 13.7868 35.3891 8.89278C35.2332 5.41489 31.5238 1.91919 27.6318 1.91919Z" fill="#EDA600"/>
<path d="M29.4442 27.832C30.2814 30.0586 30.2903 33.532 29.4442 35.6784C28.2196 38.7778 25.2226 41.4898 21.7625 41.9662C20.9164 42.082 21.4196 42.8613 22.2613 42.7455C26.0064 42.229 31.074 40.7105 32.3921 37.3484C36.0081 28.1081 31.7776 23.2676 29.8895 24.7104C28.981 25.414 28.9721 26.5718 29.4442 27.832Z" fill="#EDA600"/>
<path d="M38.4214 31.1362C34.6986 31.1362 30.2232 30.446 30.0317 27.1462C29.9783 26.2021 30.2633 25.4095 30.9045 24.7282C32.5923 22.938 36.7381 21.9539 42.5806 21.9539C44.7003 21.9539 46.2455 22.0919 46.2633 22.0919C46.2812 22.0919 46.3034 22.0964 46.3212 22.0964H46.3613C46.4237 22.0919 46.4815 22.0919 46.5439 22.0919C48.4365 22.0919 50.0173 23.7975 50.1465 25.975C50.2801 28.2283 48.7972 30.1521 46.8423 30.2634C46.8111 30.2634 46.7755 30.2678 46.7443 30.2767C46.7042 30.2812 42.5806 31.1362 38.4214 31.1362Z" fill="url(#paint1_radial)"/>
<path d="M42.5855 22.6218C44.6695 22.6218 46.1925 22.7554 46.2059 22.7554C46.2459 22.7599 46.286 22.7599 46.3261 22.7599C46.3528 22.7599 46.3795 22.7599 46.4018 22.7554C46.4508 22.751 46.4998 22.751 46.5443 22.751C48.0806 22.751 49.372 24.1804 49.4789 26.0017C49.5324 26.9458 49.2652 27.8409 48.7263 28.5267C48.2231 29.1679 47.5374 29.542 46.8026 29.5865C46.7358 29.591 46.669 29.5999 46.6067 29.6132C46.5666 29.6221 42.5009 30.4638 38.4218 30.4638C36.0527 30.4638 34.1735 30.1877 32.842 29.6444C31.0118 28.8963 30.7402 27.8364 30.7001 27.1061C30.6556 26.3446 30.8782 25.7346 31.3948 25.1824C32.9311 23.557 37.0102 22.6218 42.5855 22.6218ZM42.5855 21.2859C37.5 21.2859 29.0658 22.0563 29.3642 27.1863C29.5824 30.8913 34.0533 31.8042 38.4218 31.8042C42.7013 31.8042 46.8827 30.9269 46.8827 30.9269C49.2073 30.7889 50.9707 28.5534 50.8149 25.9305C50.6679 23.3922 48.7798 21.4195 46.5488 21.4195C46.4731 21.4195 46.4018 21.4195 46.3261 21.4239C46.3261 21.4239 44.7631 21.2859 42.5855 21.2859Z" fill="#EDA600"/>
<path d="M41.2138 39.6104C36.3555 39.6104 30.5664 38.7955 30.5664 34.9035C30.5664 31.0115 36.3555 30.1965 41.2138 30.1965C45.333 30.1965 49.087 30.7977 49.1226 30.8022C49.1582 30.8066 49.1938 30.8111 49.2295 30.8111C51.1933 30.8111 52.5604 32.8862 52.5604 34.7476C52.5604 36.7115 51.1042 38.9915 49.2295 38.9915C49.1938 38.9915 49.1582 38.9959 49.1226 39.0004C49.0825 39.0093 45.3285 39.6104 41.2138 39.6104Z" fill="url(#paint2_radial)"/>
<path d="M41.2138 30.8691C45.2751 30.8691 48.9801 31.4614 49.0157 31.4659C49.087 31.4792 49.1582 31.4837 49.2295 31.4837C50.7524 31.4837 51.8924 33.2115 51.8924 34.7523C51.8924 36.3598 50.6634 38.3281 49.2295 38.3281C49.1582 38.3281 49.087 38.3326 49.0157 38.3459C48.9801 38.3504 45.2706 38.9427 41.2138 38.9427C38.1723 38.9427 35.7543 38.622 34.022 37.9852C31.5238 37.0679 31.2344 35.7854 31.2344 34.9037C31.2344 34.0175 31.5238 32.7395 34.022 31.8221C35.7498 31.1898 38.1723 30.8691 41.2138 30.8691ZM41.2138 29.5332C35.9013 29.5332 29.8984 30.5084 29.8984 34.9081C29.8984 39.3078 35.8968 40.283 41.2138 40.283C45.4398 40.283 49.2295 39.6685 49.2295 39.6685C51.5273 39.6685 53.2284 37.0367 53.2284 34.7567C53.2284 32.4767 51.5273 30.1522 49.2295 30.1522C49.2295 30.1477 45.4354 29.5332 41.2138 29.5332Z" fill="#EDA600"/>
<path d="M44.9141 54.4128C43.0393 54.4128 33.5408 54.2659 30.6641 51.3847C30.1609 50.8815 29.9204 50.3382 29.9204 49.7237C29.9293 47.3858 33.9327 46.0454 40.9018 46.0454C43.3867 46.0454 45.3104 46.2235 45.3327 46.2235C45.3505 46.2235 45.3728 46.228 45.3906 46.228C46.4326 46.2324 47.4167 46.6555 48.1515 47.4259C48.8952 48.2007 49.3004 49.2338 49.3004 50.3293C49.2915 52.5781 47.5325 54.4039 45.3772 54.4039C45.346 54.4128 45.1902 54.4128 44.9141 54.4128Z" fill="url(#paint3_radial)"/>
<path d="M40.9062 46.7178C43.351 46.7178 45.2525 46.8914 45.2703 46.8959C45.3104 46.9003 45.3505 46.9003 45.3905 46.9003C46.25 46.9048 47.0605 47.2566 47.6705 47.8934C48.294 48.5436 48.6369 49.4119 48.6324 50.3337C48.628 52.2129 47.1673 53.7448 45.3638 53.7448H45.3594H45.3326C45.3237 53.7448 45.1723 53.7493 44.9096 53.7493C36.8272 53.7493 32.4364 52.2218 31.1316 50.9171C30.6373 50.4228 30.5839 50.0042 30.5839 49.7325C30.5972 47.8711 34.5472 46.7178 40.9062 46.7178ZM40.9062 45.3818C36.1325 45.3818 29.2658 46.0231 29.2569 49.7236C29.239 54.8269 42.3045 55.0807 44.914 55.0807C45.2035 55.0807 45.3638 55.0763 45.3638 55.0763H45.3772C47.9065 55.0763 49.9594 52.9566 49.9683 50.3337C49.9772 47.7064 47.9288 45.5689 45.395 45.56C45.395 45.5644 43.449 45.3818 40.9062 45.3818Z" fill="#EDA600"/>
<path d="M43.2489 47.3457C39.2455 47.3457 29.9385 46.8915 29.9385 42.6833C29.9385 39.1475 36.6493 38.6221 40.6527 38.6221C44.1929 38.6221 47.2433 39.0139 47.2745 39.0184C47.3012 39.0229 47.3324 39.0228 47.3591 39.0228C49.2161 39.0228 51.3803 39.9402 51.3803 42.5275C51.3803 44.9767 49.4654 47.2032 47.3591 47.2032H47.3057C47.2879 47.2077 45.5734 47.3457 43.2489 47.3457Z" fill="url(#paint4_radial)"/>
<path d="M40.6527 37.9585V39.2944C44.1395 39.2944 47.1587 39.6819 47.1854 39.6863C47.2433 39.6952 47.3012 39.6952 47.3591 39.6952C48.98 39.6952 50.7123 40.4389 50.7123 42.5319C50.7123 44.5937 49.0825 46.5397 47.3591 46.5397C47.3235 46.5397 47.2879 46.5397 47.2478 46.5441C47.23 46.5441 45.5422 46.6822 43.2444 46.6822C40.8175 46.6822 37.3485 46.5263 34.6009 45.796C31.9513 45.0879 30.6064 44.0415 30.6064 42.6922C30.6064 42.278 30.6064 41.0178 33.4297 40.1316C35.1887 39.5794 37.6157 39.2989 40.6482 39.2989L40.6527 37.9585ZM40.6527 37.9585C35.5049 37.9585 29.2705 38.769 29.2705 42.6877C29.2705 47.3056 37.9096 48.0181 43.2489 48.0181C45.6357 48.0181 47.3591 47.8756 47.3591 47.8756C49.8707 47.8756 52.0482 45.2794 52.0482 42.5319C52.0482 39.7843 49.8707 38.3593 47.3591 38.3593C47.3591 38.3593 44.2731 37.9585 40.6527 37.9585Z" fill="#EDA600"/>
<path d="M12.3752 51.1664L10.2422 42.75L9.35156 50.3203L12.3752 51.1664Z" fill="#EDA600"/>
<defs>
<radialGradient id="paint0_radial" cx="0" cy="0" r="1" gradientUnits="userSpaceOnUse" gradientTransform="translate(23.0535 13.9832) rotate(90.125) scale(38.7596 30.5155)">
<stop offset="0.6" stop-color="#FFCA28"/>
<stop offset="1" stop-color="#FFB300"/>
</radialGradient>
<radialGradient id="paint1_radial" cx="0" cy="0" r="1" gradientUnits="userSpaceOnUse" gradientTransform="translate(45.8458 26.1564) rotate(176.727) scale(12.5897 6.16035)">
<stop offset="0.5993" stop-color="#FFCA28"/>
<stop offset="1" stop-color="#FFB300"/>
</radialGradient>
<radialGradient id="paint2_radial" cx="0" cy="0" r="1" gradientUnits="userSpaceOnUse" gradientTransform="translate(47.8344 34.7862) rotate(-179.936) scale(14.1691 5.68201)">
<stop offset="0.5993" stop-color="#FFCA28"/>
<stop offset="1" stop-color="#FFB300"/>
</radialGradient>
<radialGradient id="paint3_radial" cx="0" cy="0" r="1" gradientUnits="userSpaceOnUse" gradientTransform="translate(45.0714 50.1405) rotate(-179.726) scale(11.8993 6.19507)">
<stop offset="0.5993" stop-color="#FFCA28"/>
<stop offset="1" stop-color="#FFB300"/>
</radialGradient>
<radialGradient id="paint4_radial" cx="0" cy="0" r="1" gradientUnits="userSpaceOnUse" gradientTransform="translate(46.7652 42.8778) rotate(-179.934) scale(13.557 5.63898)">
<stop offset="0.5993" stop-color="#FFCA28"/>
<stop offset="1" stop-color="#FFB300"/>
</radialGradient>
</defs>
</svg>
