<svg width="43" height="43" viewBox="0 0 43 43" fill="none" xmlns="http://www.w3.org/2000/svg">
<g filter="url(#filter0_d)">
<ellipse cx="21.2162" cy="17.1962" rx="17.2162" ry="17.1962" fill="white"/>
</g>
<g filter="url(#filter1_d)">
<ellipse cx="21.2162" cy="17.1963" rx="11.4775" ry="11.4642" fill="#1C1C1C"/>
</g>
<path d="M22.4497 19.5956H19.9857L19.5237 9.69563H22.8897L22.4497 19.5956ZM22.4717 24.0616C22.1197 24.4136 21.7017 24.5896 21.2177 24.5896C20.7337 24.5896 20.3157 24.4136 19.9637 24.0616C19.6264 23.7096 19.4577 23.299 19.4577 22.8296C19.4577 22.3456 19.6264 21.9276 19.9637 21.5756C20.3157 21.2236 20.7337 21.0476 21.2177 21.0476C21.7017 21.0476 22.1197 21.2236 22.4717 21.5756C22.8237 21.9276 22.9997 22.3456 22.9997 22.8296C22.9997 23.299 22.8237 23.7096 22.4717 24.0616Z" fill="white"/>
<defs>
<filter id="filter0_d" x="0" y="0" width="42.4324" height="42.3924" filterUnits="userSpaceOnUse" color-interpolation-filters="sRGB">
<feFlood flood-opacity="0" result="BackgroundImageFix"/>
<feColorMatrix in="SourceAlpha" type="matrix" values="0 0 0 0 0 0 0 0 0 0 0 0 0 0 0 0 0 0 127 0"/>
<feOffset dy="4"/>
<feGaussianBlur stdDeviation="2"/>
<feColorMatrix type="matrix" values="0 0 0 0 0.479167 0 0 0 0 0.479167 0 0 0 0 0.479167 0 0 0 0.25 0"/>
<feBlend mode="normal" in2="BackgroundImageFix" result="effect1_dropShadow"/>
<feBlend mode="normal" in="SourceGraphic" in2="effect1_dropShadow" result="shape"/>
</filter>
<filter id="filter1_d" x="5.73877" y="5.73218" width="30.955" height="30.9283" filterUnits="userSpaceOnUse" color-interpolation-filters="sRGB">
<feFlood flood-opacity="0" result="BackgroundImageFix"/>
<feColorMatrix in="SourceAlpha" type="matrix" values="0 0 0 0 0 0 0 0 0 0 0 0 0 0 0 0 0 0 127 0"/>
<feOffset dy="4"/>
<feGaussianBlur stdDeviation="2"/>
<feColorMatrix type="matrix" values="0 0 0 0 0.479167 0 0 0 0 0.479167 0 0 0 0 0.479167 0 0 0 0.25 0"/>
<feBlend mode="normal" in2="BackgroundImageFix" result="effect1_dropShadow"/>
<feBlend mode="normal" in="SourceGraphic" in2="effect1_dropShadow" result="shape"/>
</filter>
</defs>
</svg>
