<svg width="120" height="94" viewBox="0 0 120 94" fill="none" xmlns="http://www.w3.org/2000/svg">
<path fill-rule="evenodd" clip-rule="evenodd" d="M42.548 16.958L21.0943 23.2273L16.3076 42.2145C17.1357 49.1886 18.443 55.7171 22.7548 59.3721L58.3374 88.2907L62.6424 91.6029C69.1238 96.5883 75.263 89.6211 70.3353 84.4711C70.2668 84.3957 70.1916 84.3202 70.1164 84.2447C71.7795 85.6437 73.6479 86.0414 75.2836 85.774C78.8836 85.1911 81.3476 81.3783 78.035 77.8191C84.5096 82.9896 90.0396 74.7537 84.968 70.2345C90.6214 72.0174 96.781 64.6866 90.9087 58.46C90.8677 58.4119 90.8196 58.3571 90.7718 58.309L76.05 36.3921L56.3046 23.7399L42.548 16.958Z" fill="#FFBC85"/>
<path fill-rule="evenodd" clip-rule="evenodd" d="M57.8037 88.9077C63.279 83.0717 55.2919 76.3583 50.8775 80.315L46.1483 84.8136C46.0934 84.8684 46.0456 84.9165 45.9908 84.9575C42.0211 88.9487 49.235 98.0417 55.2029 91.678L57.8037 88.9077Z" fill="#FFE5C1"/>
<path fill-rule="evenodd" clip-rule="evenodd" d="M42.6293 72.1751L37.6331 77.4143L37.6125 77.4417C35.1075 80.1026 36.8459 84.1828 39.8095 85.7738C41.6438 86.7612 43.9434 86.8025 45.9898 84.9577L51.342 84.8754L50.8765 80.3152L51.5609 79.6706C56.913 74.5824 49.1859 65.7909 43.1562 71.6199L42.6293 72.1751Z" fill="#FFE5C1"/>
<path fill-rule="evenodd" clip-rule="evenodd" d="M33.7049 64.9952L29.0235 69.967L28.3666 70.6734C23.7468 75.5765 32.0214 83.2983 36.7917 78.2922L37.6129 77.4419C37.6813 77.3665 42.6981 76.8452 43.2456 76.7836L43.1566 71.6198L44.7581 69.9398C50.2675 64.159 41.6578 56.5469 36.415 62.1222L33.7049 64.9952Z" fill="#FFE5C1"/>
<path fill-rule="evenodd" clip-rule="evenodd" d="M22.7545 59.3721L21.1666 61.0933C16.2798 66.4012 23.5621 74.8634 29.0235 69.967L33.5064 69.2744L33.7049 64.9952C38.133 59.9824 30.4129 51.0607 24.3353 57.6576L22.7545 59.3721Z" fill="#FFE5C1"/>
<path fill-rule="evenodd" clip-rule="evenodd" d="M29.4617 2.06307L7.73163 22.9857L1.55116 28.9311C-0.460951 30.865 -0.522591 34.0949 1.40749 36.111L10.6266 45.7253C11.1605 46.2807 12.057 46.3014 12.6183 45.7665L16.3074 42.2143L42.5478 16.9578L45.8056 13.817C46.3669 13.2821 46.3873 12.3838 45.8466 11.8215L36.6275 2.20722C34.6974 0.190888 31.4738 0.129246 29.4617 2.06307Z" fill="#FFCF5C"/>
<path fill-rule="evenodd" clip-rule="evenodd" d="M70.7861 38.4355L64.1885 39.9442L66.7755 42.5706L86.7604 62.444L86.8973 62.5949C89.3064 65.1458 89.6896 67.8754 88.9232 70.097C92.8722 68.5883 95.384 63.2052 90.9079 58.4596L90.771 58.3087L84.7755 52.3494L70.7861 38.4355Z" fill="#F5A96C"/>
<path fill-rule="evenodd" clip-rule="evenodd" d="M42.548 16.958L38.3457 20.997L51.4796 27.4775L56.3047 23.7401L42.548 16.958Z" fill="#F5A96C"/>
<path fill-rule="evenodd" clip-rule="evenodd" d="M56.3049 23.7398L51.4798 27.4771L46.9353 30.9883C35.4577 39.8758 44.9778 48.6534 51.7878 45.6431L59.4465 41.028L64.1895 39.9445L70.7872 38.4358L84.7765 52.35L90.7721 58.3092C94.5432 56.8966 99.8747 52.8232 105.631 43.5515L96.8813 25.2457L76.4473 15.4561L71.2048 19.646C70.3426 20.3318 70.6025 20.2014 69.5143 20.1672C65.5789 20.0437 60.5759 20.4346 57.6397 22.7046L56.3049 23.7398Z" fill="#FFE5C1"/>
<path fill-rule="evenodd" clip-rule="evenodd" d="M56.2844 37.9762L48.6257 42.5913C46.5384 43.5171 44.1907 43.3319 42.2744 42.3719C43.9375 45.5676 48.2357 47.2134 51.7877 45.6431L59.4464 41.028L64.1894 39.9445L70.705 38.4564C67.6867 35.871 67.146 35.4939 61.0207 36.8997L56.2844 37.9762Z" fill="#FED1A3"/>
<path fill-rule="evenodd" clip-rule="evenodd" d="M100.866 38.9639C95.7399 47.2136 90.9559 51.3487 87.3081 53.159C86.8974 53.3648 86.5004 53.5361 86.1172 53.6803L90.7712 58.3092C94.5423 56.8966 99.8738 52.8232 105.63 43.5515L100.866 38.9639Z" fill="#FED1A3"/>
<path fill-rule="evenodd" clip-rule="evenodd" d="M22.0293 9.22216C24.0414 7.30895 27.2446 7.38442 29.1677 9.38669L38.3868 19.001C38.9207 19.5633 38.9069 20.4616 38.3458 20.9965L42.5481 16.9572L45.8059 13.8164C46.3673 13.2815 46.3877 12.3832 45.847 11.8209L36.6278 2.20661C34.6977 0.190517 31.4741 0.128641 29.462 2.0627L22.0293 9.22216Z" fill="#FF901D"/>
<path fill-rule="evenodd" clip-rule="evenodd" d="M19.5576 65.1529C19.6054 69.6447 24.8482 73.7111 29.0231 69.967L31.9591 66.8535L33.7043 64.9952C35.5317 62.9242 35.2854 60.1949 33.9506 58.1582C33.9438 59.3514 33.5468 60.5446 32.6364 61.5801L29.5291 64.8787L27.9618 66.5519C24.9166 69.2741 21.3096 67.8548 19.5576 65.1529Z" fill="#FED1A3"/>
<path fill-rule="evenodd" clip-rule="evenodd" d="M27.2236 75.3436C28.3186 79.0193 33.4313 81.8241 36.7918 78.2923L37.613 77.4419C37.6198 77.4281 37.6266 77.4213 37.6336 77.4145L42.6298 72.1753C42.8077 71.9763 42.9788 71.7912 43.1569 71.6198L44.7584 69.9398C47.7286 66.8264 46.5994 63.1783 44.1014 61.3472C44.5531 63.0272 44.1905 64.968 42.5068 66.7303L40.9053 68.4103C40.7274 68.5816 40.5563 68.7668 40.3782 68.959V68.9658L35.382 74.205C35.3752 74.2118 35.3684 74.2188 35.3546 74.2256L34.5401 75.0827C32.3086 77.4284 29.311 76.9826 27.2236 75.3436Z" fill="#FED1A3"/>
<path fill-rule="evenodd" clip-rule="evenodd" d="M46.1474 84.8137L49.7952 81.3506L50.8766 80.3151L51.561 79.6706C54.4082 76.9619 53.5527 73.2039 51.212 71.1602C51.7117 72.9501 51.3421 74.973 49.6173 76.612L48.9397 77.2565L47.0096 79.0874L44.2035 81.7619L44.046 81.899C41.9996 83.7438 39.7 83.7025 37.8657 82.7219C37.4141 82.4751 36.9896 82.1732 36.6064 81.8235C37.0581 83.4487 38.2696 84.9506 39.8094 85.7734C41.6436 86.7609 43.9433 86.8021 45.9897 84.9574L46.1474 84.8137Z" fill="#FED1A3"/>
<path fill-rule="evenodd" clip-rule="evenodd" d="M57.8027 88.9075C60.5405 85.9862 59.9107 82.8522 58.0491 80.939C58.008 82.2351 57.4605 83.6272 56.2013 84.9644L53.6004 87.7417C50.4042 91.1432 46.852 90.1213 44.8535 87.824C44.8809 91.9865 50.4384 96.7595 55.2019 91.678L57.8027 88.9075Z" fill="#FED1A3"/>
<path d="M84.9667 72.0467C84.5251 72.0467 84.0822 71.886 83.7332 71.5611L76.4373 64.7652C75.7054 64.0831 75.6644 62.9366 76.3457 62.2039C77.027 61.4715 78.1729 61.4302 78.9053 62.112L86.2012 68.908C86.9331 69.59 86.9741 70.7366 86.2928 71.4692C85.9361 71.8529 85.4521 72.0467 84.9667 72.0467Z" fill="#F5A96C"/>
<path d="M78.034 79.6312C77.5924 79.6312 77.1495 79.4704 76.8005 79.1454L69.4978 72.3426C68.7659 71.6606 68.7249 70.5143 69.4064 69.7816C70.0873 69.0492 71.2334 69.0077 71.9658 69.69L79.2685 76.4927C80.0004 77.1747 80.0414 78.3211 79.3599 79.0537C79.0032 79.4372 78.5192 79.6312 78.034 79.6312Z" fill="#F5A96C"/>
<path d="M70.3549 86.2966C69.9138 86.2966 69.4713 86.1361 69.1225 85.812L65.4063 82.3559C64.6736 81.6743 64.6317 80.528 65.3125 79.7949C65.9932 79.0617 67.1393 79.0198 67.8719 79.7009L71.5882 83.157C72.3208 83.8385 72.3628 84.9849 71.6819 85.718C71.3252 86.1021 70.8407 86.2966 70.3549 86.2966Z" fill="#F5A96C"/>
<path fill-rule="evenodd" clip-rule="evenodd" d="M76.4464 15.4559L100.866 38.9638L105.63 43.5514L107.382 45.2384C107.943 45.7733 108.84 45.7527 109.373 45.1972L114.185 40.1774L118.593 35.5827C120.523 33.5666 120.461 30.3366 118.449 28.4028L114.185 24.302L90.5386 1.53478C88.5265 -0.399046 85.3029 -0.337405 83.3729 1.67869L74.1537 11.293C73.613 11.8552 73.6337 12.7536 74.1947 13.2885L76.4464 15.4559Z" fill="#C0C0C0"/>
<path fill-rule="evenodd" clip-rule="evenodd" d="M112.384 22.5605V22.5673V22.5605ZM108.1 34.3147L103.289 39.3411C102.748 39.8966 101.858 39.9172 101.297 39.3753L105.629 43.5516L107.381 45.2387C107.943 45.7735 108.839 45.7529 109.373 45.1974L114.185 40.1776L118.592 35.5829C120.522 33.5668 120.461 30.3369 118.449 28.403L113.055 23.2119L113.514 23.6577L112.385 22.5673C114.37 24.5012 114.431 27.7175 112.508 29.7198L108.1 34.3147Z" fill="#949494"/>
</svg>
