<svg width="364" height="434" viewBox="0 0 364 434" fill="none" xmlns="http://www.w3.org/2000/svg">
<path d="M186.69 342.974C259.924 342.974 319.291 283.787 319.291 210.776C319.291 137.765 259.924 78.5781 186.69 78.5781C113.456 78.5781 54.0879 137.765 54.0879 210.776C54.0879 283.787 113.456 342.974 186.69 342.974Z" fill="#FFAE37"/>
<path d="M119.688 348.135L104.461 335.868C104.461 335.868 85.6395 365.016 78.6348 374.428C75.5284 378.618 68.341 383.537 58.1689 387.909L61.7017 393.739C61.7017 393.739 87.1013 394.346 88.015 393.739C88.9287 393.132 89.2941 390.642 89.1723 388.274C89.1114 386.513 89.0505 381.715 88.685 379.226C93.1315 375.036 101.354 364.773 105.009 361.251C107.872 358.519 119.688 348.135 119.688 348.135Z" fill="#25252D"/>
<path d="M50.4336 393.982C50.4336 391.614 51.6518 386.635 56.7074 386.635C65.5394 386.635 81.5588 393.982 81.5588 393.982H50.4336Z" fill="#2F2E3B"/>
<path d="M221.896 378.012L240.535 337.083L225.49 330.039C225.49 330.039 221.348 345.22 220.069 348.924C215.805 361.312 211.968 373.275 208.862 381.351C206.181 388.396 203.684 392.343 205.816 393.739C206.73 394.347 236.88 393.496 236.88 393.496V387.667C229.997 383.538 224.211 380.562 221.896 378.012Z" fill="#25252D"/>
<path d="M244.92 393.982C244.92 391.614 247.722 388.274 242.789 387.121C235.967 385.542 213.734 393.982 213.734 393.982H244.92Z" fill="#2F2E3B"/>
<path d="M96.1773 153.452L147.342 188.004L142.835 194.684L89.8426 158.917C88.6853 158.128 88.3807 156.609 89.1726 155.456L89.6599 154.727C91.1217 152.602 94.0454 151.994 96.1773 153.452Z" fill="#2F2E3B"/>
<path d="M143.261 194.865L147.768 188.186L309.059 297.004C309.363 297.187 309.424 297.551 309.241 297.855C309.12 298.037 308.876 298.158 308.693 298.097L301.871 297.49C298.46 297.187 295.171 296.276 292.065 294.818C290.603 294.09 143.261 194.865 143.261 194.865Z" fill="white"/>
<path d="M141.433 192.679L138.509 183.51L128.642 184.178L125.657 174.826L115.851 175.555L112.805 166.143L102.999 166.871L99.9531 157.277L100.501 157.095L103.425 166.203L113.232 165.535L116.277 174.887L126.084 174.219L129.068 183.571L138.936 182.903L141.981 192.497L141.433 192.679Z" fill="#FFAE37"/>
<path d="M96.6037 153.087C94.1064 151.387 90.7563 152.055 89.0508 154.544L88.5026 155.395C87.589 156.731 87.9545 158.492 89.2336 159.342L94.7764 163.046C95.3246 163.41 96.0555 163.289 96.421 162.742L100.319 156.973C100.685 156.427 100.563 155.698 100.015 155.334L96.6037 153.087Z" fill="#2F2E3B"/>
<path d="M137.048 199.481L149.839 180.656C150.265 180.049 151.057 179.928 151.605 180.292C152.214 180.717 152.336 181.506 151.971 182.053L139.18 200.878C138.753 201.485 137.961 201.606 137.413 201.242C136.804 200.878 136.621 200.088 137.048 199.481Z" fill="#2F2E3B"/>
<path d="M217.145 166.932C217.145 166.932 214.77 164.018 209.348 163.957C202.892 163.836 198.75 167.6 192.659 167.6C185.654 164.2 177.919 167.722 173.168 170.758C166.833 173.734 160.681 180.049 157.636 187.397C154.286 190.312 151.057 193.348 148.073 196.627C147.403 197.416 147.22 198.509 147.585 199.481L148.134 200.938C148.134 200.938 148.621 198.752 149.961 198.631C152.885 198.327 158.427 203.671 163.544 212.051C166.894 217.516 178.65 246.907 178.65 246.907L201.491 240.652L201.247 240.106L201.491 240.652L216.292 239.013C216.292 239.013 220.312 224.257 220.312 195.17C220.373 186.182 217.145 166.932 217.145 166.932Z" fill="#25252D"/>
<path d="M209.958 253.647L182.67 243.992C153.555 264.76 134.124 296.155 121.82 309.696C119.567 312.186 117.557 314.797 115.729 317.591C107.75 329.736 93.9845 350.686 85.9443 360.705C92.7663 372.607 100.319 376.615 110.43 380.259C120.054 363.499 140.459 325.546 140.398 325.485C148.256 318.076 170.975 297.673 182.244 290.629C210.567 273.14 209.958 253.647 209.958 253.647Z" fill="#2F2E3B"/>
<path d="M182.608 243.993C182.608 243.993 191.075 263.789 196.618 273.384C206.12 288.686 217.023 293.362 229.753 309.454C226.159 318.684 209.957 345.889 200.272 363.924C209.348 369.754 228.657 366.657 237.428 362.771C238.889 352.569 250.219 329.251 256.614 315.891C258.929 310.912 258.503 305.082 255.518 300.528C246.016 286.136 233.773 257.535 214.769 237.738L182.608 243.993Z" fill="#2F2E3B"/>
<path d="M176.03 240.288L219.459 230.025L218.241 241.563L177.675 247.696L176.03 240.288Z" fill="#CCCCCC"/>
<path d="M125.154 320.692C127.573 317.304 128.09 313.533 126.309 312.269C124.527 311.005 121.122 312.726 118.703 316.114C116.284 319.502 115.767 323.274 117.549 324.538C119.33 325.802 122.735 324.08 125.154 320.692Z" fill="#464552"/>
<path d="M256.829 310.674C257.559 306.579 256.405 302.951 254.252 302.57C252.099 302.188 249.762 305.198 249.033 309.293C248.303 313.388 249.457 317.016 251.61 317.397C253.763 317.779 256.1 314.768 256.829 310.674Z" fill="#464552"/>
<path d="M191.989 177.681L189.309 202.457L172.742 183.754L166.772 165.172L186.02 159.1L191.989 177.681Z" fill="white"/>
<path d="M169.818 174.645L172.742 183.754L180.599 192.619L189.31 202.457L190.589 195.534L182 189.097L186.691 180.232L190.345 172.641L188.64 167.176L169.818 174.645Z" fill="#CCCCCC"/>
<path d="M199.177 219.46C197.959 218.185 169.757 187.519 167.808 184.725C165.981 182.053 164.397 179.746 166.955 176.831L167.443 177.256C165.311 179.746 166.285 181.507 168.295 184.422C170.184 187.215 199.299 218.792 199.603 219.095L199.177 219.46Z" fill="#585860"/>
<path d="M192.72 210.776L192.111 210.715C192.72 205.372 194 179.078 193.939 175.92C193.878 173.066 192.538 169.665 189.005 168.815L189.127 168.208C192.416 168.997 194.487 171.973 194.548 175.92C194.609 179.078 193.33 205.432 192.72 210.776Z" fill="#585860"/>
<path d="M173.046 218.488L172.437 218.427C173.168 211.626 161.412 200.817 158.306 198.691C154.042 195.716 150.753 195.109 148.377 196.87L148.012 196.384C151.971 193.469 157.026 197.052 158.671 198.206C161.96 200.452 173.838 211.322 173.046 218.488Z" fill="#585860"/>
<path d="M213.003 207.194C212.942 206.951 205.877 182.357 205.024 179.139C203.075 171.366 204.476 166.326 209.166 163.715L209.47 164.261C204.963 166.751 203.745 171.427 205.572 179.017C206.364 182.236 213.43 206.829 213.49 207.072L213.003 207.194Z" fill="#585860"/>
<path d="M174.264 104.326C168.843 102.383 162.204 85.5618 171.523 74.935C180.842 64.3082 200.516 63.3973 210.506 80.5824C217.023 91.8165 214.891 113.009 227.073 117.199C229.327 118.05 231.763 118.414 234.139 118.292C234.504 118.232 234.87 118.535 234.931 118.9C234.931 119.143 234.87 119.386 234.687 119.568C231.276 122.118 224.698 125.701 219.338 124.79C198.019 121.207 201.856 99.2856 194.364 92.7881C188.883 88.0515 183.035 93.031 183.462 98.9213C183.705 102.99 174.264 104.326 174.264 104.326Z" fill="#2F2E3B"/>
<path d="M205.146 116.531C200.212 108.637 199.359 102.139 197.228 97.0993C196.314 94.9132 193.329 90.2374 189.127 90.8446C183.827 91.5733 183.218 97.2815 183.218 97.2815L180.538 96.0062C180.234 87.8084 184.132 83.8006 188.822 83.0111C195.279 81.9181 198.811 87.3226 200.517 95.7633C201.674 101.654 201.309 106.815 205.146 116.531Z" fill="#24242D"/>
<path d="M204.658 74.2668C206.364 75.7849 208.008 77.3637 209.531 79.064C199.42 63.397 180.538 64.5508 171.462 74.9347C162.143 85.5616 168.843 102.382 174.203 104.326C174.203 104.326 174.69 104.265 175.482 104.083L172.436 96.2491C167.198 83.922 174.568 72.9308 184.436 70.0768C194.303 67.2227 200.882 71.1091 204.658 74.2668Z" fill="#464552"/>
<path d="M173.777 95.8239C172.071 90.8445 171.888 85.44 173.289 80.8856C174.995 75.299 179.076 71.1697 184.984 68.9229L185.167 69.4694C178.649 71.8984 169.086 80.0962 174.325 95.581L173.777 95.8239Z" fill="#464552"/>
<path d="M167.746 96.6137C167.442 96.6137 167.137 96.4922 166.955 96.3101C164.275 93.8811 163.239 88.7195 163.483 86.6548C163.544 85.9868 164.153 85.501 164.823 85.5618C165.493 85.6225 165.98 86.2297 165.919 86.8977C165.736 88.4766 166.65 92.7273 168.599 94.4883C169.086 94.9134 169.147 95.7028 168.66 96.1886C168.416 96.4922 168.112 96.6137 167.746 96.6137Z" fill="#2F2E3B"/>
<path d="M185.106 98.496C184.497 92.6057 166.833 92.9093 165.737 98.496C164.641 104.083 185.594 103.293 185.106 98.496Z" fill="#FFAE37"/>
<path d="M150.387 119.203C157.636 111.248 166.468 112.766 166.468 112.766L164.823 104.75C164.823 104.75 156.296 101.35 146.854 108.272C141.738 112.037 136.378 122.664 140.093 136.084C140.763 138.574 141.799 142.339 141.799 142.339C142.286 140.396 141.738 128.615 150.387 119.203Z" fill="#2F2E3B"/>
<path d="M144.175 162.986C143.627 162.986 143.14 162.621 143.018 162.075C142.774 161.225 137.353 141.611 147.708 121.389C148.012 120.782 148.743 120.539 149.352 120.843C149.962 121.146 150.205 121.875 149.901 122.482C140.033 141.853 145.332 161.225 145.393 161.407C145.576 162.075 145.211 162.743 144.541 162.925C144.419 162.986 144.297 162.986 144.175 162.986Z" fill="#2F2E3B"/>
<path d="M146.793 145.558C146.367 145.558 145.941 145.315 145.697 144.89C143.809 141.125 143.139 127.037 148.438 120.661C148.864 120.175 149.656 120.054 150.144 120.479C150.631 120.904 150.753 121.693 150.326 122.179C145.819 127.583 146.306 140.518 147.89 143.736C148.194 144.343 147.951 145.072 147.342 145.376C147.159 145.497 146.976 145.558 146.793 145.558Z" fill="#2F2E3B"/>
<path d="M144.296 121.875C139.484 113.009 152.336 94.4883 171.767 99.2856C204.902 95.7635 213.186 129.101 207.034 141.125C200.334 154.302 192.964 158.857 192.964 158.857L144.296 121.875Z" fill="#2F2E3B"/>
<path d="M159.585 110.823C149.84 111.977 143.079 119.811 142.835 135.538C142.835 136.51 144.54 137.542 144.48 139.364C144.419 141.793 143.627 141.854 143.505 144.161C143.383 145.922 143.566 147.683 143.992 149.384C146.733 162.865 156.966 175.131 168.113 175.981C180.66 176.953 193.939 165.051 197.045 156.367C200.152 147.683 204.172 105.662 159.585 110.823Z" fill="white"/>
<path d="M163.239 108.03C163.117 113.556 164.579 123.272 173.472 127.219C174.264 127.583 175.178 126.308 174.447 125.701C173.228 124.668 168.782 121.207 169.574 115.924C169.574 115.924 173.777 123.757 180.172 126.186C180.72 126.369 181.33 126.186 181.573 125.701C181.756 125.336 181.939 124.972 182 124.608C182 124.608 189.674 127.219 193.938 127.097C194.608 112.402 189.065 106.39 181.086 101.35C175.482 97.828 166.163 100.439 166.163 100.439C166.163 100.439 163.361 101.107 163.239 108.03Z" fill="#2F2E3B"/>
<path d="M184.802 97.099C177.614 95.5202 171.219 99.6495 171.219 99.6495C171.584 99.528 170.549 100.378 170.914 100.317C180.477 97.767 191.441 99.5887 198.994 109.183C207.704 120.296 207.826 137.481 204.232 146.59C207.704 143.736 209.836 139.485 209.897 134.991C210.202 104.69 192.355 98.7386 184.802 97.099Z" fill="#464552"/>
<path d="M198.325 141.246C201.614 138.028 204.476 137.056 206.669 138.392C208.862 139.728 205.329 150.233 202.588 150.476C199.847 150.719 197.289 147.258 197.289 147.258L198.325 141.246Z" fill="white"/>
<path d="M194.974 147.562C194.852 147.562 194.791 147.562 194.669 147.501C193.999 147.319 193.634 146.651 193.816 146.044C193.877 145.922 197.288 132.745 191.624 119.507C191.38 118.9 191.624 118.171 192.294 117.928C192.903 117.685 193.634 117.928 193.877 118.596C199.907 132.623 196.375 146.165 196.192 146.712C196.009 147.197 195.522 147.562 194.974 147.562Z" fill="#2F2E3B"/>
<path d="M159.281 148.655C153.86 149.019 150.997 153.756 143.992 149.383C146.55 166.751 160.743 175.313 165.006 175.981C177.371 177.803 188.822 170.151 195.461 160.557C197.045 158.249 198.141 154.97 198.69 149.14C182.914 154.788 165.676 148.169 159.281 148.655Z" fill="#2F2E3B"/>
<path d="M143.626 121.814C148.194 121.45 159.158 118.232 162.265 108.03C144.966 105.297 143.626 121.814 143.626 121.814Z" fill="#2F2E3B"/>
<path d="M159.463 99.8922C153.798 101.775 143.992 108.637 143.383 121.692C143.383 121.753 143.566 121.875 143.566 121.875C146.063 109.001 155.199 102.868 160.803 100.985C165.676 99.4064 168.478 99.7707 170.914 100.317C170.975 100.257 172.011 100.014 172.011 99.9529C172.072 99.71 171.889 99.5886 172.193 99.2849C169.818 98.3133 165.554 97.8883 159.463 99.8922Z" fill="#464552"/>
<path d="M165.615 158.735L162.387 159.342L163.544 151.569L158.793 162.378L161.899 161.771L160.864 169.544L165.615 158.735Z" fill="#464552"/>
<path d="M166.589 129.041C166.224 130.741 167.137 132.927 167.137 132.927C167.137 132.927 177.127 130.802 180.964 130.984C182.791 131.045 185.837 132.502 185.837 132.502C185.837 132.502 183.035 127.826 180.416 127.583C176.457 127.219 166.589 129.041 166.589 129.041Z" fill="#2F2E3B"/>
<path d="M186.447 136.267C187.117 136.51 186.02 137.785 184.62 137.481C181.818 136.874 178.955 136.631 176.153 136.753C172.377 136.813 167.747 139.06 167.321 139.303C166.895 139.546 166.712 139.303 167.016 138.939C167.321 138.575 171.524 135.478 176.214 135.052C179.625 134.749 183.158 135.174 186.447 136.267Z" fill="#2F2E3B"/>
<path d="M177.849 142.634C179.933 142.565 181.569 140.906 181.503 138.928C181.437 136.951 179.694 135.404 177.609 135.473C175.525 135.542 173.889 137.202 173.955 139.179C174.021 141.157 175.764 142.704 177.849 142.634Z" fill="#2F2E3B"/>
<path d="M174.325 140.032C174.829 140.032 175.238 139.624 175.238 139.121C175.238 138.618 174.829 138.21 174.325 138.21C173.82 138.21 173.411 138.618 173.411 139.121C173.411 139.624 173.82 140.032 174.325 140.032Z" fill="white"/>
<path d="M150.144 149.687C151.12 149.687 151.911 148.899 151.911 147.926C151.911 146.953 151.12 146.165 150.144 146.165C149.169 146.165 148.378 146.953 148.378 147.926C148.378 148.899 149.169 149.687 150.144 149.687Z" fill="#CCCCCC"/>
<path d="M177.858 150.294C178.834 150.294 179.625 149.506 179.625 148.533C179.625 147.561 178.834 146.772 177.858 146.772C176.883 146.772 176.092 147.561 176.092 148.533C176.092 149.506 176.883 150.294 177.858 150.294Z" fill="#CCCCCC"/>
<path d="M155.748 128.919C155.869 130.255 155.687 131.53 155.321 132.806C155.321 132.806 147.768 131.045 144.906 131.348C143.505 131.53 141.251 133.049 141.251 133.049C141.251 133.049 143.383 128.251 145.332 127.948C148.317 127.523 155.748 128.919 155.748 128.919Z" fill="#2F2E3B"/>
<path d="M137.901 135.599C137.17 135.841 138.266 137.238 139.728 137.056C142.53 136.57 145.393 136.449 148.255 136.692C152.032 136.995 156.539 139.667 157.026 139.91C157.514 140.153 157.636 139.91 157.331 139.546C157.026 139.181 152.945 135.538 148.255 134.87C144.783 134.384 141.312 134.627 137.901 135.599Z" fill="#2F2E3B"/>
<path d="M154.556 139.921C154.713 137.949 153.156 136.216 151.077 136.05C148.998 135.885 147.185 137.35 147.027 139.322C146.869 141.295 148.427 143.028 150.506 143.193C152.585 143.358 154.398 141.893 154.556 139.921Z" fill="#2F2E3B"/>
<path d="M147.525 139.849C148.03 139.849 148.439 139.441 148.439 138.938C148.439 138.435 148.03 138.027 147.525 138.027C147.02 138.027 146.611 138.435 146.611 138.938C146.611 139.441 147.02 139.849 147.525 139.849Z" fill="white"/>
<path d="M154.468 133.17L153.859 133.048C154.286 131.409 154.468 129.648 154.468 127.947H155.078C155.139 129.708 154.895 131.469 154.468 133.17Z" fill="white"/>
<path d="M207.217 172.823C208.07 181.689 211.846 191.466 215.074 192.498C218.302 193.53 218.972 180.839 218.363 177.438C217.754 174.038 207.217 172.823 207.217 172.823Z" fill="#CCCCCC"/>
<path d="M207.277 170.698C207.704 167.723 210.384 165.597 213.368 165.779C215.317 165.779 217.267 166.205 218.972 167.115C222.566 168.816 250.646 183.207 253.326 184.968C257.224 187.519 258.625 191.587 255.823 194.988C253.691 197.599 249.062 198.935 249.062 198.935C249.062 198.935 217.815 184.543 210.81 179.564C207.886 177.439 206.973 173.309 207.277 170.698Z" fill="white"/>
<path d="M242.971 183.996C250.159 184.3 255.397 193.894 252.534 198.509C243.398 202.031 217.267 206.1 217.267 206.1L216.536 200.21L242.971 183.996Z" fill="#464552"/>
<path d="M177.188 245.632L177.127 245.389L215.44 233.609L180.538 241.382L180.477 241.078L219.155 232.455L219.216 232.759L179.076 245.086L218.363 239.621L218.424 239.924L177.188 245.632Z" fill="#2F2E3B"/>
<path d="M151.849 198.57C150.205 198.145 148.499 199.117 148.073 200.757C148.012 201.06 147.951 201.364 147.951 201.728C148.073 203.732 149.048 205.736 149.9 208.044C151.362 211.687 170.427 241.139 172.376 243.568C175.239 247.15 178.467 247.697 182.548 245.086C185.411 243.264 188.578 238.224 188.578 238.224C188.578 238.224 164.702 205.797 157.758 201.06C156.296 199.967 153.129 198.935 151.849 198.57Z" fill="white"/>
<path d="M179.869 227.111C173.838 233.245 178.285 244.479 183.828 245.511C192.355 240.714 211.846 225.168 211.846 225.168L207.278 218.063L179.869 227.111Z" fill="#464552"/>
<path d="M245.957 243.567L197.046 202.396L202.284 196.202L249.49 235.916C251.5 237.616 251.743 240.531 250.038 242.535L249.49 243.203C248.576 244.357 246.992 244.478 245.957 243.567Z" fill="#2F2E3B"/>
<path d="M196.741 202.092L201.979 195.898L53.1752 70.6839C52.9316 70.441 52.5052 70.5018 52.3225 70.7447C52.2007 70.9268 52.1397 71.1697 52.2007 71.3519L54.6371 77.728C55.8553 80.8857 57.6217 83.8612 59.8754 86.4116C60.9717 87.6261 196.741 202.092 196.741 202.092Z" fill="white"/>
<path d="M240.596 237.859L238.647 228.447L228.78 228.143L226.77 218.488L216.963 218.185L214.953 208.529L205.086 208.226L203.015 198.328L203.624 198.206L205.573 207.618L215.44 207.983L217.45 217.577L227.318 217.942L229.328 227.536L239.134 227.9L241.205 237.738L240.596 237.859Z" fill="#FFAE37"/>
<path d="M249.733 235.491C252.048 237.434 252.291 240.835 250.403 243.082L249.733 243.871C248.697 245.086 246.931 245.207 245.713 244.236L240.596 239.924C240.109 239.499 240.048 238.77 240.475 238.284L244.982 233.001C245.408 232.516 246.139 232.455 246.627 232.88L249.733 235.491Z" fill="#2F2E3B"/>
<path d="M192.051 207.618L206.731 190.251C207.218 189.705 208.01 189.644 208.558 190.069C209.106 190.555 209.167 191.344 208.68 191.891L194 209.258C193.513 209.805 192.721 209.865 192.173 209.44C191.625 209.015 191.564 208.165 192.051 207.618Z" fill="#2F2E3B"/>
<path d="M214.953 213.934C216.963 212.173 219.156 210.655 221.531 209.38L228.231 215.452L220.313 220.31L211.847 225.047L207.278 217.942L214.953 213.934Z" fill="white"/>
<path d="M212.029 201.667C208.131 202.214 200.578 207.254 200.578 207.254L208.862 213.873L215.501 207.679L217.998 206.1L216.537 200.21L212.029 201.667Z" fill="white"/>
<path d="M205.39 198.874L209.592 202.457L212.029 201.667L206.669 198.51L205.39 198.874Z" fill="white"/>
<path d="M214.953 213.934L217.876 209.379L216.597 208.286L211.298 214.966L210.628 216.241L214.953 213.934Z" fill="white"/>
<g filter="url(#filter0_d)">
<ellipse cx="62.3061" cy="248.935" rx="17.2162" ry="17.1962" fill="white"/>
</g>
<g filter="url(#filter1_d)">
<ellipse cx="62.3056" cy="248.936" rx="11.4775" ry="11.4642" fill="#1C1C1C"/>
</g>
<path d="M63.5397 254.335H61.0757L60.6137 244.435H63.9797L63.5397 254.335ZM63.5617 258.801C63.2097 259.153 62.7917 259.329 62.3077 259.329C61.8237 259.329 61.4057 259.153 61.0537 258.801C60.7164 258.449 60.5477 258.039 60.5477 257.569C60.5477 257.085 60.7164 256.667 61.0537 256.315C61.4057 255.963 61.8237 255.787 62.3077 255.787C62.7917 255.787 63.2097 255.963 63.5617 256.315C63.9137 256.667 64.0897 257.085 64.0897 257.569C64.0897 258.039 63.9137 258.449 63.5617 258.801Z" fill="white"/>
<defs>
<filter id="filter0_d" x="41.0898" y="231.739" width="42.4324" height="42.3924" filterUnits="userSpaceOnUse" color-interpolation-filters="sRGB">
<feFlood flood-opacity="0" result="BackgroundImageFix"/>
<feColorMatrix in="SourceAlpha" type="matrix" values="0 0 0 0 0 0 0 0 0 0 0 0 0 0 0 0 0 0 127 0"/>
<feOffset dy="4"/>
<feGaussianBlur stdDeviation="2"/>
<feColorMatrix type="matrix" values="0 0 0 0 0.479167 0 0 0 0 0.479167 0 0 0 0 0.479167 0 0 0 0.25 0"/>
<feBlend mode="normal" in2="BackgroundImageFix" result="effect1_dropShadow"/>
<feBlend mode="normal" in="SourceGraphic" in2="effect1_dropShadow" result="shape"/>
</filter>
<filter id="filter1_d" x="46.8281" y="237.472" width="30.955" height="30.9283" filterUnits="userSpaceOnUse" color-interpolation-filters="sRGB">
<feFlood flood-opacity="0" result="BackgroundImageFix"/>
<feColorMatrix in="SourceAlpha" type="matrix" values="0 0 0 0 0 0 0 0 0 0 0 0 0 0 0 0 0 0 127 0"/>
<feOffset dy="4"/>
<feGaussianBlur stdDeviation="2"/>
<feColorMatrix type="matrix" values="0 0 0 0 0.479167 0 0 0 0 0.479167 0 0 0 0 0.479167 0 0 0 0.25 0"/>
<feBlend mode="normal" in2="BackgroundImageFix" result="effect1_dropShadow"/>
<feBlend mode="normal" in="SourceGraphic" in2="effect1_dropShadow" result="shape"/>
</filter>
</defs>
</svg>
