<svg width="60" height="56" viewBox="0 0 60 56" fill="none" xmlns="http://www.w3.org/2000/svg">
<path d="M47.2149 22.8329V0.0371094H12.785V22.8329H0L30.0001 55.9631L60 22.8329H47.2149Z" fill="#FFCF5C"/>
<path d="M59.9991 22.8329H47.214V0.0371094H29.999V55.9631H29.9991L59.9991 22.8329Z" fill="#E3B340"/>
<path d="M30 19.5189C30.8155 19.5189 31.4231 19.7603 32.1161 20.9947L32.421 21.5379L35.0648 19.8249L34.8264 19.3558C34.0959 17.9181 33.0523 16.9949 31.7199 16.6054V14.4468H30V19.5189Z" fill="#FFCB5C"/>
<path d="M35.7411 28.9395C35.6665 27.2007 35.0658 26.0351 33.7358 25.0446C32.9024 24.4135 32.4117 24.1587 31.4757 23.6908L30.2039 23.0312C30.1405 22.9966 30.0725 22.9559 30.0001 22.9106V26.4672C31.854 27.3832 32.4909 28.0446 32.4909 29.0118C32.4909 29.6582 32.3204 30.1942 31.9917 30.5963C31.5611 31.1015 30.9885 31.3369 30.1894 31.3369C30.1248 31.3369 30.0621 31.3347 30 31.3314V36.4329H31.7199V34.2934C32.7268 34.0456 33.5966 33.5253 34.309 32.7438C35.2595 31.7139 35.7415 30.4424 35.7415 28.9645L35.7411 28.9395Z" fill="#FFCB5C"/>
<path d="M35.7413 28.9392C35.6667 27.2004 35.066 26.0348 33.736 25.0443C32.9025 24.4132 32.4119 24.1583 31.4759 23.6905L30.204 23.0309C29.9823 22.9095 29.7082 22.7211 29.3619 22.4828L29.3284 22.4598C28.7178 21.9829 28.5979 21.5683 28.5979 21.0156C28.5979 20.19 29.227 19.5184 30.0004 19.5184C30.8159 19.5184 31.4235 19.7598 32.1165 20.9943L32.4214 21.5374L35.0652 19.8244L34.8268 19.3553C34.0963 17.9176 33.0527 16.9944 31.7203 16.6049V14.4463H28.659V16.5873C26.6864 17.1945 25.347 19.0194 25.347 21.1814C25.347 22.5996 25.8004 23.6629 26.7804 24.5338C27.6581 25.2898 28.3154 25.6918 29.7017 26.3219C31.7873 27.3152 32.4912 27.994 32.4912 29.0116C32.4912 29.658 32.3207 30.1941 31.992 30.5961C31.5614 31.1013 30.9888 31.3367 30.1897 31.3367C28.6844 31.3367 27.8471 30.4543 27.2034 28.1895L26.9939 27.4526L24.1875 29.151L24.2708 29.5553C24.7672 31.963 26.4275 33.7451 28.6589 34.3111V36.4326H31.7202V34.2931C32.7271 34.0453 33.5969 33.525 34.3093 32.7435C35.2598 31.7136 35.7418 30.4421 35.7418 28.9642L35.7413 28.9392Z" fill="black"/>
</svg>
