<svg width="60" height="60" viewBox="0 0 60 60" fill="none" xmlns="http://www.w3.org/2000/svg">
<path d="M20.625 58.125V38.4441C20.625 35.7253 22.5694 33.3956 25.2441 32.91L35.625 30.9375H43.125L53.5059 32.91C56.1806 33.3966 58.125 35.7263 58.125 38.4441V58.125H20.625Z" fill="#F2C351"/>
<path d="M29.3991 54.705C39.1603 54.705 47.0728 46.7925 47.0728 37.0312C47.0728 35.1047 46.7541 33.255 46.1841 31.5187L43.125 30.9375H35.625L25.2441 32.91C22.5694 33.3966 20.625 35.7263 20.625 38.4441V52.3594C23.2125 53.8434 26.2022 54.705 29.3991 54.705Z" fill="#F7D881"/>
<path d="M14.0625 44.0625H3.75C2.71406 44.0625 1.875 43.2234 1.875 42.1875V29.0625C1.875 28.0266 2.71406 27.1875 3.75 27.1875H28.125C29.1609 27.1875 30 28.0266 30 29.0625V42.1875C30 43.2234 29.1609 44.0625 28.125 44.0625H17.8125" fill="#758190"/>
<path d="M25.2431 27.1875H3.75C2.71406 27.1875 1.875 28.0266 1.875 29.0625V42.1875C1.875 43.2234 2.71406 44.0625 3.75 44.0625H14.0625H17.1441C21.7566 39.7987 24.7809 33.8466 25.2431 27.1875Z" fill="#8892A0"/>
<path d="M48.75 44.0626V32.0063L52.5 32.7188V44.0626H48.75Z" fill="#E39854"/>
<path d="M35.625 27.1875V30C35.625 32.0709 37.3041 33.75 39.375 33.75C41.4459 33.75 43.125 32.0709 43.125 30V27.1875" fill="#FADFB2"/>
<path d="M30.9375 14.0625V19.6875C30.9375 24.3478 34.7147 28.125 39.375 28.125C44.0353 28.125 47.8125 24.3478 47.8125 19.6875V14.0625L45.9375 10.3125L44.4375 11.4375C42.9769 12.5325 41.2003 13.125 39.375 13.125C37.5497 13.125 35.7731 12.5325 34.3125 11.4375L32.8125 10.3125L30.9375 14.0625Z" fill="#FADFB2"/>
<path d="M32.6668 4.8L34.2906 3.57844C35.7653 2.47312 37.5587 1.875 39.4018 1.875C40.6196 1.875 41.8234 2.13656 42.9315 2.64094L45.5471 3.8325C46.7706 4.38937 47.7952 5.30531 48.4871 6.4575C49.5859 8.28937 49.7359 10.5384 48.8902 12.4997L47.8121 15V14.0625L45.9371 10.3125L44.4371 11.4375C42.9765 12.5325 41.1999 13.125 39.3746 13.125C37.5493 13.125 35.7727 12.5325 34.3121 11.4375L32.8121 10.3125L30.9371 14.0625V15L29.3284 11.7816C28.5784 10.2825 28.6468 8.50406 29.5093 7.06687C30.2124 5.89594 31.3618 5.085 32.6668 4.8Z" fill="#976947"/>
<path d="M30.9375 15H30C28.9641 15 28.125 15.8391 28.125 16.875C28.125 17.9109 28.9641 18.75 30 18.75H30.9375" fill="#FADFB2"/>
<path d="M47.8125 15H48.75C49.7859 15 50.625 15.8391 50.625 16.875C50.625 17.9109 49.7859 18.75 48.75 18.75H47.8125" fill="#FADFB2"/>
<path d="M26.25 52.5V44.0625H52.5V52.5" fill="#C16B3F"/>
<path d="M1.875 52.5H52.5V58.125H1.875V52.5Z" fill="#272727"/>
<path d="M1.875 52.5H52.5V55.3125H1.875V52.5Z" fill="#A8B0BC"/>
<path d="M14.0625 52.5V35.625H17.8125V52.5" fill="#D5CEC2"/>
<path d="M26.25 44.0625V52.5H37.9425C41.3419 50.6184 44.0531 47.6503 45.6113 44.0625H26.25Z" fill="#FF901D"/>
<path d="M14.0625 46.5028C15.4097 45.5972 16.665 44.5659 17.8125 43.425V35.625H14.0625V46.5028Z" fill="#E7E4DD"/>
</svg>
