<svg width="60" height="60" viewBox="0 0 60 60" fill="none" xmlns="http://www.w3.org/2000/svg">
<g clip-path="url(#clip0)">
<path d="M30 60C46.5685 60 60 46.5685 60 30C60 13.4315 46.5685 0 30 0C13.4315 0 0 13.4315 0 30C0 46.5685 13.4315 60 30 60Z" fill="#FFCF5C"/>
<path d="M30 52.5C17.625 52.5 7.5 42.375 7.5 30C7.5 17.625 17.625 7.5 30 7.5C42.375 7.5 52.5 17.625 52.5 30C52.5 42.375 42.375 52.5 30 52.5Z" fill="#F2F2F2"/>
<path d="M30 45C21.75 45 15 38.25 15 30C15 21.75 21.75 15 30 15C38.25 15 45 21.75 45 30C45 38.25 38.25 45 30 45Z" fill="#E3B340"/>
<path d="M30 37.5C25.875 37.5 22.5 34.125 22.5 30C22.5 25.875 25.875 22.5 30 22.5C34.125 22.5 37.5 25.875 37.5 30C37.5 34.125 34.125 37.5 30 37.5Z" fill="#CDD6E0"/>
<path d="M30 37.5C25.875 37.5 22.5 34.125 22.5 30C22.5 25.875 25.875 22.5 30 22.5C34.125 22.5 37.5 25.875 37.5 30C37.5 34.125 34.125 37.5 30 37.5Z" fill="#FFD15C"/>
<path opacity="0.2" d="M59.7505 33.7499C59.2504 37.4999 58.1254 40.9999 56.3755 44.2499L54.7504 43.6249L52.6255 39.1249L30.1255 31C29.1255 30.625 28.6255 29.5 29.0005 28.5C29.3755 27.5 30.5005 27 31.5004 27.375L54.0004 35.5L58.5004 33.375L59.7505 33.7499Z" fill="#334A5E"/>
<path d="M50.501 12.125L32.126 30.5C31.376 31.25 30.126 31.25 29.376 30.5C28.626 29.75 28.626 28.5 29.376 27.75L47.876 9.5C48.626 8.75 49.8761 8.75 50.6261 9.5C51.251 10.25 51.251 11.375 50.501 12.125Z" fill="#40596B"/>
<path d="M52.2501 7.74996L46.375 13.625V5.87496L52.2501 0V7.74996Z" fill="#474747"/>
<path d="M54.1251 13.6251L60 7.75H52.2501L46.375 13.6251H54.1251Z" fill="black"/>
</g>
<defs>
<clipPath id="clip0">
<rect width="60" height="60" fill="white"/>
</clipPath>
</defs>
</svg>
