<svg width="60" height="60" viewBox="0 0 60 60" fill="none" xmlns="http://www.w3.org/2000/svg">
<path d="M42.1875 47.8125H55.3125C55.8098 47.8125 56.2867 48.01 56.6383 48.3617C56.99 48.7133 57.1875 49.1902 57.1875 49.6875V51.5625C57.1875 52.0598 56.99 52.5367 56.6383 52.8883C56.2867 53.24 55.8098 53.4375 55.3125 53.4375H31.6597C31.1827 53.4375 12.6646 49.6875 12.1875 49.6875H2.8125V32.8125H16.875C21.5625 32.8125 30.9375 41.25 30.9375 41.25L40.3125 44.0625C40.3125 44.0625 42.1875 45 42.1875 45.9375V47.8125C42.1875 48.3098 41.99 48.7867 41.6383 49.1383C41.2867 49.49 40.8098 49.6875 40.3125 49.6875L30.9375 47.8125L24.375 44.0625" fill="#FBDAC1"/>
<path d="M40.3125 49.6875L30.9375 47.8125L24.375 44.0625L18.75 43.125V45L24.375 45.9375L30.9375 48.75L40.3125 50.625C40.8098 50.625 41.2867 50.4275 41.6383 50.0758C41.99 49.7242 42.1875 49.2473 42.1875 48.75V47.8125C42.1875 48.3098 41.99 48.7867 41.6383 49.1383C41.2867 49.49 40.8098 49.6875 40.3125 49.6875Z" fill="#EFBFA7"/>
<path d="M2.8125 30.9375H8.4375V51.5625H2.8125V30.9375Z" fill="#8892A0"/>
<path d="M4 46H8V50H4V46Z" fill="#1A1A1A"/>
<path d="M37.8059 30L33.75 27.758L29.6941 30L30.4688 25.2513L27.1875 21.8883L31.7221 21.1955L33.75 16.875L35.7779 21.1955L40.3125 21.8883L37.0312 25.2513L37.8059 30Z" fill="#FFCF5C"/>
<path d="M22.8059 21.5625L18.75 19.3205L14.6941 21.5625L15.4688 16.8138L12.1875 13.4508L16.7221 12.758L18.75 8.4375L20.7779 12.758L25.3125 13.4508L22.0312 16.8138L22.8059 21.5625Z" fill="#FFCF5C"/>
<path d="M52.8059 38.4375L48.75 36.1955L44.6941 38.4375L45.4688 33.6888L42.1875 30.3258L46.7221 29.633L48.75 25.3125L50.7779 29.633L55.3125 30.3258L52.0312 33.6888L52.8059 38.4375Z" fill="#FFCF5C"/>
</svg>
