<svg width="60" height="60" viewBox="0 0 60 60" fill="none" xmlns="http://www.w3.org/2000/svg">
<g clip-path="url(#clip0)">
<path d="M37.0204 59.1221H22.9795L25.2874 51.5923H34.7126L37.0204 59.1221Z" fill="#6D6D6D"/>
<path d="M60 12.6749V46.2096C60 49.6619 57.1934 52.4705 53.7445 52.4705H6.25547C2.80664 52.4705 0 49.6619 0 46.2096V12.6749C0 9.2227 2.80664 6.41406 6.25547 6.41406H53.7445C57.1934 6.41406 60 9.2227 60 12.6749Z" fill="#494949"/>
<path d="M60.0006 12.6749V46.2096C60.0006 49.6619 57.1939 52.4705 53.7451 52.4705H51.4014C54.8502 52.4705 57.6568 49.6619 57.6568 46.2096V12.6749C57.6568 9.2227 54.8502 6.41406 51.4014 6.41406H53.7451C57.1939 6.41406 60.0006 9.2227 60.0006 12.6749Z" fill="#51421C"/>
<path d="M56.4934 12.53V42.7272C56.4934 44.2603 55.2465 45.5078 53.7137 45.5078H6.28555C4.75273 45.5078 3.50586 44.2603 3.50586 42.7272V12.53C3.50586 10.997 4.75273 9.74951 6.28555 9.74951H53.7137C55.2465 9.74951 56.4934 10.997 56.4934 12.53Z" fill="#F2F2F2"/>
<path d="M56.4945 12.53V42.7272C56.4945 44.2603 55.2477 45.5078 53.7148 45.5078H51.3711C52.9039 45.5078 54.1508 44.2603 54.1508 42.7272V12.53C54.1508 10.997 52.9039 9.74951 51.3711 9.74951H53.7148C55.2477 9.74951 56.4945 10.997 56.4945 12.53Z" fill="#E6E6E6"/>
<path d="M41.5684 58.2446H18.4316C17.9462 58.2446 17.5527 58.6376 17.5527 59.1224C17.5527 59.6072 17.9462 60.0001 18.4316 60.0001H41.5684C42.0538 60.0001 42.4473 59.6072 42.4473 59.1224C42.4473 58.6376 42.0538 58.2446 41.5684 58.2446Z" fill="#494949"/>
<path d="M11.0973 48.1729H7.50684C7.02145 48.1729 6.62793 48.5658 6.62793 49.0506C6.62793 49.5354 7.02145 49.9283 7.50684 49.9283H11.0973C11.5827 49.9283 11.9762 49.5354 11.9762 49.0506C11.9762 48.5658 11.5827 48.1729 11.0973 48.1729Z" fill="#51421C"/>
<path d="M18.1286 48.1729H14.5381C14.0527 48.1729 13.6592 48.5658 13.6592 49.0506C13.6592 49.5354 14.0527 49.9283 14.5381 49.9283H18.1286C18.614 49.9283 19.0075 49.5354 19.0075 49.0506C19.0075 48.5658 18.614 48.1729 18.1286 48.1729Z" fill="#51421C"/>
<path d="M11.1348 36.7183H7.36816C6.88277 36.7183 6.48926 37.1118 6.48926 37.5972C6.48926 38.0826 6.88277 38.4761 7.36816 38.4761H11.1349C11.6203 38.4761 12.0138 38.0826 12.0138 37.5972C12.0138 37.1118 11.6202 36.7183 11.1348 36.7183Z" fill="#6D6D6D"/>
<path d="M6.48926 41.6987C6.48926 42.1841 6.88277 42.5776 7.36816 42.5776H13.4752C13.9605 42.5776 14.3541 42.1841 14.3541 41.6987C14.3541 41.2133 13.9605 40.8198 13.4752 40.8198H7.36816C6.88266 40.8198 6.48926 41.2133 6.48926 41.6987Z" fill="#6D6D6D"/>
<path d="M49.2259 20.1595C49.2259 29.0888 43.1364 36.5976 34.884 38.7579C33.325 39.167 31.6886 39.3838 30.0006 39.3838C19.3828 39.3838 10.7754 30.7767 10.7754 20.1595C10.7755 9.54115 19.3829 0.934082 30.0007 0.934082C31.6887 0.934082 33.3251 1.15088 34.8841 1.55998C43.1364 3.72021 49.2259 11.229 49.2259 20.1595Z" fill="#F2F2F2"/>
<path d="M49.2257 20.1596C49.2257 29.0889 43.1361 36.5977 34.8838 38.7579C42.1432 35.7057 47.2399 28.5275 47.2399 20.1596C47.2399 11.7917 42.1433 4.61232 34.8839 1.56006C43.1361 3.72029 49.2257 11.2291 49.2257 20.1596Z" fill="#E6E6E6"/>
<path d="M30 0C29.5312 0 29.0646 0.0164062 28.604 0.0480469C18.1304 0.766641 9.83008 9.51199 9.83008 20.1596C9.83008 30.8063 18.1304 39.5516 28.604 40.2701C29.0646 40.3017 29.5312 40.3181 30 40.3181C41.1218 40.3181 50.17 31.275 50.17 20.1596C50.17 9.04313 41.1218 0 30 0V0ZM41.7936 6.03891C45.6255 9.24117 48.1398 13.9696 48.3907 19.2806H42.627C42.5051 14.6835 41.429 10.3583 39.5535 6.91336C40.2452 6.68121 40.9168 6.42223 41.5674 6.13863C41.6434 6.1057 41.7186 6.07289 41.7936 6.03891ZM38.618 34.9486C39.1443 35.1162 39.6589 35.2991 40.1607 35.4983C39.0787 36.2156 37.9183 36.8229 36.6933 37.3022C37.3755 36.6247 38.0202 35.8382 38.618 34.9486ZM30.8792 38.5002V33.6874C32.9446 33.7448 34.9421 34.0028 36.8211 34.4505C35.1108 36.797 33.0524 38.2013 30.8792 38.5002ZM37.8269 32.8903C35.6419 32.3183 33.3022 31.9924 30.8792 31.9291V28.2979H29.1209V31.9291C26.6979 31.9924 24.3583 32.3183 22.1733 32.8903C20.3225 29.6505 19.2557 25.4918 19.1315 21.0388H29.121V24.1954H30.8793V21.0388H40.8688C40.7444 25.4918 39.6777 29.6505 37.8269 32.8903ZM19.1314 19.2805C19.2556 14.8275 20.3223 10.6676 22.1732 7.42781C24.3582 8.00098 26.6979 8.32687 29.1208 8.39016V19.2805H19.1314ZM30.8792 19.2805V8.39016C33.3022 8.32687 35.6418 8.00098 37.8269 7.42781C39.6777 10.6676 40.7445 14.8275 40.8687 19.2805H30.8792ZM36.8211 5.8677C34.9421 6.31664 32.9446 6.57445 30.8792 6.6307V1.81805C33.0524 2.11687 35.1108 3.52113 36.8211 5.8677ZM36.6933 3.01711C37.9183 3.49535 39.0788 4.1025 40.1607 4.81992C39.659 5.01914 39.1443 5.20324 38.618 5.36965C38.0202 4.47996 37.3755 3.69457 36.6933 3.01711ZM29.1209 1.81805V6.63082C27.0555 6.57457 25.058 6.31664 23.179 5.86781C24.8893 3.52113 26.9477 2.11687 29.1209 1.81805ZM23.3068 3.01711C22.6245 3.69457 21.9798 4.47996 21.382 5.36965C20.8557 5.20207 20.3411 5.01914 19.8393 4.81992C20.9214 4.1025 22.0818 3.49535 23.3068 3.01711ZM18.2065 6.03891C18.9275 6.36246 19.6752 6.65426 20.4466 6.91336C18.5711 10.3583 17.495 14.6835 17.3731 19.2806H11.6095C11.8602 13.9696 14.3746 9.24117 18.2065 6.03891ZM11.6095 21.0388H17.3732C17.4951 25.6348 18.5712 29.9599 20.4467 33.4049C19.6754 33.6639 18.9275 33.9558 18.2066 34.2805C14.3746 31.077 11.8602 26.3486 11.6095 21.0388ZM19.8394 35.4983C20.3411 35.2991 20.8557 35.1162 21.3821 34.9486C21.9798 35.8383 22.6246 36.6247 23.3069 37.3023C22.0818 36.8229 20.9214 36.2156 19.8394 35.4983ZM23.179 34.4504C25.058 34.0027 27.0555 33.7448 29.1209 33.6873V38.5001C26.9477 38.2012 24.8893 36.797 23.179 34.4504ZM41.7936 34.2793C41.7186 34.2453 41.6447 34.2125 41.5686 34.1797C40.9179 33.896 40.2452 33.637 39.5535 33.405C41.429 29.96 42.5051 25.6349 42.627 21.0389H48.3907C48.1398 26.3486 45.6255 31.077 41.7936 34.2793Z" fill="#FFCF5C"/>
<path d="M50.1705 20.1596C50.1705 31.2751 41.1223 40.3181 30.0005 40.3181C29.5317 40.3181 29.0652 40.3017 28.6045 40.2701C33.6825 39.8879 38.2353 37.6269 41.5691 34.1796C41.6452 34.2124 41.7191 34.2452 41.7941 34.2792C45.626 31.077 48.1404 26.3486 48.3912 21.0387H47.2214C47.2343 20.7479 47.2401 20.4538 47.2401 20.1595C47.2401 19.8653 47.2343 19.5711 47.2214 19.2804H48.3912C48.1404 13.9695 45.626 9.24105 41.7941 6.03867C41.7191 6.07266 41.6441 6.10547 41.5679 6.13828C38.234 2.69121 33.6813 0.430195 28.6045 0.0480469C29.0652 0.0164062 29.5317 0 30.0005 0C41.1223 0 50.1705 9.04313 50.1705 20.1596Z" fill="#DDB450"/>
<path d="M13.4618 13.1796C15.0809 13.1796 16.3934 11.8677 16.3934 10.2492C16.3934 8.63083 15.0809 7.31885 13.4618 7.31885C11.8428 7.31885 10.5303 8.63083 10.5303 10.2492C10.5303 11.8677 11.8428 13.1796 13.4618 13.1796Z" fill="#FF901D"/>
<path d="M30.0008 23.3159C28.3844 23.3159 27.0693 24.6304 27.0693 26.2463C27.0693 27.8621 28.3844 29.1767 30.0008 29.1767C31.6173 29.1767 32.9323 27.8622 32.9323 26.2463C32.9323 24.6304 31.6173 23.3159 30.0008 23.3159Z" fill="#FF901D"/>
<path d="M41.163 16.8515C42.7821 16.8515 44.0946 15.5395 44.0946 13.9211C44.0946 12.3027 42.7821 10.9907 41.163 10.9907C39.5439 10.9907 38.2314 12.3027 38.2314 13.9211C38.2314 15.5395 39.5439 16.8515 41.163 16.8515Z" fill="#FF901D"/>
</g>
<defs>
<clipPath id="clip0">
<rect width="60" height="60" fill="white"/>
</clipPath>
</defs>
</svg>
