<svg width="120" height="94" fill="none" xmlns="http://www.w3.org/2000/svg"><path fill-rule="evenodd" clip-rule="evenodd" d="M42.548 16.958l-21.454 6.27-4.786 18.986c.828 6.975 2.135 13.503 6.447 17.158l35.582 28.919 4.305 3.312c6.482 4.985 12.621-1.982 7.693-7.132a6.538 6.538 0 00-.219-.226c1.663 1.399 3.532 1.796 5.168 1.529 3.6-.583 6.064-4.396 2.751-7.955 6.475 5.17 12.005-3.065 6.933-7.585 5.653 1.783 11.813-5.547 5.94-11.774a2.749 2.749 0 00-.136-.151L76.05 36.392 56.305 23.74l-13.757-6.782z" fill="#FFBC85"/><path fill-rule="evenodd" clip-rule="evenodd" d="M57.804 88.908c5.475-5.836-2.512-12.55-6.927-8.593l-4.729 4.499c-.055.054-.102.103-.157.144-3.97 3.99 3.244 13.084 9.212 6.72l2.6-2.77z" fill="#FFE5C1"/><path fill-rule="evenodd" clip-rule="evenodd" d="M42.63 72.175l-4.997 5.24-.02.027c-2.505 2.66-.767 6.74 2.197 8.332 1.834.987 4.133 1.028 6.18-.816l5.352-.083-.465-4.56.684-.644c5.352-5.089-2.375-13.88-8.405-8.051l-.527.555z" fill="#FFE5C1"/><path fill-rule="evenodd" clip-rule="evenodd" d="M33.705 64.995l-4.681 4.972-.657.706c-4.62 4.903 3.654 12.625 8.425 7.62l.82-.851c.07-.075 5.086-.597 5.634-.658l-.09-5.164 1.602-1.68c5.51-5.781-3.1-13.393-8.343-7.818l-2.71 2.873z" fill="#FFE5C1"/><path fill-rule="evenodd" clip-rule="evenodd" d="M22.755 59.372l-1.588 1.721c-4.887 5.308 2.395 13.77 7.856 8.874l4.483-.693.199-4.279c4.428-5.013-3.292-13.934-9.37-7.337l-1.58 1.714z" fill="#FFE5C1"/><path fill-rule="evenodd" clip-rule="evenodd" d="M29.462 2.063L7.732 22.986l-6.18 5.945c-2.013 1.934-2.075 5.164-.145 7.18l9.22 9.614c.534.556 1.43.576 1.991.041l3.69-3.552 26.24-25.256 3.258-3.141a1.411 1.411 0 00.04-1.995l-9.218-9.615C34.697.191 31.473.13 29.461 2.063z" fill="#FFCF5C"/><path fill-rule="evenodd" clip-rule="evenodd" d="M70.786 38.435l-6.597 1.51 2.587 2.626L86.76 62.444l.137.15c2.41 2.552 2.793 5.281 2.026 7.503 3.95-1.509 6.461-6.892 1.985-11.637l-.137-.151-5.996-5.96-13.989-13.913zM42.548 16.958l-4.202 4.039 13.134 6.48 4.825-3.737-13.757-6.782z" fill="#F5A96C"/><path fill-rule="evenodd" clip-rule="evenodd" d="M56.305 23.74l-4.825 3.737-4.545 3.511c-11.477 8.888-1.957 17.665 4.853 14.655l7.659-4.615 4.742-1.084 6.598-1.508 13.99 13.914 5.995 5.96c3.771-1.413 9.103-5.487 14.859-14.759l-8.75-18.305-20.434-9.79-5.242 4.19c-.862.686-.602.555-1.69.521-3.936-.123-8.94.268-11.875 2.538l-1.335 1.035z" fill="#FFE5C1"/><path fill-rule="evenodd" clip-rule="evenodd" d="M56.284 37.976l-7.658 4.615c-2.088.926-4.435.74-6.352-.22 1.663 3.197 5.962 4.842 9.514 3.272l7.658-4.615 4.743-1.084 6.516-1.488c-3.018-2.585-3.559-2.962-9.684-1.556l-4.737 1.076zm44.582.988c-5.126 8.25-9.91 12.385-13.558 14.195-.41.206-.808.377-1.19.521l4.653 4.63c3.771-1.413 9.103-5.487 14.859-14.759l-4.764-4.587z" fill="#FED1A3"/><path fill-rule="evenodd" clip-rule="evenodd" d="M22.03 9.222c2.011-1.913 5.215-1.838 7.138.165L38.387 19c.534.562.52 1.46-.041 1.995l4.202-4.039 3.258-3.14a1.411 1.411 0 00.041-1.996l-9.22-9.614C34.698.19 31.475.129 29.463 2.063l-7.433 7.16z" fill="#FF901D"/><path fill-rule="evenodd" clip-rule="evenodd" d="M19.558 65.153c.047 4.492 5.29 8.558 9.465 4.814l2.936-3.114 1.745-1.858c1.828-2.07 1.581-4.8.247-6.837a5.139 5.139 0 01-1.315 3.422l-3.106 3.3-1.567 1.673c-3.045 2.722-6.652 1.303-8.404-1.4zm7.666 10.191c1.095 3.675 6.207 6.48 9.568 2.948l.821-.85a.09.09 0 01.02-.027l4.997-5.24c.178-.199.349-.384.527-.555l1.601-1.68c2.97-3.114 1.841-6.762-.657-8.593.452 1.68.09 3.621-1.594 5.383l-1.602 1.68c-.178.172-.349.357-.527.549v.007l-4.996 5.239c-.007.007-.014.014-.027.02l-.815.858c-2.231 2.345-5.229 1.9-7.316.26zm18.923 9.47l3.648-3.463 1.082-1.036.684-.644c2.847-2.71 1.992-6.467-.349-8.51.5 1.79.13 3.812-1.595 5.451l-.677.645-1.93 1.83-2.806 2.675-.158.137c-2.046 1.845-4.346 1.803-6.18.823a6.482 6.482 0 01-1.26-.898c.452 1.625 1.664 3.127 3.203 3.95 1.835.987 4.134 1.028 6.18-.817l.158-.143zm11.656 4.093c2.738-2.92 2.108-6.055.246-7.968-.041 1.296-.588 2.688-1.848 4.025l-2.6 2.778c-3.197 3.401-6.749 2.38-8.748.082.028 4.163 5.585 8.936 10.349 3.854l2.6-2.77z" fill="#FED1A3"/><path d="M84.967 72.047c-.442 0-.885-.161-1.234-.486l-7.296-6.796a1.814 1.814 0 01-.091-2.561 1.81 1.81 0 012.56-.092l7.295 6.796a1.813 1.813 0 01-1.234 3.139zm-6.933 7.584a1.8 1.8 0 01-1.234-.486l-7.302-6.802a1.813 1.813 0 01-.092-2.561 1.81 1.81 0 012.56-.092l7.303 6.803a1.813 1.813 0 01-1.235 3.138zm-7.679 6.666c-.441 0-.884-.16-1.233-.485l-3.716-3.456a1.813 1.813 0 01-.094-2.561 1.81 1.81 0 012.56-.094l3.716 3.456a1.813 1.813 0 01-1.233 3.14z" fill="#F5A96C"/><path fill-rule="evenodd" clip-rule="evenodd" d="M76.446 15.456l24.42 23.508 4.764 4.587 1.752 1.687a1.416 1.416 0 001.991-.04l4.812-5.02 4.408-4.595c1.93-2.016 1.868-5.246-.144-7.18l-4.264-4.101L90.539 1.535c-2.013-1.934-5.236-1.872-7.166.144l-9.22 9.614c-.54.562-.52 1.46.042 1.996l2.251 2.167z" fill="silver"/><path fill-rule="evenodd" clip-rule="evenodd" d="M112.384 22.56v.007-.006zM108.1 34.316l-4.811 5.026a1.411 1.411 0 01-1.992.034l4.332 4.177 1.752 1.687a1.418 1.418 0 001.992-.042l4.812-5.02 4.407-4.594c1.93-2.016 1.869-5.246-.143-7.18l-5.394-5.191.459.446-1.129-1.09c1.985 1.933 2.046 5.15.123 7.152l-4.408 4.595z" fill="#949494"/></svg>