<svg width="364" height="434" fill="none" xmlns="http://www.w3.org/2000/svg"><path d="M186.69 342.974c73.234 0 132.601-59.187 132.601-132.198 0-73.011-59.367-132.198-132.601-132.198-73.234 0-132.602 59.187-132.602 132.198 0 73.011 59.368 132.198 132.602 132.198z" fill="#FFAE37"/><path d="M119.688 348.135l-15.227-12.267s-18.822 29.148-25.826 38.56c-3.107 4.19-10.294 9.109-20.466 13.481l3.533 5.83s25.4.607 26.313 0c.914-.607 1.28-3.097 1.157-5.465-.06-1.761-.121-6.559-.487-9.048 4.447-4.19 12.669-14.453 16.324-17.975 2.863-2.732 14.679-13.116 14.679-13.116z" fill="#25252D"/><path d="M50.434 393.982c0-2.368 1.218-7.347 6.273-7.347 8.832 0 24.852 7.347 24.852 7.347H50.434z" fill="#2F2E3B"/><path d="M221.896 378.012l18.639-40.929-15.045-7.044s-4.142 15.181-5.421 18.885c-4.264 12.388-8.101 24.351-11.207 32.427-2.681 7.045-5.178 10.992-3.046 12.388.914.608 31.064-.243 31.064-.243v-5.829c-6.883-4.129-12.669-7.105-14.984-9.655z" fill="#25252D"/><path d="M244.92 393.982c0-2.368 2.802-5.708-2.131-6.861-6.822-1.579-29.055 6.861-29.055 6.861h31.186zM96.177 153.452l51.165 34.552-4.507 6.68-52.992-35.767c-1.158-.789-1.462-2.308-.67-3.461l.487-.729c1.462-2.125 4.385-2.733 6.517-1.275z" fill="#2F2E3B"/><path d="M143.261 194.865l4.507-6.679 161.291 108.818c.304.183.365.547.182.851-.121.182-.365.303-.548.242l-6.822-.607c-3.411-.303-6.7-1.214-9.806-2.672-1.462-.728-148.804-99.953-148.804-99.953z" fill="#fff"/><path d="M141.433 192.679l-2.924-9.169-9.867.668-2.985-9.352-9.806.729-3.046-9.412-9.806.728-3.046-9.594.548-.182 2.924 9.108 9.807-.668 3.045 9.352 9.807-.668 2.984 9.352 9.868-.668 3.045 9.594-.548.182z" fill="#FFAE37"/><path d="M96.604 153.087c-2.498-1.7-5.848-1.032-7.553 1.457l-.548.851c-.914 1.336-.549 3.097.73 3.947l5.543 3.704c.549.364 1.28.243 1.645-.304l3.898-5.769c.366-.546.244-1.275-.304-1.639l-3.411-2.247zm40.444 46.394l12.791-18.825c.426-.607 1.218-.728 1.766-.364.609.425.731 1.214.366 1.761l-12.791 18.825c-.427.607-1.219.728-1.767.364a1.213 1.213 0 01-.365-1.761z" fill="#2F2E3B"/><path d="M217.145 166.932s-2.375-2.914-7.797-2.975c-6.456-.121-10.598 3.643-16.689 3.643-7.005-3.4-14.74.122-19.491 3.158-6.335 2.976-12.487 9.291-15.532 16.639-3.35 2.915-6.579 5.951-9.563 9.23a2.856 2.856 0 00-.488 2.854l.549 1.457s.487-2.186 1.827-2.307c2.924-.304 8.466 5.04 13.583 13.42 3.35 5.465 15.106 34.856 15.106 34.856l22.841-6.255-.244-.546.244.546 14.801-1.639s4.02-14.756 4.02-43.843c.061-8.988-3.167-28.238-3.167-28.238z" fill="#25252D"/><path d="M209.958 253.647l-27.288-9.655c-29.115 20.768-48.546 52.163-60.85 65.704a63.568 63.568 0 00-6.091 7.895c-7.979 12.145-21.745 33.095-29.785 43.114 6.822 11.902 14.375 15.91 24.486 19.554 9.624-16.76 30.029-54.713 29.968-54.774 7.858-7.409 30.577-27.812 41.846-34.856 28.323-17.489 27.714-36.982 27.714-36.982z" fill="#2F2E3B"/><path d="M182.608 243.993s8.467 19.796 14.01 29.391c9.502 15.302 20.405 19.978 33.135 36.07-3.594 9.23-19.796 36.435-29.481 54.47 9.076 5.83 28.385 2.733 37.156-1.153 1.461-10.202 12.791-33.52 19.186-46.88 2.315-4.979 1.889-10.809-1.096-15.363-9.502-14.392-21.745-42.993-40.749-62.79l-32.161 6.255z" fill="#2F2E3B"/><path d="M176.03 240.288l43.429-10.263-1.218 11.538-40.566 6.133-1.645-7.408z" fill="#CCC"/><path d="M125.154 320.692c2.419-3.388 2.936-7.159 1.155-8.423-1.782-1.264-5.187.457-7.606 3.845-2.419 3.388-2.936 7.16-1.154 8.424 1.781 1.264 5.186-.458 7.605-3.846zm131.675-10.018c.73-4.095-.424-7.723-2.577-8.104-2.153-.382-4.49 2.628-5.219 6.723-.73 4.095.424 7.723 2.577 8.104 2.153.382 4.49-2.629 5.219-6.723z" fill="#464552"/><path d="M191.989 177.681l-2.68 24.776-16.567-18.703-5.97-18.582 19.248-6.072 5.969 18.581z" fill="#fff"/><path d="M169.818 174.645l2.924 9.109 7.857 8.865 8.711 9.838 1.279-6.923-8.589-6.437 4.691-8.865 3.654-7.591-1.705-5.465-18.822 7.469z" fill="#CCC"/><path d="M199.177 219.46c-1.218-1.275-29.42-31.941-31.369-34.735-1.827-2.672-3.411-4.979-.853-7.894l.488.425c-2.132 2.49-1.158 4.251.852 7.166 1.889 2.793 31.004 34.37 31.308 34.673l-.426.365z" fill="#585860"/><path d="M192.72 210.776l-.609-.061c.609-5.343 1.889-31.637 1.828-34.795-.061-2.854-1.401-6.255-4.934-7.105l.122-.607c3.289.789 5.36 3.765 5.421 7.712.061 3.158-1.218 29.512-1.828 34.856zm-19.674 7.712l-.609-.061c.731-6.801-11.025-17.61-14.131-19.736-4.264-2.975-7.553-3.582-9.929-1.821l-.365-.486c3.959-2.915 9.014.668 10.659 1.822 3.289 2.246 15.167 13.116 14.375 20.282zm39.957-11.294c-.061-.243-7.126-24.837-7.979-28.055-1.949-7.773-.548-12.813 4.142-15.424l.304.546c-4.507 2.49-5.725 7.166-3.898 14.756.792 3.219 7.858 27.812 7.918 28.055l-.487.122z" fill="#585860"/><path d="M174.264 104.326c-5.421-1.943-12.06-18.764-2.741-29.391 9.319-10.627 28.993-11.538 38.983 5.647 6.517 11.235 4.385 32.427 16.567 36.617a17.569 17.569 0 007.066 1.093c.365-.06.731.243.792.608 0 .243-.061.486-.244.668-3.411 2.55-9.989 6.133-15.349 5.222-21.319-3.583-17.482-25.504-24.974-32.002-5.481-4.736-11.329.243-10.902 6.133.243 4.069-9.198 5.405-9.198 5.405z" fill="#2F2E3B"/><path d="M205.146 116.531c-4.934-7.894-5.787-14.392-7.918-19.432-.914-2.186-3.899-6.862-8.101-6.254-5.3.728-5.909 6.436-5.909 6.436l-2.68-1.275c-.304-8.198 3.594-12.205 8.284-12.995 6.457-1.093 9.989 4.312 11.695 12.752 1.157 5.891.792 11.052 4.629 20.768z" fill="#24242D"/><path d="M204.658 74.267c1.706 1.518 3.35 3.097 4.873 4.797-10.111-15.667-28.993-14.513-38.069-4.13-9.319 10.628-2.619 27.448 2.741 29.392 0 0 .487-.061 1.279-.243l-3.046-7.834c-5.238-12.327 2.132-23.318 12-26.172 9.867-2.854 16.446 1.032 20.222 4.19z" fill="#464552"/><path d="M173.777 95.824c-1.706-4.98-1.889-10.384-.488-14.938 1.706-5.587 5.787-9.716 11.695-11.963l.183.546c-6.518 2.43-16.081 10.627-10.842 26.112l-.548.243z" fill="#464552"/><path d="M167.746 96.614c-.304 0-.609-.122-.791-.304-2.68-2.429-3.716-7.59-3.472-9.655.061-.668.67-1.154 1.34-1.093.67.06 1.157.668 1.096 1.336-.183 1.579.731 5.83 2.68 7.59.487.425.548 1.215.061 1.7-.244.304-.548.426-.914.426z" fill="#2F2E3B"/><path d="M185.106 98.496c-.609-5.89-18.273-5.587-19.369 0s19.857 4.797 19.369 0z" fill="#FFAE37"/><path d="M150.387 119.203c7.249-7.955 16.081-6.437 16.081-6.437l-1.645-8.016s-8.527-3.4-17.969 3.522c-5.116 3.765-10.476 14.392-6.761 27.812.67 2.49 1.706 6.255 1.706 6.255.487-1.943-.061-13.724 8.588-23.136z" fill="#2F2E3B"/><path d="M144.175 162.986a1.174 1.174 0 01-1.157-.911c-.244-.85-5.665-20.464 4.69-40.686a1.221 1.221 0 011.644-.546c.61.303.853 1.032.549 1.639-9.868 19.371-4.569 38.743-4.508 38.925.183.668-.182 1.336-.852 1.518-.122.061-.244.061-.366.061z" fill="#2F2E3B"/><path d="M146.793 145.558c-.426 0-.852-.243-1.096-.668-1.888-3.765-2.558-17.853 2.741-24.229.426-.486 1.218-.607 1.706-.182.487.425.609 1.214.182 1.7-4.507 5.404-4.02 18.339-2.436 21.557a1.216 1.216 0 01-.548 1.64.99.99 0 01-.549.182z" fill="#2F2E3B"/><path d="M144.296 121.875c-4.812-8.866 8.04-27.387 27.471-22.59 33.135-3.522 41.419 29.816 35.267 41.84-6.7 13.177-14.07 17.732-14.07 17.732l-48.668-36.982z" fill="#2F2E3B"/><path d="M159.585 110.823c-9.745 1.154-16.506 8.988-16.75 24.715 0 .972 1.705 2.004 1.645 3.826-.061 2.429-.853 2.49-.975 4.797a16.744 16.744 0 00.487 5.223c2.741 13.481 12.974 25.747 24.121 26.597 12.547.972 25.826-10.93 28.932-19.614 3.107-8.684 7.127-50.705-37.46-45.544z" fill="#fff"/><path d="M163.239 108.03c-.122 5.526 1.34 15.242 10.233 19.189.792.364 1.706-.911.975-1.518-1.219-1.033-5.665-4.494-4.873-9.777 0 0 4.203 7.833 10.598 10.262.548.183 1.158 0 1.401-.485.183-.365.366-.729.427-1.093 0 0 7.674 2.611 11.938 2.489.67-14.695-4.873-20.707-12.852-25.747-5.604-3.522-14.923-.911-14.923-.911s-2.802.668-2.924 7.591z" fill="#2F2E3B"/><path d="M184.802 97.099c-7.188-1.579-13.583 2.55-13.583 2.55.365-.121-.67.729-.305.668 9.563-2.55 20.527-.728 28.08 8.866 8.71 11.113 8.832 28.298 5.238 37.407 3.472-2.854 5.604-7.105 5.665-11.599.305-30.301-17.542-36.252-25.095-37.892z" fill="#464552"/><path d="M198.325 141.246c3.289-3.218 6.151-4.19 8.344-2.854 2.193 1.336-1.34 11.841-4.081 12.084-2.741.243-5.299-3.218-5.299-3.218l1.036-6.012z" fill="#fff"/><path d="M194.974 147.562c-.122 0-.183 0-.305-.061-.67-.182-1.035-.85-.853-1.457.061-.122 3.472-13.299-2.192-26.537-.244-.607 0-1.336.67-1.579.609-.243 1.34 0 1.583.668 6.03 14.027 2.498 27.569 2.315 28.116-.183.485-.67.85-1.218.85zm-35.693 1.093c-5.421.364-8.284 5.101-15.289.728 2.558 17.368 16.751 25.93 21.014 26.598 12.365 1.822 23.816-5.83 30.455-15.424 1.584-2.308 2.68-5.587 3.229-11.417-15.776 5.648-33.014-.971-39.409-.485zm-15.655-26.841c4.568-.364 15.532-3.582 18.639-13.784-17.299-2.733-18.639 13.784-18.639 13.784z" fill="#2F2E3B"/><path d="M159.463 99.892c-5.665 1.883-15.471 8.745-16.08 21.8 0 .061.183.183.183.183 2.497-12.874 11.633-19.007 17.237-20.89 4.873-1.579 7.675-1.214 10.111-.668.061-.06 1.097-.303 1.097-.364.061-.243-.122-.364.182-.668-2.375-.972-6.639-1.397-12.73.607zm6.152 58.843l-3.228.607 1.157-7.773-4.751 10.809 3.106-.607-1.035 7.773 4.751-10.809z" fill="#464552"/><path d="M166.589 129.041c-.365 1.7.548 3.886.548 3.886s9.99-2.125 13.827-1.943c1.827.061 4.873 1.518 4.873 1.518s-2.802-4.676-5.421-4.919c-3.959-.364-13.827 1.458-13.827 1.458zm19.858 7.226c.67.243-.427 1.518-1.827 1.214a33.28 33.28 0 00-8.467-.728c-3.776.06-8.406 2.307-8.832 2.55-.426.243-.609 0-.305-.364.305-.364 4.508-3.461 9.198-3.887 3.411-.303 6.944.122 10.233 1.215z" fill="#2F2E3B"/><path d="M177.849 142.634c2.084-.069 3.72-1.728 3.654-3.706-.066-1.977-1.809-3.524-3.894-3.455-2.084.069-3.72 1.729-3.654 3.706.066 1.978 1.809 3.525 3.894 3.455z" fill="#2F2E3B"/><path d="M174.325 140.032a.912.912 0 100-1.822.912.912 0 00-.914.911c0 .503.409.911.914.911z" fill="#fff"/><path d="M150.144 149.687c.976 0 1.767-.788 1.767-1.761 0-.973-.791-1.761-1.767-1.761-.975 0-1.766.788-1.766 1.761 0 .973.791 1.761 1.766 1.761zm27.714.607c.976 0 1.767-.788 1.767-1.761 0-.972-.791-1.761-1.767-1.761-.975 0-1.766.789-1.766 1.761 0 .973.791 1.761 1.766 1.761z" fill="#CCC"/><path d="M155.748 128.919c.121 1.336-.061 2.611-.427 3.887 0 0-7.553-1.761-10.415-1.458-1.401.182-3.655 1.701-3.655 1.701s2.132-4.798 4.081-5.101c2.985-.425 10.416.971 10.416.971zm-17.847 6.68c-.731.242.365 1.639 1.827 1.457a33.357 33.357 0 018.527-.364c3.777.303 8.284 2.975 8.771 3.218.488.243.61 0 .305-.364-.305-.365-4.386-4.008-9.076-4.676a24.893 24.893 0 00-10.354.729z" fill="#2F2E3B"/><path d="M154.556 139.921c.157-1.972-1.4-3.705-3.479-3.871-2.079-.165-3.892 1.3-4.05 3.272-.158 1.973 1.4 3.706 3.479 3.871 2.079.165 3.892-1.3 4.05-3.272z" fill="#2F2E3B"/><path d="M147.525 139.849a.912.912 0 00.914-.911.912.912 0 00-.914-.911.912.912 0 00-.914.911c0 .503.409.911.914.911zm6.943-6.679l-.609-.122c.427-1.639.609-3.4.609-5.101h.61c.061 1.761-.183 3.522-.61 5.223z" fill="#fff"/><path d="M207.217 172.823c.853 8.866 4.629 18.643 7.857 19.675 3.228 1.032 3.898-11.659 3.289-15.06-.609-3.4-11.146-4.615-11.146-4.615z" fill="#CCC"/><path d="M207.277 170.698c.427-2.975 3.107-5.101 6.091-4.919 1.949 0 3.899.426 5.604 1.336 3.594 1.701 31.674 16.092 34.354 17.853 3.898 2.551 5.299 6.619 2.497 10.02-2.132 2.611-6.761 3.947-6.761 3.947s-31.247-14.392-38.252-19.371c-2.924-2.125-3.837-6.255-3.533-8.866z" fill="#fff"/><path d="M242.971 183.996c7.188.304 12.426 9.898 9.563 14.513-9.136 3.522-35.267 7.591-35.267 7.591l-.731-5.89 26.435-16.214z" fill="#464552"/><path d="M177.188 245.632l-.061-.243 38.313-11.78-34.902 7.773-.061-.304 38.678-8.623.061.304-40.14 12.327 39.287-5.465.061.303-41.236 5.708z" fill="#2F2E3B"/><path d="M151.849 198.57c-1.644-.425-3.35.547-3.776 2.187-.061.303-.122.607-.122.971.122 2.004 1.097 4.008 1.949 6.316 1.462 3.643 20.527 33.095 22.476 35.524 2.863 3.582 6.091 4.129 10.172 1.518 2.863-1.822 6.03-6.862 6.03-6.862s-23.876-32.427-30.82-37.164c-1.462-1.093-4.629-2.125-5.909-2.49z" fill="#fff"/><path d="M179.869 227.111c-6.031 6.134-1.584 17.368 3.959 18.4 8.527-4.797 28.018-20.343 28.018-20.343l-4.568-7.105-27.409 9.048z" fill="#464552"/><path d="M245.957 243.567l-48.911-41.171 5.238-6.194 47.206 39.714c2.01 1.7 2.253 4.615.548 6.619l-.548.668c-.914 1.154-2.498 1.275-3.533.364z" fill="#2F2E3B"/><path d="M196.741 202.092l5.238-6.194L53.175 70.684c-.243-.243-.67-.182-.852.06-.122.183-.183.426-.122.608l2.436 6.376c1.218 3.158 2.985 6.133 5.238 8.684 1.097 1.214 136.866 115.68 136.866 115.68z" fill="#fff"/><path d="M240.596 237.859l-1.949-9.412-9.867-.304-2.01-9.655-9.807-.303-2.01-9.656-9.867-.303-2.071-9.898.609-.122 1.949 9.412 9.867.365 2.01 9.594 9.868.365 2.01 9.594 9.806.364 2.071 9.838-.609.121z" fill="#FFAE37"/><path d="M249.733 235.491a5.384 5.384 0 01.67 7.591l-.67.789c-1.036 1.215-2.802 1.336-4.02.365l-5.117-4.312a1.156 1.156 0 01-.121-1.64l4.507-5.283a1.165 1.165 0 011.645-.121l3.106 2.611zm-57.682-27.873l14.68-17.367a1.338 1.338 0 011.827-.182c.548.486.609 1.275.122 1.822L194 209.258a1.337 1.337 0 01-1.827.182c-.548-.425-.609-1.275-.122-1.822z" fill="#2F2E3B"/><path d="M214.953 213.934a35.244 35.244 0 016.578-4.554l6.7 6.072-7.918 4.858-8.466 4.737-4.569-7.105 7.675-4.008zm-2.924-12.267c-3.898.547-11.451 5.587-11.451 5.587l8.284 6.619 6.639-6.194 2.497-1.579-1.461-5.89-4.508 1.457z" fill="#fff"/><path d="M205.39 198.874l4.202 3.583 2.437-.79-5.36-3.157-1.279.364zm9.563 15.06l2.923-4.555-1.279-1.093-5.299 6.68-.67 1.275 4.325-2.307z" fill="#fff"/><g filter="url(#filter0_d)"><ellipse cx="62.306" cy="248.935" rx="17.216" ry="17.196" fill="#fff"/></g><g filter="url(#filter1_d)"><ellipse cx="62.306" cy="248.936" rx="11.477" ry="11.464" fill="#1C1C1C"/></g><path d="M63.54 254.335h-2.464l-.462-9.9h3.366l-.44 9.9zm.022 4.466c-.352.352-.77.528-1.254.528s-.902-.176-1.254-.528a1.724 1.724 0 01-.506-1.232c0-.484.168-.902.506-1.254.352-.352.77-.528 1.254-.528s.902.176 1.254.528c.352.352.528.77.528 1.254 0 .47-.176.88-.528 1.232z" fill="#fff"/><defs><filter id="filter0_d" x="41.09" y="231.739" width="42.432" height="42.392" filterUnits="userSpaceOnUse" color-interpolation-filters="sRGB"><feFlood flood-opacity="0" result="BackgroundImageFix"/><feColorMatrix in="SourceAlpha" values="0 0 0 0 0 0 0 0 0 0 0 0 0 0 0 0 0 0 127 0"/><feOffset dy="4"/><feGaussianBlur stdDeviation="2"/><feColorMatrix values="0 0 0 0 0.479167 0 0 0 0 0.479167 0 0 0 0 0.479167 0 0 0 0.25 0"/><feBlend in2="BackgroundImageFix" result="effect1_dropShadow"/><feBlend in="SourceGraphic" in2="effect1_dropShadow" result="shape"/></filter><filter id="filter1_d" x="46.828" y="237.472" width="30.955" height="30.928" filterUnits="userSpaceOnUse" color-interpolation-filters="sRGB"><feFlood flood-opacity="0" result="BackgroundImageFix"/><feColorMatrix in="SourceAlpha" values="0 0 0 0 0 0 0 0 0 0 0 0 0 0 0 0 0 0 127 0"/><feOffset dy="4"/><feGaussianBlur stdDeviation="2"/><feColorMatrix values="0 0 0 0 0.479167 0 0 0 0 0.479167 0 0 0 0 0.479167 0 0 0 0.25 0"/><feBlend in2="BackgroundImageFix" result="effect1_dropShadow"/><feBlend in="SourceGraphic" in2="effect1_dropShadow" result="shape"/></filter></defs></svg>