<svg width="60" height="60" fill="none" xmlns="http://www.w3.org/2000/svg"><g clip-path="url(#clip0)"><path d="M37.02 59.122H22.98l2.307-7.53h9.426l2.307 7.53z" fill="#6D6D6D"/><path d="M60 12.675V46.21c0 3.452-2.807 6.26-6.255 6.26H6.255C2.807 52.47 0 49.663 0 46.21V12.675c0-3.452 2.807-6.26 6.255-6.26h47.49c3.448 0 6.255 2.808 6.255 6.26z" fill="#494949"/><path d="M60 12.675V46.21c0 3.452-2.806 6.26-6.255 6.26h-2.344a6.265 6.265 0 006.256-6.26V12.675c0-3.452-2.807-6.26-6.256-6.26h2.344c3.449 0 6.256 2.808 6.256 6.26z" fill="#51421C"/><path d="M56.493 12.53v30.197a2.783 2.783 0 01-2.78 2.78H6.287a2.783 2.783 0 01-2.78-2.78V12.53a2.783 2.783 0 012.78-2.78h47.428a2.783 2.783 0 012.78 2.78z" fill="#F2F2F2"/><path d="M56.495 12.53v30.197a2.783 2.783 0 01-2.78 2.78H51.37a2.783 2.783 0 002.78-2.78V12.53a2.783 2.783 0 00-2.78-2.78h2.344a2.783 2.783 0 012.78 2.78z" fill="#E6E6E6"/><path d="M41.568 58.245H18.432a.878.878 0 100 1.755h23.136a.878.878 0 100-1.755z" fill="#494949"/><path d="M11.097 48.173h-3.59a.878.878 0 100 1.755h3.59a.878.878 0 100-1.755zm7.032 0h-3.59a.878.878 0 100 1.755h3.59a.878.878 0 100-1.755z" fill="#51421C"/><path d="M11.135 36.718H7.368a.879.879 0 000 1.758h3.767a.879.879 0 100-1.758zM6.49 41.699c0 .485.393.879.878.879h6.107a.879.879 0 000-1.758H7.368a.879.879 0 00-.879.879z" fill="#6D6D6D"/><path d="M49.226 20.16c0 8.929-6.09 16.438-14.342 18.598a19.216 19.216 0 01-4.883.626c-10.618 0-19.226-8.607-19.226-19.224C10.775 9.54 19.383.934 30.001.934c1.688 0 3.324.217 4.883.626 8.252 2.16 14.342 9.669 14.342 18.6z" fill="#F2F2F2"/><path d="M49.226 20.16c0 8.929-6.09 16.438-14.342 18.598 7.26-3.052 12.356-10.23 12.356-18.598 0-8.368-5.097-15.548-12.356-18.6 8.252 2.16 14.342 9.67 14.342 18.6z" fill="#E6E6E6"/><path d="M30 0c-.469 0-.935.016-1.396.048C18.13.767 9.83 9.512 9.83 20.16c0 10.646 8.3 19.392 18.774 20.11.46.032.927.048 1.396.048 11.122 0 20.17-9.043 20.17-20.158C50.17 9.043 41.122 0 30 0zm11.794 6.039c3.832 3.202 6.346 7.93 6.597 13.242h-5.764c-.122-4.597-1.198-8.923-3.074-12.368a24.733 24.733 0 002.24-.874zm-3.176 28.91c.526.167 1.04.35 1.543.55a18.427 18.427 0 01-3.468 1.803 15.463 15.463 0 001.925-2.353zM30.879 38.5v-4.813c2.066.058 4.063.316 5.942.764-1.71 2.346-3.769 3.75-5.942 4.05zm6.948-5.61a30.655 30.655 0 00-6.948-.96v-3.632h-1.758v3.631c-2.423.063-4.763.39-6.948.961-1.85-3.24-2.917-7.398-3.041-11.851h9.989v3.156h1.758V21.04h9.99c-.125 4.453-1.191 8.611-3.042 11.851zM19.13 19.28c.125-4.453 1.191-8.612 3.042-11.852 2.185.573 4.525.899 6.948.962v10.89h-9.99zm11.748 0V8.39a30.59 30.59 0 006.948-.962c1.85 3.24 2.918 7.4 3.042 11.852h-9.99zM36.82 5.868a29.019 29.019 0 01-5.942.763V1.818c2.173.299 4.232 1.703 5.942 4.05zm-.128-2.85A18.35 18.35 0 0140.16 4.82c-.502.2-1.017.383-1.543.55a15.446 15.446 0 00-1.925-2.353zm-7.572-1.2v4.813a29.026 29.026 0 01-5.942-.763c1.71-2.347 3.769-3.751 5.942-4.05zm-5.814 1.2a15.44 15.44 0 00-1.925 2.352c-.526-.168-1.04-.35-1.543-.55a18.357 18.357 0 013.468-1.803zm-5.1 3.02a24.61 24.61 0 002.24.875c-1.876 3.445-2.952 7.77-3.074 12.368H11.61c.251-5.311 2.766-10.04 6.597-13.242zm-6.598 15h5.764c.122 4.597 1.198 8.922 3.074 12.367-.772.259-1.52.55-2.24.876-3.832-3.204-6.347-7.932-6.598-13.242zm8.23 14.46a24.013 24.013 0 011.543-.55c.598.89 1.243 1.677 1.925 2.354a18.43 18.43 0 01-3.468-1.804zm3.34-1.048a29.192 29.192 0 015.942-.763V38.5c-2.173-.299-4.232-1.703-5.942-4.05zm18.615-.17a24.683 24.683 0 00-2.24-.874c1.875-3.446 2.951-7.771 3.073-12.367h5.764c-.251 5.31-2.765 10.038-6.597 13.24z" fill="#FFCF5C"/><path d="M50.17 20.16c0 11.115-9.048 20.158-20.17 20.158-.468 0-.935-.016-1.395-.048a20.108 20.108 0 0012.964-6.09c.076.032.15.065.225.1 3.832-3.203 6.346-7.931 6.597-13.241h-1.17a19.875 19.875 0 000-1.759h1.17c-.25-5.31-2.765-10.039-6.597-13.241l-.226.1A20.108 20.108 0 0028.605.047C29.065.016 29.532 0 30 0c11.122 0 20.17 9.043 20.17 20.16z" fill="#DDB450"/><path d="M13.462 13.18a2.93 2.93 0 10.001-5.862 2.93 2.93 0 00-.001 5.862zM30 23.316a2.934 2.934 0 00-2.93 2.93 2.934 2.934 0 002.93 2.93 2.934 2.934 0 002.932-2.93 2.934 2.934 0 00-2.931-2.93zm11.163-6.464a2.931 2.931 0 10.001-5.862 2.931 2.931 0 00-.001 5.862z" fill="#FF901D"/></g><defs><clipPath id="clip0"><path fill="#fff" d="M0 0h60v60H0z"/></clipPath></defs></svg>