<svg width="60" height="60" fill="none" xmlns="http://www.w3.org/2000/svg"><g clip-path="url(#clip0)"><path d="M38.761 18.226a.905.905 0 01-.583-1.599L52.91 4.284a.905.905 0 011.165 1.387l-14.73 12.343a.902.902 0 01-.583.212z" fill="#E6E6E6"/><path d="M37.268 18.226a.902.902 0 01-.367-.079l-12.8-5.562a.906.906 0 01.736-1.655l12.799 5.562a.905.905 0 01-.368 1.733z" fill="#E6E6E6"/><path d="M6.579 25.158a.904.904 0 01-.605-1.58l13.291-12.054a.906.906 0 011.209 1.349L7.182 24.927a.902.902 0 01-.603.231z" fill="#E8E8E8"/><path d="M10.952 38.807V56.62c0 .899-.73 1.628-1.627 1.628H1.627C.728 58.248 0 57.518 0 56.62V38.807c0-1.03.835-1.867 1.868-1.867h7.217c1.03 0 1.867.837 1.867 1.867z" fill="#FFCF5C"/><path d="M9.085 36.94h-3.06c1.03 0 1.867.836 1.867 1.868v17.657c0 .777-.465 1.48-1.18 1.782h2.614c.898 0 1.626-.728 1.626-1.626V38.808a1.867 1.867 0 00-1.867-1.868z" fill="#E3B340"/><path d="M27.302 26.711v29.91c0 .898-.73 1.627-1.628 1.627h-7.698a1.627 1.627 0 01-1.626-1.627V26.71c0-1.03.835-1.867 1.866-1.867h7.218c1.031 0 1.868.836 1.868 1.867z" fill="#FFCF5C"/><path d="M25.433 24.844h-3.06c1.03 0 1.866.836 1.866 1.867v29.7c0 .827-.523 1.563-1.304 1.836h2.738c.899 0 1.627-.728 1.627-1.627V26.71a1.867 1.867 0 00-1.867-1.866z" fill="#FF901D"/><path d="M43.65 34.138v22.483c0 .898-.729 1.627-1.627 1.627h-7.698c-.899 0-1.628-.73-1.628-1.627V34.138c0-1.032.837-1.867 1.868-1.867h7.218c1.031 0 1.866.835 1.866 1.867z" fill="#FFCF5C"/><path d="M41.783 32.27h-3.061c1.03 0 1.867.836 1.867 1.868v22.43c0 .76-.483 1.434-1.202 1.68h2.636c.898 0 1.627-.73 1.627-1.627V34.138a1.867 1.867 0 00-1.867-1.867z" fill="#E3B340"/><path d="M60.001 18.195v38.426c0 .898-.728 1.627-1.627 1.627h-7.698c-.898 0-1.627-.73-1.627-1.627V18.195c0-1.032.836-1.867 1.867-1.867h7.217c1.032 0 1.868.835 1.868 1.867z" fill="#FFCF5C"/><path d="M58.132 16.328h-3.06c1.03 0 1.866.835 1.866 1.867v38.214c0 .848-.556 1.595-1.368 1.838h2.802c.899 0 1.627-.728 1.627-1.627V18.196a1.867 1.867 0 00-1.867-1.867zm-36.306-2.033a3.759 3.759 0 100-7.518 3.759 3.759 0 000 7.518z" fill="#FF901D"/><path d="M21.824 6.777c-.545 0-1.063.117-1.53.326a3.758 3.758 0 010 6.866 3.759 3.759 0 101.53-7.191z" fill="#EB7700"/><path d="M38.175 20.12a2.32 2.32 0 100-4.64 2.32 2.32 0 000 4.64z" fill="#0C0C0C"/><path d="M54.523 6.392a2.32 2.32 0 100-4.64 2.32 2.32 0 000 4.64z" fill="#FF901D"/><path d="M5.476 27.494a2.32 2.32 0 100-4.64 2.32 2.32 0 000 4.64z" fill="#0C0C0C"/><path d="M21.451 52v6.248h-1.81v-6.247a.906.906 0 011.81 0z" fill="#FF901D"/><path d="M5.091 52v6.248h-1.81v-6.247a.906.906 0 011.81 0z" fill="#E3B340"/><path d="M54.143 52v6.248h-1.811v-6.247a.906.906 0 011.81 0z" fill="#FF901D"/><path d="M37.78 52v6.248h-1.811v-6.247a.906.906 0 011.81 0z" fill="#E3B340"/></g><defs><clipPath id="clip0"><path fill="#fff" d="M0 0h60v60H0z"/></clipPath></defs></svg>