<svg width="60" height="60" fill="none" xmlns="http://www.w3.org/2000/svg"><path d="M20.625 58.125v-19.68a5.624 5.624 0 014.62-5.535l10.38-1.972h7.5l10.38 1.972a5.626 5.626 0 014.62 5.534v19.681h-37.5z" fill="#F2C351"/><path d="M29.4 54.705c9.76 0 17.673-7.913 17.673-17.674 0-1.926-.319-3.776-.889-5.512l-3.059-.581h-7.5l-10.38 1.972a5.626 5.626 0 00-4.62 5.534V52.36a17.575 17.575 0 008.774 2.346z" fill="#F7D881"/><path d="M14.063 44.063H3.75a1.875 1.875 0 01-1.875-1.876V29.063c0-1.036.84-1.875 1.875-1.875h24.375c1.036 0 1.875.839 1.875 1.875v13.125c0 1.035-.84 1.874-1.875 1.874H17.812" fill="#758190"/><path d="M25.243 27.188H3.75a1.874 1.874 0 00-1.875 1.875v13.125c0 1.035.84 1.874 1.875 1.874h13.394a25.333 25.333 0 008.1-16.874z" fill="#8892A0"/><path d="M48.75 44.063V32.006l3.75.713v11.344h-3.75z" fill="#E39854"/><path d="M35.625 27.188V30a3.75 3.75 0 007.5 0v-2.813" fill="#FADFB2"/><path d="M30.938 14.063v5.624a8.437 8.437 0 008.437 8.438 8.437 8.437 0 008.438-8.438v-5.625l-1.876-3.75-1.5 1.126a8.44 8.44 0 01-10.124 0l-1.5-1.126-1.876 3.75z" fill="#FADFB2"/><path d="M32.667 4.8l1.624-1.222a8.523 8.523 0 018.64-.937l2.616 1.192A6.637 6.637 0 0148.89 12.5L47.812 15v-.938l-1.875-3.75-1.5 1.126a8.44 8.44 0 01-10.125 0l-1.5-1.126-1.875 3.75V15l-1.609-3.218A4.901 4.901 0 0132.667 4.8z" fill="#976947"/><path d="M30.938 15H30a1.875 1.875 0 100 3.75h.938M47.813 15h.937a1.875 1.875 0 110 3.75h-.938" fill="#FADFB2"/><path d="M26.25 52.5v-8.438H52.5V52.5" fill="#C16B3F"/><path d="M1.875 52.5H52.5v5.625H1.875V52.5z" fill="#272727"/><path d="M1.875 52.5H52.5v2.813H1.875V52.5z" fill="#A8B0BC"/><path d="M14.063 52.5V35.625h3.75V52.5" fill="#D5CEC2"/><path d="M26.25 44.063V52.5h11.693a17.736 17.736 0 007.668-8.438H26.25z" fill="#FF901D"/><path d="M14.063 46.503a25.481 25.481 0 003.75-3.078v-7.8h-3.75v10.878z" fill="#E7E4DD"/></svg>