<svg width="60" height="60" fill="none" xmlns="http://www.w3.org/2000/svg"><g clip-path="url(#clip0)"><path d="M30 60c16.569 0 30-13.431 30-30C60 13.431 46.569 0 30 0 13.431 0 0 13.431 0 30c0 16.569 13.431 30 30 30z" fill="#FFCF5C"/><path d="M30 52.5C17.625 52.5 7.5 42.375 7.5 30S17.625 7.5 30 7.5 52.5 17.625 52.5 30 42.375 52.5 30 52.5z" fill="#F2F2F2"/><path d="M30 45c-8.25 0-15-6.75-15-15s6.75-15 15-15 15 6.75 15 15-6.75 15-15 15z" fill="#E3B340"/><path d="M30 37.5c-4.125 0-7.5-3.375-7.5-7.5s3.375-7.5 7.5-7.5 7.5 3.375 7.5 7.5-3.375 7.5-7.5 7.5z" fill="#CDD6E0"/><path d="M30 37.5c-4.125 0-7.5-3.375-7.5-7.5s3.375-7.5 7.5-7.5 7.5 3.375 7.5 7.5-3.375 7.5-7.5 7.5z" fill="#FFD15C"/><path opacity=".2" d="M59.75 33.75c-.5 3.75-1.625 7.25-3.374 10.5l-1.626-.625-2.124-4.5L30.126 31c-1-.375-1.5-1.5-1.126-2.5.375-1 1.5-1.5 2.5-1.125L54 35.5l4.5-2.125 1.25.375z" fill="#334A5E"/><path d="M50.501 12.125L32.126 30.5c-.75.75-2 .75-2.75 0s-.75-2 0-2.75l18.5-18.25c.75-.75 2-.75 2.75 0 .625.75.625 1.875-.125 2.625z" fill="#40596B"/><path d="M52.25 7.75l-5.875 5.875v-7.75L52.25 0v7.75z" fill="#474747"/><path d="M54.125 13.625L60 7.75h-7.75l-5.875 5.875h7.75z" fill="#000"/></g><defs><clipPath id="clip0"><path fill="#fff" d="M0 0h60v60H0z"/></clipPath></defs></svg>