<svg width="60" height="60" fill="none" xmlns="http://www.w3.org/2000/svg"><path d="M42.188 47.813h13.124a1.875 1.875 0 011.876 1.874v1.876a1.875 1.875 0 01-1.876 1.874H31.66c-.477 0-18.995-3.75-19.473-3.75H2.813V32.814h14.062c4.688 0 14.063 8.437 14.063 8.437l9.375 2.813s1.874.937 1.874 1.874v1.876a1.875 1.875 0 01-1.874 1.874l-9.376-1.874-6.562-3.75" fill="#FBDAC1"/><path d="M40.313 49.688l-9.376-1.876-6.562-3.75-5.625-.937V45l5.625.938 6.563 2.812 9.375 1.875a1.875 1.875 0 001.874-1.875v-.938a1.875 1.875 0 01-1.874 1.876z" fill="#EFBFA7"/><path d="M2.813 30.938h5.624v20.625H2.814V30.936z" fill="#8892A0"/><path d="M4 46h4v4H4v-4z" fill="#1A1A1A"/><path d="M37.806 30l-4.056-2.242L29.694 30l.775-4.749-3.282-3.363 4.535-.693 2.028-4.32 2.028 4.32 4.535.693-3.282 3.363.775 4.749zm-15-8.437L18.75 19.32l-4.056 2.241.775-4.748-3.281-3.363 4.534-.693 2.028-4.32 2.028 4.32 4.535.693-3.282 3.363.775 4.748zm30 16.875l-4.056-2.242-4.056 2.242.775-4.75-3.282-3.362 4.535-.693 2.028-4.32 2.028 4.32 4.535.693-3.282 3.363.775 4.748z" fill="#FFCF5C"/></svg>