<svg width="134" height="25" viewBox="0 0 134 25" fill="none" xmlns="http://www.w3.org/2000/svg">
<path d="M115.497 3.14324L113.548 5.09229L115.497 7.04133L117.446 5.09229L115.497 3.14324Z" fill="black"/>
<path fill-rule="evenodd" clip-rule="evenodd" d="M11.5984 0C16.1369 0 19.8273 3.66749 19.8273 8.206C19.8273 12.7445 16.1369 16.4349 11.5984 16.4349H5.61584L0 24.4576V0H11.5984Z" fill="#FFCF5C"/>
<path d="M133.611 18.6126H130.563L127.331 13.8678V18.6126H124.649V13.8678L121.417 18.6126H118.391L122.196 13.2489L118.597 8.04565H121.646L124.649 12.63V8.04565H127.331V12.63L130.333 8.04565H133.405L129.783 13.2489L133.611 18.6126Z" fill="black"/>
<path d="M114.128 18.6126V8.04565H116.855V18.6126H114.128Z" fill="black"/>
<path d="M112.684 8.04565V10.6587H109.383V18.6126H106.655V10.6587H103.309V8.04565H112.684Z" fill="black"/>
<path d="M93.9667 15.4969C94.5325 16.0447 95.2632 16.3186 96.1354 16.3186C96.9841 16.3186 97.7148 16.0447 98.2806 15.4969C98.8699 14.9491 99.1528 14.2187 99.1528 13.3513C99.1528 12.484 98.8699 11.7764 98.2806 11.2286C97.7148 10.658 96.9841 10.3841 96.1354 10.3841C95.2632 10.3841 94.5325 10.658 93.9667 11.2286C93.401 11.7764 93.1181 12.484 93.1181 13.3513C93.1181 14.2187 93.401 14.9491 93.9667 15.4969ZM99.1528 8.10165H101.958V18.6239H99.1528V17.3685C98.3041 18.3956 97.1255 18.9206 95.5933 18.9206C94.1553 18.9206 92.906 18.3728 91.8688 17.3C90.8316 16.2273 90.313 14.9034 90.313 13.3513C90.313 11.7993 90.8316 10.4754 91.8688 9.40266C92.906 8.3299 94.1553 7.80493 95.5933 7.80493C97.1255 7.80493 98.3041 8.30708 99.1528 9.33419V8.10165Z" fill="black"/>
<path d="M88.6613 8.04565V18.6126H85.9336V10.6587H82.9997V14.1887C82.9997 17.4665 81.5327 18.9335 78.5528 18.6126V16.0454C79.1029 16.1829 79.5385 16.0912 79.8364 15.7703C80.1344 15.4265 80.272 14.8534 80.272 14.0512V8.04565H88.6613Z" fill="black"/>
<path d="M77.086 8.04565V18.6126H74.3584V10.59H70.1637V18.6126H67.436V8.04565H77.086Z" fill="black"/>
<path d="M61.1324 18.6126H58.0609L54.8289 13.8678V18.6126H52.17V13.8678L48.938 18.6126H45.8894L49.6945 13.2489L46.0957 8.04565H49.1443L52.17 12.63V8.04565H54.8289V12.63L57.8546 8.04565H60.9261L57.3045 13.2489L61.1324 18.6126Z" fill="black"/>
<path d="M41.6489 18.6126V8.04565H44.3766V18.6126H41.6489Z" fill="black"/>
<path d="M34.8181 11.0253C35.437 11.0253 35.9642 10.7961 36.3539 10.3835C36.7665 9.94797 36.9728 9.42077 36.9728 8.77896C36.9728 8.13715 36.7665 7.58703 36.3539 7.17443C35.9642 6.76184 35.437 6.53262 34.8181 6.53262H32.228V11.0253H34.8181ZM34.8181 3.80493C36.2393 3.80493 37.4312 4.28629 38.4168 5.249C39.3796 6.21172 39.8609 7.38073 39.8609 8.77896C39.8609 10.1772 39.3796 11.3462 38.4168 12.3089C37.4312 13.2716 36.2393 13.753 34.8181 13.753H32.228V18.6124H29.294V3.80493H34.8181Z" fill="black"/>
<path fill-rule="evenodd" clip-rule="evenodd" d="M9.00813 7.12868H12.1255L5.6157 16.4349L9.00813 7.12868ZM8.20586 9.28333H5.0885L11.5983 0L8.20586 9.28333Z" fill="black"/>
<path d="M43.0064 3.14324L41.0573 5.09229L43.0064 7.04133L44.9554 5.09229L43.0064 3.14324Z" fill="black"/>
</svg>
