<svg width="32" height="32" viewBox="0 0 32 32" fill="none" xmlns="http://www.w3.org/2000/svg">
<path d="M20.7685 8.51343H11.2311C9.70874 8.51343 8.47021 9.75196 8.47021 11.2743V20.8117C8.47021 22.3341 9.70874 23.5729 11.2311 23.5729H20.7685C22.2908 23.5729 23.5297 22.3344 23.5297 20.8117V11.2743C23.5297 9.75196 22.2912 8.51343 20.7685 8.51343ZM15.9998 21.0007C13.2664 21.0007 11.0425 18.7768 11.0425 16.043C11.0425 13.3096 13.2664 11.0857 15.9998 11.0857C18.7335 11.0857 20.9575 13.3096 20.9575 16.043C20.9575 18.7764 18.7332 21.0007 15.9998 21.0007ZM21.1168 12.1107C20.4698 12.1107 19.9436 11.5844 19.9436 10.9377C19.9436 10.291 20.4698 9.76479 21.1168 9.76479C21.7636 9.76479 22.2898 10.291 22.2898 10.9377C22.2898 11.5844 21.7636 12.1107 21.1168 12.1107Z" fill="#E3B340"/>
<path d="M15.9998 13.1809C14.4218 13.1809 13.137 14.4651 13.137 16.043C13.137 17.6216 14.4218 18.9062 15.9998 18.9062C17.5784 18.9062 18.8622 17.6216 18.8622 16.043C18.8622 14.4654 17.5781 13.1809 15.9998 13.1809Z" fill="#E3B340"/>
<path d="M16 0C7.1638 0 0 7.1638 0 16C0 24.8362 7.1638 32 16 32C24.8362 32 32 24.8362 32 16C32 7.1638 24.8362 0 16 0ZM25.6245 20.8119C25.6245 23.4896 23.4465 25.6676 20.7687 25.6676H11.2313C8.55384 25.6676 6.37554 23.4896 6.37554 20.8119V11.2744C6.37554 8.59698 8.55384 6.41868 11.2313 6.41868H20.7687C23.4465 6.41868 25.6245 8.59698 25.6245 11.2744V20.8119Z" fill="#E3B340"/>
</svg>
