<svg width="32" height="32" viewBox="0 0 32 32" fill="none" xmlns="http://www.w3.org/2000/svg">
<g clip-path="url(#clip0)">
<path d="M16.0008 31.9997C24.8373 31.9997 32.0007 24.8363 32.0007 15.9999C32.0007 7.16338 24.8373 0 16.0008 0C7.16436 0 0.000976562 7.16338 0.000976562 15.9999C0.000976562 24.8363 7.16436 31.9997 16.0008 31.9997Z" fill="#E3B340"/>
<path d="M16.593 10.8473V6.55029H13.8193C13.7568 6.70716 13.726 6.89854 13.726 7.08963C13.6969 7.18289 13.6627 7.25049 13.6627 7.34347C13.3783 8.93695 12.5507 10.0484 11.1488 10.6556C10.7327 10.8476 10.3508 10.8767 9.93896 10.8476V14.3118H11.9771C12.0102 19.1866 12.0102 21.6996 12.0102 21.8274V22.1163C12.266 24.2432 13.3781 25.5178 15.352 25.9969C16.1463 26.2171 17.0045 26.3152 17.8659 26.3152C18.9782 26.281 20.0609 26.0902 21.1438 25.7428V21.666C20.5112 21.8571 19.9342 22.0179 19.4251 22.1754C18.4394 22.4634 17.6118 22.2726 16.9401 21.636C16.8768 21.5388 16.7829 21.4107 16.7498 21.2832C16.656 20.7744 16.5964 20.2342 16.5964 19.7257V14.3115H21.0163V10.8473H16.593Z" fill="black"/>
</g>
<defs>
<clipPath id="clip0">
<rect width="32" height="32" fill="black"/>
</clipPath>
</defs>
</svg>
