<svg width="80" height="80" viewBox="0 0 80 80" fill="none" xmlns="http://www.w3.org/2000/svg">
<path d="M69.0637 44.64C68.9242 47.9748 68.126 51.249 66.715 54.2737C65.3041 57.2985 63.3083 60.014 60.8427 62.2637C58.3772 64.5134 55.4907 66.2528 52.3497 67.3815C49.2087 68.5103 45.8753 69.006 42.5417 68.8403C39.2082 68.6745 35.9404 67.8504 32.9269 66.4156C29.9134 64.9808 27.2137 62.9636 24.9835 60.4804C22.7533 57.9972 21.0368 55.097 19.9329 51.9472C18.829 48.7974 18.3596 45.4602 18.5517 42.128C19.0717 31.672 24.4717 22.552 33.8557 20.912C37.0557 20.352 40.0157 22.632 44.7437 22.896C48.6157 23.112 52.2877 20.016 55.7517 21.096C67.0797 24.632 69.5997 34.56 69.0637 44.64Z" fill="#FFCF5C"/>
<path d="M55.752 21.096C53.192 20.296 50.52 21.776 47.752 22.52C61.8 22.184 66.008 36.024 63.304 46.52C60.44 57.64 46.792 65.72 32.224 59.016C28.928 57.496 31.704 63.872 28.168 63.184C31.8065 66.0594 36.1662 67.8778 40.7695 68.44C45.3728 69.0022 50.042 68.2866 54.2656 66.3714C58.4892 64.4563 62.1041 61.4155 64.7144 57.5824C67.3246 53.7493 68.8294 49.2716 69.064 44.64C69.6 34.56 67.08 24.632 55.752 21.096Z" fill="#B88816" fill-opacity="0.4"/>
<path d="M54.3035 17.352C50.4875 24.608 42.7515 27.096 42.7515 27.096C41.3351 22.3053 41.8016 17.1544 44.0555 12.696C47.8715 5.41603 56.4235 3.72803 56.4235 3.72803C57.3304 8.37757 56.5803 13.1979 54.3035 17.352Z" fill="black"/>
<path d="M22.6715 73.8961C30.2577 73.8961 36.4075 67.7463 36.4075 60.1601C36.4075 52.5739 30.2577 46.4241 22.6715 46.4241C15.0854 46.4241 8.93555 52.5739 8.93555 60.1601C8.93555 67.7463 15.0854 73.8961 22.6715 73.8961Z" fill="white"/>
<path d="M22.6721 75.0961C19.4734 75.0934 16.3601 74.0646 13.7897 72.1608C11.2193 70.257 9.32765 67.5788 8.39278 64.5198C7.4579 61.4609 7.52918 58.1827 8.59612 55.1673C9.66307 52.1518 11.6694 49.5583 14.3201 47.768C14.4508 47.6798 14.5977 47.6182 14.7524 47.5867C14.907 47.5552 15.0663 47.5545 15.2212 47.5846C15.376 47.6147 15.5235 47.675 15.6551 47.762C15.7867 47.8491 15.8998 47.9613 15.9881 48.092C16.0763 48.2228 16.1379 48.3697 16.1694 48.5243C16.2009 48.679 16.2016 48.8383 16.1715 48.9931C16.1414 49.148 16.0811 49.2955 15.9941 49.4271C15.907 49.5587 15.7948 49.6718 15.6641 49.76C13.2335 51.3987 11.4535 53.8369 10.6333 56.6512C9.8131 59.4655 10.0044 62.4782 11.1741 65.1661C12.3437 67.8541 14.4178 70.0475 17.0361 71.3655C19.6545 72.6836 22.6518 73.043 25.5075 72.3814C28.3633 71.7197 30.8971 70.0788 32.6691 67.7436C34.4411 65.4084 35.3392 62.5264 35.2076 59.5979C35.076 56.6695 33.923 53.8796 31.9487 51.7127C29.9744 49.5459 27.3036 48.1389 24.4001 47.736C24.2425 47.714 24.0908 47.6611 23.9536 47.5804C23.8165 47.4997 23.6966 47.3928 23.6007 47.2658C23.5049 47.1387 23.435 46.9941 23.3951 46.8401C23.3552 46.686 23.346 46.5256 23.3681 46.368C23.3901 46.2105 23.443 46.0588 23.5237 45.9216C23.6044 45.7845 23.7113 45.6646 23.8383 45.5687C23.9653 45.4729 24.11 45.403 24.264 45.3631C24.4181 45.3232 24.5785 45.314 24.7361 45.336C28.4931 45.8464 31.9154 47.7664 34.309 50.7068C36.7027 53.6473 37.8885 57.388 37.6259 61.1704C37.3634 64.9528 35.6722 68.4938 32.8952 71.0753C30.1183 73.6569 26.4635 75.0857 22.6721 75.072V75.0961Z" fill="#1D1D1B"/>
<path d="M21.4403 61.2081L21.2083 62.5681H20.0003L19.6003 64.8401H18.0003L18.3923 62.5681H14.0723L14.2163 61.4641L19.6083 54.6641H21.3363L20.2003 61.2081H21.4403ZM18.5683 61.2081L19.3683 56.8801L19.1043 57.2641L16.0003 61.2081H18.5683Z" fill="black"/>
<path d="M25.1684 54.6641H30.4964L30.2324 56.1441H26.2964L25.5444 58.5921C25.7774 58.4478 26.0309 58.3399 26.2964 58.2721C26.5569 58.2011 26.8265 58.1688 27.0964 58.1761C27.5225 58.1733 27.9427 58.2749 28.3204 58.4721C28.6421 58.6533 28.9163 58.9083 29.1204 59.2161C29.327 59.5461 29.4682 59.9127 29.5364 60.2961C29.7066 61.1853 29.5948 62.1055 29.2164 62.9281C28.8429 63.7557 28.1634 64.4066 27.3204 64.7441C26.8691 64.9167 26.3873 64.9956 25.9044 64.9761C25.5045 64.975 25.1083 64.8991 24.7364 64.7521C24.4001 64.615 24.0952 64.4109 23.8404 64.1521C23.5779 63.8941 23.3734 63.5832 23.2404 63.2401C23.1006 62.8692 23.0274 62.4764 23.0244 62.0801H24.6244C24.6336 62.2863 24.6686 62.4905 24.7284 62.6881C24.7916 62.8646 24.8835 63.0295 25.0004 63.1761C25.116 63.3152 25.2607 63.4272 25.4244 63.5041C25.6154 63.5902 25.8229 63.6339 26.0324 63.6321C26.3096 63.6527 26.587 63.5945 26.8324 63.4641C27.0611 63.347 27.2606 63.1803 27.4164 62.9761C27.5794 62.7665 27.7064 62.5313 27.7924 62.2801C27.8783 62.0201 27.9373 61.752 27.9684 61.4801C28.0005 61.2411 28.0005 60.999 27.9684 60.7601C27.9395 60.5421 27.866 60.3324 27.7524 60.1441C27.6439 59.9636 27.4928 59.8126 27.3124 59.7041C27.0989 59.5879 26.8595 59.5274 26.6164 59.5281C26.3425 59.5184 26.0697 59.5675 25.8164 59.6721C25.5629 59.7827 25.3259 59.9281 25.1124 60.1041L23.7844 59.7601L25.1684 54.6641Z" fill="black"/>
<path d="M14.1043 49.464L12.7203 46.92C12.6376 46.7689 12.5961 46.5988 12.5998 46.4266C12.6036 46.2544 12.6524 46.0863 12.7415 45.9389C12.8306 45.7915 12.9567 45.6701 13.1075 45.5867C13.2582 45.5034 13.4281 45.4611 13.6003 45.464L16.4883 45.536L19.3763 45.616C19.5488 45.6221 19.7166 45.6735 19.8629 45.765C20.0093 45.8565 20.129 45.9849 20.21 46.1373C20.2911 46.2897 20.3306 46.4607 20.3247 46.6332C20.3188 46.8057 20.2676 46.9736 20.1763 47.12L18.6963 49.6L17.1923 52.064C17.1009 52.2124 16.9718 52.3338 16.8181 52.4159C16.6645 52.4981 16.4917 52.5379 16.3176 52.5314C16.1435 52.5249 15.9742 52.4723 15.8271 52.3789C15.68 52.2855 15.5603 52.1548 15.4803 52L14.1043 49.464Z" fill="#1D1D1B"/>
</svg>
