<svg width="80" height="75" viewBox="0 0 80 75" fill="none" xmlns="http://www.w3.org/2000/svg">
<path d="M68.1719 27.435C66.6279 22.5225 63.2199 18.435 56.7159 16.2375C53.2919 15.09 49.5159 17.8575 45.6359 17.505C40.9239 17.0775 38.0919 14.8275 34.8359 15.255C25.6999 16.3875 20.0279 24.255 18.8359 33.6L68.1719 27.435Z" fill="#FFCF5C"/>
<path d="M55.6287 16.005C55.3633 15.9745 55.0961 15.9595 54.8287 15.96H54.7567C54.465 15.9679 54.1739 15.9904 53.8847 16.0275L53.6287 16.065C53.3887 16.065 53.1487 16.14 52.9087 16.1925H52.7247C52.4447 16.2525 52.1647 16.3275 51.8847 16.395L51.3807 16.53L51.2207 16.575C50.3647 16.8075 49.5087 17.055 48.6367 17.235C53.1727 17.8125 61.9887 18.8175 63.3967 27.9975L68.1967 27.405C67.9265 26.5407 67.5896 25.696 67.1887 24.8775C67.1247 24.7425 67.0527 24.6075 66.9887 24.48C66.7967 24.12 66.5967 23.775 66.3887 23.43L66.0287 22.875C65.9007 22.6875 65.7727 22.5 65.6367 22.3125C65.4047 22.005 65.1567 21.705 64.9007 21.4125C64.7807 21.27 64.6447 21.1275 64.5167 20.985C64.2207 20.6775 63.9167 20.37 63.5887 20.07L63.2847 19.815C62.9727 19.545 62.6367 19.275 62.2927 19.0275L61.9967 18.84C61.5727 18.5475 61.1247 18.27 60.6607 18C60.5567 17.9325 60.4447 17.8725 60.3327 17.8125C59.8447 17.5425 59.3407 17.2875 58.8127 17.0625L58.5167 16.9425C57.9407 16.695 57.3487 16.455 56.7167 16.245C56.4384 16.1538 56.1519 16.086 55.8607 16.0425L55.6287 16.005Z" fill="#B88816" fill-opacity="0.3"/>
<path d="M60.1722 29.91L10.8522 36.015C10.8042 36.375 10.7482 36.765 10.7162 37.0875C10.461 39.7997 10.71 42.5328 11.4522 45.165L60.3642 45.09C60.6922 44.34 61.4682 33.675 60.1722 29.91Z" fill="#FFCF5C"/>
<path d="M55.5322 30.4875C56.8282 34.2375 57.6282 40.2825 55.8282 45.0825H60.3642C60.7025 43.8548 60.9326 42.6031 61.0522 41.34C61.2284 39.5952 61.2818 37.8414 61.2122 36.09C61.2122 35.5125 61.1402 34.9425 61.0842 34.3725C61.0282 33.8025 60.9402 33.2475 60.8442 32.6925C60.6756 31.7472 60.4431 30.8128 60.1482 29.895L55.5322 30.4875Z" fill="#B88816" fill-opacity="0.3"/>
<path d="M69.3798 46.4602L20.5303 46.5651C21.9112 51.5845 24.8931 56.09 29.0783 59.4806C29.5609 59.8761 30.0606 60.2878 30.5777 60.6107C30.0951 60.2717 29.6126 59.9165 29.1472 59.5452C43.5391 68.3629 64.4241 64.3806 69.3798 46.4602Z" fill="#FFCF5C"/>
<path d="M65.2366 46.4926C59.7326 59.0251 41.1006 61.6726 26.5166 56.7451C27.1542 57.4077 27.8442 58.0245 28.5806 58.5901C29.0126 58.9351 30.1326 59.7375 30.2446 59.8125C30.6766 60.105 31.1166 60.3901 31.5646 60.6601L31.9806 60.8926C32.7584 61.3349 33.5594 61.7404 34.3806 62.1076L35.0846 62.4151C35.4046 62.5426 35.7486 62.6551 36.0766 62.7751C36.4046 62.8951 36.8766 63.0526 37.2606 63.1726L38.1806 63.4275C38.6606 63.555 39.1406 63.6601 39.6286 63.7576C39.8846 63.8101 40.1406 63.8701 40.4286 63.9151C41.2286 64.0501 41.9566 64.1551 42.7406 64.2226C44.4472 64.3692 46.1652 64.3541 47.8686 64.1775H48.0606C52.5159 63.6722 56.7478 62.0654 60.3227 59.5219C63.8975 56.9783 66.6868 53.5895 68.4046 49.7026C68.85 48.6581 69.2163 47.5854 69.5006 46.4926H65.2366Z" fill="#B88816" fill-opacity="0.3"/>
<path d="M55.4525 12.675C51.3085 19.3275 43.4525 21.36 43.4525 21.36C42.2228 16.8112 42.8985 11.9937 45.3405 7.8975C49.4525 1.2525 58.0605 0 58.0605 0C58.7932 4.38083 57.8707 8.86398 55.4525 12.675Z" fill="black"/>
</svg>
