<svg width="145" height="145" viewBox="0 0 145 145" fill="none" xmlns="http://www.w3.org/2000/svg">
<path d="M73.486 144.292C109.346 144.292 138.417 115.222 138.417 79.3614C138.417 43.501 109.346 14.4304 73.486 14.4304C37.6256 14.4304 8.55499 43.501 8.55499 79.3614C8.55499 115.222 37.6256 144.292 73.486 144.292Z" fill="#FFCF5C"/>
<path d="M140.049 56.7798L107.108 108.071L100.622 103.905L132.406 54.4152C133.05 53.4134 134.065 52.7082 135.228 52.4548C136.391 52.2014 137.608 52.4204 138.61 53.0638L139.317 53.5183C139.844 53.8564 140.216 54.3883 140.353 54.9989C140.49 55.6094 140.38 56.2493 140.049 56.7798Z" fill="#2F2E3B"/>
<path d="M88.885 136.387C102.869 114.672 106.865 108.448 106.865 108.448L100.34 104.284L79.7616 136.387H88.885Z" fill="white"/>
<path d="M16.8342 53.7944L48.6342 103.309L42.1484 107.474L9.2075 56.1834C8.86669 55.6527 8.75064 55.0084 8.88489 54.3922C9.01914 53.7759 9.39268 53.2383 9.92335 52.8975L10.631 52.443C11.6328 51.7996 12.8491 51.5805 14.0125 51.834C15.1758 52.0874 16.1908 52.7926 16.8342 53.7944Z" fill="#2F2E3B"/>
<path d="M69.6638 136.387L48.9462 103.623L42.4618 107.787C42.4618 107.787 46.3594 114.341 60.552 136.387H69.6638Z" fill="white"/>
<path d="M42.2472 105.218L41.673 105.16L42.5488 96.0364L33.6748 92.9508L34.5738 83.607L25.7056 80.5214L26.6046 71.1776L17.7364 68.092L18.6586 58.522L19.2386 58.58L18.357 67.6976L27.2252 70.7774L26.3262 80.1212L35.1944 83.2068L34.2954 92.5506L43.1694 95.642L42.2472 105.218Z" fill="#FFB037"/>
<path d="M102.167 103.159L101.975 102.614L110.629 99.5976L109.736 90.248L118.604 87.1682L117.705 77.8186L126.573 74.7388L125.674 65.395L134.757 62.2398L134.943 62.785L126.295 65.7894L127.194 75.1332L118.326 78.2188L119.225 87.5626L110.356 90.6482L111.25 99.9978L102.167 103.159Z" fill="#FFB037"/>
<path d="M17.3188 53.6152C16.9536 53.0443 16.4793 52.551 15.923 52.1637C15.3668 51.7764 14.7396 51.5027 14.0774 51.3583C13.4152 51.2139 12.7309 51.2016 12.064 51.3222C11.397 51.4427 10.7604 51.6937 10.1906 52.0608L9.37281 52.5828C8.76366 52.9751 8.33528 53.5933 8.18191 54.3014C8.02854 55.0095 8.16275 55.7495 8.55501 56.3586L11.9828 61.7004C12.1422 61.9486 12.3936 62.1235 12.6817 62.1865C12.9699 62.2496 13.2713 62.1958 13.5198 62.0368L19.1052 58.4466C19.2282 58.3678 19.3344 58.2654 19.4177 58.1453C19.501 58.0252 19.5597 57.8898 19.5904 57.7469C19.6211 57.6041 19.6233 57.4565 19.5968 57.3128C19.5702 57.1691 19.5155 57.0321 19.4358 56.9096L17.3188 53.6152Z" fill="#2F2E3B"/>
<path d="M53.5033 97.7793L35.2512 109.501C34.6799 109.868 34.5134 110.628 34.8795 111.198C35.2456 111.768 36.0056 111.933 36.577 111.566L54.829 99.8436C55.4004 99.4766 55.5669 98.717 55.2008 98.147C54.8346 97.5769 54.0747 97.4123 53.5033 97.7793Z" fill="#2F2E3B"/>
<path d="M131.915 54.2242C132.281 53.6536 132.756 53.1608 133.313 52.7739C133.87 52.387 134.498 52.1135 135.16 51.9692C135.823 51.8248 136.507 51.8124 137.174 51.9326C137.842 52.0528 138.479 52.3033 139.049 52.6698L139.861 53.1918C140.163 53.3856 140.424 53.637 140.629 53.9316C140.834 54.2263 140.979 54.5584 141.055 54.9091C141.132 55.2597 141.138 55.622 141.075 55.9752C141.011 56.3284 140.879 56.6656 140.685 56.9676L137.257 62.3094C137.097 62.5567 136.845 62.7303 136.557 62.7923C136.269 62.8542 135.968 62.7995 135.72 62.64L130.134 59.0556C129.886 58.8962 129.711 58.6448 129.648 58.3567C129.585 58.0685 129.639 57.7671 129.798 57.5186L131.915 54.2242Z" fill="#2F2E3B"/>
<path d="M94.5854 100.7L112.807 112.413C113.377 112.78 114.136 112.616 114.502 112.047C114.868 111.478 114.702 110.719 114.132 110.352L95.9102 98.6387C95.3398 98.272 94.5808 98.4361 94.215 99.0052C93.8491 99.5743 94.015 100.333 94.5854 100.7Z" fill="#2F2E3B"/>
<path d="M79.4601 30.914C83.7463 27.5036 84.6105 10.2834 72.9699 3.46839C61.3293 -3.34661 43.2739 1.86179 39.5445 20.4392C37.1201 32.567 45.5069 51.1212 35.7977 58.609C34.0179 60.0597 31.9617 61.1332 29.7541 61.7642C29.6129 61.7973 29.4863 61.8751 29.3929 61.9861C29.2996 62.097 29.2446 62.2351 29.2361 62.3799C29.2277 62.5246 29.2662 62.6682 29.3459 62.7893C29.4257 62.9103 29.5424 63.0024 29.6787 63.0518C33.5299 64.3452 40.5653 65.569 45.1357 63.1156C63.2491 53.3948 53.1049 34.6956 57.8957 26.5756C61.3757 20.6364 67.9703 23.0028 68.5561 28.8956C68.9273 32.712 79.4601 30.914 79.4601 30.914Z" fill="#2F2E3B"/>
<path d="M51.9043 33.234L56.6371 30.4732C56.6371 30.4732 57.6463 23.2 61.9209 23.2348C66.1955 23.2696 66.9843 25.2996 66.9843 25.2996L69.3913 24.8878C67.5643 18.3222 64.0089 16.53 59.4791 16.7678C54.1083 16.994 50.1063 23.49 51.9043 33.234Z" fill="#24242D"/>
<path d="M42.8563 13.0094C41.7676 14.8877 40.782 16.8239 39.9041 18.8094C44.2425 1.5486 61.6541 -3.1378 72.9583 3.48C84.5989 10.2834 83.7347 27.5036 79.4601 30.914C79.4601 30.914 78.9845 30.9952 78.2305 31.0822L78.5901 23.055C79.5703 10.295 69.5363 2.6042 59.7865 3.0508C50.0367 3.4974 45.2923 8.99 42.8563 13.0094Z" fill="#464552"/>
<path d="M77.3026 23.1014H76.7226C76.7226 7.51098 65.5576 2.99857 58.963 2.80137V2.22137C64.9834 2.41277 69.8902 4.91837 73.1556 9.47137C75.8004 13.1138 77.3026 18.0902 77.3026 23.1014Z" fill="#464552"/>
<path d="M82.3601 26.854C82.1334 26.8532 81.912 26.7859 81.7231 26.6605C81.5342 26.5352 81.3862 26.3572 81.2973 26.1487C81.2085 25.9401 81.1827 25.7101 81.2231 25.4871C81.2636 25.264 81.3685 25.0577 81.5249 24.8936C83.2649 23.0782 83.8449 19.024 83.5839 17.5102C83.5293 17.2072 83.5973 16.8949 83.773 16.642C83.9487 16.3891 84.2176 16.2163 84.5206 16.1617C84.8237 16.1071 85.136 16.1751 85.3889 16.3508C85.6418 16.5265 85.8145 16.7954 85.8691 17.0984C86.2171 19.0472 85.6081 23.9888 83.2011 26.5002C83.0921 26.613 82.9614 26.7025 82.8169 26.7633C82.6723 26.8241 82.5169 26.855 82.3601 26.854Z" fill="#2F2E3B"/>
<path d="M65.3313 26.7438C65.9113 21.0946 82.7313 21.4078 83.7695 26.7438C84.8077 32.0798 64.8499 31.32 65.3313 26.7438Z" fill="#CECECE"/>
<path d="M53.4239 107.341C49.4385 108.792 45.5436 110.481 41.7601 112.398C41.3334 112.627 40.9769 112.968 40.7287 113.383C40.4805 113.799 40.3498 114.275 40.3507 114.759V116.441C40.3507 116.441 41.5106 114.475 42.746 114.805C45.4314 115.519 48.5983 122.142 50.3557 131.376C50.6631 132.971 51.0517 136.48 51.4635 140.76C58.5526 143.185 65.9937 144.421 73.486 144.42H74.5822V97.6256C67.6048 97.5908 57.2113 102.84 53.4239 107.341Z" fill="#25252D"/>
<path d="M107.387 112.398C103.611 110.482 99.724 108.793 95.7466 107.341C91.9592 102.84 81.5656 97.5908 74.565 97.5908V144.385C82.4996 144.272 90.3525 142.764 97.765 139.931C98.1478 136.033 98.5074 132.872 98.7916 131.376C100.532 122.142 103.716 115.519 106.401 114.805C107.642 114.475 108.797 116.255 108.797 116.255V114.759C108.797 114.275 108.667 113.799 108.419 113.383C108.17 112.968 107.814 112.627 107.387 112.398Z" fill="#25252D"/>
<path d="M84.332 109.307L74.7214 131.092L65.105 109.307V90.6714H84.332V109.307Z" fill="white"/>
<path d="M65.1109 100.16V103.704C65.1109 103.704 70.1395 108.547 75.0173 108.408C79.8951 108.269 84.3321 104.284 84.3321 104.284V100.16H65.1109Z" fill="#CECECE"/>
<path d="M75.3189 29.6438C69.4377 25.9724 58.8295 26.1638 50.3209 35.8266C44.7181 42.2066 41.8065 50.7036 42.6127 56.4398C43.4189 62.176 41.0003 62.9822 42.0733 67.9992C43.1463 73.0162 48.5287 74.7214 48.5287 74.7214C48.5287 74.7214 99.6963 74.9012 101.042 74.7214C102.388 74.5416 108.35 70.4294 108.744 63.3418C110.27 35.9194 94.4067 29.7366 87.6845 27.9618C81.2523 26.2276 75.3189 29.6438 75.3189 29.6438Z" fill="#2F2E3B"/>
<path d="M87.6845 27.9154C81.2523 26.1754 75.3189 29.6206 75.3189 29.6206C75.6727 29.5336 74.6635 30.276 75.0173 30.2006C83.7869 28.3272 93.5773 30.4036 100.004 39.4806C107.393 49.9206 106.743 65.5226 103.107 73.5904C104.729 72.385 106.073 70.844 107.045 69.0724C108.018 67.3008 108.598 65.3403 108.744 63.3244C110.27 35.8962 94.4067 29.7076 87.6845 27.9154Z" fill="#464552"/>
<path d="M100.096 71.9199C103.199 68.7183 106.018 67.6628 108.153 68.9214C110.287 70.1799 107.085 80.5561 104.464 80.8461C101.842 81.1361 99.2439 77.8359 99.2439 77.8359L100.096 71.9199Z" fill="white"/>
<path d="M48.2968 71.9199C45.188 68.7183 42.375 67.6628 40.2406 68.9214C38.1062 70.1799 41.3078 80.5561 43.9294 80.8461C46.551 81.1361 49.1494 77.8359 49.1494 77.8359L48.2968 71.9199Z" fill="white"/>
<path d="M74.5707 37.932C69.1303 37.932 47.3629 39.4284 47.7631 62.4718C48.0821 80.9274 48.6157 83.9318 50.4833 88.6066C53.5225 96.1872 67.3033 104.702 75.2899 104.673C83.2765 104.644 95.6247 96.1872 98.6639 88.6066C100.532 83.9666 101.065 80.9274 101.384 62.4718C101.784 39.44 80.0401 37.932 74.5707 37.932Z" fill="white"/>
<path d="M71.23 41.18C71.5316 46.4754 73.6718 55.6104 82.4182 58.6438C83.1954 58.9106 83.9842 57.652 83.2244 57.1184C81.96 56.2252 77.4998 53.2614 77.8362 48.1516C77.8362 48.1516 82.395 55.3088 88.6938 57.0952C88.9463 57.1723 89.2181 57.1561 89.4598 57.0497C89.7014 56.9432 89.8968 56.7535 90.0104 56.5152C90.1699 56.1755 90.2775 55.8138 90.3294 55.4422C90.3294 55.4422 96.3382 57.4838 100.41 57.0546C99.9342 43.0128 95.6654 36.3544 87.6034 32.4452C79.5414 28.536 73.8458 31.378 73.8458 31.378C73.8458 31.378 70.853 34.5448 71.23 41.18Z" fill="#CECECE"/>
<path d="M74.6055 78.1318C68.9157 78.1318 54.9609 84.68 48.5577 80.852C48.5577 83.5838 49.9961 87.4002 50.4833 88.6066C53.5225 96.1872 67.3033 104.702 75.2899 104.673H75.3537C83.3577 104.702 95.6885 96.1872 98.7277 88.6066C99.6604 86.2481 100.269 83.7741 100.537 81.2522C89.7029 83.2706 80.2605 78.1318 74.6055 78.1318Z" fill="#2F2E3B"/>
<path d="M67.4426 47.995C72.97 42.833 74.5708 37.932 74.5708 37.932L75.319 29.6438C75.319 29.6438 70.1802 24.94 58.9572 28.9246C52.8904 31.0822 42.4214 38.8136 42.1372 52.9656C42.0792 55.6104 41.8066 58.9454 41.8066 58.9454C41.8066 58.9454 57.4202 57.3736 67.4426 47.995Z" fill="#2F2E3B"/>
<path d="M38.8078 122.769C38.5526 124.004 38.4192 128.441 38.3438 134.2C42.5836 136.758 47.1134 139.299 51.8868 140.894C50.663 132.095 49.0448 123.035 47.2468 119.474C46.1609 117.439 44.5613 115.723 42.6068 114.498C39.3356 115.93 39.4922 119.48 38.8078 122.769Z" fill="white"/>
<path d="M101.402 118.859C99.9863 121.904 98.5479 131.039 97.4111 140.07C102.167 138.278 106.691 135.43 110.844 132.698C110.722 126.95 110.542 122.647 110.264 121.435C109.522 118.134 109.208 115.171 105.931 113.802C103.976 115.029 102.407 116.782 101.402 118.859Z" fill="white"/>
<path d="M47.7574 90.016C47.5227 90.0164 47.2934 89.9458 47.0998 89.8132C46.9061 89.6807 46.7572 89.4925 46.6728 89.2736C46.4002 88.5718 40.1826 71.8736 49.132 53.2556C49.265 52.9779 49.5029 52.7645 49.7933 52.6623C50.0838 52.56 50.4029 52.5773 50.6806 52.7104C50.9582 52.8434 51.1716 53.0813 51.2739 53.3718C51.3761 53.6622 51.3588 53.9813 51.2258 54.259C42.723 71.949 48.7782 88.2818 48.8362 88.4442C48.9457 88.7311 48.937 89.0497 48.812 89.3303C48.687 89.6108 48.4558 89.8303 48.1692 89.9406C48.0376 89.9905 47.8981 90.016 47.7574 90.016Z" fill="#2F2E3B"/>
<path d="M49.3001 74.9244C49.0887 74.9243 48.8813 74.8665 48.7004 74.7571C48.5195 74.6477 48.3719 74.491 48.2735 74.3038C46.4639 70.8934 45.5881 58.0638 50.2339 52.2638C50.427 52.0278 50.7052 51.8773 51.0084 51.8449C51.3116 51.8125 51.6153 51.9007 51.8539 52.0905C52.0925 52.2804 52.2468 52.5565 52.2834 52.8592C52.3199 53.1619 52.2359 53.4668 52.0493 53.708C48.0937 58.6844 48.8129 70.3888 50.3093 73.2424C50.3975 73.4172 50.44 73.6116 50.4328 73.8072C50.4256 74.0029 50.369 74.1936 50.2683 74.3615C50.1675 74.5294 50.0259 74.6691 49.8566 74.7675C49.6873 74.866 49.4959 74.9199 49.3001 74.9244Z" fill="#2F2E3B"/>
<path d="M99.9341 97.034C99.8265 97.0344 99.7192 97.0207 99.6151 96.9934C99.4685 96.9519 99.3314 96.8819 99.2118 96.7875C99.0922 96.693 98.9924 96.576 98.9181 96.4429C98.8437 96.3099 98.7964 96.1635 98.7786 96.0121C98.7609 95.8608 98.7732 95.7074 98.8147 95.5608C98.8785 95.3346 105.114 72.8248 97.7997 55.0246C97.7294 54.882 97.689 54.7266 97.6813 54.5678C97.6735 54.409 97.6984 54.2504 97.7545 54.1016C97.8106 53.9529 97.8967 53.8173 98.0074 53.7032C98.1181 53.5892 98.2511 53.4991 98.3981 53.4385C98.545 53.378 98.7029 53.3483 98.8618 53.3513C99.0207 53.3543 99.1774 53.3899 99.3219 53.456C99.4665 53.522 99.596 53.6171 99.7023 53.7353C99.8086 53.8535 99.8895 53.9922 99.9399 54.143C107.567 72.703 101.32 95.2418 101.048 96.193C100.978 96.435 100.832 96.6479 100.632 96.7996C100.431 96.9514 100.186 97.0336 99.9341 97.034Z" fill="#2F2E3B"/>
<path d="M78.1146 144.176C77.5346 142.848 63.3826 111.627 62.4546 108.489C61.5672 105.537 60.6508 103.078 63.8466 101.135L64.4266 101.442C61.747 103.072 62.0312 105.079 63.0056 108.327C63.9336 111.424 78.509 143.614 78.6656 143.939L78.1146 144.176Z" fill="#585860"/>
<path d="M75.0637 136.242L74.5359 136.004L75.0057 134.978C76.7921 131.01 85.7763 111.105 86.6057 108.327C87.5801 105.079 88.1137 103.24 85.4457 101.61L86.0257 101.297C89.2215 103.234 88.0673 105.537 87.1857 108.489C86.3563 111.238 78.0681 129.642 75.5509 135.215L75.0637 136.242Z" fill="#585860"/>
<path d="M53.36 141.52C53.331 141.323 50.7152 121.672 49.358 118.854C48.0008 116.035 45.3908 112.021 41.6266 112.52L42.2994 112.102C46.9046 111.522 49.0448 116.87 49.8858 118.61C51.2836 121.51 53.8298 140.65 53.9458 141.45L53.36 141.52Z" fill="#585860"/>
<path d="M95.5725 140.853L94.9925 140.801C95.0737 139.995 96.9181 121.11 98.3159 118.181C99.1569 116.441 101.981 111.221 106.001 111.667L106.842 112.085C103.078 111.615 100.218 115.565 98.8379 118.43C97.4575 121.295 95.5899 140.662 95.5725 140.853Z" fill="#585860"/>
<path d="M72.1579 39.2892C72.1579 44.5904 73.7761 53.8356 82.3427 57.3562C83.1025 57.6694 83.9609 56.4514 83.2301 55.8772C82.0237 54.9144 77.7375 51.707 78.3581 46.5972C78.3581 46.5972 82.5109 54.0038 88.6937 56.144C88.942 56.2343 89.2144 56.2325 89.4613 56.1388C89.7083 56.0451 89.9134 55.8658 90.0393 55.6336C90.2181 55.3025 90.3471 54.9468 90.4221 54.578C90.4221 54.578 96.9355 57.2054 101.025 57.0082C101.344 42.9606 96.6745 36.0876 88.9953 31.4882C83.5897 28.2344 75.0173 30.2006 75.0173 30.2006C75.0173 30.2006 72.1579 32.654 72.1579 39.2892Z" fill="#2F2E3B"/>
<path d="M42.7694 53.2846C45.1532 39.2138 54.41 32.2074 60.4768 30.0498C68.1908 27.3006 73.0338 28.6752 75.3074 29.8004V29.6438C75.3074 29.6438 70.1802 24.94 58.9572 28.9246C52.8904 31.0822 42.4214 38.8136 42.1372 52.9656C42.0792 55.6104 41.8066 58.9454 41.8066 58.9454C41.8066 58.9454 42.5084 54.8506 42.7694 53.2846Z" fill="#464552"/>
<path d="M63.3244 30.334C57.9884 32.2364 48.778 39.034 48.517 51.4866C48.517 51.562 48.6968 51.6722 48.6968 51.649C50.7906 39.2718 59.3224 33.2224 64.6584 31.349C69.2346 29.7192 72.6566 29.7366 75.0172 30.2238C75.052 30.1426 75.284 30.1774 75.3188 30.0904C75.3503 29.9608 75.3503 29.8256 75.3188 29.696C73.0394 28.8492 69.0954 28.2808 63.3244 30.334Z" fill="#464552"/>
<path d="M61.016 79.9646C61.9545 79.9646 62.7154 79.2037 62.7154 78.2652C62.7154 77.3266 61.9545 76.5658 61.016 76.5658C60.0774 76.5658 59.3166 77.3266 59.3166 78.2652C59.3166 79.2037 60.0774 79.9646 61.016 79.9646Z" fill="#CECECE"/>
<path d="M88.2992 79.8312C89.2377 79.8312 89.9986 79.0703 89.9986 78.1318C89.9986 77.1932 89.2377 76.4324 88.2992 76.4324C87.3606 76.4324 86.5998 77.1932 86.5998 78.1318C86.5998 79.0703 87.3606 79.8312 88.2992 79.8312Z" fill="#CECECE"/>
<path d="M70.2089 61.48C70.5337 63.1098 69.6289 65.1746 69.6289 65.1746C69.6289 65.1746 60.1575 62.9242 56.5093 63.0286C54.7693 63.075 51.8693 64.4032 51.8693 64.4032C51.8693 64.4032 54.6243 59.9894 57.0893 59.8328C60.8477 59.6066 70.2089 61.48 70.2089 61.48Z" fill="#2F2E3B"/>
<path d="M79.7614 61.9382C79.4424 63.5738 80.3414 65.6328 80.3414 65.6328C80.3414 65.6328 89.807 63.3534 93.4552 63.4462C95.1952 63.4868 98.0952 64.8092 98.0952 64.8092C98.0952 64.8092 95.3286 60.4012 92.8462 60.2504C89.1168 60.0184 79.7614 61.9382 79.7614 61.9382Z" fill="#2F2E3B"/>
<path d="M52.5652 67.86C51.904 68.1326 52.9422 69.658 54.3052 69.4086C56.9714 68.8358 59.707 68.6561 62.4252 68.875C66.0096 69.1302 70.4118 71.978 70.8468 72.2564C71.2818 72.5348 71.4268 72.2564 71.1194 71.8562C70.812 71.456 66.839 67.5468 62.3614 66.903C59.0668 66.419 55.7039 66.7476 52.5652 67.86Z" fill="#2F2E3B"/>
<path d="M65.0417 70.5679C65.1479 68.6906 63.6137 67.077 61.6149 66.9639C59.6161 66.8507 57.9095 68.2808 57.8033 70.1581C57.697 72.0355 59.2312 73.649 61.23 73.7622C63.2289 73.8753 64.9354 72.4452 65.0417 70.5679Z" fill="#2F2E3B"/>
<path d="M97.3355 67.86C97.9967 68.1268 96.9759 69.2636 95.5955 69.4028C93.9309 69.571 91.7791 69.8726 87.8235 70.3076C84.2507 70.7078 79.5179 71.978 79.0887 72.2506C78.6595 72.5232 78.5087 72.2506 78.8103 71.8562C79.1119 71.4618 83.1487 69.3042 87.6089 68.5444C92.7999 67.628 96.9353 67.6686 97.3355 67.86Z" fill="#2F2E3B"/>
<path d="M78.1607 89.5752H75.0345L77.4937 82.4702L71.1427 91.7734L74.1529 91.7792L71.8097 98.8784L78.1607 89.5752Z" fill="#464552"/>
<path d="M57.8782 71.2182C58.3523 71.2182 58.7366 70.8339 58.7366 70.3598C58.7366 69.8857 58.3523 69.5014 57.8782 69.5014C57.4041 69.5014 57.0198 69.8857 57.0198 70.3598C57.0198 70.8339 57.4041 71.2182 57.8782 71.2182Z" fill="white"/>
<path d="M68.4399 65.5052L67.9295 65.2384C68.4444 63.7016 68.7278 62.0967 68.7705 60.4766H69.3505C69.2519 62.437 68.7705 64.8266 68.4399 65.5052Z" fill="white"/>
</svg>
