<svg width="80" height="80" viewBox="0 0 80 80" fill="none" xmlns="http://www.w3.org/2000/svg">
<g clip-path="url(#clip0)">
<path d="M39.7503 79.8217C59.4455 79.8217 75.4115 63.8556 75.4115 44.1605C75.4115 24.4653 59.4455 8.49927 39.7503 8.49927C20.0552 8.49927 4.08911 24.4653 4.08911 44.1605C4.08911 63.8556 20.0552 79.8217 39.7503 79.8217Z" fill="#FFCF5C"/>
<path d="M79.3581 33.7473L59.5423 64.5943L55.6315 62.0861L74.7459 32.2971C75.5542 31.0371 77.2184 30.6923 78.4784 31.4888L78.8945 31.7622C79.5602 32.1782 79.7741 33.0817 79.3581 33.7473Z" fill="#2F2E3B"/>
<path d="M5.2184 31.9286L24.3328 61.7176L20.422 64.2258L0.606221 33.4026C0.190173 32.7369 0.356592 31.8692 1.02227 31.4175L1.47398 31.144C2.73401 30.3238 4.41008 30.6805 5.2184 31.9286Z" fill="#2F2E3B"/>
<path d="M20.529 62.847L20.1842 62.8113L20.7073 57.3314L15.37 55.477L15.893 49.8663L10.5557 48.0119L11.1144 42.3655L5.7771 40.5112L6.33579 34.7578L6.68052 34.7935L6.15749 40.2734L11.4948 42.1516L10.9361 47.7742L16.2734 49.6167L15.7504 55.2392L21.052 57.0817L20.529 62.847Z" fill="#FFCF5C"/>
<path d="M56.5705 61.6224L56.4279 61.2777L61.6701 59.459L61.1114 53.8483L66.4487 51.9939L65.9256 46.3713L71.2273 44.5288L70.7042 38.9062L76.1842 36.9924L76.2793 37.3372L71.0846 39.1559L71.6076 44.7666L66.2703 46.621L66.829 52.2435L61.4917 54.086L62.0148 59.7086L56.5705 61.6224Z" fill="#FFCF5C"/>
<path d="M5.52743 31.8336C4.62401 30.4071 2.6983 29.9792 1.23619 30.8945L0.748823 31.2036C-0.0238367 31.6909 -0.225917 32.7013 0.261453 33.474L2.31792 36.6835C2.53188 36.9926 2.94793 37.0639 3.22133 36.8975L6.57349 34.734C6.88255 34.5201 6.98954 34.104 6.78746 33.8306L5.52743 31.8336Z" fill="#2F2E3B"/>
<path d="M16.309 65.4265L27.3045 58.3774C27.6493 58.1635 28.1129 58.2704 28.3149 58.5914C28.5289 58.9361 28.4219 59.3997 28.101 59.6018L17.1054 66.6508C16.7607 66.8648 16.2971 66.7578 16.095 66.4369C15.8573 66.1278 15.9643 65.6642 16.309 65.4265Z" fill="#2F2E3B"/>
<path d="M74.4725 32.1783C75.4116 30.7519 77.3373 30.3239 78.7637 31.2392L79.2511 31.5483C80.0237 32.0357 80.2258 33.0461 79.7385 33.8187L77.682 37.0282C77.468 37.3373 77.052 37.4443 76.7786 37.2422L73.4264 35.0788C73.1174 34.8648 73.0104 34.4487 73.2124 34.1753L74.4725 32.1783Z" fill="#2F2E3B"/>
<path d="M62.8825 67.0669L51.887 60.0179C51.5423 59.8039 51.4353 59.3522 51.673 59.0075C51.887 58.6628 52.3387 58.5558 52.6834 58.7935L63.679 65.8426C64.0237 66.0565 64.1307 66.5082 63.8929 66.853C63.6909 67.2096 63.2392 67.3047 62.8825 67.0669Z" fill="#2F2E3B"/>
<path d="M35.6373 15.4651C35.459 15.4651 35.2926 15.3938 35.15 15.2511C33.7235 13.7534 33.3312 10.7816 33.5452 9.60479C33.6165 9.2244 33.9613 8.97477 34.3535 9.0461C34.7339 9.11742 34.9835 9.46214 34.9122 9.85442C34.7339 10.7578 35.1262 13.2066 36.1723 14.2883C36.4457 14.5617 36.4219 15.0253 36.1366 15.263C35.9939 15.3938 35.8156 15.4651 35.6373 15.4651Z" fill="#2F2E3B"/>
<path d="M37.4204 17.9019C34.8409 15.8455 34.3179 5.47993 41.3312 1.40266C48.3446 -2.6746 58.4962 2.59137 59.5422 11.3165C60.2436 17.2481 57.6878 19.2333 61.1113 22.5498C62.1217 23.4888 63.3818 24.1545 64.7369 24.4279C64.9508 24.4636 65.0816 24.7013 65.0459 24.9153C65.0103 25.0579 64.9033 25.1649 64.7963 25.1887C62.4902 25.9614 57.9969 27.1025 55.5125 25.2244C51.2926 22.0505 53.4204 16.7845 51.3639 14.5854C49.1292 12.208 44.3149 13.1233 43.9702 16.6419C43.7324 18.9836 37.4204 17.9019 37.4204 17.9019Z" fill="#2F2E3B"/>
<path d="M34.4131 15.6434C34.7578 12.2556 44.8856 12.4339 45.5037 15.6434C46.1219 18.8529 34.104 18.425 34.4131 15.6434Z" fill="#FFCF5C"/>
<path d="M34.2822 59.804V61.9317C34.2822 61.9317 37.3134 64.8678 40.2495 64.7609C43.1856 64.6539 45.8721 62.2884 45.8721 62.2884V59.8158H34.2822V59.804Z" fill="#D1D1D1"/>
<path d="M40.416 17.3788C36.8974 15.1797 30.5022 15.2867 25.3788 21.1114C21.991 24.9509 20.2555 30.0386 20.7429 33.4977C21.2302 36.9569 19.7681 37.4442 20.4338 40.4398C21.0995 43.4353 24.309 44.4814 24.309 44.4814C24.309 44.4814 55.0846 44.5884 55.8811 44.4814C56.6894 44.3744 60.2793 41.9019 60.517 37.6463C61.4204 21.147 51.8989 17.4502 47.8573 16.3684C43.9821 15.358 40.416 17.3788 40.416 17.3788Z" fill="#2F2E3B"/>
<path d="M55.3224 42.8172C57.2005 40.9033 58.8766 40.2733 60.1723 40.9984C61.468 41.7354 59.5423 48.0118 57.9375 48.1901C56.3328 48.3684 54.7993 46.3714 54.7993 46.3714L55.3224 42.8172Z" fill="white"/>
<path d="M24.1663 42.8172C22.2882 40.9033 20.6121 40.2733 19.3164 40.9984C18.0207 41.7354 19.9464 48.0118 21.5512 48.1901C23.1559 48.3684 24.6894 46.3714 24.6894 46.3714L24.1663 42.8172Z" fill="white"/>
<path d="M39.9643 22.3716C36.6835 22.3716 23.5958 23.275 23.8454 37.1353C24.0594 48.226 24.3685 50.0447 25.4859 52.8738C27.3046 57.4385 35.6018 62.538 40.416 62.538C45.2303 62.538 52.6597 57.4385 54.4784 52.8738C55.5958 50.0804 55.9049 48.2735 56.1188 37.1353C56.3328 23.275 43.2451 22.3716 39.9643 22.3716Z" fill="white"/>
<path d="M35.6731 28.4457C38.9896 25.3432 39.9643 22.3715 39.9643 22.3715L40.416 17.3789C40.416 17.3789 37.3135 14.5498 30.5735 16.9628C26.9123 18.2585 20.6359 22.8945 20.4576 31.4413C20.422 33.046 20.2437 35.0312 20.2437 35.0312C20.2437 35.0312 29.6344 34.0921 35.6731 28.4457Z" fill="#2F2E3B"/>
<path d="M38.5022 23.2154C38.5022 26.3893 39.4769 31.9762 44.6478 34.104C45.0995 34.2823 45.6226 33.5453 45.1708 33.2006C44.4338 32.6062 41.8544 30.6924 42.2347 27.6137C42.2347 27.6137 44.7429 32.0832 48.4398 33.367C48.7489 33.474 49.1055 33.3313 49.2481 33.0579C49.3551 32.844 49.4264 32.6419 49.4977 32.4279C49.4977 32.4279 53.4086 33.997 55.8811 33.89C56.0594 25.4502 53.3729 21.159 48.6538 18.5438C43.9346 15.9287 40.416 17.4145 40.416 17.4145C40.416 17.4145 38.5022 19.1976 38.5022 23.2154Z" fill="#2F2E3B"/>
<path d="M24.6893 56.7369C24.4159 56.7369 24.1306 56.5586 24.0236 56.2852C23.8097 55.7265 19.2807 42.8171 24.6537 31.6195C24.832 31.2748 25.248 31.1322 25.5927 31.3105C25.9375 31.4888 26.0801 31.9048 25.9018 32.2495C20.7785 42.9241 25.2718 55.7265 25.3074 55.8335C25.4501 56.1782 25.2361 56.6061 24.8914 56.7369C24.8201 56.7369 24.7488 56.7369 24.6893 56.7369Z" fill="#2F2E3B"/>
<path d="M24.7489 44.636C24.4992 44.636 24.2615 44.4934 24.1189 44.2556C23.0371 42.1992 22.4784 34.4844 25.3076 31.0015C25.5572 30.6925 25.9732 30.6568 26.2823 30.8946C26.5914 31.1442 26.627 31.5602 26.3893 31.8693C24.0119 34.8648 24.4398 41.8782 25.3432 43.6256C25.5215 43.9703 25.3789 44.3983 25.0698 44.5647C24.9628 44.6003 24.8559 44.636 24.7489 44.636Z" fill="#2F2E3B"/>
<path d="M55.2155 57.9257C55.1441 57.9257 55.0728 57.9257 55.0371 57.8901C54.6568 57.7831 54.4428 57.4027 54.5498 57.0223C54.5854 56.8797 58.318 43.3403 53.9198 32.6301C53.7771 32.2853 53.9554 31.8574 54.3001 31.7266C54.6449 31.584 55.0728 31.7623 55.2036 32.107C59.7682 43.269 56.0357 56.844 55.8692 57.4027C55.8098 57.7474 55.5245 57.9257 55.2155 57.9257Z" fill="#2F2E3B"/>
<path d="M31.9406 16.5111C35.4353 14.7637 44.2199 15.3937 46.4547 16.0594C48.6894 16.7251 44.9569 20.3507 44.9569 20.3507H37.0758L31.9406 16.5111Z" fill="#2F2E3B"/>
<path d="M36.4814 41.2838C36.4458 41.2838 36.4458 41.2838 36.4101 41.2838L27.6137 40.1664C27.3403 40.1308 27.1263 39.8573 27.162 39.5721C27.1976 39.2987 27.471 39.0847 27.7563 39.1203L36.5528 40.2377C36.8262 40.2734 37.0401 40.5468 37.0045 40.8321C36.9331 41.0698 36.7192 41.2838 36.4814 41.2838Z" fill="#2F2E3B"/>
<path d="M32.0831 44.4934C33.278 44.4934 34.2466 43.5248 34.2466 42.33C34.2466 41.1351 33.278 40.1665 32.0831 40.1665C30.8883 40.1665 29.9197 41.1351 29.9197 42.33C29.9197 43.5248 30.8883 44.4934 32.0831 44.4934Z" fill="#2F2E3B"/>
<path d="M43.9821 40.9986C43.7325 40.9986 43.4948 40.7847 43.4591 40.5469C43.4234 40.2735 43.6374 39.9882 43.9108 39.9526L52.7072 38.8352C52.9806 38.7995 53.2659 39.0135 53.3016 39.2869C53.3372 39.5603 53.1233 39.8456 52.8499 39.8813L44.0534 40.9986C44.0178 40.9986 43.9821 40.9986 43.9821 40.9986Z" fill="#2F2E3B"/>
<path d="M48.3685 44.208C49.5634 44.208 50.532 43.2394 50.532 42.0445C50.532 40.8497 49.5634 39.8811 48.3685 39.8811C47.1737 39.8811 46.2051 40.8497 46.2051 42.0445C46.2051 43.2394 47.1737 44.208 48.3685 44.208Z" fill="#2F2E3B"/>
<path d="M31.7979 47.6673C32.3559 47.6673 32.8083 47.2149 32.8083 46.6569C32.8083 46.0989 32.3559 45.6465 31.7979 45.6465C31.2398 45.6465 30.7875 46.0989 30.7875 46.6569C30.7875 47.2149 31.2398 47.6673 31.7979 47.6673Z" fill="#D1D1D1"/>
<path d="M48.2377 47.5601C48.7957 47.5601 49.2481 47.1077 49.2481 46.5497C49.2481 45.9917 48.7957 45.5393 48.2377 45.5393C47.6797 45.5393 47.2273 45.9917 47.2273 46.5497C47.2273 47.1077 47.6797 47.5601 48.2377 47.5601Z" fill="#D1D1D1"/>
<path d="M43.0669 35.9109C42.9243 36.8143 43.5186 37.9317 43.5186 37.9317C43.5186 37.9317 49.688 36.4696 50.639 36.3269C51.5899 36.1843 53.2185 36.9213 53.2185 36.9213C53.2185 36.9213 51.1977 34.9362 50.639 34.6152C50.0803 34.3061 43.0669 35.9109 43.0669 35.9109Z" fill="#2F2E3B"/>
<path d="M37.0401 35.9109C37.1828 36.8143 36.5884 37.9317 36.5884 37.9317C36.5884 37.9317 30.419 36.4696 29.468 36.3269C28.5171 36.1843 26.8885 36.9213 26.8885 36.9213C26.8885 36.9213 28.9094 34.9362 29.468 34.6152C30.0267 34.3061 37.0401 35.9109 37.0401 35.9109Z" fill="#2F2E3B"/>
<path d="M59.364 64.7965L55.4531 62.2883L53.9435 64.6301C55.4056 65.2007 56.8558 65.8188 58.2704 66.4963C58.9717 65.4027 59.364 64.7965 59.364 64.7965Z" fill="white"/>
<path d="M24.5467 61.908L20.6359 64.4161C20.6359 64.4161 21.0876 65.1175 21.9078 66.3894C23.3223 65.7237 24.7726 65.1056 26.2347 64.535L24.5467 61.908Z" fill="white"/>
<path d="M20.3269 67.3403L20.3031 67.1382C20.2912 67.1501 20.2674 67.1501 20.2556 67.162C19.7325 67.4354 19.4235 67.9941 19.4235 68.5884V69.4918C19.4235 69.4918 19.7801 68.945 20.2437 68.7073C20.3982 68.6003 20.5527 68.4933 20.7429 68.4101C20.9569 68.5527 21.1709 68.7192 21.3729 68.8856C21.4205 68.9212 21.4799 68.9569 21.5275 69.0045C21.575 69.0401 21.6226 69.0877 21.6582 69.1233C21.7058 69.1709 21.7533 69.2184 21.8009 69.266C22.4784 69.8841 23.0728 70.5973 23.5245 71.4175C24.0713 72.4874 24.5825 74.3774 25.0579 76.6479C25.4027 76.8024 25.7355 76.9569 26.0802 77.0996C25.6404 74.3774 25.1411 71.7741 24.7845 71.0371C23.9524 69.3373 22.5973 67.0669 20.3269 67.3403Z" fill="#25252D"/>
<path d="M34.2822 65.3194V59.5898C31.3818 60.7548 28.624 62.5141 27.2688 64.1426C26.9241 64.2733 26.5913 64.416 26.2465 64.5468C24.7725 65.1054 23.3342 65.7236 21.9197 66.4011C21.5036 66.5913 21.0876 66.7815 20.6715 66.9836C23.1916 66.9598 24.6418 69.9078 25.1054 70.9063C25.4858 71.6909 25.9969 74.4368 26.4486 77.254C30.3951 78.835 34.6745 79.7384 39.1678 79.8097C36.4932 73.8424 33.0222 65.997 32.6775 64.832C32.1544 63.049 31.6671 61.5155 33.6165 60.3625L33.7948 60.6716C32.1901 61.6463 32.4635 62.835 33.0222 64.7488C33.3669 65.89 36.8974 73.8306 39.572 79.8097C39.6314 79.8097 39.6908 79.8097 39.7503 79.8097C39.8335 79.8097 39.9048 79.8097 39.9761 79.8097V78.3001L34.2822 65.3194Z" fill="#25252D"/>
<path d="M58.841 68.006C59.578 68.3269 60.0654 68.7786 60.422 69.3254C60.5052 69.4324 60.5527 69.5038 60.5527 69.5038V68.6003C60.5527 68.006 60.2437 67.4473 59.7206 67.1739C59.5067 67.0669 59.2927 66.9837 59.0787 66.8767L59.055 67.1382C56.7845 66.8648 55.4294 69.1234 54.5854 70.8351C54.2288 71.5483 53.8009 74.2467 53.4324 77.1115C53.8841 76.9213 54.3358 76.7192 54.7875 76.5052C55.2154 74.0208 55.679 72.0119 56.1188 71.0372C56.7132 69.789 57.6523 68.743 58.841 68.006Z" fill="#25252D"/>
<path d="M54.2645 70.6567C54.7756 69.6344 56.2496 66.6151 58.8648 66.7696C58.6627 66.6745 58.4606 66.5794 58.2704 66.4843C56.8558 65.8068 55.4175 65.1886 53.9435 64.6181C53.5275 64.4516 53.1114 64.2733 52.6954 64.1188C51.364 62.5259 48.6775 60.7904 45.8246 59.6255V65.3075L40.0356 78.4308L39.9762 78.312V79.8216C40.2021 79.8216 40.4279 79.8097 40.6538 79.8097C42.3061 76.1247 46.7399 66.2228 47.2154 64.7369C47.7741 62.8588 48.0475 61.6344 46.4428 60.6597L46.6211 60.3506C48.5349 61.5036 48.0832 63.0371 47.5601 64.8201C47.0847 66.3417 42.8766 75.78 41.0579 79.8216C45.2778 79.6671 49.3194 78.7875 53.0401 77.2778C53.4324 74.2941 53.8841 71.4412 54.2645 70.6567Z" fill="#25252D"/>
<path d="M39.9761 78.312L40.0356 78.4428L45.8246 65.3195V59.6374V54.1218H34.2822V59.5899V65.3195L39.9761 78.312Z" fill="white"/>
<path d="M21.8127 69.2777C21.7652 69.2302 21.7176 69.1826 21.6701 69.1351C21.6225 69.0994 21.5869 69.0519 21.5393 69.0162C21.4918 68.9687 21.4323 68.933 21.3848 68.8974C21.1827 68.7309 20.9806 68.5764 20.7548 68.4219C20.5646 68.5051 20.41 68.6121 20.2555 68.7191C18.9836 69.6106 18.8647 71.2153 18.5913 72.8557C20.6002 74.3416 22.7756 75.6135 25.0817 76.6596C24.6062 74.3773 24.095 72.4991 23.5482 71.4293C23.0846 70.6091 22.5022 69.8959 21.8127 69.2777Z" fill="white"/>
<path d="M58.841 68.0059C57.6523 68.7429 56.7132 69.7889 56.1188 71.0371C55.6671 72.0118 55.2154 74.0207 54.7875 76.5051C57.153 75.3996 59.3759 74.0445 61.4323 72.4754C61.1708 71.2986 60.9688 70.1931 60.422 69.3253C60.0653 68.7785 59.578 68.3268 58.841 68.0059Z" fill="white"/>
<path d="M33.7949 60.6836L33.6166 60.3745C31.6671 61.5276 32.1545 63.061 32.6775 64.844C33.0223 66.0209 36.5052 73.8663 39.1679 79.8218C39.2986 79.8218 39.4413 79.8337 39.572 79.8337C36.8975 73.8545 33.367 65.9139 33.0223 64.7727C32.4636 62.847 32.1902 61.6583 33.7949 60.6836Z" fill="#585860"/>
<path d="M46.633 60.3269L46.4547 60.636C48.0594 61.6107 47.786 62.8351 47.2273 64.7132C46.7518 66.211 42.318 76.1011 40.6656 79.7861C40.7964 79.7861 40.9391 79.7861 41.0698 79.7742C42.9004 75.7326 47.1084 66.2942 47.572 64.7727C48.0951 63.0134 48.5468 61.48 46.633 60.3269Z" fill="#585860"/>
<path d="M25.1054 70.9065C24.6418 69.9079 23.1916 66.9481 20.6715 66.9837C20.5527 66.9837 20.4219 66.9837 20.2911 67.0075L20.303 67.162L20.3268 67.3641C22.5972 67.0907 23.9524 69.3492 24.7963 71.061C25.153 71.798 25.6522 74.4013 26.092 77.1234C26.2109 77.1709 26.3298 77.2185 26.4486 77.266C25.9969 74.4369 25.4858 71.691 25.1054 70.9065Z" fill="#585860"/>
<path d="M54.5854 70.835C55.4175 69.1232 56.7845 66.8528 59.055 67.1381L59.0787 66.8766L59.0906 66.7934C59.0193 66.7815 58.948 66.7815 58.8767 66.7815C56.2615 66.6151 54.7875 69.6463 54.2764 70.6686C53.8841 71.4412 53.4324 74.2941 53.052 77.2659C53.1828 77.2183 53.3016 77.1708 53.4324 77.1114C53.8009 74.2466 54.2288 71.5482 54.5854 70.835Z" fill="#585860"/>
<path d="M39.9999 46.5498C36.5764 46.5498 29.254 49.9733 24.7488 50.6984C24.9271 51.4354 25.1648 52.1605 25.4858 52.8618C27.3045 57.4265 35.6017 62.526 40.4159 62.526H40.4516C45.2659 62.526 52.6953 57.4265 54.514 52.8618C54.7874 52.1605 55.037 51.4354 55.251 50.6984C49.355 49.3789 43.3877 46.5498 39.9999 46.5498Z" fill="#2F2E3B"/>
</g>
<defs>
<clipPath id="clip0">
<rect width="80" height="79.8217" fill="white"/>
</clipPath>
</defs>
</svg>
