<svg width="444" height="532" viewBox="0 0 444 532" fill="none" xmlns="http://www.w3.org/2000/svg">
<g clip-path="url(#clip0)">
<path d="M219.697 427.193C309.026 427.193 381.442 354.641 381.442 265.144C381.442 175.647 309.026 103.095 219.697 103.095C130.368 103.095 57.9519 175.647 57.9519 265.144C57.9519 354.641 130.368 427.193 219.697 427.193Z" fill="#FFAE37"/>
<path d="M321.187 426.523L339.761 411.487C339.761 411.487 362.719 447.216 371.263 458.754C375.052 463.89 383.819 469.92 396.227 475.279L391.918 482.425C391.918 482.425 361.01 483.169 359.821 482.425C358.633 481.681 358.261 478.629 358.41 475.726C358.484 473.567 358.558 467.687 359.004 464.635C353.58 459.499 343.55 446.919 339.092 442.601C335.6 439.252 321.187 426.523 321.187 426.523Z" fill="#25252D"/>
<path d="M405.737 482.723C405.737 479.82 404.251 473.716 398.084 473.716C387.311 473.716 367.697 482.723 367.697 482.723H405.737Z" fill="#2F2E3B"/>
<path d="M196.59 463.146L173.855 412.975L192.207 404.341C192.207 404.341 197.259 422.95 198.819 427.491C204.02 442.676 208.701 457.34 212.49 467.24C215.759 475.875 218.805 480.713 216.205 482.425C215.09 483.169 178.313 482.127 178.313 482.127V474.981C186.635 469.92 193.693 466.272 196.59 463.146Z" fill="#25252D"/>
<path d="M168.432 482.723C168.432 479.82 165.014 475.726 171.032 474.311C179.354 472.302 206.472 482.723 206.472 482.723H168.432Z" fill="#2F2E3B"/>
<path d="M331.291 144.631L277.426 201.277L270.293 194.429L322.301 139.718C324.456 137.41 328.096 137.336 330.4 139.495L331.143 140.239C332.406 141.504 332.48 143.44 331.291 144.631Z" fill="#2F2E3B"/>
<path d="M276.98 201.575L269.848 194.727L106.022 367.122C105.725 367.42 105.799 367.867 106.096 368.165C106.319 368.313 106.542 368.388 106.765 368.313L114.789 365.783C118.801 364.517 122.516 362.582 125.785 360.051C127.271 358.86 276.98 201.575 276.98 201.575Z" fill="white"/>
<path d="M272.894 193.685L272.819 192.94L284.41 191.228L285.598 179.244L297.486 177.532L298.6 165.547L310.488 163.761L311.602 151.777L323.787 149.99L323.936 150.735L312.345 152.447L311.157 164.431L299.269 166.143L298.155 178.202L286.267 179.914L285.153 191.898L272.894 193.685Z" fill="#FFAE37"/>
<path d="M321.707 139.42C324.233 136.74 328.394 136.666 331.068 139.197L331.96 140.016C333.372 141.356 333.446 143.589 332.109 144.928L326.536 150.809C326.016 151.405 325.125 151.404 324.53 150.883L318.363 145.003C317.769 144.482 317.769 143.589 318.289 142.993L321.707 139.42Z" fill="#2F2E3B"/>
<path d="M283.518 207.828L263.384 188.623C262.789 188.027 262.715 187.06 263.309 186.39C263.904 185.794 264.87 185.72 265.538 186.315L285.673 205.52C286.267 206.116 286.341 207.083 285.747 207.753C285.078 208.349 284.113 208.423 283.518 207.828Z" fill="#2F2E3B"/>
<path d="M209.444 208.349C214.719 214.899 211.673 219.886 206.175 225.097C202.757 228.372 169.026 252.564 165.98 254.797C161.448 257.998 156.321 257.775 153.647 253.085C153.275 252.415 152.829 251.671 152.458 250.852C150.155 246.386 151.418 240.878 155.43 237.826C165.757 229.861 185.446 214.899 191.612 210.88C195.402 208.423 204.54 202.319 209.444 208.349Z" fill="white"/>
<path d="M220.068 188.251C211.227 189.814 199.265 198.672 195.476 205.222C190.795 207.902 186.263 210.88 181.879 214.155C180.914 214.899 180.393 216.165 180.616 217.43L180.914 219.291C180.914 219.291 181.954 216.76 183.588 216.909C187.155 217.207 192.578 224.874 196.813 236.188C199.562 243.557 209.741 284.498 209.741 284.498L235.745 279.361L220.068 188.251Z" fill="#25252D"/>
<path d="M219.994 188.251C228.836 186.762 243.101 191.079 248.896 195.918C256.177 197.332 262.121 198.3 264.721 199.788C269.699 202.543 273.34 205.669 270.219 220.11L258.48 280.627L233.591 279.213L219.994 188.251Z" fill="#25252D"/>
<path d="M245.181 273.481C243.769 270.876 210.187 209.614 208.478 205.743C206.844 202.096 206.026 198.3 210.707 195.322L211.078 195.918C207.066 198.449 207.364 201.426 209.147 205.371C210.856 209.167 245.478 272.439 245.85 273.034L245.181 273.481Z" fill="#585860"/>
<path d="M236.414 202.17L227.275 231.35L211.896 204.925L209.295 181.105L233.739 178.425L236.414 202.17Z" fill="white"/>
<path d="M219.102 103.244C212.861 99.9686 207.586 78.5308 220.588 67.0676C233.59 55.6043 257.514 57.8374 266.727 80.3173C272.745 94.9814 277.203 111.73 288.199 115.824C293.251 117.685 305.51 115.005 307.888 113.516C309.968 112.251 310.562 113.665 310.116 114.409C304.767 123.714 292.359 128.404 285.673 128.627C253.353 129.594 253.131 101.606 245.106 92.4505C239.311 85.8257 231.584 90.3663 232.253 97.9589C232.773 102.946 219.102 103.244 219.102 103.244Z" fill="#2F2E3B"/>
<path d="M255.359 107.338L249.416 101.755C249.416 101.755 245.998 89.1753 239.46 89.6219C234.036 89.9941 233.145 94.0137 233.145 94.0137L230.321 93.1949C231.064 84.4858 235.076 81.3594 240.797 80.5406C247.633 79.573 254.245 86.7189 254.319 99.4476L255.359 107.338Z" fill="#24242D"/>
<path d="M260.783 71.7571C262.641 73.8413 264.349 76.0744 265.91 78.382C256.251 57.6885 233.219 55.9765 220.588 67.0676C207.586 78.4564 212.861 99.9686 219.102 103.244C219.102 103.244 219.697 103.244 220.663 103.169L218.285 93.1205C213.976 77.2654 224.675 65.1322 237.082 63.3457C249.49 61.5592 256.771 67.2909 260.783 71.7571Z" fill="#464552"/>
<path d="M219.92 92.8227C218.731 86.4956 219.399 79.8707 221.777 74.6601C224.749 68.1097 230.321 63.7924 237.825 62.0803L237.974 62.8247C229.727 64.6856 216.799 73.097 220.588 92.7483L219.92 92.8227Z" fill="#464552"/>
<path d="M214.793 97.7356C214.496 97.7356 214.199 97.6611 213.901 97.4378C210.261 94.907 208.329 88.8031 208.255 86.2723C208.255 85.4535 208.924 84.7835 209.741 84.7835C210.558 84.7835 211.227 85.4535 211.227 86.2723C211.227 88.2821 213.01 93.1949 215.61 95.0558C216.279 95.5025 216.428 96.4701 215.982 97.1401C215.685 97.5123 215.239 97.7356 214.793 97.7356Z" fill="#2F2E3B"/>
<path d="M212.193 97.5867C212.787 90.2919 234.333 90.2919 235.819 97.1401C237.305 103.988 211.673 103.542 212.193 97.5867Z" fill="#FFAE37"/>
<path d="M225.046 101.085C217.393 96.5445 203.871 96.9912 193.173 109.645C186.189 117.982 182.622 128.925 183.811 136.294C185 143.663 181.879 144.705 183.44 151.107C185 157.508 191.835 159.593 191.835 159.593C191.835 159.593 257.365 158.55 259.074 158.253C260.783 157.955 268.361 152.595 268.659 143.44C269.922 108.231 249.416 100.713 240.797 98.5543C232.55 96.5445 225.046 101.085 225.046 101.085Z" fill="#2F2E3B"/>
<path d="M240.872 98.5543C232.625 96.5445 225.046 101.085 225.046 101.085C225.492 100.936 224.229 101.904 224.675 101.83C235.819 99.2243 248.45 101.606 256.92 113.07C266.653 126.245 266.207 146.343 261.749 156.764C265.91 153.563 268.436 148.725 268.733 143.44C269.996 108.231 249.49 100.639 240.872 98.5543Z" fill="#464552"/>
<path d="M257.811 154.68C261.675 150.511 265.315 149.097 268.064 150.66C270.813 152.223 266.95 165.622 263.606 166.069C260.263 166.515 256.845 162.347 256.845 162.347L257.811 154.68Z" fill="white"/>
<path d="M191.538 155.945C187.452 151.926 183.811 150.66 181.137 152.298C178.462 153.935 182.771 167.185 186.189 167.483C189.607 167.781 192.801 163.463 192.801 163.463L191.538 155.945Z" fill="white"/>
<path d="M224.303 111.73C217.319 111.879 189.458 114.335 190.572 143.886C191.464 167.557 192.207 171.428 194.733 177.383C198.819 187.06 216.651 197.63 226.904 197.406C237.157 197.183 252.759 186.018 256.474 176.192C258.777 170.163 259.372 166.292 259.297 142.621C259.223 112.921 231.287 111.581 224.303 111.73Z" fill="white"/>
<path d="M220.068 115.973C220.588 122.746 223.56 134.433 234.853 138.08C235.894 138.378 236.859 136.74 235.819 136.071C234.185 134.954 228.39 131.307 228.687 124.682C228.687 124.682 234.705 133.763 242.803 135.922C243.472 136.071 244.215 135.773 244.438 135.103C244.661 134.656 244.735 134.21 244.809 133.689C244.809 133.689 252.536 136.145 257.737 135.475C256.771 117.461 251.124 109.05 240.723 104.212C230.321 99.3732 223.04 103.169 223.04 103.169C223.04 103.169 219.474 107.487 220.068 115.973Z" fill="#CCCCCC"/>
<path d="M225.343 163.314C218.062 163.463 200.379 172.172 192.058 167.483C192.132 170.981 194.064 175.82 194.733 177.383C198.819 187.06 216.65 197.63 226.903 197.406H226.978C237.231 197.258 252.833 186.018 256.548 176.192C257.663 173.14 258.405 169.939 258.703 166.664C244.809 169.493 232.624 163.166 225.343 163.314Z" fill="#2F2E3B"/>
<path d="M215.462 124.831C222.446 118.057 224.303 111.73 224.303 111.73L225.046 101.085C225.046 101.085 218.36 95.1303 204.094 100.564C196.368 103.467 183.143 113.665 183.143 131.828C183.143 135.252 182.845 139.495 182.845 139.495C182.845 139.495 202.831 137.113 215.462 124.831Z" fill="#2F2E3B"/>
<path d="M191.241 179.244C190.646 179.244 190.126 178.872 189.829 178.351C189.458 177.457 181.062 156.168 192.058 132.051C192.43 131.307 193.247 131.009 193.99 131.307C194.733 131.679 195.03 132.498 194.733 133.242C184.257 156.168 192.43 176.936 192.504 177.16C192.801 177.904 192.43 178.797 191.687 179.095C191.612 179.169 191.389 179.244 191.241 179.244Z" fill="#2F2E3B"/>
<path d="M258.257 186.911C258.109 186.911 258.034 186.911 257.886 186.836C257.068 186.613 256.623 185.794 256.846 185.05C256.92 184.752 264.35 155.722 254.542 133.093C254.245 132.349 254.542 131.455 255.285 131.158C256.028 130.86 256.92 131.158 257.217 131.902C267.47 155.499 260.04 184.603 259.669 185.794C259.52 186.464 258.926 186.911 258.257 186.911Z" fill="#2F2E3B"/>
<path d="M221.257 113.516C221.406 120.29 223.709 132.125 234.779 136.443C235.745 136.815 236.859 135.252 235.894 134.507C234.333 133.316 228.761 129.297 229.43 122.746C229.43 122.746 234.928 132.125 242.877 134.731C243.546 134.954 244.289 134.656 244.586 134.061C244.809 133.614 244.958 133.167 245.032 132.721C245.032 132.721 253.428 135.922 258.703 135.549C258.777 117.536 252.61 108.827 242.655 103.095C235.671 99.0754 224.749 101.83 224.749 101.83C224.749 101.83 221.034 105.03 221.257 113.516Z" fill="#2F2E3B"/>
<path d="M183.96 132.2C186.635 114.112 198.374 104.881 206.026 101.904C215.833 98.1822 222.074 99.8198 225.046 101.234V101.011C225.046 101.011 218.36 95.0558 204.094 100.49C196.368 103.393 183.143 113.591 183.143 131.753C183.143 135.177 182.845 139.42 182.845 139.42C182.845 139.42 183.663 134.21 183.96 132.2Z" fill="#464552"/>
<path d="M209.666 102.276C202.905 104.881 191.241 113.814 191.241 129.818C191.241 129.892 191.464 130.041 191.464 130.041C193.841 114.112 204.614 106.147 211.375 103.542C217.17 101.309 221.554 101.309 224.6 101.83C224.674 101.755 224.972 101.755 224.972 101.681C224.972 101.532 224.972 101.308 224.972 101.16C222.148 100.118 217.022 99.4476 209.666 102.276Z" fill="#464552"/>
<path d="M220.663 294.1L254.022 285.242C286.044 320.451 300.829 355.957 314.871 373.375C317.398 376.576 319.701 379.926 321.707 383.424C330.622 398.907 349.643 422.355 358.707 435.232C349.568 449.301 340.132 453.767 327.502 457.489C316.952 436.274 291.022 391.538 291.096 391.538C279.06 373.152 269.624 363.252 250.679 344.643C221.628 316.282 220.663 294.1 220.663 294.1Z" fill="#2F2E3B"/>
<path d="M249.564 287.922C249.564 287.922 242.209 307.201 235.448 318.887C223.857 337.645 209.889 346.95 194.361 366.676C198.745 377.99 211.152 423.694 222.966 445.802C211.895 452.948 188.343 449.152 177.644 444.388C175.861 431.882 169.397 390.942 161.671 374.566C158.847 368.462 159.293 361.391 163.008 355.734C174.598 338.092 186.263 310.476 208.552 285.093L249.564 287.922Z" fill="#2F2E3B"/>
<path d="M319.158 394.166C321.421 392.752 321.073 388.099 318.381 383.773C315.689 379.447 311.672 377.087 309.409 378.501C307.145 379.914 307.493 384.567 310.185 388.893C312.877 393.219 316.894 395.58 319.158 394.166Z" fill="#464552"/>
<path d="M167.755 376.497C170.382 376.03 171.789 371.582 170.899 366.563C170.009 361.544 167.159 357.854 164.533 358.321C161.907 358.789 160.499 363.236 161.389 368.256C162.279 373.275 165.129 376.965 167.755 376.497Z" fill="#464552"/>
<path d="M207.735 276.831L260.338 271.918L258.331 289.634L208.032 285.242L207.735 276.831Z" fill="#CCCCCC"/>
<path d="M208.032 285.391V285.019L256.845 283.604L207.661 278.17V277.798L259.52 283.53L259.446 283.902L208.032 285.391Z" fill="#2F2E3B"/>
<path d="M228.687 242.143L227.944 241.92C229.95 235.593 238.494 205.222 239.088 201.649C239.237 200.905 239.386 200.235 239.46 199.64C240.054 197.034 240.203 196.215 237.38 195.024L237.677 194.355C241.02 195.843 240.723 197.109 240.203 199.788C240.054 200.384 239.906 201.054 239.831 201.798C239.237 205.371 230.693 235.816 228.687 242.143Z" fill="#585860"/>
<path d="M203.351 248.917C203.277 248.693 195.253 225.767 193.024 222.343C192.876 222.045 192.653 221.747 192.43 221.45C190.275 218.025 187.229 213.262 182.994 214.378L182.845 213.634C187.6 212.443 190.944 217.579 193.098 221.077C193.321 221.375 193.47 221.673 193.619 221.971C195.847 225.395 203.649 247.726 204.02 248.693L203.351 248.917Z" fill="#585860"/>
<path d="M250.307 240.282C250.307 239.166 249.49 213.113 250.827 209.167C253.353 201.724 257.44 198.225 262.938 198.672L262.863 199.416C257.737 198.97 253.948 202.319 251.496 209.391C250.158 213.187 250.976 239.984 250.976 240.282H250.307Z" fill="#585860"/>
<path d="M262.195 202.319C269.996 205.446 269.104 211.847 266.504 219.812C265.092 224.204 248.747 260.975 247.187 264.325C244.958 269.238 240.426 271.471 235.745 268.791C232.104 266.707 226.532 262.464 226.532 262.464C226.532 262.464 242.283 223.534 246.815 214.75C248.821 210.88 253.948 199.044 262.195 202.319Z" fill="white"/>
<path d="M234.928 249.587C242.803 253.532 243.695 266.93 238.197 270.652C226.235 269.982 197.63 261.199 197.63 261.199L200.231 252.936L234.928 249.587Z" fill="#464552"/>
<path d="M207.958 165.994C209.148 165.994 210.112 165.028 210.112 163.835C210.112 162.643 209.148 161.677 207.958 161.677C206.768 161.677 205.803 162.643 205.803 163.835C205.803 165.028 206.768 165.994 207.958 165.994Z" fill="#CCCCCC"/>
<path d="M242.878 165.101C244.067 165.101 245.032 164.134 245.032 162.942C245.032 161.75 244.067 160.784 242.878 160.784C241.688 160.784 240.723 161.75 240.723 162.942C240.723 164.134 241.688 165.101 242.878 165.101Z" fill="#CCCCCC"/>
<path d="M219.326 142.323C219.697 144.407 218.583 147.087 218.583 147.087C218.583 147.087 206.472 144.184 201.791 144.259C199.563 144.333 195.848 145.971 195.848 145.971C195.848 145.971 199.414 140.313 202.534 140.09C207.364 139.867 219.326 142.323 219.326 142.323Z" fill="#2F2E3B"/>
<path d="M231.51 141.877C231.139 143.961 232.402 146.566 232.402 146.566C232.402 146.566 244.438 143.44 249.119 143.44C251.348 143.44 255.137 145.077 255.137 145.077C255.137 145.077 251.496 139.495 248.301 139.346C243.472 139.197 231.51 141.877 231.51 141.877Z" fill="#2F2E3B"/>
<path d="M196.888 150.66C196.071 151.032 197.408 152.968 199.191 152.595C202.609 151.777 206.026 151.479 209.518 151.702C214.125 151.926 219.846 155.499 220.366 155.796C220.886 156.094 221.109 155.796 220.737 155.275C220.366 154.754 215.165 149.841 209.37 149.171C205.135 148.65 200.9 149.171 196.888 150.66Z" fill="#2F2E3B"/>
<path d="M212.848 153.82C212.937 151.396 210.949 149.355 208.406 149.261C205.864 149.168 203.731 151.056 203.642 153.48C203.553 155.904 205.541 157.945 208.084 158.039C210.626 158.133 212.759 156.244 212.848 153.82Z" fill="#2F2E3B"/>
<path d="M254.171 149.544C254.988 149.841 253.725 151.851 251.942 151.553C248.524 150.883 245.032 150.735 241.54 151.107C236.934 151.553 231.361 155.275 230.841 155.647C230.321 156.02 230.098 155.647 230.47 155.126C230.841 154.605 235.819 149.469 241.54 148.576C245.849 147.832 250.159 148.129 254.171 149.544Z" fill="#2F2E3B"/>
<path d="M243.282 157.27C245.818 157.076 247.725 154.958 247.541 152.54C247.357 150.121 245.152 148.318 242.615 148.512C240.078 148.705 238.171 150.823 238.355 153.242C238.539 155.66 240.745 157.464 243.282 157.27Z" fill="#2F2E3B"/>
<path d="M230.173 177.904L226.161 177.978L229.133 168.823L221.257 180.881L225.121 180.807L222.297 189.963L230.173 177.904Z" fill="#464552"/>
<path d="M203.723 154.829C204.338 154.829 204.837 154.329 204.837 153.712C204.837 153.095 204.338 152.595 203.723 152.595C203.107 152.595 202.608 153.095 202.608 153.712C202.608 154.329 203.107 154.829 203.723 154.829Z" fill="white"/>
<path d="M238.791 154.382C239.407 154.382 239.906 153.882 239.906 153.265C239.906 152.649 239.407 152.149 238.791 152.149C238.176 152.149 237.677 152.649 237.677 153.265C237.677 153.882 238.176 154.382 238.791 154.382Z" fill="white"/>
<path d="M217.022 147.459L216.354 147.236C217.022 145.226 217.394 143.142 217.468 141.058H218.211C218.137 143.216 217.765 145.375 217.022 147.459Z" fill="white"/>
<path d="M186.635 269.61L162.042 195.322L171.404 192.196L195.104 263.879C196.07 266.93 194.436 270.131 191.464 271.173L190.424 271.546C188.938 272.067 187.155 271.173 186.635 269.61Z" fill="#2F2E3B"/>
<path d="M162.042 194.801L171.404 191.675L96.6607 -34.2409C96.5121 -34.6131 96.1406 -34.8364 95.6948 -34.6876C95.4719 -34.6131 95.2491 -34.3898 95.1748 -34.0921L93.6145 -25.904C92.7972 -21.81 92.7972 -17.5671 93.5402 -13.4731C93.9117 -11.5377 162.042 194.801 162.042 194.801Z" fill="white"/>
<path d="M185.446 260.454L184.777 260.231L188.715 249.14L178.685 242.515L182.771 231.126L172.741 224.501L176.753 213.187L166.723 206.562L170.884 194.876L171.627 195.173L167.614 206.19L177.719 212.889L173.633 224.204L183.663 230.829L179.576 242.217L189.606 248.842L185.446 260.454Z" fill="#FFAE37"/>
<path d="M195.773 263.581C196.887 267.079 195.03 270.801 191.612 271.918L190.424 272.29C188.566 272.885 186.634 271.918 186.04 270.057L183.514 262.315C183.291 261.571 183.663 260.752 184.406 260.529L192.504 257.849C193.247 257.626 194.064 257.998 194.287 258.742L195.773 263.581Z" fill="#2F2E3B"/>
<path d="M153.498 197.63L179.873 188.846C180.691 188.548 181.582 188.995 181.879 189.814C182.177 190.633 181.731 191.526 180.914 191.824L154.538 200.607C153.721 200.905 152.829 200.458 152.532 199.64C152.235 198.746 152.681 197.853 153.498 197.63Z" fill="#2F2E3B"/>
<path d="M176.159 200.235L180.319 209.763L179.205 213.559L172.518 217.356L171.478 218.844L163.156 214.378C164.048 212.592 165.237 210.954 166.648 209.614L176.159 200.235Z" fill="white"/>
<path d="M194.733 251.001C189.904 248.321 177.05 247.651 177.05 247.651L180.765 262.241L193.544 260.827L197.705 261.199L200.305 252.936L194.733 251.001Z" fill="white"/>
<path d="M165.534 253.085C159.739 259.71 150.155 255.839 148 249.587C151.715 238.198 163.082 214.378 163.082 214.378L171.329 218.844L165.534 253.085Z" fill="#464552"/>
</g>
<defs>
<clipPath id="clip0">
<rect width="444" height="532" fill="white"/>
</clipPath>
</defs>
</svg>
