<svg width="444" height="530" viewBox="0 0 444 530" fill="none" xmlns="http://www.w3.org/2000/svg">
<path d="M227.721 418.839C317.05 418.839 389.466 346.56 389.466 257.399C389.466 168.238 317.05 95.9591 227.721 95.9591C138.392 95.9591 65.9761 168.238 65.9761 257.399C65.9761 346.56 138.392 418.839 227.721 418.839Z" fill="#FFAE37"/>
<path d="M145.994 425.142L127.42 410.162C127.42 410.162 104.462 445.758 95.9177 457.252C92.1286 462.369 83.3615 468.376 70.9539 473.715L75.2631 480.834C75.2631 480.834 106.245 481.576 107.359 480.834C108.474 480.092 108.92 477.052 108.771 474.16C108.697 472.009 108.623 466.151 108.177 463.11C113.6 457.994 123.631 445.461 128.088 441.16C131.58 437.823 145.994 425.142 145.994 425.142Z" fill="#25252D"/>
<path d="M61.5181 481.131C61.5181 478.238 63.004 472.158 69.1707 472.158C79.9438 472.158 99.4839 481.131 99.4839 481.131H61.5181Z" fill="#2F2E3B"/>
<path d="M270.664 461.627L293.399 411.645L275.048 403.043C275.048 403.043 269.996 421.582 268.436 426.106C263.235 441.234 258.554 455.843 254.765 465.706C251.496 474.308 248.45 479.128 251.05 480.834C252.164 481.575 288.942 480.537 288.942 480.537V473.418C280.546 468.376 273.488 464.742 270.664 461.627Z" fill="#25252D"/>
<path d="M298.749 481.131C298.749 478.238 302.167 474.16 296.149 472.751C287.827 470.823 260.709 481.131 260.709 481.131H298.749Z" fill="#2F2E3B"/>
<path d="M117.315 187.395L179.725 229.59L174.227 237.747L109.588 194.069C108.177 193.105 107.805 191.251 108.771 189.842L109.365 188.952C111.149 186.357 114.715 185.615 117.315 187.395Z" fill="#2F2E3B"/>
<path d="M174.747 237.97L180.245 229.812L376.984 362.702C377.355 362.924 377.43 363.369 377.207 363.74C377.058 363.963 376.761 364.111 376.538 364.037L368.217 363.295C364.056 362.924 360.044 361.812 356.255 360.032C354.472 359.142 174.747 237.97 174.747 237.97Z" fill="white"/>
<path d="M172.518 235.3L168.952 224.102L156.916 224.918L153.275 213.498L141.313 214.388L137.598 202.894L125.636 203.783L121.922 192.067L122.59 191.844L126.157 202.968L138.118 202.152L141.833 213.572L153.795 212.756L157.436 224.177L169.472 223.361L173.187 235.078L172.518 235.3Z" fill="#FFAE37"/>
<path d="M117.835 186.95C114.789 184.873 110.703 185.689 108.622 188.73L107.954 189.768C106.839 191.399 107.285 193.55 108.845 194.588L115.606 199.112C116.275 199.556 117.167 199.408 117.612 198.741L122.367 191.696C122.813 191.028 122.665 190.139 121.996 189.694L117.835 186.95Z" fill="#2F2E3B"/>
<path d="M167.169 243.606L182.771 220.617C183.291 219.875 184.257 219.727 184.926 220.172C185.669 220.691 185.817 221.655 185.372 222.323L169.769 245.311C169.249 246.053 168.283 246.201 167.614 245.756C166.872 245.311 166.649 244.347 167.169 243.606Z" fill="#2F2E3B"/>
<path d="M264.869 203.858C264.869 203.858 261.972 200.298 255.359 200.224C247.484 200.076 242.432 204.673 235.002 204.673C226.458 200.52 217.022 204.822 211.227 208.529C203.5 212.163 195.996 219.875 192.281 228.848C188.195 232.408 184.257 236.116 180.616 240.12C179.799 241.084 179.576 242.419 180.022 243.606L180.691 245.385C180.691 245.385 181.285 242.716 182.92 242.567C186.486 242.197 193.247 248.723 199.488 258.956C203.574 265.63 217.914 301.522 217.914 301.522L245.775 293.884L245.478 293.217L245.775 293.884L263.829 291.882C263.829 291.882 268.733 273.862 268.733 238.341C268.807 227.365 264.869 203.858 264.869 203.858Z" fill="#25252D"/>
<path d="M256.103 309.754L222.817 297.963C187.303 323.324 163.603 361.664 148.595 378.201C145.846 381.241 143.394 384.43 141.165 387.841C131.432 402.672 114.641 428.257 104.833 440.493C113.155 455.027 122.368 459.922 134.701 464.371C146.44 443.904 171.329 397.556 171.255 397.481C180.84 388.434 208.552 363.518 222.297 354.915C256.846 333.558 256.103 309.754 256.103 309.754Z" fill="#2F2E3B"/>
<path d="M222.743 297.963C222.743 297.963 233.07 322.138 239.832 333.855C251.422 352.542 264.721 358.252 280.249 377.904C275.866 389.176 256.103 422.398 244.289 444.423C255.36 451.542 278.912 447.76 289.611 443.014C291.394 430.556 305.213 402.079 313.014 385.765C315.838 379.684 315.317 372.565 311.677 367.003C300.087 349.428 285.153 314.5 261.972 290.325L222.743 297.963Z" fill="#2F2E3B"/>
<path d="M214.719 293.439L267.693 280.907L266.207 294.996L216.725 302.486L214.719 293.439Z" fill="#CCCCCC"/>
<path d="M152.662 391.628C155.612 387.491 156.243 382.885 154.07 381.342C151.897 379.798 147.743 381.9 144.793 386.038C141.842 390.175 141.212 394.781 143.385 396.325C145.558 397.868 149.711 395.766 152.662 391.628Z" fill="#464552"/>
<path d="M313.275 379.394C314.165 374.393 312.758 369.962 310.132 369.497C307.506 369.031 304.655 372.707 303.765 377.708C302.875 382.708 304.283 387.139 306.909 387.605C309.535 388.07 312.385 384.394 313.275 379.394Z" fill="#464552"/>
<path d="M234.185 216.983L230.916 247.239L210.707 224.399L203.426 201.707L226.904 194.291L234.185 216.983Z" fill="white"/>
<path d="M207.141 213.275L210.707 224.399L220.291 235.226L230.916 247.239L232.476 238.785L222 230.925L227.721 220.098L232.179 210.828L230.098 204.154L207.141 213.275Z" fill="#CCCCCC"/>
<path d="M242.952 268.003C241.466 266.446 207.066 228.997 204.689 225.586C202.46 222.323 200.528 219.505 203.649 215.945L204.243 216.464C201.643 219.505 202.831 221.655 205.283 225.215C207.586 228.626 243.101 267.188 243.472 267.558L242.952 268.003Z" fill="#585860"/>
<path d="M235.076 257.399L234.333 257.325C235.076 250.799 236.637 218.689 236.562 214.833C236.488 211.347 234.853 207.195 230.544 206.156L230.693 205.415C234.705 206.379 237.231 210.013 237.305 214.833C237.38 218.689 235.819 250.873 235.076 257.399Z" fill="#585860"/>
<path d="M211.078 266.817L210.335 266.743C211.227 258.437 196.888 245.237 193.098 242.642C187.898 239.008 183.886 238.266 180.988 240.417L180.542 239.824C185.372 236.264 191.538 240.639 193.544 242.048C197.556 244.792 212.044 258.066 211.078 266.817Z" fill="#585860"/>
<path d="M259.817 253.024C259.743 252.727 251.125 222.693 250.084 218.763C247.707 209.271 249.416 203.116 255.137 199.927L255.508 200.595C250.01 203.635 248.524 209.345 250.753 218.615C251.719 222.545 260.337 252.579 260.412 252.875L259.817 253.024Z" fill="#585860"/>
<path d="M212.564 127.402C205.952 125.029 197.854 104.487 209.221 91.5097C220.588 78.5322 244.586 77.4198 256.771 98.4063C264.721 112.125 262.121 138.006 276.98 143.123C279.729 144.161 282.701 144.606 285.598 144.458C286.044 144.384 286.49 144.754 286.564 145.199C286.564 145.496 286.49 145.793 286.267 146.015C282.107 149.13 274.082 153.505 267.544 152.393C241.54 148.017 246.221 121.247 237.082 113.312C230.396 107.528 223.263 113.608 223.783 120.802C224.08 125.77 212.564 127.402 212.564 127.402Z" fill="#2F2E3B"/>
<path d="M250.233 142.307C244.215 132.667 243.175 124.732 240.575 118.577C239.46 115.907 235.82 110.197 230.693 110.939C224.229 111.829 223.486 118.799 223.486 118.799L220.217 117.242C219.846 107.231 224.601 102.337 230.322 101.373C238.197 100.038 242.506 106.638 244.587 116.946C245.998 124.139 245.553 130.442 250.233 142.307Z" fill="#24242D"/>
<path d="M249.639 90.694C251.719 92.5479 253.725 94.476 255.582 96.5524C243.249 77.4199 220.217 78.8288 209.147 91.5097C197.779 104.487 205.952 125.029 212.49 127.402C212.49 127.402 213.084 127.328 214.05 127.105L210.335 117.539C203.946 102.485 212.936 89.0625 224.972 85.5771C237.008 82.0918 245.032 86.8378 249.639 90.694Z" fill="#464552"/>
<path d="M211.97 117.02C209.89 110.939 209.667 104.339 211.376 98.7771C213.456 91.9546 218.434 86.912 225.641 84.1682L225.864 84.8356C217.914 87.8018 206.249 97.813 212.639 116.723L211.97 117.02Z" fill="#464552"/>
<path d="M204.615 117.984C204.243 117.984 203.872 117.835 203.649 117.613C200.38 114.647 199.117 108.343 199.414 105.822C199.488 105.006 200.231 104.413 201.048 104.487C201.866 104.561 202.46 105.303 202.386 106.119C202.163 108.047 203.277 113.238 205.655 115.388C206.249 115.907 206.324 116.871 205.729 117.465C205.432 117.835 205.06 117.984 204.615 117.984Z" fill="#2F2E3B"/>
<path d="M225.789 120.283C225.046 113.089 203.5 113.46 202.163 120.283C200.825 127.105 226.384 126.141 225.789 120.283Z" fill="#FFAE37"/>
<path d="M183.44 145.57C192.281 135.856 203.054 137.71 203.054 137.71L201.048 127.921C201.048 127.921 190.647 123.768 179.131 132.222C172.89 136.82 166.352 149.797 170.884 166.186C171.701 169.226 172.964 173.824 172.964 173.824C173.558 171.451 172.89 157.064 183.44 145.57Z" fill="#2F2E3B"/>
<path d="M175.862 199.037C175.193 199.037 174.598 198.592 174.45 197.925C174.153 196.887 167.54 172.934 180.171 148.24C180.542 147.498 181.434 147.202 182.177 147.572C182.92 147.943 183.217 148.833 182.845 149.575C170.809 173.231 177.273 196.887 177.347 197.109C177.57 197.925 177.125 198.741 176.307 198.963C176.159 199.037 176.01 199.037 175.862 199.037Z" fill="#2F2E3B"/>
<path d="M179.056 177.754C178.536 177.754 178.016 177.458 177.719 176.939C175.416 172.341 174.599 155.136 181.062 147.35C181.582 146.757 182.548 146.608 183.143 147.127C183.737 147.647 183.886 148.611 183.366 149.204C177.868 155.804 178.462 171.599 180.394 175.53C180.765 176.271 180.468 177.161 179.725 177.532C179.502 177.68 179.279 177.754 179.056 177.754Z" fill="#2F2E3B"/>
<path d="M176.01 148.833C170.141 138.006 185.817 115.388 209.518 121.247C249.936 116.945 260.04 157.658 252.536 172.341C244.364 188.433 235.374 193.995 235.374 193.995L176.01 148.833Z" fill="#2F2E3B"/>
<path d="M194.659 135.337C182.771 136.745 174.524 146.312 174.227 165.518C174.227 166.705 176.307 167.966 176.233 170.19C176.159 173.157 175.193 173.231 175.044 176.049C174.896 178.199 175.119 180.35 175.639 182.426C178.982 198.889 191.464 213.869 205.06 214.907C220.366 216.093 236.562 201.559 240.352 190.954C244.141 180.35 249.044 129.033 194.659 135.337Z" fill="white"/>
<path d="M199.117 131.925C198.968 138.673 200.751 150.539 211.599 155.359C212.564 155.804 213.679 154.246 212.787 153.505C211.301 152.244 205.878 148.017 206.844 141.566C206.844 141.566 211.97 151.132 219.771 154.098C220.44 154.321 221.183 154.098 221.48 153.505C221.703 153.06 221.926 152.615 222 152.17C222 152.17 231.362 155.359 236.562 155.211C237.38 137.265 230.619 129.923 220.886 123.768C214.05 119.467 202.683 122.656 202.683 122.656C202.683 122.656 199.265 123.471 199.117 131.925Z" fill="#2F2E3B"/>
<path d="M225.418 118.577C216.651 116.649 208.85 121.692 208.85 121.692C209.295 121.543 208.032 122.581 208.478 122.507C220.143 119.393 233.516 121.617 242.729 133.334C253.354 146.905 253.502 167.891 249.119 179.015C253.354 175.53 255.954 170.339 256.028 164.851C256.4 127.847 234.631 120.579 225.418 118.577Z" fill="#464552"/>
<path d="M241.912 172.489C245.924 168.559 249.416 167.372 252.091 169.004C254.765 170.635 250.456 183.464 247.113 183.761C243.769 184.058 240.649 179.831 240.649 179.831L241.912 172.489Z" fill="white"/>
<path d="M237.825 180.201C237.677 180.201 237.603 180.201 237.454 180.127C236.637 179.905 236.191 179.089 236.414 178.347C236.488 178.199 240.649 162.107 233.739 145.941C233.442 145.199 233.739 144.309 234.556 144.013C235.299 143.716 236.191 144.013 236.488 144.829C243.844 161.959 239.534 178.496 239.311 179.163C239.089 179.756 238.494 180.201 237.825 180.201Z" fill="#2F2E3B"/>
<path d="M194.287 181.536C187.675 181.981 184.183 187.765 175.639 182.426C178.759 203.635 196.07 214.091 201.271 214.907C216.354 217.132 230.321 207.788 238.42 196.071C240.352 193.253 241.689 189.249 242.358 182.13C223.115 189.026 202.088 180.943 194.287 181.536Z" fill="#2F2E3B"/>
<path d="M175.193 148.759C180.765 148.314 194.139 144.384 197.928 131.925C176.827 128.588 175.193 148.759 175.193 148.759Z" fill="#2F2E3B"/>
<path d="M194.51 121.988C187.601 124.287 175.639 132.667 174.896 148.611C174.896 148.685 175.119 148.833 175.119 148.833C178.165 133.112 189.309 125.622 196.145 123.323C202.089 121.395 205.506 121.84 208.478 122.507C208.552 122.433 209.815 122.137 209.815 122.062C209.89 121.766 209.667 121.617 210.038 121.247C207.141 120.06 201.94 119.541 194.51 121.988Z" fill="#464552"/>
<path d="M202.014 193.846L198.077 194.588L199.488 185.096L193.693 198.296L197.482 197.554L196.219 207.046L202.014 193.846Z" fill="#464552"/>
<path d="M203.203 157.584C202.757 159.66 203.872 162.33 203.872 162.33C203.872 162.33 216.056 159.734 220.737 159.957C222.966 160.031 226.681 161.81 226.681 161.81C226.681 161.81 223.263 156.1 220.068 155.804C215.239 155.359 203.203 157.584 203.203 157.584Z" fill="#2F2E3B"/>
<path d="M227.424 166.408C228.241 166.705 226.904 168.262 225.195 167.891C221.777 167.15 218.285 166.853 214.868 167.001C210.261 167.076 204.615 169.819 204.095 170.116C203.574 170.413 203.352 170.116 203.723 169.671C204.095 169.226 209.221 165.444 214.942 164.925C219.103 164.554 223.412 165.073 227.424 166.408Z" fill="#2F2E3B"/>
<path d="M216.937 174.185C219.479 174.1 221.475 172.074 221.394 169.659C221.313 167.244 219.187 165.355 216.644 165.439C214.102 165.524 212.106 167.55 212.187 169.965C212.268 172.38 214.394 174.269 216.937 174.185Z" fill="#2F2E3B"/>
<path d="M212.639 171.006C213.254 171.006 213.753 170.508 213.753 169.894C213.753 169.279 213.254 168.781 212.639 168.781C212.023 168.781 211.524 169.279 211.524 169.894C211.524 170.508 212.023 171.006 212.639 171.006Z" fill="white"/>
<path d="M183.143 182.797C184.333 182.797 185.297 181.834 185.297 180.646C185.297 179.459 184.333 178.496 183.143 178.496C181.953 178.496 180.988 179.459 180.988 180.646C180.988 181.834 181.953 182.797 183.143 182.797Z" fill="#CCCCCC"/>
<path d="M216.948 183.538C218.138 183.538 219.103 182.576 219.103 181.388C219.103 180.2 218.138 179.237 216.948 179.237C215.758 179.237 214.793 180.2 214.793 181.388C214.793 182.576 215.758 183.538 216.948 183.538Z" fill="#CCCCCC"/>
<path d="M189.978 157.435C190.127 159.067 189.904 160.624 189.458 162.181C189.458 162.181 180.245 160.031 176.753 160.402C175.044 160.624 172.295 162.478 172.295 162.478C172.295 162.478 174.896 156.62 177.273 156.249C180.914 155.73 189.978 157.435 189.978 157.435Z" fill="#2F2E3B"/>
<path d="M168.209 165.593C167.318 165.889 168.655 167.595 170.438 167.372C173.856 166.779 177.348 166.631 180.84 166.927C185.446 167.298 190.944 170.561 191.538 170.858C192.133 171.154 192.281 170.858 191.91 170.413C191.538 169.968 186.56 165.518 180.84 164.703C176.605 164.109 172.37 164.406 168.209 165.593Z" fill="#2F2E3B"/>
<path d="M188.524 170.871C188.717 168.462 186.817 166.346 184.281 166.144C181.745 165.942 179.533 167.731 179.341 170.14C179.148 172.548 181.048 174.665 183.584 174.866C186.12 175.068 188.332 173.279 188.524 170.871Z" fill="#2F2E3B"/>
<path d="M179.948 170.783C180.563 170.783 181.062 170.285 181.062 169.671C181.062 169.057 180.563 168.559 179.948 168.559C179.332 168.559 178.833 169.057 178.833 169.671C178.833 170.285 179.332 170.783 179.948 170.783Z" fill="white"/>
<path d="M188.418 162.626L187.675 162.478C188.195 160.476 188.418 158.325 188.418 156.249H189.161C189.235 158.399 188.938 160.55 188.418 162.626Z" fill="white"/>
<path d="M252.759 211.051C253.799 221.878 258.406 233.817 262.344 235.078C266.281 236.338 267.099 220.84 266.356 216.687C265.613 212.534 252.759 211.051 252.759 211.051Z" fill="#CCCCCC"/>
<path d="M252.833 208.455C253.354 204.822 256.623 202.226 260.263 202.449C262.641 202.449 265.018 202.968 267.099 204.08C271.482 206.156 305.733 223.732 309.002 225.882C313.757 228.997 315.466 233.965 312.048 238.118C309.448 241.307 303.801 242.938 303.801 242.938C303.801 242.938 265.687 225.363 257.143 219.282C253.576 216.687 252.462 211.644 252.833 208.455Z" fill="white"/>
<path d="M296.371 224.696C305.138 225.066 311.528 236.783 308.036 242.419C296.892 246.72 265.018 251.689 265.018 251.689L264.126 244.496L296.371 224.696Z" fill="#464552"/>
<path d="M216.131 299.965L216.056 299.668L262.789 285.282L220.217 294.774L220.143 294.403L267.321 283.873L267.396 284.244L218.434 299.298L266.356 292.623L266.43 292.994L216.131 299.965Z" fill="#2F2E3B"/>
<path d="M185.223 242.493C183.217 241.974 181.137 243.161 180.617 245.163C180.542 245.534 180.468 245.905 180.468 246.35C180.617 248.797 181.805 251.244 182.846 254.062C184.629 258.511 207.884 294.477 210.261 297.444C213.753 301.819 217.691 302.486 222.669 299.298C226.161 297.073 230.024 290.918 230.024 290.918C230.024 290.918 200.9 251.318 192.43 245.534C190.647 244.199 186.783 242.938 185.223 242.493Z" fill="white"/>
<path d="M219.4 277.347C212.044 284.837 217.468 298.556 224.229 299.817C234.631 293.958 258.406 274.974 258.406 274.974L252.833 266.298L219.4 277.347Z" fill="#464552"/>
<path d="M300.012 297.444L240.352 247.165L246.741 239.601L304.321 288.1C306.773 290.176 307.07 293.736 304.99 296.183L304.321 296.999C303.207 298.408 301.275 298.556 300.012 297.444Z" fill="#2F2E3B"/>
<path d="M239.98 246.794L246.37 239.23L64.8615 86.3187C64.5643 86.0221 64.0442 86.0962 63.8213 86.3929C63.6727 86.6153 63.5984 86.912 63.6727 87.1344L66.6446 94.9209C68.1305 98.7771 70.2852 102.411 73.0342 105.525C74.3715 107.009 239.98 246.794 239.98 246.794Z" fill="white"/>
<path d="M293.474 290.473L291.096 278.979L279.06 278.608L276.608 266.817L264.646 266.446L262.195 254.655L250.158 254.284L247.632 242.197L248.375 242.048L250.753 253.543L262.789 253.988L265.241 265.704L277.277 266.149L279.729 277.866L291.691 278.311L294.217 290.325L293.474 290.473Z" fill="#FFAE37"/>
<path d="M304.618 287.581C307.442 289.954 307.739 294.107 305.436 296.85L304.618 297.814C303.355 299.298 301.201 299.446 299.715 298.259L293.474 292.994C292.88 292.475 292.805 291.585 293.325 290.992L298.823 284.54C299.343 283.947 300.235 283.873 300.829 284.392L304.618 287.581Z" fill="#2F2E3B"/>
<path d="M234.259 253.543L252.165 232.334C252.759 231.666 253.725 231.592 254.394 232.111C255.062 232.705 255.137 233.669 254.542 234.336L236.637 255.545C236.042 256.212 235.076 256.287 234.408 255.767C233.739 255.248 233.665 254.21 234.259 253.543Z" fill="#2F2E3B"/>
<path d="M262.195 261.255C264.647 259.105 267.321 257.251 270.219 255.693L278.392 263.109L268.733 269.042L258.406 274.826L252.833 266.149L262.195 261.255Z" fill="white"/>
<path d="M258.629 246.275C253.874 246.943 244.661 253.098 244.661 253.098L254.765 261.181L262.863 253.617L265.91 251.689L264.127 244.496L258.629 246.275Z" fill="white"/>
<path d="M250.53 242.864L255.657 247.239L258.628 246.275L252.09 242.419L250.53 242.864Z" fill="white"/>
<path d="M262.195 261.255L265.761 255.693L264.201 254.358L257.737 262.516L256.92 264.073L262.195 261.255Z" fill="white"/>
</svg>
