<svg width="431" height="579" viewBox="0 0 431 579" fill="none" xmlns="http://www.w3.org/2000/svg">
<g clip-path="url(#clip0)">
<path d="M215.5 517.541C334.517 517.541 431 420.925 431 301.742C431 182.559 334.517 85.9429 215.5 85.9429C96.4826 85.9429 0 182.559 0 301.742C0 420.925 96.4826 517.541 215.5 517.541Z" fill="#FFCF5C"/>
<path d="M330.328 96.0538L274.102 183.682L263.015 176.545L317.261 91.8905C319.538 88.3219 324.289 87.3307 327.853 89.6106L329.041 90.4036C330.922 91.5931 331.516 94.1704 330.328 96.0538Z" fill="#2F2E3B"/>
<path d="M273.607 184.277L262.52 177.14L91.4662 443.791C91.1693 444.287 91.2683 444.881 91.7632 445.179C92.0602 445.377 92.4561 445.377 92.7531 445.179L102.553 439.925C107.404 437.348 111.858 433.779 115.521 429.616C117.302 427.633 273.607 184.277 273.607 184.277Z" fill="white"/>
<path d="M120.173 90.6019L174.419 175.058L163.333 182.195L107.107 94.6661C105.919 92.7827 106.414 90.3045 108.294 89.0159L109.581 88.2229C113.145 86.0421 117.896 87.0334 120.173 90.6019Z" fill="#2F2E3B"/>
<path d="M163.729 183.186L174.815 176.049L345.869 442.701C346.166 443.196 346.067 443.791 345.572 444.088C345.275 444.287 344.879 444.287 344.582 444.088L334.782 438.835C329.833 436.257 325.477 432.788 321.815 428.525C320.132 426.543 163.729 183.186 163.729 183.186Z" fill="white"/>
<path d="M176.894 477.692L145.712 471.348L135.616 546.288C128.29 555.011 119.579 562.446 109.878 568.393V578.009C109.878 578.009 151.058 579 152.642 578.009C154.226 577.017 153.038 571.863 152.84 567.997C152.642 564.131 150.563 550.352 150.563 550.352C150.761 549.658 162.046 517.74 165.51 507.629C167.589 501.582 176.894 477.692 176.894 477.692Z" fill="#25252D"/>
<path d="M96.9107 578.405C96.9107 574.539 98.2965 567.303 106.315 565.32C117.401 562.644 147.494 578.405 147.494 578.405H96.9107Z" fill="#2F2E3B"/>
<path d="M261.53 478.089L292.712 471.745L302.71 546.784C310.035 555.507 318.746 562.941 328.447 568.889V578.504C328.447 578.504 287.267 579.496 285.684 578.504C284.1 577.513 285.288 572.358 285.486 568.493C285.684 564.627 287.762 550.848 287.762 550.848C287.564 550.154 276.28 518.235 272.815 508.124C270.736 501.978 261.53 478.089 261.53 478.089Z" fill="#25252D"/>
<path d="M341.514 578.802C341.514 574.936 340.128 567.699 332.11 565.717C321.023 563.04 290.93 578.802 290.93 578.802H341.514Z" fill="#2F2E3B"/>
<path d="M163.432 178.726L162.442 178.626L163.926 163.064L148.781 157.81L150.266 141.85L135.121 136.597L136.704 120.538L121.559 115.284L123.143 98.9285L124.133 99.0276L122.648 114.591L137.793 119.943L136.209 135.903L151.355 141.157L149.87 157.116L164.916 162.37L163.432 178.726Z" fill="#FFCF5C"/>
<path d="M265.688 175.256L265.292 174.265L280.14 169.11L278.556 153.151L293.702 147.897L292.217 131.938L307.263 126.684L305.778 110.725L321.32 105.273L321.617 106.264L306.867 111.419L308.352 127.378L293.207 132.632L294.791 148.591L279.645 153.845L281.13 169.804L265.688 175.256Z" fill="#FFCF5C"/>
<path d="M120.866 90.6018C118.292 86.5376 112.848 85.348 108.69 87.9253L107.305 88.8175C105.127 90.2053 104.533 93.0799 105.919 95.2607L111.759 104.38C112.353 105.273 113.541 105.471 114.333 104.975L123.836 98.8293C124.727 98.2345 125.024 97.045 124.43 96.252L120.866 90.6018Z" fill="#2F2E3B"/>
<path d="M151.454 186.061L182.635 166.037C183.625 165.443 184.912 165.74 185.506 166.632C186.1 167.623 185.803 168.912 184.912 169.507L153.731 189.531C152.741 190.125 151.454 189.828 150.86 188.936C150.167 188.044 150.464 186.755 151.454 186.061Z" fill="#2F2E3B"/>
<path d="M316.469 91.5932C319.142 87.529 324.586 86.3395 328.645 88.9168L330.031 89.8089C332.209 91.1967 332.802 94.0714 331.417 96.2522L325.576 105.372C324.982 106.264 323.794 106.561 323.002 105.967L313.5 99.8207C312.609 99.226 312.312 98.0365 312.906 97.2435L316.469 91.5932Z" fill="#2F2E3B"/>
<path d="M283.605 190.72L252.423 170.696C251.433 170.101 251.136 168.813 251.829 167.822C252.423 166.83 253.71 166.533 254.7 167.227L285.881 187.25C286.871 187.845 287.168 189.134 286.475 190.125C285.881 191.116 284.595 191.414 283.605 190.72Z" fill="#2F2E3B"/>
<path d="M226.884 51.7442C234.209 45.8957 235.694 16.4551 215.797 4.85722C195.9 -6.74063 165.114 2.08167 158.779 33.9014C154.621 54.6189 168.975 86.3395 152.345 99.1269C149.276 101.605 145.811 103.488 142.05 104.48C141.456 104.579 141.06 105.174 141.159 105.867C141.258 106.264 141.555 106.561 141.852 106.661C148.385 108.841 160.462 111.022 168.183 106.76C199.068 90.1063 181.745 58.1875 189.961 44.2106C195.9 34.0996 207.185 38.0647 208.175 48.1757C208.967 54.8172 226.884 51.7442 226.884 51.7442Z" fill="#2F2E3B"/>
<path d="M179.864 55.7094L187.981 50.9513C187.981 50.9513 189.664 38.5604 196.989 38.5604C204.314 38.5604 205.601 42.129 205.601 42.129L209.66 41.4351C206.591 30.2338 200.454 27.1608 192.732 27.5573C183.625 28.053 176.795 39.1552 179.864 55.7094Z" fill="#24242D"/>
<path d="M164.421 21.2132C162.541 24.3852 160.858 27.7555 159.373 31.1258C166.797 1.58604 196.494 -6.44324 215.797 4.85722C235.694 16.4551 234.209 45.8957 226.884 51.7442C226.884 51.7442 226.092 51.8434 224.805 52.0416L225.399 38.3621C227.082 16.5542 209.957 3.37032 193.326 4.16333C176.696 4.95635 168.579 14.2743 164.421 21.2132Z" fill="#464552"/>
<path d="M223.221 38.4613H222.231C222.231 11.7962 203.225 4.06428 191.94 3.7669V2.77563C202.235 3.07302 210.551 7.33547 216.193 15.1665C220.647 21.3124 223.221 29.8373 223.221 38.4613Z" fill="#464552"/>
<path d="M231.833 44.8053C231.338 44.8053 230.843 44.6071 230.447 44.2106C229.656 43.4175 229.656 42.228 230.348 41.435C233.318 38.3621 234.308 31.4232 233.813 28.8459C233.615 27.7555 234.308 26.7642 235.397 26.566C236.486 26.3677 237.476 27.0616 237.674 28.152C238.268 31.5223 237.278 39.9481 233.12 44.2106C232.922 44.6071 232.427 44.8053 231.833 44.8053Z" fill="#2F2E3B"/>
<path d="M202.829 44.6072C203.819 34.9919 232.526 35.4875 234.308 44.6072C236.09 53.7269 201.938 52.5373 202.829 44.6072Z" fill="#FFB037"/>
<path d="M218.668 165.74C206.69 165.74 188.971 174.662 182.537 182.394C175.706 184.872 169.074 187.746 162.64 191.018C161.155 191.811 160.264 193.397 160.264 195.082V197.659C160.264 197.659 162.244 194.586 164.322 195.181C168.876 196.37 174.32 207.671 177.29 223.531C179.27 233.84 183.229 289.847 183.229 289.847L218.569 288.955L218.668 165.74Z" fill="#25252D"/>
<path d="M218.569 165.74C230.546 165.74 248.265 174.662 254.7 182.394C261.53 184.872 268.162 187.746 274.597 191.018C276.081 191.811 276.972 193.397 276.972 195.082V197.659C276.972 197.659 274.993 194.586 272.914 195.181C268.36 196.37 262.916 207.671 259.946 223.531C257.966 233.84 254.007 289.847 254.007 289.847L218.668 288.955L218.569 165.74Z" fill="#25252D"/>
<path d="M235.199 185.764L218.767 223.036L202.433 185.764V153.944H235.199V185.764Z" fill="white"/>
<path d="M202.433 170.102V176.149C202.433 176.149 211.045 184.475 219.361 184.178C227.676 183.88 235.298 177.14 235.298 177.14V170.102H202.433Z" fill="#CECECE"/>
<path d="M219.856 49.5634C209.858 43.3184 191.743 43.6158 177.191 60.17C167.589 71.0739 162.64 85.5464 164.026 95.36C165.411 105.174 161.254 106.561 163.135 115.086C165.015 123.611 174.122 126.585 174.122 126.585C174.122 126.585 261.431 126.882 263.708 126.585C265.985 126.288 276.181 119.25 276.873 107.156C279.447 60.2691 252.423 49.7616 240.94 46.6887C229.952 43.814 219.856 49.5634 219.856 49.5634Z" fill="#2F2E3B"/>
<path d="M240.94 46.6888C229.952 43.715 219.856 49.5635 219.856 49.5635C220.449 49.3652 218.767 50.6539 219.361 50.5548C234.308 47.3827 251.037 50.8521 262.025 66.4151C274.597 84.2579 273.508 110.923 267.37 124.702C273.013 120.538 276.477 114.095 276.972 107.156C279.447 60.2692 252.423 49.7617 240.94 46.6888Z" fill="#464552"/>
<path d="M262.124 121.827C267.469 116.375 272.221 114.591 275.884 116.672C279.546 118.754 274.102 136.597 269.548 137.092C264.995 137.588 260.639 131.938 260.639 131.938L262.124 121.827Z" fill="white"/>
<path d="M173.726 121.827C168.381 116.375 163.63 114.591 159.967 116.672C156.304 118.754 161.749 136.597 166.302 137.092C170.856 137.588 175.211 131.938 175.211 131.938L173.726 121.827Z" fill="white"/>
<path d="M218.569 63.7385C209.264 63.7385 172.143 66.3158 172.836 105.669C173.429 137.192 174.32 142.346 177.488 150.375C182.636 163.361 206.195 177.834 219.856 177.834C233.516 177.834 254.601 163.361 259.748 150.375C262.916 142.445 263.807 137.291 264.401 105.669C264.995 66.3158 227.874 63.7385 218.569 63.7385Z" fill="white"/>
<path d="M212.827 69.2896C213.322 78.3102 216.985 93.9722 231.932 99.1268C233.219 99.6224 234.605 97.4417 233.318 96.5495C231.14 95.0626 223.518 90.0071 224.112 81.284C224.112 81.284 231.932 93.4766 242.623 96.5495C243.514 96.8469 244.504 96.3513 244.9 95.5582C245.197 94.9635 245.395 94.3687 245.395 93.6748C245.395 93.6748 255.69 97.1443 262.619 96.4504C261.827 72.4617 254.502 61.0621 240.742 54.4206C226.983 47.7791 217.282 52.6363 217.282 52.6363C217.282 52.6363 212.233 57.9892 212.827 69.2896Z" fill="#CECECE"/>
<path d="M218.668 132.434C208.967 132.434 185.11 143.635 174.221 137.093C174.221 141.752 176.696 148.294 177.488 150.376C182.636 163.361 206.195 177.834 219.856 177.834H219.955C233.615 177.834 254.7 163.361 259.847 150.376C261.431 146.311 262.52 142.148 262.916 137.786C244.405 141.256 228.27 132.434 218.668 132.434Z" fill="#2F2E3B"/>
<path d="M206.393 80.9867C215.797 72.1644 218.569 63.7386 218.569 63.7386L219.856 49.5635C219.856 49.5635 211.045 41.5342 191.941 48.3739C181.547 52.0416 163.729 65.2255 163.234 89.5116C163.135 94.0714 162.64 99.7217 162.64 99.7217C162.64 99.7217 189.268 97.0452 206.393 80.9867Z" fill="#2F2E3B"/>
<path d="M164.025 194.586C158.482 197.064 158.779 203.012 157.591 208.761C156.403 214.51 156.601 264.867 156.997 269.427C157.393 273.987 157.888 281.421 169.668 279.042C175.112 277.952 183.922 274.978 183.922 274.978C183.922 274.978 178.775 216.493 171.945 203.111C170.064 199.641 167.292 196.767 164.025 194.586Z" fill="white"/>
<path d="M177.389 251.584C163.828 261.001 171.945 276.861 178.874 278.943C194.019 273.789 235.298 256.342 235.298 256.342L230.645 245.24L177.389 251.584Z" fill="#464552"/>
<path d="M272.122 193.396C277.665 195.776 278.259 200.831 279.546 206.481C280.833 212.131 281.031 263.479 280.536 268.039C279.843 274.78 275.092 279.141 268.063 277.853C262.619 276.861 253.71 274.086 253.71 274.086C253.71 274.086 259.154 213.321 264.401 202.021C266.084 198.452 268.756 195.478 272.122 193.396Z" fill="white"/>
<path d="M172.836 152.754C172.044 152.754 171.252 152.259 170.955 151.466C170.46 150.276 159.868 121.728 175.112 89.908C175.607 88.9167 176.795 88.5202 177.785 89.0159C178.775 89.5115 179.171 90.701 178.676 91.6923C164.125 121.926 174.518 149.88 174.617 150.078C175.013 151.069 174.518 152.259 173.43 152.655C173.232 152.754 173.034 152.754 172.836 152.754Z" fill="#2F2E3B"/>
<path d="M175.409 126.982C174.716 126.982 174.023 126.585 173.627 125.891C170.559 120.043 168.975 98.1357 176.993 88.223C177.686 87.3308 178.874 87.2317 179.765 87.9256C180.656 88.6195 180.755 89.809 180.062 90.7011C173.33 99.226 174.518 119.151 177.092 124.107C177.587 125.098 177.191 126.288 176.3 126.783C176.003 126.882 175.706 126.982 175.409 126.982Z" fill="#2F2E3B"/>
<path d="M261.827 164.749C261.629 164.749 261.431 164.749 261.332 164.65C260.243 164.352 259.649 163.262 259.946 162.172C260.045 161.775 270.637 123.314 258.164 92.8819C257.769 91.8906 258.263 90.7011 259.253 90.3046C260.243 89.9081 261.431 90.4037 261.827 91.395C274.795 123.116 264.203 161.676 263.708 163.262C263.51 164.253 262.718 164.749 261.827 164.749Z" fill="#2F2E3B"/>
<path d="M230.546 245.835L253.71 241.969L258.164 254.756L233.021 251.881L230.546 245.835Z" fill="white"/>
<path d="M182.537 240.184C181.745 242.563 175.409 252.08 175.409 252.08L208.868 248.114L182.537 240.184Z" fill="white"/>
<path d="M277.737 275.685C279.631 273.788 280.195 271.278 278.997 270.077C277.798 268.877 275.291 269.442 273.397 271.339C271.503 273.236 270.939 275.747 272.137 276.947C273.335 278.147 275.842 277.582 277.737 275.685Z" fill="#CECECE"/>
<path d="M165.005 278.703C166.203 277.503 165.639 274.993 163.745 273.096C161.851 271.199 159.344 270.634 158.145 271.834C156.947 273.034 157.511 275.545 159.405 277.442C161.3 279.338 163.807 279.903 165.005 278.703Z" fill="#CECECE"/>
<path d="M182.537 279.934L255.888 273.491L254.502 290.541L182.735 290.64L182.537 279.934Z" fill="#CECECE"/>
<path d="M258.857 250.692C268.459 257.333 267.271 275.176 259.253 279.042C243.613 275.969 204.215 258.82 204.215 258.82L209.165 247.817L258.857 250.692Z" fill="#464552"/>
<path d="M182.833 290.937L182.735 290.442L251.334 281.619H182.537V281.124H255.195V281.619L182.833 290.937Z" fill="#2F2E3B"/>
<path d="M225.102 246.429C224.013 244.149 199.464 189.729 197.88 184.376C196.395 179.321 194.811 175.058 200.256 171.787L201.147 172.282C196.593 175.058 197.088 178.726 198.771 184.079C200.355 189.332 225.696 245.438 225.993 246.033L225.102 246.429Z" fill="#585860"/>
<path d="M219.46 231.759L218.569 231.362L220.152 227.794C224.508 218.079 237.773 188.44 239.158 184.079C240.742 178.726 241.732 175.355 237.179 172.58L238.169 171.985C243.613 175.256 241.633 179.221 240.148 184.277C238.762 188.738 225.993 217.385 221.142 228.091L219.46 231.759Z" fill="#585860"/>
<path d="M182.24 240.284C182.24 239.986 177.884 206.878 175.508 202.021C173.133 197.163 169.074 190.522 162.046 191.315L163.036 190.72C170.856 189.729 174.914 198.551 176.3 201.525C178.676 206.481 182.933 238.697 183.13 240.085L182.24 240.284Z" fill="#585860"/>
<path d="M254.205 242.068L253.215 241.969C253.314 240.482 256.68 205.886 259.154 200.93C260.639 197.956 264.5 188.837 272.32 189.828L273.904 190.621C267.568 189.828 262.421 196.469 260.045 201.426C257.67 206.184 254.205 241.77 254.205 242.068Z" fill="#585860"/>
<path d="M100.375 435.068L99.9793 434.771L169.767 325.929L170.262 326.127L100.375 435.068Z" fill="#2F2E3B"/>
<path d="M265.839 322.13L265.423 322.398L337.64 434.995L338.056 434.727L265.839 322.13Z" fill="#2F2E3B"/>
<path d="M182.735 290.64C156.601 348.629 156.898 414.945 148.88 440.222C140.862 465.5 125.42 506.835 116.214 526.859C133.24 541.332 155.116 541.332 172.638 541.332C178.676 507.331 185.803 455.289 188.575 444.881C191.347 434.473 214.609 357.947 218.569 357.947V290.541L182.735 290.64Z" fill="#2F2E3B"/>
<path d="M176.566 423.66C177.616 416.954 175.622 411.071 172.111 410.519C168.6 409.968 164.903 414.958 163.853 421.664C162.803 428.371 164.798 434.254 168.308 434.805C171.819 435.357 175.516 430.367 176.566 423.66Z" fill="#464552"/>
<path d="M254.502 290.541C272.914 320.774 280.239 414.945 288.257 440.123C296.275 465.401 311.718 506.736 320.924 526.76C303.898 541.332 282.021 541.233 264.5 541.233C258.461 507.232 251.334 455.19 248.562 444.782C245.791 434.374 222.528 357.848 218.569 357.848V290.541H254.502Z" fill="#2F2E3B"/>
<path d="M269.951 435.305C273.461 434.754 275.456 428.871 274.406 422.164C273.356 415.458 269.659 410.468 266.148 411.019C262.637 411.57 260.643 417.454 261.693 424.16C262.743 430.867 266.44 435.857 269.951 435.305Z" fill="#464552"/>
<path d="M214.411 66.1177C214.411 75.1383 217.183 90.9986 231.833 97.0453C233.12 97.5409 234.605 95.4593 233.318 94.468C231.239 92.7828 223.914 87.3309 225.003 78.6077C225.003 78.6077 232.13 91.2959 242.623 94.9636C243.514 95.261 244.504 94.8645 244.9 94.0715C245.197 93.4767 245.395 92.882 245.593 92.2872C245.593 92.2872 256.68 96.7479 263.708 96.4505C264.203 72.4618 256.284 60.6657 243.217 52.8347C234.011 47.2836 219.361 50.6539 219.361 50.6539C219.361 50.6539 214.411 54.7181 214.411 66.1177Z" fill="#2F2E3B"/>
<path d="M164.322 90.0072C168.381 65.9194 184.219 54.0242 194.514 50.2573C207.68 45.5984 215.896 47.8783 219.856 49.8608V49.5635C219.856 49.5635 211.045 41.5342 191.941 48.3739C181.547 52.0416 163.729 65.2255 163.234 89.5116C163.135 94.0714 162.64 99.7217 162.64 99.7217C162.64 99.7217 163.828 92.6836 164.322 90.0072Z" fill="#464552"/>
<path d="M199.365 50.7529C190.258 54.0241 174.518 65.622 174.122 86.9342C174.122 87.0334 174.419 87.2316 174.419 87.2316C177.983 66.1176 192.534 55.7093 201.642 52.5372C209.462 49.7617 215.302 49.7617 219.361 50.6538C219.46 50.5547 219.856 50.5547 219.856 50.4556C219.955 50.2573 219.955 49.9599 219.856 49.7617C215.896 48.2748 209.264 47.2835 199.365 50.7529Z" fill="#464552"/>
<path d="M195.405 135.606C196.991 135.606 198.276 134.319 198.276 132.731C198.276 131.143 196.991 129.856 195.405 129.856C193.82 129.856 192.534 131.143 192.534 132.731C192.534 134.319 193.82 135.606 195.405 135.606Z" fill="#CECECE"/>
<path d="M242.029 135.308C243.615 135.308 244.9 134.021 244.9 132.434C244.9 130.846 243.615 129.559 242.029 129.559C240.444 129.559 239.158 130.846 239.158 132.434C239.158 134.021 240.444 135.308 242.029 135.308Z" fill="#CECECE"/>
<path d="M211.738 102.2C212.629 104.876 211.54 108.544 211.54 108.544C211.54 108.544 195.009 106.661 188.872 107.553C185.902 107.949 181.25 110.824 181.25 110.824C181.25 110.824 185.011 102.795 189.169 102.002C195.504 100.911 211.738 102.2 211.738 102.2Z" fill="#2F2E3B"/>
<path d="M226.785 102.2C225.894 104.876 226.983 108.544 226.983 108.544C226.983 108.544 243.514 106.661 249.651 107.553C252.621 107.949 257.274 110.824 257.274 110.824C257.274 110.824 253.512 102.795 249.354 102.002C243.019 100.911 226.785 102.2 226.785 102.2Z" fill="#2F2E3B"/>
<path d="M181.052 114.987C179.963 115.483 181.646 118.06 184.021 117.663C188.575 116.672 193.227 116.375 197.88 116.771C204.017 117.168 211.54 122.124 212.233 122.521C212.926 122.917 213.223 122.521 212.728 121.827C212.233 121.133 205.403 114.491 197.781 113.401C192.139 112.509 186.397 113.005 181.052 114.987Z" fill="#2F2E3B"/>
<path d="M202.269 119.591C202.452 116.367 199.856 113.597 196.472 113.405C193.088 113.213 190.197 115.672 190.014 118.897C189.832 122.122 192.428 124.891 195.812 125.083C199.196 125.275 202.087 122.816 202.269 119.591Z" fill="#2F2E3B"/>
<path d="M257.373 114.888C258.461 115.384 256.779 117.961 254.403 117.564C249.849 116.573 245.197 116.276 240.544 116.672C234.407 117.069 226.884 122.025 226.191 122.422C225.498 122.818 225.201 122.422 225.696 121.728C226.191 121.034 233.021 114.392 240.643 113.302C246.286 112.41 252.027 113.005 257.373 114.888Z" fill="#2F2E3B"/>
<path d="M242.653 124.89C246.038 124.698 248.633 121.929 248.451 118.704C248.269 115.479 245.377 113.02 241.993 113.212C238.609 113.404 236.013 116.174 236.196 119.398C236.378 122.623 239.269 125.082 242.653 124.89Z" fill="#2F2E3B"/>
<path d="M224.706 152.061H219.361L223.518 139.868L212.728 155.827H217.876L213.817 167.921L224.706 152.061Z" fill="#464552"/>
<path d="M190.06 120.637C190.88 120.637 191.545 119.972 191.545 119.15C191.545 118.329 190.88 117.664 190.06 117.664C189.24 117.664 188.575 118.329 188.575 119.15C188.575 119.972 189.24 120.637 190.06 120.637Z" fill="white"/>
<path d="M236.783 120.935C237.603 120.935 238.268 120.269 238.268 119.448C238.268 118.627 237.603 117.961 236.783 117.961C235.963 117.961 235.298 118.627 235.298 119.448C235.298 120.269 235.963 120.935 236.783 120.935Z" fill="white"/>
</g>
<defs>
<clipPath id="clip0">
<rect width="431" height="579" fill="white"/>
</clipPath>
</defs>
</svg>
