<svg width="60" height="60" viewBox="0 0 60 60" fill="none" xmlns="http://www.w3.org/2000/svg">
<path d="M45.7855 60H14.2145C12.7085 60 11.4877 58.7791 11.4877 57.2732V2.72684C11.4877 1.22086 12.7085 0 14.2145 0H45.7855C47.2915 0 48.5123 1.22086 48.5123 2.72684V57.2732C48.5123 58.7791 47.2915 60 45.7855 60Z" fill="#E3B340"/>
<path d="M45.7855 0H42.8947C42.9996 0.289687 43.0569 0.602109 43.0569 0.928008V55.4742C43.0569 56.9802 41.836 58.2011 40.33 58.2011H11.6498C12.0295 59.2501 13.0342 60 14.2144 60H45.7855C47.2914 60 48.5123 58.7791 48.5123 57.2732V2.72684C48.5123 1.22086 47.2914 0 45.7855 0Z" fill="#DBA82D"/>
<path d="M43.7423 50.5309H16.2578C15.6352 50.5309 15.1306 50.0261 15.1306 49.4036V4.58035C15.1306 3.95773 15.6353 3.45312 16.2578 3.45312H43.7421C44.3648 3.45312 44.8694 3.95785 44.8694 4.58035V49.4036C44.8695 50.0261 44.3648 50.5309 43.7423 50.5309Z" fill="#F2F2F2"/>
<path d="M43.7422 3.45312H38.2282C38.8508 3.45312 39.3554 3.95785 39.3554 4.58035V49.4036C39.3554 50.0262 38.8507 50.5309 38.2282 50.5309H43.7422C44.3649 50.5309 44.8695 50.0261 44.8695 49.4036V4.58035C44.8695 3.95773 44.3647 3.45312 43.7422 3.45312Z" fill="#E6E6E6"/>
<path d="M30 57.648C31.2957 57.648 32.3461 56.5976 32.3461 55.3019C32.3461 54.0062 31.2957 52.9558 30 52.9558C28.7043 52.9558 27.6539 54.0062 27.6539 55.3019C27.6539 56.5976 28.7043 57.648 30 57.648Z" fill="white"/>
<path d="M34.9437 16.81L30.0793 10.7808C30.0385 10.7303 29.9615 10.7303 29.9206 10.7808L25.0563 16.81C25.0025 16.8767 25.05 16.9759 25.1356 16.9759H27.6324C27.6887 16.9759 27.7344 17.0215 27.7344 17.0779V27.579C27.7344 27.6353 27.78 27.681 27.8363 27.681H32.1637C32.22 27.681 32.2657 27.6354 32.2657 27.579V17.0779C32.2657 17.0216 32.3113 16.9759 32.3676 16.9759H34.8644C34.95 16.9758 34.9974 16.8767 34.9437 16.81Z" fill="black"/>
<path d="M43.7423 3.45312H16.2578C15.6352 3.45312 15.1306 3.95785 15.1306 4.58035V7.47465H44.8695V4.58035C44.8695 3.95773 44.3648 3.45312 43.7423 3.45312Z" fill="#FFE29D"/>
<path d="M40.2068 43.746H20.2719C19.7859 43.746 19.3921 43.3522 19.3921 42.8662C19.3921 42.3802 19.7861 41.9863 20.2719 41.9863H40.2068C40.6928 41.9863 41.0866 42.3802 41.0866 42.8662C41.0866 43.3522 40.6928 43.746 40.2068 43.746Z" fill="#FFE29D"/>
<path d="M40.2068 47.1872H20.2719C19.7859 47.1872 19.3921 46.7933 19.3921 46.3073C19.3921 45.8214 19.7861 45.4275 20.2719 45.4275H40.2068C40.6928 45.4275 41.0866 45.8214 41.0866 46.3073C41.0866 46.7933 40.6928 47.1872 40.2068 47.1872Z" fill="#FFE29D"/>
<path d="M43.7422 3.45312H38.2282C38.8508 3.45312 39.3554 3.95785 39.3554 4.58035V7.47465H44.8695V4.58035C44.8695 3.95773 44.3647 3.45312 43.7422 3.45312Z" fill="#FFE29D"/>
<path d="M32.1638 27.6808C32.22 27.6808 32.2657 27.6353 32.2657 27.5789V17.0776C32.2657 17.0213 32.3113 16.9758 32.3677 16.9758H34.8645C34.9501 16.9758 34.9976 16.8765 34.9438 16.8098L30.0795 10.7806C30.0591 10.7553 30.0297 10.7427 30.0001 10.7427V27.6807H32.1638V27.6808Z" fill="#494949"/>
<path d="M30 39.1102C35.2094 39.1102 39.4325 34.8872 39.4325 29.6778C39.4325 24.4684 35.2094 20.2454 30 20.2454C24.7907 20.2454 20.5676 24.4684 20.5676 29.6778C20.5676 34.8872 24.7907 39.1102 30 39.1102Z" fill="white"/>
<path d="M36.6699 36.3474C40.3537 32.6636 40.3537 26.6911 36.6699 23.0073L23.33 36.3474C27.0137 40.0312 32.9862 40.0312 36.6699 36.3474Z" fill="#E1EFFB"/>
<path d="M29.7584 34.8918C27.9421 34.8625 26.7117 33.881 26.7117 33.1634C26.7117 32.8118 27.0194 32.3284 27.3856 32.3284C27.869 32.3284 28.2644 33.3538 29.7584 33.4709V30.0288C28.4401 29.5601 26.9754 29.0329 26.9754 27.158C26.9754 25.3124 28.3669 24.5801 29.7584 24.4336V24.0088C29.7584 23.833 29.9342 23.6719 30.1832 23.6719C30.4029 23.6719 30.6226 23.833 30.6226 24.0088V24.4043C31.6186 24.4336 33.0247 24.7412 33.0247 25.4589C33.0247 25.7372 32.8197 26.2937 32.3802 26.2937C32.0287 26.2937 31.6479 25.825 30.6225 25.7517V28.7251C31.8968 29.1939 33.2883 29.8383 33.2883 31.8304C33.2883 33.632 32.2044 34.628 30.6225 34.8477V35.3457C30.6225 35.5215 30.4028 35.6827 30.1831 35.6827C29.934 35.6827 29.7583 35.5215 29.7583 35.3457V34.8918H29.7584ZM29.8463 28.447V25.7813C29.026 25.8838 28.4401 26.2499 28.4401 27.0116C28.4401 27.8464 29.0699 28.1541 29.8463 28.447ZM30.5346 30.3511V33.4417C31.3256 33.2952 31.8236 32.8264 31.8236 31.9916C31.8236 31.0689 31.2524 30.6587 30.5346 30.3511Z" fill="black"/>
</svg>
