<svg width="60" height="60" viewBox="0 0 60 60" fill="none" xmlns="http://www.w3.org/2000/svg">
<g clip-path="url(#clip0)">
<path d="M10.0527 1.34912C7.42262 2.27444 6.05738 5.17202 7.01844 7.78929L23.8041 53.4673C25.2874 57.5071 29.7646 59.6705 33.8009 58.1776C37.8735 56.6711 39.9254 52.0982 38.3008 48.0362C36.7981 44.2793 32.5676 42.3015 28.7202 43.5545C27.7972 43.8551 26.9739 44.3126 26.2636 44.8837L10.0527 1.34912ZM29.885 47.5677C31.7346 46.8886 33.7846 47.8375 34.4637 49.6871C35.1428 51.5366 34.1939 53.5866 32.3443 54.2657C30.4948 54.9448 28.4448 53.9959 27.7657 52.1464C27.0866 50.2968 28.0355 48.2469 29.885 47.5677Z" fill="#656565"/>
<path d="M26.2635 44.8837L26.2634 44.8833L10.0527 1.34912C9.92886 1.39271 9.80863 1.44205 9.6905 1.4942C9.62453 1.52326 9.55937 1.5535 9.49515 1.58514C9.4675 1.59873 9.43996 1.61244 9.41277 1.62662C9.34304 1.6626 9.27449 1.70022 9.20699 1.73924C9.18988 1.74908 9.17242 1.75846 9.15554 1.76854C9.06847 1.82022 8.98328 1.874 8.90019 1.93049C8.89878 1.93143 8.89749 1.93236 8.89609 1.93342C8.89468 1.93436 8.89339 1.93541 8.89199 1.93635C8.81312 1.99026 8.73636 2.04639 8.66124 2.10428C8.64636 2.11576 8.63183 2.12748 8.61718 2.13908C8.5512 2.19112 8.48675 2.24455 8.42382 2.29951C8.41199 2.30983 8.40003 2.32014 8.38831 2.33057C8.23726 2.46522 8.09476 2.60795 7.96222 2.75854L24.9086 48.4075C24.9958 48.3374 25.0848 48.2691 25.1753 48.2025C26.4186 46.6989 28.2982 45.7408 30.4016 45.7408C34.1451 45.7408 37.1798 48.7755 37.1798 52.519C37.1798 54.6604 36.1858 56.5686 34.6352 57.8108C35.506 57.3673 36.2631 56.7743 36.8865 56.0759C36.8931 56.0685 36.9 56.0613 36.9065 56.0538C36.9752 55.9763 37.0418 55.8972 37.107 55.8172C37.1184 55.8032 37.13 55.7894 37.1414 55.7753C37.2029 55.6989 37.2626 55.6212 37.321 55.5427C37.3349 55.5242 37.3487 55.5057 37.3623 55.4869C37.4179 55.4107 37.472 55.3336 37.5247 55.2556C37.5396 55.2336 37.5544 55.2115 37.569 55.1893C37.6196 55.1127 37.6688 55.0354 37.7167 54.9574C37.7317 54.9329 37.7463 54.9081 37.761 54.8834C37.8071 54.8061 37.8522 54.7281 37.8956 54.6491C37.9099 54.623 37.9237 54.5966 37.9378 54.5704C37.9801 54.4915 38.0215 54.4122 38.061 54.3318C38.074 54.3054 38.086 54.2787 38.0988 54.2521C38.1377 54.1708 38.176 54.0891 38.212 54.0064C38.2227 53.9819 38.2324 53.9569 38.2429 53.9322C38.2793 53.8464 38.3151 53.7604 38.3483 53.6733C38.3544 53.6575 38.3597 53.6413 38.3656 53.6254C38.479 53.3228 38.5736 53.013 38.6485 52.6975C38.6516 52.6847 38.6552 52.6721 38.6583 52.6593C38.6756 52.5846 38.6901 52.5092 38.7052 52.4339C38.7143 52.3889 38.7244 52.3443 38.7326 52.2991C38.7449 52.2318 38.7548 52.1639 38.7652 52.0962C38.7736 52.0424 38.7826 51.9888 38.7897 51.9348C38.7983 51.8706 38.805 51.8061 38.8119 51.7416C38.8181 51.6835 38.8247 51.6255 38.8296 51.5672C38.8349 51.5049 38.8386 51.4423 38.8424 51.3797C38.846 51.3187 38.8496 51.2575 38.8519 51.1962C38.8541 51.1353 38.8551 51.0741 38.8558 51.013C38.8567 50.9498 38.857 50.8865 38.8562 50.823C38.8555 50.763 38.8538 50.703 38.8517 50.6428C38.8494 50.5778 38.8462 50.5128 38.8422 50.4476C38.8386 50.3888 38.8345 50.3298 38.8296 50.2709C38.824 50.2041 38.817 50.1373 38.8097 50.0705C38.8032 50.0128 38.7968 49.9552 38.789 49.8974C38.7799 49.829 38.7691 49.7605 38.7581 49.6921C38.7491 49.636 38.7403 49.5798 38.7299 49.5236C38.7169 49.4528 38.7017 49.382 38.6866 49.3114C38.6751 49.2576 38.6644 49.2037 38.6517 49.15C38.6341 49.0756 38.6142 49.0015 38.5944 48.9272C38.581 48.8772 38.5687 48.827 38.5543 48.7771C38.5305 48.6946 38.5037 48.6123 38.477 48.5301C38.4635 48.4887 38.4515 48.4471 38.4374 48.4057C38.3949 48.2822 38.3496 48.1592 38.3006 48.0365C38.0658 47.4495 37.7644 46.9058 37.4082 46.4112C37.2982 46.2584 37.1813 46.1117 37.0612 45.9683C36.9545 45.841 36.8449 45.7164 36.7308 45.5967C36.724 45.5896 36.7175 45.582 36.7107 45.5749C36.6272 45.4882 36.5418 45.4035 36.4545 45.321C36.3672 45.2385 36.2783 45.1581 36.1876 45.0798C36.0061 44.9234 35.8177 44.7756 35.6233 44.637C35.3316 44.429 35.0263 44.2415 34.7097 44.0755C33.8788 43.6398 32.9706 43.3541 32.0321 43.2381C32.0072 43.2351 31.9821 43.2318 31.9571 43.229C31.7287 43.203 31.4986 43.1864 31.2673 43.181C30.9049 43.1725 30.5398 43.1896 30.1747 43.2334C29.8095 43.2772 29.4444 43.348 29.0818 43.4467C28.9609 43.4796 28.8403 43.5156 28.72 43.5548C28.4893 43.6299 28.2648 43.7148 28.0467 43.8089C28.0466 43.809 28.0463 43.809 28.0462 43.8092C27.9481 43.8515 27.8518 43.8962 27.7563 43.9422C27.728 43.9558 27.7001 43.9698 27.6721 43.9837C27.6018 44.0186 27.5323 44.0544 27.4634 44.0912C27.4361 44.1059 27.4086 44.1204 27.3815 44.1353C27.041 44.3228 26.7196 44.5346 26.4169 44.7658C26.3659 44.8049 26.3137 44.8433 26.2635 44.8837Z" fill="#535151"/>
<path d="M58.59 37.8438H4.1025C3.32367 37.8438 2.69238 37.2126 2.69238 36.4337V9.19918C2.69238 8.42035 3.32367 7.78906 4.1025 7.78906H58.5899C59.3687 7.78906 60 8.42035 60 9.19918V36.4338C60.0001 37.2126 59.3688 37.8438 58.59 37.8438Z" fill="#FFCF5C"/>
<path d="M58.59 7.78931H54.5826V34.039C54.5826 34.8178 53.9513 35.4491 53.1725 35.4491H2.69238V36.4341C2.69238 37.2129 3.32379 37.8442 4.1025 37.8442H58.5899C59.3687 37.8442 60 37.2128 60 36.4341V9.19954C60.0001 8.42071 59.3688 7.78931 58.59 7.78931Z" fill="#E3B340"/>
<path d="M11.2009 29.7274C8.8168 29.689 7.20172 28.4008 7.20172 27.4587C7.20172 26.9972 7.60543 26.3627 8.08614 26.3627C8.72059 26.3627 9.23973 27.7086 11.2009 27.8624V23.3442C9.47048 22.729 7.54789 22.0368 7.54789 19.5758C7.54789 17.1532 9.37438 16.1919 11.2009 15.9996V15.442C11.2009 15.2113 11.4316 14.9998 11.7584 14.9998C12.0468 14.9998 12.3352 15.2113 12.3352 15.442V15.9612C13.6427 15.9996 15.4884 16.4034 15.4884 17.3455C15.4884 17.7108 15.2192 18.4414 14.6424 18.4414C14.1811 18.4414 13.6811 17.8262 12.3352 17.7301V21.6331C14.008 22.2483 15.8345 23.0943 15.8345 25.7091C15.8345 28.0739 14.4117 29.3814 12.3352 29.6698V30.3235C12.3352 30.5542 12.0468 30.7656 11.7584 30.7656C11.4316 30.7656 11.2009 30.5541 11.2009 30.3235V29.7274ZM11.3163 21.2678V17.7686C10.2396 17.9031 9.47059 18.3838 9.47059 19.3835C9.47048 20.4795 10.2972 20.8832 11.3163 21.2678ZM12.2199 23.7672V27.824C13.2582 27.6317 13.9119 27.0164 13.9119 25.9205C13.9119 24.7092 13.162 24.171 12.2199 23.7672Z" fill="black"/>
<path d="M20.3297 7.78931H18.5872V37.8444H20.3297V7.78931Z" fill="#FFE29D"/>
<path d="M28.8058 1.34912L12.595 44.8837C11.8847 44.3126 11.0614 43.8551 10.1384 43.5545C6.29099 42.3015 2.06051 44.2793 0.557816 48.0362C-1.06687 52.0981 0.984966 56.671 5.05771 58.1776C9.09389 59.6705 13.5712 57.5071 15.0545 53.4673L31.8401 7.78929C32.8012 5.17202 31.436 2.27444 28.8058 1.34912ZM11.0929 52.1464C10.4138 53.9959 8.36381 54.9448 6.51424 54.2657C4.66466 53.5866 3.71579 51.5366 4.39489 49.6871C5.074 47.8375 7.12396 46.8886 8.97354 47.5677C10.8231 48.2469 11.772 50.2968 11.0929 52.1464Z" fill="#656565"/>
<path d="M29.2486 1.5293C30.028 2.79 30.2435 4.38305 29.6922 5.88458L12.9065 51.5625C11.4232 55.6023 6.94602 57.7657 2.90972 56.2727C2.45328 56.1039 2.02378 55.8947 1.62042 55.6539C2.47753 56.764 3.6459 57.6551 5.05754 58.1773C9.09372 59.6702 13.571 57.5068 15.0544 53.467L31.8401 7.789C32.7455 5.32313 31.5854 2.60895 29.2486 1.5293Z" fill="#535151"/>
<path d="M34.8655 19.0356H30.514C30.1961 19.0356 30.0298 19.3478 30.0298 19.6562C30.0298 20.0218 30.2334 20.2872 30.514 20.2872H32.022V26.4509C32.022 26.7361 32.2987 26.9352 32.6949 26.9352C33.0294 26.9352 33.3679 26.7689 33.3679 26.4509V20.2872H34.8655C35.1506 20.2872 35.3497 20.0234 35.3497 19.6456C35.3496 19.3519 35.1981 19.0356 34.8655 19.0356Z" fill="white"/>
<path d="M41.7182 19.4305C41.6255 19.1526 41.3019 18.9729 40.894 18.9729C40.4924 18.9729 40.1729 19.1526 40.0794 19.4332L37.9937 26.2252C37.9771 26.2748 37.9771 26.3202 37.9771 26.3567C37.9771 26.6977 38.4036 26.9353 38.7864 26.9353C39.1186 26.9353 39.2415 26.7652 39.2869 26.62L39.6922 25.2158H42.106L42.5121 26.6226C42.5753 26.8244 42.7491 26.9355 43.0015 26.9355C43.3885 26.9355 43.8212 26.6881 43.8212 26.3568C43.8212 26.3064 43.8064 26.2615 43.7952 26.2282L41.7182 19.4305ZM40.0016 24.0898L40.894 21.0292L41.7864 24.0898H40.0016Z" fill="white"/>
<path d="M52.4445 26.0249L50.6647 22.9796L52.3934 19.9546C52.4588 19.8367 52.492 19.7258 52.492 19.6249C52.492 19.2593 52.0655 19.0044 51.6828 19.0044C51.4598 19.0044 51.2732 19.14 51.1605 19.38L49.796 21.8749L48.4518 19.3814C48.2869 19.0698 48.0763 19.0044 47.9288 19.0044C47.541 19.0044 47.1091 19.2593 47.1091 19.6249C47.1091 19.7257 47.1422 19.8367 47.2084 19.9557L48.9365 22.9796L47.153 26.0317C47.1024 26.133 47.0777 26.2222 47.0777 26.3043C47.0777 26.6713 47.5319 26.9667 47.9079 26.9667C48.0838 26.9667 48.2507 26.8538 48.3671 26.6543L49.796 24.051L51.2424 26.6503C51.3189 26.8034 51.4775 26.9667 51.6932 26.9667C52.0819 26.9667 52.5339 26.6773 52.5339 26.3043C52.534 26.2204 52.4997 26.1347 52.4445 26.0249Z" fill="white"/>
</g>
<defs>
<clipPath id="clip0">
<rect width="60" height="60" fill="white"/>
</clipPath>
</defs>
</svg>
