<svg width="60" height="60" viewBox="0 0 60 60" fill="none" xmlns="http://www.w3.org/2000/svg">
<g clip-path="url(#clip0)">
<path d="M33.6493 1.94971H25.2254C20.5342 1.94971 16.7312 5.75267 16.7312 10.4439V16.4483H19.7842V10.4439C19.7842 7.44357 22.2251 5.00267 25.2254 5.00267H33.6493C36.6497 5.00267 39.0906 7.44357 39.0906 10.4439V16.4483H42.1436V10.444C42.1436 5.75279 38.3406 1.94971 33.6493 1.94971Z" fill="#927266"/>
<path d="M53.9114 58.0504H6.08834C2.16584 58.0504 -0.732202 54.3943 0.163228 50.5754L5.73924 26.7925C7.15991 20.7329 12.5651 16.4485 18.789 16.4485H41.2107C47.4347 16.4485 52.8398 20.7329 54.2605 26.7925L59.8365 50.5754C60.7318 54.3943 57.8338 58.0504 53.9114 58.0504Z" fill="#FFCF5C"/>
<path d="M58.3379 56.1381C58.3631 56.1113 58.3885 56.0847 58.4132 56.0575C58.4631 56.0027 58.5114 55.9465 58.5593 55.8898C58.5813 55.8637 58.6036 55.8377 58.6252 55.8111C58.6736 55.7518 58.7204 55.6914 58.7666 55.6304C58.7857 55.605 58.8049 55.5799 58.8236 55.5542C58.8703 55.4904 58.9153 55.4256 58.9595 55.3601C58.9757 55.336 58.992 55.312 59.008 55.2875C59.0525 55.2193 59.0955 55.15 59.1373 55.08C59.1509 55.0572 59.1647 55.0345 59.178 55.0115C59.2202 54.9387 59.2607 54.8651 59.3 54.7906C59.3111 54.7694 59.3223 54.7483 59.3332 54.727C59.3727 54.6499 59.4104 54.5718 59.4466 54.4929C59.4556 54.4734 59.4645 54.4538 59.4733 54.4341C59.5097 54.3527 59.5442 54.2705 59.5769 54.1873C59.584 54.1695 59.5909 54.1516 59.5978 54.1336C59.6306 54.0481 59.6615 53.9616 59.6906 53.8744C59.696 53.8584 59.7011 53.8424 59.7063 53.8263C59.7352 53.7366 59.7622 53.6463 59.787 53.5551C59.7909 53.5409 59.7947 53.5266 59.7984 53.5124C59.8231 53.4189 59.8456 53.3248 59.8659 53.2299C59.8685 53.2175 59.8711 53.205 59.8735 53.1926C59.8936 53.0955 59.9114 52.9979 59.9267 52.8994C59.9284 52.8889 59.9298 52.8782 59.9314 52.8677C59.9465 52.7671 59.9592 52.6661 59.9691 52.5643C59.97 52.5555 59.9707 52.5467 59.9715 52.538C59.9812 52.4343 59.9885 52.3301 59.9928 52.2252C59.993 52.2181 59.9932 52.2109 59.9935 52.2039C59.9975 52.0973 59.9989 51.9902 59.9973 51.8825C59.9972 51.8772 59.9969 51.8719 59.9968 51.8666C59.9948 51.7572 59.99 51.6473 59.9819 51.537C59.9817 51.5334 59.9813 51.5299 59.981 51.5263C59.9727 51.4143 59.9613 51.3019 59.9465 51.1892C59.9463 51.1873 59.9459 51.1853 59.9457 51.1834C59.9307 51.0691 59.9124 50.9546 59.8906 50.8396V50.8395C59.874 50.7515 59.8575 50.6636 59.8367 50.5754L54.2607 26.7925C52.84 20.7329 47.4349 16.4485 41.2109 16.4485H35.5354C41.7594 16.4485 47.1645 20.7329 48.5852 26.7925L54.1612 50.5754C54.1658 50.5946 54.1701 50.6139 54.1745 50.6331C54.7678 53.2755 52.7312 55.7802 50.023 55.7802H6.08844C3.05645 55.7802 0.638402 53.5952 0.109418 50.8395C-0.595582 54.561 2.25653 58.0504 6.08844 58.0504H48.2359H53.9114C54.0325 58.0504 54.1528 58.0468 54.272 58.0399C54.3113 58.0376 54.3498 58.0328 54.3889 58.0299C54.4682 58.0238 54.5477 58.0182 54.626 58.0092C54.6737 58.0036 54.7203 57.9954 54.7677 57.9889C54.8363 57.9793 54.9052 57.9706 54.9731 57.9588C55.0238 57.9499 55.0736 57.9384 55.124 57.9283C55.1871 57.9156 55.2505 57.9039 55.3128 57.8893C55.365 57.8771 55.4159 57.8623 55.4674 57.8488C55.5266 57.8333 55.5861 57.8186 55.6446 57.8014C55.6973 57.7858 55.7489 57.7679 55.801 57.7509C55.8567 57.7327 55.9128 57.7154 55.9678 57.6958C56.021 57.6768 56.0729 57.6555 56.1253 57.6351C56.1777 57.6147 56.2304 57.595 56.282 57.5731C56.3353 57.5506 56.3873 57.526 56.4398 57.502C56.4889 57.4795 56.5384 57.4578 56.5868 57.434C56.6402 57.4079 56.6923 57.3796 56.7448 57.352C56.7904 57.3279 56.8365 57.3044 56.8814 57.2792C56.9348 57.2492 56.9871 57.2174 57.0395 57.1858C57.0816 57.1605 57.1241 57.1356 57.1656 57.1093C57.219 57.0754 57.271 57.0398 57.3233 57.0043C57.362 56.978 57.4009 56.9522 57.4388 56.9252C57.4919 56.8872 57.5437 56.8477 57.5955 56.8082C57.6307 56.7814 57.6662 56.7548 57.7007 56.7272C57.7532 56.6853 57.8045 56.6418 57.8555 56.5982C57.8874 56.571 57.9195 56.5441 57.9508 56.5162C58.0026 56.47 58.0531 56.4224 58.1033 56.3746C58.1318 56.3474 58.1606 56.3205 58.1886 56.2927C58.2392 56.2421 58.2888 56.1903 58.3379 56.1381Z" fill="#E3B340"/>
<path d="M5.74154 29.2702C5.55428 29.2702 5.3642 29.2489 5.17389 29.2043C3.84182 28.892 3.01518 27.559 3.32748 26.2269C4.14158 22.7545 6.1292 19.6221 8.92412 17.4065C11.7192 15.1911 15.2226 13.9709 18.7891 13.9709H41.2108C44.7774 13.9709 48.2808 15.1911 51.0758 17.4065C53.8708 19.622 55.8583 22.7544 56.6725 26.2269C56.9849 27.559 56.1582 28.892 54.8261 29.2043C53.4938 29.5166 52.161 28.6898 51.8487 27.3579C50.6847 22.3931 46.3102 18.9256 41.2108 18.9256H18.7892C13.6898 18.9256 9.31529 22.3931 8.15139 27.3579C7.88361 28.4996 6.86572 29.2702 5.74154 29.2702Z" fill="#FFB125"/>
<path d="M53.3348 26.3636C52.0072 20.7056 47.0226 16.7534 41.2108 16.7534H18.7891C12.9773 16.7534 7.78791 20.7018 6.47611 26.3637L5.65779 29.268C5.68568 29.2689 5.71369 29.2703 5.74158 29.2703C6.86576 29.2703 7.88365 28.4997 8.15142 27.3579C9.31533 22.3931 13.6898 18.9257 18.7892 18.9257H41.211C46.3104 18.9257 50.6849 22.3932 51.8489 27.3579C52.1265 28.5421 53.2108 29.3261 54.3842 29.2663C54.384 29.2663 53.4212 26.7315 53.3348 26.3636Z" fill="#FF901D"/>
<path d="M30 49.8456C36.1802 49.8456 41.1902 44.8355 41.1902 38.6553C41.1902 32.4751 36.1802 27.4651 30 27.4651C23.8198 27.4651 18.8098 32.4751 18.8098 38.6553C18.8098 44.8355 23.8198 49.8456 30 49.8456Z" fill="white"/>
<path d="M37.9124 30.7424L22.0876 46.5672C26.4574 50.937 33.5424 50.937 37.9122 46.5672C42.2822 42.1973 42.2822 35.1124 37.9124 30.7424Z" fill="#E1EFFB"/>
<path d="M29.6409 45.731C27.2856 45.6931 25.69 44.4203 25.69 43.4896C25.69 43.0337 26.0889 42.4069 26.5637 42.4069C27.1905 42.4069 27.7034 43.7366 29.6408 43.8885V39.4247C27.9313 38.8168 26.0318 38.1331 26.0318 35.7016C26.0318 33.3082 27.8362 32.3585 29.6408 32.1686V31.6178C29.6408 31.3899 29.8687 31.1809 30.1917 31.1809C30.4766 31.1809 30.7615 31.3899 30.7615 31.6178V32.1306C32.0531 32.1686 33.8767 32.5675 33.8767 33.4983C33.8767 33.8592 33.6108 34.581 33.0409 34.581C32.585 34.581 32.0912 33.9731 30.7615 33.8782V37.7341C32.4142 38.342 34.2187 39.1778 34.2187 41.7611C34.2187 44.0974 32.8131 45.3891 30.7616 45.6741V46.3199C30.7616 46.5478 30.4767 46.7568 30.1918 46.7568C29.8689 46.7568 29.6409 46.5478 29.6409 46.3199V45.731ZM29.755 37.3732V33.9162C28.6912 34.0491 27.9314 34.5239 27.9314 35.5117C27.9314 36.5944 28.7482 36.9934 29.755 37.3732ZM30.6477 39.8426V43.8505C31.6734 43.6606 32.3192 43.0527 32.3192 41.97C32.3192 40.7733 31.5785 40.2415 30.6477 39.8426Z" fill="black"/>
</g>
<defs>
<clipPath id="clip0">
<rect width="60" height="60" fill="white"/>
</clipPath>
</defs>
</svg>
