<svg width="170" height="45" viewBox="0 0 170 45" fill="none" xmlns="http://www.w3.org/2000/svg">
<rect width="170" height="45" rx="4" fill="#FFCF5C"/>
<path d="M57.9559 27.25H60.2279V23.426H62.9479C65.2519 23.426 66.5319 21.874 66.5319 20.018C66.5319 18.146 65.2679 16.578 62.9479 16.578H57.9559V27.25ZM64.2119 20.002C64.2119 20.898 63.5399 21.474 62.6439 21.474H60.2279V18.53H62.6439C63.5399 18.53 64.2119 19.122 64.2119 20.002ZM68.9003 18.386C69.5723 18.386 70.1163 17.842 70.1163 17.17C70.1163 16.498 69.5723 15.954 68.9003 15.954C68.2443 15.954 67.6843 16.498 67.6843 17.17C67.6843 17.842 68.2443 18.386 68.9003 18.386ZM67.8923 27.25H69.9243V19.522H67.8923V27.25ZM80.4671 27.25H82.8991L80.1471 23.25L82.8031 19.522H80.4191L78.3871 22.658H77.9231V19.522H75.8911V22.658H75.4271L73.3951 19.522H71.0111L73.6671 23.25L70.9151 27.25H73.3631L75.4271 24.034H75.8911V27.25H77.9231V24.034H78.4031L80.4671 27.25ZM93.218 27.25H95.25V19.522H87.986V27.25H90.018V21.298H93.218V27.25ZM96.5473 25.474V27.442C98.5153 27.442 99.6673 26.194 99.9713 21.842L100.019 21.298H102.499V27.25H104.531V19.522H98.2913L98.1633 21.346C97.8913 24.77 97.2833 25.474 96.5473 25.474ZM111.189 27.25H113.221V22.258C113.221 20.034 111.605 19.33 109.845 19.33C108.629 19.33 107.413 19.714 106.469 20.546L107.237 21.906C107.893 21.298 108.661 20.994 109.493 20.994C110.517 20.994 111.189 21.506 111.189 22.29V23.362C110.677 22.738 109.765 22.418 108.741 22.418C107.509 22.418 106.053 23.074 106.053 24.882C106.053 26.61 107.509 27.442 108.741 27.442C109.749 27.442 110.661 27.074 111.189 26.45V27.25ZM111.189 25.394C110.853 25.842 110.213 26.066 109.557 26.066C108.757 26.066 108.101 25.65 108.101 24.93C108.101 24.194 108.757 23.762 109.557 23.762C110.213 23.762 110.853 23.986 111.189 24.434V25.394ZM116.613 27.25H118.661V21.298H120.821V19.522H114.453V21.298H116.613V27.25ZM123.103 18.386C123.775 18.386 124.319 17.842 124.319 17.17C124.319 16.498 123.775 15.954 123.103 15.954C122.447 15.954 121.887 16.498 121.887 17.17C121.887 17.842 122.447 18.386 123.103 18.386ZM122.095 27.25H124.127V19.522H122.095V27.25ZM134.67 27.25H137.102L134.35 23.25L137.006 19.522H134.622L132.59 22.658H132.126V19.522H130.094V22.658H129.63L127.598 19.522H125.214L127.87 23.25L125.118 27.25H127.566L129.63 24.034H130.094V27.25H132.126V24.034H132.606L134.67 27.25Z" fill="black"/>
<path fill-rule="evenodd" clip-rule="evenodd" d="M40.4584 12.25C44.4243 12.25 47.6432 15.801 47.6432 20.1837C47.6432 24.5663 44.4243 28.1234 40.4584 28.1234H35.2346L30.3184 35.875V12.25H40.4584Z" fill="black"/>
<path fill-rule="evenodd" clip-rule="evenodd" d="M38.26 19.086H41.1462L35.142 28L38.26 19.086ZM37.5298 21.164H34.6494L40.6536 12.25L37.5298 21.164Z" fill="#FFCF5C"/>
</svg>
